0
SECTION
2
HEADER
9
$ACADVER
1
AC1009
9
$INSUNITS
70
4
9
$MEASUREMENT
70
1
9
$DIMSTYLE
2
ISO-DM
0
ENDSEC
0
SECTION
2
TABLES
0
TABLE
2
LTYPE
70
4
0
LTYPE
2
CONTINUOUS
70
0
3
Solid line
72
65
73
0
40
0.0000
0
LTYPE
2
HIDDEN
70
0
3
Hidden __ __ __
72
65
73
2
40
4.5000
49
3.0000
49
-1.5000
0
LTYPE
2
CENTER
70
0
3
Center ____ _ ____
72
65
73
4
40
14.0000
49
9.5000
49
-1.5000
49
1.5000
49
-1.5000
0
LTYPE
2
PHANTOM
70
0
3
Phantom ___ _ _ ___
72
65
73
6
40
20.0000
49
12.5000
49
-1.5000
49
1.5000
49
-1.5000
49
1.5000
49
-1.5000
0
ENDTAB
0
TABLE
2
LAYER
70
12
0
LAYER
2
0
70
0
62
7
6
CONTINUOUS
0
LAYER
2
DIMENSIONS
70
0
62
7
6
CONTINUOUS
0
LAYER
2
Border_ISO
70
0
62
7
6
CONTINUOUS
0
LAYER
2
Title_ISO
70
0
62
7
6
CONTINUOUS
0
LAYER
2
Visible_ISO
70
0
62
7
6
CONTINUOUS
0
LAYER
2
Sketch_Geometry_ISO
70
0
62
7
6
CONTINUOUS
0
LAYER
2
SECTION
70
0
62
7
6
CONTINUOUS
0
LAYER
2
Hidden_ISO
70
0
62
7
6
HIDDEN
0
LAYER
2
HATCH
70
0
62
7
6
CONTINUOUS
0
LAYER
2
Symbol_ISO
70
0
62
7
6
CONTINUOUS
0
LAYER
2
FRAME
70
0
62
7
6
CONTINUOUS
0
LAYER
2
TITLE
70
0
62
7
6
CONTINUOUS
0
ENDTAB
0
TABLE
2
STYLE
70
2
0
STYLE
2
STANDARD
70
0
40
0
41
1
50
0
71
0
42
2.5
3
txt
4

0
STYLE
2
BOLD
70
0
40
0
41
1
50
0
71
0
42
2.5
3
ARIALBD.TTF
4

0
ENDTAB
0
TABLE
2
DIMSTYLE
70
1
0
DIMSTYLE
2
ISO-DM
70
0
3

4

140
3.5000
141
2.5000
147
1.0000
41
2.5000
42
1.0000
44
2.5000
271
2
73
0
74
0
77
1
0
ENDTAB
0
ENDSEC
0
SECTION
2
BLOCKS
0
BLOCK
8
0
2
*D1
70
1
10
0
20
0
30
0
3
*D1
1

0
LINE
8
DIMENSIONS
10
68.1355
20
91.9667
30
0
11
89.3638
21
113.0303
31
0
0
LINE
8
DIMENSIONS
10
68.1355
20
91.9667
30
0
11
59.0542
21
91.9667
31
0
0
LINE
8
DIMENSIONS
10
91.1385
20
114.7912
30
0
11
89.3638
21
113.0303
31
0
0
LINE
8
DIMENSIONS
10
90.2385
20
114.7912
30
0
11
92.0385
21
114.7912
31
0
0
LINE
8
DIMENSIONS
10
91.1385
20
113.8912
30
0
11
91.1385
21
115.6912
31
0
0
SOLID
8
DIMENSIONS
10
89.3638
20
113.0303
30
0
11
88.3298
21
112.2978
31
0
12
88.6233
22
112.0020
32
0
13
88.6233
23
112.0020
33
0
0
TEXT
8
DIMENSIONS
10
63.5949
20
93.3425
30
0
40
3.5278
1
%%c5.00
72
1
73
0
11
63.5949
21
93.3425
31
0
7
STANDARD
0
ENDBLK
8
0
0
BLOCK
8
0
2
*D2
70
1
10
0
20
0
30
0
3
*D2
1

0
LINE
8
DIMENSIONS
10
77.6885
20
134.0412
30
0
11
77.6885
21
147.2358
31
0
0
LINE
8
DIMENSIONS
10
91.1385
20
115.2912
30
0
11
91.1385
21
147.2358
31
0
0
LINE
8
DIMENSIONS
10
91.1385
20
145.6483
30
0
11
77.6885
21
145.6483
31
0
0
SOLID
8
DIMENSIONS
10
91.1385
20
145.6483
30
0
11
89.8885
21
145.8566
31
0
12
89.8885
22
145.4400
32
0
13
89.8885
23
145.4400
33
0
0
SOLID
8
DIMENSIONS
10
77.6885
20
145.6483
30
0
11
78.9385
21
145.4400
31
0
12
78.9385
22
145.8566
32
0
13
78.9385
23
145.8566
33
0
0
TEXT
8
DIMENSIONS
10
84.4135
20
146.7419
30
0
40
3.5278
1
13.45
72
1
73
0
11
84.4135
21
146.7419
31
0
7
STANDARD
0
ENDBLK
8
0
0
BLOCK
8
0
2
*D3
70
1
10
0
20
0
30
0
3
*D3
1

0
LINE
8
DIMENSIONS
10
91.6385
20
114.7912
30
0
11
122.8780
21
114.7912
31
0
0
LINE
8
DIMENSIONS
10
78.1885
20
132.3412
30
0
11
122.8780
21
132.3412
31
0
0
LINE
8
DIMENSIONS
10
121.2905
20
114.7912
30
0
11
121.2905
21
132.3412
31
0
0
SOLID
8
DIMENSIONS
10
121.2905
20
114.7912
30
0
11
121.4989
21
116.0412
31
0
12
121.0822
22
116.0412
32
0
13
121.0822
23
116.0412
33
0
0
SOLID
8
DIMENSIONS
10
121.2905
20
132.3412
30
0
11
121.0822
21
131.0912
31
0
12
121.4989
22
131.0912
32
0
13
121.4989
23
131.0912
33
0
0
TEXT
8
DIMENSIONS
10
120.1969
20
123.5662
30
0
40
3.5278
1
17.55
50
90.0000
72
1
73
0
11
120.1969
21
123.5662
31
0
7
STANDARD
0
ENDBLK
8
0
0
BLOCK
8
0
2
*D4
70
1
10
0
20
0
30
0
3
*D4
1

0
LINE
8
DIMENSIONS
10
153.8920
20
104.2912
30
0
11
153.8920
21
78.8631
31
0
0
LINE
8
DIMENSIONS
10
150.3920
20
92.2912
30
0
11
150.3920
21
78.8631
31
0
0
LINE
8
DIMENSIONS
10
150.3920
20
80.4506
30
0
11
153.8920
21
80.4506
31
0
0
LINE
8
DIMENSIONS
10
141.4093
20
80.4506
30
0
11
150.3920
21
80.4506
31
0
0
LINE
8
DIMENSIONS
10
156.3920
20
80.4506
30
0
11
153.8920
21
80.4506
31
0
0
SOLID
8
DIMENSIONS
10
150.3920
20
80.4506
30
0
11
149.1420
21
80.6589
31
0
12
149.1420
22
80.2423
32
0
13
149.1420
23
80.2423
33
0
0
SOLID
8
DIMENSIONS
10
153.8920
20
80.4506
30
0
11
155.1420
21
80.2423
31
0
12
155.1420
22
80.6589
32
0
13
155.1420
23
80.6589
33
0
0
TEXT
8
DIMENSIONS
10
145.9007
20
81.5442
30
0
40
3.5278
1
3.50
72
1
73
0
11
145.9007
21
81.5442
31
0
7
STANDARD
0
ENDBLK
8
0
0
BLOCK
8
0
2
*D5
70
1
10
0
20
0
30
0
3
*D5
1

0
LINE
8
DIMENSIONS
10
155.2920
20
95.0912
30
0
11
155.2920
21
72.8631
31
0
0
LINE
8
DIMENSIONS
10
157.7920
20
74.4506
30
0
11
155.2920
21
74.4506
31
0
0
LINE
8
DIMENSIONS
10
150.3920
20
92.2912
30
0
11
150.3920
21
72.8631
31
0
0
LINE
8
DIMENSIONS
10
155.2920
20
74.4506
30
0
11
150.3920
21
74.4506
31
0
0
LINE
8
DIMENSIONS
10
141.4093
20
74.4506
30
0
11
150.3920
21
74.4506
31
0
0
SOLID
8
DIMENSIONS
10
155.2920
20
74.4506
30
0
11
156.5420
21
74.2423
31
0
12
156.5420
22
74.6589
32
0
13
156.5420
23
74.6589
33
0
0
SOLID
8
DIMENSIONS
10
150.3920
20
74.4506
30
0
11
149.1420
21
74.6589
31
0
12
149.1420
22
74.2423
32
0
13
149.1420
23
74.2423
33
0
0
TEXT
8
DIMENSIONS
10
145.9007
20
75.5442
30
0
40
3.5278
1
4.90
72
1
73
0
11
145.9007
21
75.5442
31
0
7
STANDARD
0
ENDBLK
8
0
0
BLOCK
8
0
2
*D6
70
1
10
0
20
0
30
0
3
*D6
1

0
LINE
8
DIMENSIONS
10
91.6385
20
96.7912
30
0
11
122.8780
21
96.7912
31
0
0
LINE
8
DIMENSIONS
10
91.6385
20
114.7912
30
0
11
122.8780
21
114.7912
31
0
0
LINE
8
DIMENSIONS
10
121.2905
20
96.7912
30
0
11
121.2905
21
114.7912
31
0
0
SOLID
8
DIMENSIONS
10
121.2905
20
96.7912
30
0
11
121.4989
21
98.0412
31
0
12
121.0822
22
98.0412
32
0
13
121.0822
23
98.0412
33
0
0
SOLID
8
DIMENSIONS
10
121.2905
20
114.7912
30
0
11
121.0822
21
113.5412
31
0
12
121.4989
22
113.5412
32
0
13
121.4989
23
113.5412
33
0
0
TEXT
8
DIMENSIONS
10
120.1969
20
105.7912
30
0
40
3.5278
1
18.00
50
90.0000
72
1
73
0
11
120.1969
21
105.7912
31
0
7
STANDARD
0
ENDBLK
8
0
0
BLOCK
8
0
2
*D7
70
1
10
0
20
0
30
0
3
*D7
1

0
LINE
8
DIMENSIONS
10
65.8284
20
99.2436
30
0
11
81.7656
21
109.0336
31
0
0
LINE
8
DIMENSIONS
10
65.8284
20
99.2436
30
0
11
54.7145
21
99.2436
31
0
0
LINE
8
DIMENSIONS
10
91.1385
20
114.7912
30
0
11
81.7656
21
109.0336
31
0
0
LINE
8
DIMENSIONS
10
90.2385
20
114.7912
30
0
11
92.0385
21
114.7912
31
0
0
LINE
8
DIMENSIONS
10
91.1385
20
113.8912
30
0
11
91.1385
21
115.6912
31
0
0
SOLID
8
DIMENSIONS
10
81.7656
20
109.0336
30
0
11
80.5915
21
108.5569
31
0
12
80.8096
22
108.2018
32
0
13
80.8096
23
108.2018
33
0
0
TEXT
8
DIMENSIONS
10
60.2715
20
100.3372
30
0
40
3.5278
1
R11.00
72
1
73
0
11
60.2715
21
100.3372
31
0
7
STANDARD
0
ENDBLK
8
0
0
BLOCK
8
0
2
*D8
70
1
10
0
20
0
30
0
3
*D8
1

0
LINE
8
DIMENSIONS
10
64.8367
20
104.4276
30
0
11
81.8347
21
111.1253
31
0
0
LINE
8
DIMENSIONS
10
64.8367
20
104.4276
30
0
11
53.4610
21
104.4276
31
0
0
LINE
8
DIMENSIONS
10
91.1385
20
114.7912
30
0
11
81.8347
21
111.1253
31
0
0
LINE
8
DIMENSIONS
10
90.2385
20
114.7912
30
0
11
92.0385
21
114.7912
31
0
0
LINE
8
DIMENSIONS
10
91.1385
20
113.8912
30
0
11
91.1385
21
115.6912
31
0
0
SOLID
8
DIMENSIONS
10
81.8347
20
111.1253
30
0
11
80.5953
21
110.8609
31
0
12
80.7481
22
110.4732
32
0
13
80.7481
23
110.4732
33
0
0
TEXT
8
DIMENSIONS
10
59.1488
20
105.5212
30
0
40
3.5278
1
R10.00
72
1
73
0
11
59.1488
21
105.5212
31
0
7
STANDARD
0
ENDBLK
8
0
0
BLOCK
8
0
2
*D9
70
1
10
0
20
0
30
0
3
*D9
1

0
LINE
8
DIMENSIONS
10
64.3408
20
129.7617
30
0
11
85.0274
21
118.2051
31
0
0
LINE
8
DIMENSIONS
10
64.3408
20
129.7617
30
0
11
53.2976
21
129.7617
31
0
0
LINE
8
DIMENSIONS
10
91.1385
20
114.7912
30
0
11
85.0274
21
118.2051
31
0
0
LINE
8
DIMENSIONS
10
90.2385
20
114.7912
30
0
11
92.0385
21
114.7912
31
0
0
LINE
8
DIMENSIONS
10
91.1385
20
113.8912
30
0
11
91.1385
21
115.6912
31
0
0
SOLID
8
DIMENSIONS
10
85.0274
20
118.2051
30
0
11
84.0377
21
118.9966
31
0
12
83.8345
22
118.6329
32
0
13
83.8345
23
118.6329
33
0
0
TEXT
8
DIMENSIONS
10
58.8192
20
131.1375
30
0
40
3.5278
1
%%c14.00
72
1
73
0
11
58.8192
21
131.1375
31
0
7
STANDARD
0
ENDBLK
8
0
0
BLOCK
8
0
2
*D10
70
1
10
0
20
0
30
0
3
*D10
1

0
LINE
8
DIMENSIONS
10
64.0703
20
136.7037
30
0
11
86.4750
21
118.5664
31
0
0
LINE
8
DIMENSIONS
10
64.0703
20
136.7037
30
0
11
53.0271
21
136.7037
31
0
0
LINE
8
DIMENSIONS
10
91.1385
20
114.7912
30
0
11
86.4750
21
118.5664
31
0
0
LINE
8
DIMENSIONS
10
90.2385
20
114.7912
30
0
11
92.0385
21
114.7912
31
0
0
LINE
8
DIMENSIONS
10
91.1385
20
113.8912
30
0
11
91.1385
21
115.6912
31
0
0
SOLID
8
DIMENSIONS
10
86.4750
20
118.5664
30
0
11
85.6345
21
119.5148
31
0
12
85.3724
22
119.1910
32
0
13
85.3724
23
119.1910
33
0
0
TEXT
8
DIMENSIONS
10
58.5487
20
138.0796
30
0
40
3.5278
1
%%c12.00
72
1
73
0
11
58.5487
21
138.0796
31
0
7
STANDARD
0
ENDBLK
8
0
0
BLOCK
8
0
2
*D11
70
1
10
0
20
0
30
0
3
*D11
1

0
LINE
8
DIMENSIONS
10
102.9351
20
86.7387
30
0
11
92.0518
21
96.0129
31
0
0
LINE
8
DIMENSIONS
10
102.9351
20
86.7387
30
0
11
117.3115
21
86.7387
31
0
0
LINE
8
DIMENSIONS
10
91.1385
20
96.7912
30
0
11
92.0518
21
96.0129
31
0
0
LINE
8
DIMENSIONS
10
90.2385
20
96.7912
30
0
11
92.0385
21
96.7912
31
0
0
LINE
8
DIMENSIONS
10
91.1385
20
95.8912
30
0
11
91.1385
21
97.6912
31
0
0
SOLID
8
DIMENSIONS
10
92.0518
20
96.0129
30
0
11
92.8681
21
95.0436
31
0
12
93.1384
22
95.3607
32
0
13
93.1384
23
95.3607
33
0
0
TEXT
8
DIMENSIONS
10
110.1233
20
88.1146
30
0
40
3.5278
1
2X %%c2.40
72
1
73
0
11
110.1233
21
88.1146
31
0
7
STANDARD
0
ENDBLK
8
0
0
BLOCK
8
0
2
*D12
70
1
10
0
20
0
30
0
3
*D12
1

0
LINE
8
DIMENSIONS
10
64.9817
20
152.5888
30
0
11
71.5269
21
145.6413
31
0
0
LINE
8
DIMENSIONS
10
64.9817
20
152.5888
30
0
11
50.8620
21
152.5888
31
0
0
LINE
8
DIMENSIONS
10
73.5841
20
143.4578
30
0
11
71.5269
21
145.6413
31
0
0
LINE
8
DIMENSIONS
10
72.6841
20
143.4578
30
0
11
74.4841
21
143.4578
31
0
0
LINE
8
DIMENSIONS
10
73.5841
20
142.5578
30
0
11
73.5841
21
144.3578
31
0
0
SOLID
8
DIMENSIONS
10
71.5269
20
145.6413
30
0
11
70.8214
21
146.6940
31
0
12
70.5181
22
146.4083
32
0
13
70.5181
23
146.4083
33
0
0
TEXT
8
DIMENSIONS
10
57.9219
20
153.6824
30
0
40
3.5278
1
2x R3.00
72
1
73
0
11
57.9219
21
153.6824
31
0
7
STANDARD
0
ENDBLK
8
0
0
BLOCK
8
0
2
*D13
70
1
10
0
20
0
30
0
3
*D13
1

0
LINE
8
DIMENSIONS
10
64.7015
20
146.6780
30
0
11
71.4688
21
144.2246
31
0
0
LINE
8
DIMENSIONS
10
64.7015
20
146.6780
30
0
11
50.5818
21
146.6780
31
0
0
LINE
8
DIMENSIONS
10
73.5841
20
143.4578
30
0
11
71.4688
21
144.2246
31
0
0
LINE
8
DIMENSIONS
10
72.6841
20
143.4578
30
0
11
74.4841
21
143.4578
31
0
0
LINE
8
DIMENSIONS
10
73.5841
20
142.5578
30
0
11
73.5841
21
144.3578
31
0
0
SOLID
8
DIMENSIONS
10
71.4688
20
144.2246
30
0
11
70.3647
21
144.8465
31
0
12
70.2227
22
144.4548
32
0
13
70.2227
23
144.4548
33
0
0
TEXT
8
DIMENSIONS
10
57.6417
20
147.7716
30
0
40
3.5278
1
2x R2.25
72
1
73
0
11
57.6417
21
147.7716
31
0
7
STANDARD
0
ENDBLK
8
0
0
BLOCK
8
0
2
*D14
70
1
10
0
20
0
30
0
3
*D14
1

0
LINE
8
DIMENSIONS
10
114.7648
20
149.6508
30
0
11
109.7430
21
144.5288
31
0
0
LINE
8
DIMENSIONS
10
114.7648
20
149.6508
30
0
11
128.8846
21
149.6508
31
0
0
LINE
8
DIMENSIONS
10
108.6928
20
143.4578
30
0
11
109.7430
21
144.5288
31
0
0
LINE
8
DIMENSIONS
10
107.7928
20
143.4578
30
0
11
109.5928
21
143.4578
31
0
0
LINE
8
DIMENSIONS
10
108.6928
20
142.5578
30
0
11
108.6928
21
144.3578
31
0
0
SOLID
8
DIMENSIONS
10
109.7430
20
144.5288
30
0
11
110.7669
21
145.2755
31
0
12
110.4693
22
145.5672
32
0
13
110.4693
23
145.5672
33
0
0
TEXT
8
DIMENSIONS
10
121.8247
20
150.7444
30
0
40
3.5278
1
2x R1.50
72
1
73
0
11
121.8247
21
150.7444
31
0
7
STANDARD
0
ENDBLK
8
0
0
BLOCK
8
0
2
*D15
70
1
10
0
20
0
30
0
3
*D15
1

0
LINE
8
DIMENSIONS
10
103.2117
20
82.7550
30
0
11
92.5731
21
95.1233
31
0
0
LINE
8
DIMENSIONS
10
103.2117
20
82.7550
30
0
11
116.9989
21
82.7550
31
0
0
LINE
8
DIMENSIONS
10
91.1385
20
96.7912
30
0
11
92.5731
21
95.1233
31
0
0
LINE
8
DIMENSIONS
10
90.2385
20
96.7912
30
0
11
92.0385
21
96.7912
31
0
0
LINE
8
DIMENSIONS
10
91.1385
20
95.8912
30
0
11
91.1385
21
97.6912
31
0
0
SOLID
8
DIMENSIONS
10
92.5731
20
95.1233
30
0
11
93.2303
21
94.0398
31
0
12
93.5462
22
94.3115
32
0
13
93.5462
23
94.3115
33
0
0
TEXT
8
DIMENSIONS
10
110.1053
20
84.1309
30
0
40
3.5278
1
2x %%c4.40
72
1
73
0
11
110.1053
21
84.1309
31
0
7
STANDARD
0
ENDBLK
8
0
0
BLOCK
8
0
2
*D16
70
1
10
0
20
0
30
0
3
*D16
1

0
LINE
8
DIMENSIONS
10
155.2920
20
95.0912
30
0
11
155.2920
21
84.8631
31
0
0
LINE
8
DIMENSIONS
10
151.8920
20
95.0912
30
0
11
151.8920
21
84.8631
31
0
0
LINE
8
DIMENSIONS
10
155.2920
20
86.4506
30
0
11
151.8920
21
86.4506
31
0
0
LINE
8
DIMENSIONS
10
157.7920
20
86.4506
30
0
11
155.2920
21
86.4506
31
0
0
LINE
8
DIMENSIONS
10
142.9093
20
86.4506
30
0
11
151.8920
21
86.4506
31
0
0
SOLID
8
DIMENSIONS
10
155.2920
20
86.4506
30
0
11
156.5420
21
86.2423
31
0
12
156.5420
22
86.6589
32
0
13
156.5420
23
86.6589
33
0
0
SOLID
8
DIMENSIONS
10
151.8920
20
86.4506
30
0
11
150.6420
21
86.6589
31
0
12
150.6420
22
86.2423
32
0
13
150.6420
23
86.2423
33
0
0
TEXT
8
DIMENSIONS
10
147.4007
20
87.5442
30
0
40
3.5278
1
3.40
72
1
73
0
11
147.4007
21
87.5442
31
0
7
STANDARD
0
ENDBLK
8
0
0
BLOCK
8
0
2
*D17
70
1
10
0
20
0
30
0
3
*D17
1

0
LINE
8
DIMENSIONS
10
157.3920
20
91.0412
30
0
11
157.3920
21
84.8631
31
0
0
LINE
8
DIMENSIONS
10
155.3920
20
91.0412
30
0
11
155.3920
21
84.8631
31
0
0
LINE
8
DIMENSIONS
10
157.3920
20
86.4506
30
0
11
155.3920
21
86.4506
31
0
0
LINE
8
DIMENSIONS
10
166.3748
20
86.4506
30
0
11
157.3920
21
86.4506
31
0
0
LINE
8
DIMENSIONS
10
152.8920
20
86.4506
30
0
11
155.3920
21
86.4506
31
0
0
SOLID
8
DIMENSIONS
10
157.3920
20
86.4506
30
0
11
158.6420
21
86.2423
31
0
12
158.6420
22
86.6589
32
0
13
158.6420
23
86.6589
33
0
0
SOLID
8
DIMENSIONS
10
155.3920
20
86.4506
30
0
11
154.1420
21
86.6589
31
0
12
154.1420
22
86.2423
32
0
13
154.1420
23
86.2423
33
0
0
TEXT
8
DIMENSIONS
10
161.8834
20
87.5442
30
0
40
3.5278
1
2.00
72
1
73
0
11
161.8834
21
87.5442
31
0
7
STANDARD
0
ENDBLK
8
0
0
BLOCK
8
0
2
*D18
70
1
10
0
20
0
30
0
3
*D18
1

0
LINE
8
DIMENSIONS
10
190.8598
20
107.7140
30
0
11
190.8598
21
85.2111
31
0
0
LINE
8
DIMENSIONS
10
189.3598
20
107.7140
30
0
11
189.3598
21
85.2111
31
0
0
LINE
8
DIMENSIONS
10
190.8598
20
86.7986
30
0
11
189.3598
21
86.7986
31
0
0
LINE
8
DIMENSIONS
10
193.3598
20
86.7986
30
0
11
190.8598
21
86.7986
31
0
0
LINE
8
DIMENSIONS
10
180.3771
20
86.7986
30
0
11
189.3598
21
86.7986
31
0
0
SOLID
8
DIMENSIONS
10
190.8598
20
86.7986
30
0
11
192.1098
21
86.5902
31
0
12
192.1098
22
87.0069
32
0
13
192.1098
23
87.0069
33
0
0
SOLID
8
DIMENSIONS
10
189.3598
20
86.7986
30
0
11
188.1098
21
87.0069
31
0
12
188.1098
22
86.5902
32
0
13
188.1098
23
86.5902
33
0
0
TEXT
8
DIMENSIONS
10
184.8684
20
87.8922
30
0
40
3.5278
1
1.50
72
1
73
0
11
184.8684
21
87.8922
31
0
7
STANDARD
0
ENDBLK
8
0
0
BLOCK
8
0
2
*D19
70
1
10
0
20
0
30
0
3
*D19
1

0
LINE
8
DIMENSIONS
10
188.8598
20
108.2140
30
0
11
176.7723
21
108.2140
31
0
0
LINE
8
DIMENSIONS
10
178.3598
20
105.7140
30
0
11
178.3598
21
108.2140
31
0
0
LINE
8
DIMENSIONS
10
178.3598
20
125.1967
30
0
11
178.3598
21
116.2140
31
0
0
LINE
8
DIMENSIONS
10
188.8598
20
116.2140
30
0
11
176.7723
21
116.2140
31
0
0
LINE
8
DIMENSIONS
10
178.3598
20
108.2140
30
0
11
178.3598
21
116.2140
31
0
0
SOLID
8
DIMENSIONS
10
178.3598
20
108.2140
30
0
11
178.1515
21
106.9640
31
0
12
178.5681
22
106.9640
32
0
13
178.5681
23
106.9640
33
0
0
SOLID
8
DIMENSIONS
10
178.3598
20
116.2140
30
0
11
178.5681
21
117.4640
31
0
12
178.1515
22
117.4640
32
0
13
178.1515
23
117.4640
33
0
0
TEXT
8
DIMENSIONS
10
177.2662
20
120.7053
30
0
40
3.5278
1
8.00
50
90.0000
72
1
73
0
11
177.2662
21
120.7053
31
0
7
STANDARD
0
ENDBLK
8
0
0
BLOCK
8
0
2
*D20
70
1
10
0
20
0
30
0
3
*D20
1

0
LINE
8
DIMENSIONS
10
204.2829
20
153.7862
30
0
11
205.8024
21
136.1256
31
0
0
LINE
8
DIMENSIONS
10
204.2829
20
153.7862
30
0
11
192.9072
21
153.7862
31
0
0
LINE
8
DIMENSIONS
10
207.8598
20
112.2140
30
0
11
205.8024
21
136.1256
31
0
0
LINE
8
DIMENSIONS
10
206.9598
20
112.2140
30
0
11
208.7598
21
112.2140
31
0
0
LINE
8
DIMENSIONS
10
207.8598
20
111.3140
30
0
11
207.8598
21
113.1140
31
0
0
SOLID
8
DIMENSIONS
10
205.8024
20
136.1256
30
0
11
205.9028
21
137.3889
31
0
12
205.4877
22
137.3531
32
0
13
205.4877
23
137.3531
33
0
0
TEXT
8
DIMENSIONS
10
198.5951
20
154.8798
30
0
40
3.5278
1
R24.00
72
1
73
0
11
198.5951
21
154.8798
31
0
7
STANDARD
0
ENDBLK
8
0
0
BLOCK
8
0
2
*D21
70
1
10
0
20
0
30
0
3
*D21
1

0
LINE
8
DIMENSIONS
10
235.2360
20
85.6806
30
0
11
225.0936
21
95.5107
31
0
0
LINE
8
DIMENSIONS
10
235.2360
20
85.6806
30
0
11
246.6117
21
85.6806
31
0
0
LINE
8
DIMENSIONS
10
207.8598
20
112.2140
30
0
11
225.0936
21
95.5107
31
0
0
LINE
8
DIMENSIONS
10
206.9598
20
112.2140
30
0
11
208.7598
21
112.2140
31
0
0
LINE
8
DIMENSIONS
10
207.8598
20
111.3140
30
0
11
207.8598
21
113.1140
31
0
0
SOLID
8
DIMENSIONS
10
225.0936
20
95.5107
30
0
11
225.8462
21
94.4912
31
0
12
226.1361
22
94.7904
32
0
13
226.1361
23
94.7904
33
0
0
TEXT
8
DIMENSIONS
10
240.9238
20
86.7742
30
0
40
3.5278
1
R24.00
72
1
73
0
11
240.9238
21
86.7742
31
0
7
STANDARD
0
ENDBLK
8
0
0
BLOCK
8
0
2
*D22
70
1
10
0
20
0
30
0
3
*D22
1

0
LINE
8
DIMENSIONS
10
188.0779
20
132.6178
30
0
11
182.4221
21
156.0319
31
0
0
LINE
8
DIMENSIONS
10
195.1398
20
157.4708
30
0
11
192.7097
21
156.8838
31
0
0
LINE
8
DIMENSIONS
10
172.1561
20
151.9189
30
0
11
182.7948
21
154.4888
31
0
0
LINE
8
DIMENSIONS
10
197.6692
20
136.3524
30
0
11
192.3369
21
158.4269
31
0
0
LINE
8
DIMENSIONS
10
192.7097
20
156.8838
30
0
11
182.7948
21
154.4888
31
0
0
SOLID
8
DIMENSIONS
10
192.7097
20
156.8838
30
0
11
193.9736
21
156.9748
31
0
12
193.8758
22
157.3798
32
0
13
193.8758
23
157.3798
33
0
0
SOLID
8
DIMENSIONS
10
182.7948
20
154.4888
30
0
11
181.5309
21
154.3978
31
0
12
181.6287
22
153.9928
32
0
13
181.6287
23
153.9928
33
0
0
TEXT
8
DIMENSIONS
10
177.2187
20
154.2669
30
0
40
3.5278
1
10.20
50
13.5800
72
1
73
0
11
177.2187
21
154.2669
31
0
7
STANDARD
0
ENDBLK
8
0
0
BLOCK
8
0
2
*D23
70
1
10
0
20
0
30
0
3
*D23
1

0
LINE
8
DIMENSIONS
10
188.0993
20
136.7880
30
0
11
184.5234
21
151.5917
31
0
0
LINE
8
DIMENSIONS
10
195.2970
20
152.5610
30
0
11
192.8669
21
151.9740
31
0
0
LINE
8
DIMENSIONS
10
176.1645
20
147.9394
30
0
11
184.8961
21
150.0486
31
0
0
LINE
8
DIMENSIONS
10
196.7411
20
135.9353
30
0
11
192.4941
21
153.5171
31
0
0
LINE
8
DIMENSIONS
10
192.8669
20
151.9740
30
0
11
184.8961
21
150.0486
31
0
0
SOLID
8
DIMENSIONS
10
192.8669
20
151.9740
30
0
11
194.1309
21
152.0650
31
0
12
194.0330
22
152.4700
32
0
13
194.0330
23
152.4700
33
0
0
SOLID
8
DIMENSIONS
10
184.8961
20
150.0486
30
0
11
183.6322
21
149.9576
31
0
12
183.7300
22
149.5526
32
0
13
183.7300
23
149.5526
33
0
0
TEXT
8
DIMENSIONS
10
180.2736
20
150.0570
30
0
40
3.5278
1
8.20
50
13.5800
72
1
73
0
11
180.2736
21
150.0570
31
0
7
STANDARD
0
ENDBLK
8
0
0
BLOCK
8
0
2
*D24
70
1
10
0
20
0
30
0
3
*D24
1

0
LINE
8
DIMENSIONS
10
188.8138
20
127.4416
30
0
11
171.2320
21
123.1946
31
0
0
LINE
8
DIMENSIONS
10
169.7931
20
135.9123
30
0
11
170.3802
21
133.4822
31
0
0
LINE
8
DIMENSIONS
10
175.3450
20
112.9286
30
0
11
172.7751
21
123.5674
31
0
0
LINE
8
DIMENSIONS
10
188.4439
20
137.8456
30
0
11
168.8370
21
133.1095
31
0
0
LINE
8
DIMENSIONS
10
170.3802
20
133.4822
30
0
11
172.7751
21
123.5674
31
0
0
SOLID
8
DIMENSIONS
10
170.3802
20
133.4822
30
0
11
170.2892
21
134.7462
31
0
12
169.8841
22
134.6484
32
0
13
169.8841
23
134.6484
33
0
0
SOLID
8
DIMENSIONS
10
172.7751
20
123.5674
30
0
11
172.8661
21
122.3034
31
0
12
173.2712
22
122.4013
32
0
13
173.2712
23
122.4013
33
0
0
TEXT
8
DIMENSIONS
10
175.1231
20
118.5048
30
0
40
3.5278
1
10.20
50
-76.4200
72
1
73
0
11
175.1231
21
118.5048
31
0
7
STANDARD
0
ENDBLK
8
0
0
BLOCK
8
0
2
*D25
70
1
10
0
20
0
30
0
3
*D25
1

0
LINE
8
DIMENSIONS
10
189.5511
20
128.6485
30
0
11
176.1567
21
125.4130
31
0
0
LINE
8
DIMENSIONS
10
178.2868
20
123.3556
30
0
11
177.6998
21
125.7857
31
0
0
LINE
8
DIMENSIONS
10
173.6653
20
142.4881
30
0
11
175.7744
21
133.7565
31
0
0
LINE
8
DIMENSIONS
10
189.2395
20
137.0091
30
0
11
174.2313
21
133.3837
31
0
0
LINE
8
DIMENSIONS
10
177.6998
20
125.7857
30
0
11
175.7744
21
133.7565
31
0
0
SOLID
8
DIMENSIONS
10
177.6998
20
125.7857
30
0
11
177.7908
21
124.5218
31
0
12
178.1958
22
124.6196
32
0
13
178.1958
23
124.6196
33
0
0
SOLID
8
DIMENSIONS
10
175.7744
20
133.7565
30
0
11
175.6834
21
135.0205
31
0
12
175.2784
22
134.9226
32
0
13
175.2784
23
134.9226
33
0
0
TEXT
8
DIMENSIONS
10
175.7829
20
138.3791
30
0
40
3.5278
1
8.20
50
-76.4200
72
1
73
0
11
175.7829
21
138.3791
31
0
7
STANDARD
0
ENDBLK
8
0
0
BLOCK
8
0
2
*D26
70
1
10
0
20
0
30
0
3
*D26
1

0
LINE
8
DIMENSIONS
10
191.1348
20
129.5454
30
0
11
186.7061
21
147.8794
31
0
0
LINE
8
DIMENSIONS
10
184.6487
20
145.7493
30
0
11
187.0788
21
146.3363
31
0
0
LINE
8
DIMENSIONS
10
201.3511
20
149.7838
30
0
11
192.6195
21
147.6747
31
0
0
LINE
8
DIMENSIONS
10
196.6754
20
130.8838
30
0
11
192.2467
21
149.2178
31
0
0
LINE
8
DIMENSIONS
10
187.0788
20
146.3363
30
0
11
192.6195
21
147.6747
31
0
0
SOLID
8
DIMENSIONS
10
187.0788
20
146.3363
30
0
11
185.8149
21
146.2453
31
0
12
185.9127
22
145.8403
32
0
13
185.9127
23
145.8403
33
0
0
SOLID
8
DIMENSIONS
10
192.6195
20
147.6747
30
0
11
193.8834
21
147.7657
31
0
12
193.7856
22
148.1707
32
0
13
193.7856
23
148.1707
33
0
0
TEXT
8
DIMENSIONS
10
196.7285
20
149.7923
30
0
40
3.5278
1
5.70
50
13.5800
72
1
73
0
11
196.7285
21
149.7923
31
0
7
STANDARD
0
ENDBLK
8
0
0
BLOCK
8
0
2
*D27
70
1
10
0
20
0
30
0
3
*D27
1

0
LINE
8
DIMENSIONS
10
157.3920
20
146.4083
30
0
11
157.3920
21
152.4958
31
0
0
LINE
8
DIMENSIONS
10
159.8920
20
150.9083
30
0
11
157.3920
21
150.9083
31
0
0
LINE
8
DIMENSIONS
10
143.9093
20
150.9083
30
0
11
152.8920
21
150.9083
31
0
0
LINE
8
DIMENSIONS
10
152.8920
20
144.7746
30
0
11
152.8920
21
152.4958
31
0
0
LINE
8
DIMENSIONS
10
157.3920
20
150.9083
30
0
11
152.8920
21
150.9083
31
0
0
SOLID
8
DIMENSIONS
10
157.3920
20
150.9083
30
0
11
158.6420
21
150.7000
31
0
12
158.6420
22
151.1166
32
0
13
158.6420
23
151.1166
33
0
0
SOLID
8
DIMENSIONS
10
152.8920
20
150.9083
30
0
11
151.6420
21
151.1166
31
0
12
151.6420
22
150.7000
32
0
13
151.6420
23
150.7000
33
0
0
TEXT
8
DIMENSIONS
10
148.4007
20
152.0019
30
0
40
3.5278
1
4.50
72
1
73
0
11
148.4007
21
152.0019
31
0
7
STANDARD
0
ENDBLK
8
0
0
BLOCK
8
0
2
*D28
70
1
10
0
20
0
30
0
3
*D28
1

0
LINE
8
DIMENSIONS
10
152.3920
20
144.2746
30
0
11
140.3045
21
144.2746
31
0
0
LINE
8
DIMENSIONS
10
141.8920
20
136.2916
30
0
11
141.8920
21
138.7916
31
0
0
LINE
8
DIMENSIONS
10
141.8920
20
153.2573
30
0
11
141.8920
21
144.2746
31
0
0
LINE
8
DIMENSIONS
10
152.3920
20
138.7916
30
0
11
140.3045
21
138.7916
31
0
0
LINE
8
DIMENSIONS
10
141.8920
20
138.7916
30
0
11
141.8920
21
144.2746
31
0
0
SOLID
8
DIMENSIONS
10
141.8920
20
138.7916
30
0
11
141.6837
21
137.5416
31
0
12
142.1004
22
137.5416
32
0
13
142.1004
23
137.5416
33
0
0
SOLID
8
DIMENSIONS
10
141.8920
20
144.2746
30
0
11
142.1004
21
145.5246
31
0
12
141.6837
22
145.5246
32
0
13
141.6837
23
145.5246
33
0
0
TEXT
8
DIMENSIONS
10
140.7984
20
148.7660
30
0
40
3.5278
1
5.48
50
90.0000
72
1
73
0
11
140.7984
21
148.7660
31
0
7
STANDARD
0
ENDBLK
8
0
0
BLOCK
8
0
2
*D29
70
1
10
0
20
0
30
0
3
*D29
1

0
LINE
8
DIMENSIONS
10
157.8920
20
145.9083
30
0
11
163.9795
21
145.9083
31
0
0
LINE
8
DIMENSIONS
10
162.3920
20
136.2573
30
0
11
162.3920
21
138.7573
31
0
0
LINE
8
DIMENSIONS
10
162.3920
20
154.8910
30
0
11
162.3920
21
145.9083
31
0
0
LINE
8
DIMENSIONS
10
157.8920
20
138.7573
30
0
11
163.9795
21
138.7573
31
0
0
LINE
8
DIMENSIONS
10
162.3920
20
138.7573
30
0
11
162.3920
21
145.9083
31
0
0
SOLID
8
DIMENSIONS
10
162.3920
20
138.7573
30
0
11
162.1837
21
137.5073
31
0
12
162.6004
22
137.5073
32
0
13
162.6004
23
137.5073
33
0
0
SOLID
8
DIMENSIONS
10
162.3920
20
145.9083
30
0
11
162.6004
21
147.1583
31
0
12
162.1837
22
147.1583
32
0
13
162.1837
23
147.1583
33
0
0
TEXT
8
DIMENSIONS
10
161.2984
20
150.3997
30
0
40
3.5278
1
7.15
50
90.0000
72
1
73
0
11
161.2984
21
150.3997
31
0
7
STANDARD
0
ENDBLK
8
0
0
BLOCK
8
0
2
*D30
70
1
10
0
20
0
30
0
3
*D30
1

0
LINE
8
DIMENSIONS
10
149.8920
20
136.7912
30
0
11
140.3428
21
136.7912
31
0
0
LINE
8
DIMENSIONS
10
149.8920
20
92.7912
30
0
11
140.3428
21
92.7912
31
0
0
LINE
8
DIMENSIONS
10
141.9303
20
92.7912
30
0
11
141.9303
21
136.7912
31
0
0
SOLID
8
DIMENSIONS
10
141.9303
20
92.7912
30
0
11
142.1386
21
94.0412
31
0
12
141.7220
22
94.0412
32
0
13
141.7220
23
94.0412
33
0
0
SOLID
8
DIMENSIONS
10
141.9303
20
136.7912
30
0
11
141.7220
21
135.5412
31
0
12
142.1386
22
135.5412
32
0
13
142.1386
23
135.5412
33
0
0
TEXT
8
DIMENSIONS
10
140.8367
20
114.7912
30
0
40
3.5278
1
44.00
50
90.0000
72
1
73
0
11
140.8367
21
114.7912
31
0
7
STANDARD
0
ENDBLK
8
0
0
BLOCK
8
0
2
*D31
70
1
10
0
20
0
30
0
3
*D31
1

0
LINE
8
DIMENSIONS
10
150.3920
20
92.2912
30
0
11
150.3920
21
66.9537
31
0
0
LINE
8
DIMENSIONS
10
159.8920
20
68.5412
30
0
11
157.3920
21
68.5412
31
0
0
LINE
8
DIMENSIONS
10
141.4093
20
68.5412
30
0
11
150.3920
21
68.5412
31
0
0
LINE
8
DIMENSIONS
10
157.3920
20
91.0412
30
0
11
157.3920
21
66.9537
31
0
0
LINE
8
DIMENSIONS
10
157.3920
20
68.5412
30
0
11
150.3920
21
68.5412
31
0
0
SOLID
8
DIMENSIONS
10
157.3920
20
68.5412
30
0
11
158.6420
21
68.3329
31
0
12
158.6420
22
68.7495
32
0
13
158.6420
23
68.7495
33
0
0
SOLID
8
DIMENSIONS
10
150.3920
20
68.5412
30
0
11
149.1420
21
68.7495
31
0
12
149.1420
22
68.3329
32
0
13
149.1420
23
68.3329
33
0
0
TEXT
8
DIMENSIONS
10
145.9007
20
69.6348
30
0
40
3.5278
1
7.00
72
1
73
0
11
145.9007
21
69.6348
31
0
7
STANDARD
0
ENDBLK
8
0
0
BLOCK
8
0
2
*D32
70
1
10
0
20
0
30
0
3
*D32
1

0
LINE
8
DIMENSIONS
10
232.1676
20
115.2765
30
0
11
241.0799
21
116.3993
31
0
0
LINE
8
DIMENSIONS
10
228.8867
20
141.3180
30
0
11
237.7990
21
142.4408
31
0
0
LINE
8
DIMENSIONS
10
236.2239
20
142.2424
30
0
11
239.5048
21
116.2009
31
0
0
SOLID
8
DIMENSIONS
10
236.2239
20
142.2424
30
0
11
236.1735
21
140.9762
31
0
12
236.5869
22
141.0282
32
0
13
236.5869
23
141.0282
33
0
0
SOLID
8
DIMENSIONS
10
239.5048
20
116.2009
30
0
11
239.5553
21
117.4671
31
0
12
239.1419
22
117.4150
32
0
13
239.1419
23
117.4150
33
0
0
TEXT
8
DIMENSIONS
10
238.9494
20
129.3583
30
0
40
3.5278
1
26.25
50
-82.8192
72
1
73
0
11
238.9494
21
129.3583
31
0
7
STANDARD
0
ENDBLK
8
0
0
BLOCK
8
0
2
*D33
70
1
10
0
20
0
30
0
3
*D33
1

0
LINE
8
DIMENSIONS
10
223.3952
20
143.7395
30
0
11
216.4225
21
153.6131
31
0
0
LINE
8
DIMENSIONS
10
213.2691
20
136.5885
30
0
11
206.2964
21
146.4622
31
0
0
LINE
8
DIMENSIONS
10
207.2122
20
145.1654
30
0
11
217.3382
21
152.3164
31
0
0
SOLID
8
DIMENSIONS
10
207.2122
20
145.1654
30
0
11
208.3534
21
145.7163
31
0
12
208.1131
22
146.0567
32
0
13
208.1131
23
146.0567
33
0
0
SOLID
8
DIMENSIONS
10
217.3382
20
152.3164
30
0
11
216.1970
21
151.7655
31
0
12
216.4373
22
151.4251
32
0
13
216.4373
23
151.4251
33
0
0
TEXT
8
DIMENSIONS
10
211.6443
20
149.6342
30
0
40
3.5278
1
12.40
50
35.2295
72
1
73
0
11
211.6443
21
149.6342
31
0
7
STANDARD
0
ENDBLK
8
0
0
ENDSEC
0
SECTION
2
ENTITIES
0
POLYLINE
8
Border_ISO
66
1
70
1
10
0
20
0
30
0
0
VERTEX
8
Border_ISO
10
48.5000
20
48.0900
30
0
0
VERTEX
8
Border_ISO
10
48.5000
20
186.5900
30
0
0
VERTEX
8
Border_ISO
10
248.5000
20
186.5900
30
0
0
VERTEX
8
Border_ISO
10
248.5000
20
48.0900
30
0
0
SEQEND
8
Border_ISO
0
POLYLINE
8
Border_ISO
66
1
70
0
10
0
20
0
30
0
0
VERTEX
8
Border_ISO
10
148.5000
20
43.0900
30
0
0
VERTEX
8
Border_ISO
10
148.5000
20
48.0900
30
0
0
VERTEX
8
Border_ISO
10
147.0566
20
45.5900
30
0
0
VERTEX
8
Border_ISO
10
149.9434
20
45.5900
30
0
0
VERTEX
8
Border_ISO
10
148.5000
20
48.0900
30
0
0
SEQEND
8
Border_ISO
0
POLYLINE
8
Border_ISO
66
1
70
0
10
0
20
0
30
0
0
VERTEX
8
Border_ISO
10
148.5000
20
191.5900
30
0
0
VERTEX
8
Border_ISO
10
148.5000
20
186.5900
30
0
0
VERTEX
8
Border_ISO
10
147.0566
20
189.0900
30
0
0
VERTEX
8
Border_ISO
10
149.9434
20
189.0900
30
0
0
VERTEX
8
Border_ISO
10
148.5000
20
186.5900
30
0
0
SEQEND
8
Border_ISO
0
POLYLINE
8
Border_ISO
66
1
70
0
10
0
20
0
30
0
0
VERTEX
8
Border_ISO
10
43.5000
20
117.3400
30
0
0
VERTEX
8
Border_ISO
10
48.5000
20
117.3400
30
0
0
VERTEX
8
Border_ISO
10
46.0000
20
118.7834
30
0
0
VERTEX
8
Border_ISO
10
46.0000
20
115.8966
30
0
0
VERTEX
8
Border_ISO
10
48.5000
20
117.3400
30
0
0
SEQEND
8
Border_ISO
0
POLYLINE
8
Border_ISO
66
1
70
0
10
0
20
0
30
0
0
VERTEX
8
Border_ISO
10
253.5000
20
117.3400
30
0
0
VERTEX
8
Border_ISO
10
248.5000
20
117.3400
30
0
0
VERTEX
8
Border_ISO
10
251.0000
20
118.7834
30
0
0
VERTEX
8
Border_ISO
10
251.0000
20
115.8966
30
0
0
VERTEX
8
Border_ISO
10
248.5000
20
117.3400
30
0
0
SEQEND
8
Border_ISO
0
LINE
8
Border_ISO
10
78.5000
20
48.0900
30
0
11
78.5000
21
46.1400
31
0
0
LINE
8
Border_ISO
10
78.5000
20
186.5900
30
0
11
78.5000
21
188.5400
31
0
0
LINE
8
Border_ISO
10
113.5000
20
48.0900
30
0
11
113.5000
21
46.1400
31
0
0
LINE
8
Border_ISO
10
113.5000
20
186.5900
30
0
11
113.5000
21
188.5400
31
0
0
LINE
8
Border_ISO
10
183.5000
20
48.0900
30
0
11
183.5000
21
46.1400
31
0
0
LINE
8
Border_ISO
10
183.5000
20
186.5900
30
0
11
183.5000
21
188.5400
31
0
0
LINE
8
Border_ISO
10
218.5000
20
48.0900
30
0
11
218.5000
21
46.1400
31
0
0
LINE
8
Border_ISO
10
218.5000
20
186.5900
30
0
11
218.5000
21
188.5400
31
0
0
LINE
8
Border_ISO
10
48.5000
20
80.2150
30
0
11
46.5500
21
80.2150
31
0
0
LINE
8
Border_ISO
10
248.5000
20
80.2150
30
0
11
250.4500
21
80.2150
31
0
0
LINE
8
Border_ISO
10
48.5000
20
154.4650
30
0
11
46.5500
21
154.4650
31
0
0
LINE
8
Border_ISO
10
248.5000
20
154.4650
30
0
11
250.4500
21
154.4650
31
0
0
LINE
8
Title_ISO
10
163.5000
20
48.0900
30
0
11
248.5000
21
48.0900
31
0
0
LINE
8
Title_ISO
10
248.5000
20
48.0900
30
0
11
248.5000
21
63.0900
31
0
0
LINE
8
Title_ISO
10
248.5000
20
63.0900
30
0
11
163.5000
21
63.0900
31
0
0
LINE
8
Title_ISO
10
163.5000
20
63.0900
30
0
11
163.5000
21
48.0900
31
0
0
LINE
8
Title_ISO
10
163.5000
20
58.0900
30
0
11
248.5000
21
58.0900
31
0
0
LINE
8
Title_ISO
10
179.5000
20
58.0900
30
0
11
179.5000
21
63.0900
31
0
0
LINE
8
Title_ISO
10
192.0000
20
58.0900
30
0
11
192.0000
21
63.0900
31
0
0
LINE
8
Title_ISO
10
201.0000
20
58.0900
30
0
11
201.0000
21
48.0900
31
0
0
LINE
8
Title_ISO
10
212.0000
20
58.0900
30
0
11
212.0000
21
63.0900
31
0
0
LINE
8
Title_ISO
10
223.5000
20
58.0900
30
0
11
223.5000
21
63.0900
31
0
0
LINE
8
Title_ISO
10
248.5000
20
53.0900
30
0
11
201.0000
21
53.0900
31
0
0
LINE
8
Title_ISO
10
231.0000
20
48.0900
30
0
11
231.0000
21
53.0900
31
0
0
LINE
8
Title_ISO
10
238.5000
20
48.0900
30
0
11
238.5000
21
53.0900
31
0
0
LINE
8
Title_ISO
10
238.5000
20
58.0900
30
0
11
238.5000
21
63.0900
31
0
0
LINE
8
Visible_ISO
10
109.2727
20
139.7037
30
0
11
109.5075
21
140.6758
31
0
0
LINE
8
Visible_ISO
10
99.7903
20
139.0072
30
0
11
100.3518
21
138.7916
31
0
0
ARC
8
Visible_ISO
10
91.1385
20
114.7912
30
0
40
25.7081
50
66.9315
51
68.9990
0
LINE
8
Visible_ISO
10
101.2117
20
138.4436
30
0
11
101.1313
21
138.1108
31
0
0
LINE
8
Visible_ISO
10
102.1034
20
137.8760
30
0
11
102.1397
21
138.0265
31
0
0
ARC
8
Visible_ISO
10
91.1385
20
114.7912
30
0
40
25.7081
50
44.9055
51
64.6638
0
LINE
8
Visible_ISO
10
113.4620
20
117.6037
30
0
11
111.1342
21
136.0802
31
0
0
ARC
8
Visible_ISO
10
91.1385
20
114.7912
30
0
40
22.5000
50
172.8192
51
7.1808
0
LINE
8
Visible_ISO
10
72.0959
20
143.6453
30
0
11
68.8149
21
117.6037
31
0
0
ARC
8
Visible_ISO
10
73.5841
20
143.4578
30
0
40
1.5000
50
54.7705
51
172.8192
0
LINE
8
Visible_ISO
10
84.5754
20
137.5321
30
0
11
74.4494
21
144.6830
31
0
0
ARC
8
Visible_ISO
10
86.5944
20
140.3910
30
0
40
3.5000
50
234.7705
51
280.0653
0
ARC
8
Visible_ISO
10
91.1385
20
114.7912
30
0
40
22.5000
50
79.9347
51
100.0653
0
ARC
8
Visible_ISO
10
95.6825
20
140.3910
30
0
40
3.5000
50
259.9347
51
305.2295
0
LINE
8
Visible_ISO
10
99.7903
20
139.0072
30
0
11
97.7015
21
137.5321
31
0
0
LINE
8
Visible_ISO
10
107.8276
20
144.6830
30
0
11
104.0275
21
141.9995
31
0
0
ARC
8
Visible_ISO
10
108.6928
20
143.4578
30
0
40
1.5000
50
7.1808
51
125.2295
0
LINE
8
Visible_ISO
10
110.5881
20
140.4148
30
0
11
110.1811
21
143.6453
31
0
0
LINE
8
Visible_ISO
10
110.5881
20
140.4148
30
0
11
109.5075
21
140.6758
31
0
0
CIRCLE
8
Visible_ISO
10
91.1385
20
114.7912
30
0
40
6.0000
0
CIRCLE
8
Visible_ISO
10
91.1385
20
114.7912
30
0
40
7.0000
0
LINE
8
Visible_ISO
10
109.6385
20
118.7912
30
0
11
109.6385
21
110.7912
31
0
0
LINE
8
Visible_ISO
10
109.6385
20
110.7912
30
0
11
108.1385
21
110.7912
31
0
0
LINE
8
Visible_ISO
10
108.1385
20
110.7912
30
0
11
108.1385
21
118.7912
31
0
0
LINE
8
Visible_ISO
10
108.1385
20
118.7912
30
0
11
109.6385
21
118.7912
31
0
0
ARC
8
Visible_ISO
10
91.1385
20
114.7912
30
0
40
10.0000
50
16.1592
51
0.7104
0
LINE
8
Visible_ISO
10
102.1169
20
115.4805
30
0
11
101.1377
21
114.9152
31
0
0
ARC
8
Visible_ISO
10
91.1385
20
114.7912
30
0
40
11.0000
50
17.4391
51
3.5927
0
LINE
8
Visible_ISO
10
100.7434
20
117.5743
30
0
11
101.6329
21
118.0878
31
0
0
CIRCLE
8
Visible_ISO
10
92.3885
20
116.9563
30
0
40
1.0000
0
CIRCLE
8
Visible_ISO
10
92.3885
20
112.6261
30
0
40
1.0000
0
CIRCLE
8
Visible_ISO
10
88.6385
20
114.7912
30
0
40
1.0000
0
LINE
8
Visible_ISO
10
102.1034
20
137.8760
30
0
11
101.1313
21
138.1108
31
0
0
LINE
8
Visible_ISO
10
108.9612
20
131.3431
30
0
11
110.7815
21
138.8792
31
0
0
LINE
8
Visible_ISO
10
109.2727
20
139.7037
30
0
11
102.9421
21
141.2329
31
0
0
POLYLINE
8
Visible_ISO
66
1
70
0
10
0
20
0
30
0
0
VERTEX
8
Visible_ISO
10
113.4620
20
117.6037
30
0
0
VERTEX
8
Visible_ISO
10
113.4565
20
117.6472
30
0
0
VERTEX
8
Visible_ISO
10
113.4509
20
117.6906
30
0
0
VERTEX
8
Visible_ISO
10
113.4452
20
117.7341
30
0
0
VERTEX
8
Visible_ISO
10
113.4394
20
117.7775
30
0
0
VERTEX
8
Visible_ISO
10
113.4335
20
117.8210
30
0
0
VERTEX
8
Visible_ISO
10
113.4276
20
117.8644
30
0
0
VERTEX
8
Visible_ISO
10
113.4216
20
117.9079
30
0
0
VERTEX
8
Visible_ISO
10
113.4154
20
117.9513
30
0
0
VERTEX
8
Visible_ISO
10
113.4092
20
117.9947
30
0
0
VERTEX
8
Visible_ISO
10
113.4030
20
118.0382
30
0
0
VERTEX
8
Visible_ISO
10
113.3966
20
118.0816
30
0
0
VERTEX
8
Visible_ISO
10
113.3901
20
118.1250
30
0
0
VERTEX
8
Visible_ISO
10
113.3836
20
118.1685
30
0
0
VERTEX
8
Visible_ISO
10
113.3769
20
118.2119
30
0
0
VERTEX
8
Visible_ISO
10
113.3702
20
118.2553
30
0
0
VERTEX
8
Visible_ISO
10
113.3634
20
118.2987
30
0
0
VERTEX
8
Visible_ISO
10
113.3565
20
118.3421
30
0
0
VERTEX
8
Visible_ISO
10
113.3495
20
118.3855
30
0
0
VERTEX
8
Visible_ISO
10
113.3425
20
118.4289
30
0
0
VERTEX
8
Visible_ISO
10
113.3353
20
118.4723
30
0
0
VERTEX
8
Visible_ISO
10
113.3281
20
118.5157
30
0
0
VERTEX
8
Visible_ISO
10
113.3207
20
118.5591
30
0
0
VERTEX
8
Visible_ISO
10
113.3133
20
118.6025
30
0
0
VERTEX
8
Visible_ISO
10
113.3058
20
118.6459
30
0
0
VERTEX
8
Visible_ISO
10
113.2982
20
118.6892
30
0
0
VERTEX
8
Visible_ISO
10
113.2906
20
118.7326
30
0
0
VERTEX
8
Visible_ISO
10
113.2828
20
118.7760
30
0
0
VERTEX
8
Visible_ISO
10
113.2750
20
118.8193
30
0
0
VERTEX
8
Visible_ISO
10
113.2670
20
118.8627
30
0
0
VERTEX
8
Visible_ISO
10
113.2590
20
118.9060
30
0
0
VERTEX
8
Visible_ISO
10
113.2509
20
118.9494
30
0
0
VERTEX
8
Visible_ISO
10
113.2427
20
118.9927
30
0
0
VERTEX
8
Visible_ISO
10
113.2344
20
119.0360
30
0
0
VERTEX
8
Visible_ISO
10
113.2261
20
119.0793
30
0
0
VERTEX
8
Visible_ISO
10
113.2176
20
119.1226
30
0
0
VERTEX
8
Visible_ISO
10
113.2091
20
119.1659
30
0
0
VERTEX
8
Visible_ISO
10
113.2004
20
119.2092
30
0
0
VERTEX
8
Visible_ISO
10
113.1917
20
119.2525
30
0
0
VERTEX
8
Visible_ISO
10
113.1829
20
119.2958
30
0
0
VERTEX
8
Visible_ISO
10
113.1740
20
119.3391
30
0
0
VERTEX
8
Visible_ISO
10
113.1651
20
119.3823
30
0
0
VERTEX
8
Visible_ISO
10
113.1560
20
119.4256
30
0
0
VERTEX
8
Visible_ISO
10
113.1469
20
119.4688
30
0
0
VERTEX
8
Visible_ISO
10
113.1376
20
119.5121
30
0
0
VERTEX
8
Visible_ISO
10
113.1283
20
119.5553
30
0
0
VERTEX
8
Visible_ISO
10
113.1189
20
119.5985
30
0
0
VERTEX
8
Visible_ISO
10
113.1094
20
119.6417
30
0
0
VERTEX
8
Visible_ISO
10
113.0998
20
119.6849
30
0
0
VERTEX
8
Visible_ISO
10
113.0902
20
119.7281
30
0
0
VERTEX
8
Visible_ISO
10
113.0804
20
119.7713
30
0
0
VERTEX
8
Visible_ISO
10
113.0706
20
119.8144
30
0
0
VERTEX
8
Visible_ISO
10
113.0606
20
119.8576
30
0
0
VERTEX
8
Visible_ISO
10
113.0506
20
119.9007
30
0
0
VERTEX
8
Visible_ISO
10
113.0405
20
119.9439
30
0
0
VERTEX
8
Visible_ISO
10
113.0303
20
119.9870
30
0
0
VERTEX
8
Visible_ISO
10
113.0201
20
120.0301
30
0
0
VERTEX
8
Visible_ISO
10
113.0097
20
120.0732
30
0
0
VERTEX
8
Visible_ISO
10
112.9992
20
120.1163
30
0
0
VERTEX
8
Visible_ISO
10
112.9887
20
120.1594
30
0
0
VERTEX
8
Visible_ISO
10
112.9781
20
120.2024
30
0
0
VERTEX
8
Visible_ISO
10
112.9674
20
120.2455
30
0
0
VERTEX
8
Visible_ISO
10
112.9566
20
120.2885
30
0
0
VERTEX
8
Visible_ISO
10
112.9457
20
120.3316
30
0
0
VERTEX
8
Visible_ISO
10
112.9347
20
120.3746
30
0
0
VERTEX
8
Visible_ISO
10
112.9237
20
120.4176
30
0
0
VERTEX
8
Visible_ISO
10
112.9125
20
120.4605
30
0
0
VERTEX
8
Visible_ISO
10
112.9013
20
120.5035
30
0
0
VERTEX
8
Visible_ISO
10
112.8899
20
120.5465
30
0
0
VERTEX
8
Visible_ISO
10
112.8785
20
120.5894
30
0
0
VERTEX
8
Visible_ISO
10
112.8670
20
120.6324
30
0
0
VERTEX
8
Visible_ISO
10
112.8555
20
120.6753
30
0
0
VERTEX
8
Visible_ISO
10
112.8438
20
120.7182
30
0
0
VERTEX
8
Visible_ISO
10
112.8320
20
120.7611
30
0
0
VERTEX
8
Visible_ISO
10
112.8202
20
120.8039
30
0
0
VERTEX
8
Visible_ISO
10
112.8083
20
120.8468
30
0
0
VERTEX
8
Visible_ISO
10
112.7962
20
120.8896
30
0
0
VERTEX
8
Visible_ISO
10
112.7841
20
120.9325
30
0
0
VERTEX
8
Visible_ISO
10
112.7719
20
120.9753
30
0
0
VERTEX
8
Visible_ISO
10
112.7597
20
121.0181
30
0
0
VERTEX
8
Visible_ISO
10
112.7473
20
121.0609
30
0
0
VERTEX
8
Visible_ISO
10
112.7348
20
121.1036
30
0
0
VERTEX
8
Visible_ISO
10
112.7223
20
121.1464
30
0
0
VERTEX
8
Visible_ISO
10
112.7097
20
121.1891
30
0
0
VERTEX
8
Visible_ISO
10
112.6970
20
121.2318
30
0
0
VERTEX
8
Visible_ISO
10
112.6842
20
121.2745
30
0
0
VERTEX
8
Visible_ISO
10
112.6713
20
121.3172
30
0
0
VERTEX
8
Visible_ISO
10
112.6583
20
121.3599
30
0
0
VERTEX
8
Visible_ISO
10
112.6452
20
121.4025
30
0
0
VERTEX
8
Visible_ISO
10
112.6321
20
121.4452
30
0
0
VERTEX
8
Visible_ISO
10
112.6188
20
121.4878
30
0
0
VERTEX
8
Visible_ISO
10
112.6055
20
121.5304
30
0
0
VERTEX
8
Visible_ISO
10
112.5921
20
121.5729
30
0
0
VERTEX
8
Visible_ISO
10
112.5786
20
121.6155
30
0
0
VERTEX
8
Visible_ISO
10
112.5650
20
121.6580
30
0
0
VERTEX
8
Visible_ISO
10
112.5513
20
121.7006
30
0
0
VERTEX
8
Visible_ISO
10
112.5376
20
121.7431
30
0
0
VERTEX
8
Visible_ISO
10
112.5237
20
121.7856
30
0
0
VERTEX
8
Visible_ISO
10
112.5098
20
121.8280
30
0
0
VERTEX
8
Visible_ISO
10
112.4958
20
121.8705
30
0
0
VERTEX
8
Visible_ISO
10
112.4817
20
121.9129
30
0
0
VERTEX
8
Visible_ISO
10
112.4675
20
121.9553
30
0
0
VERTEX
8
Visible_ISO
10
112.4532
20
121.9977
30
0
0
VERTEX
8
Visible_ISO
10
112.4388
20
122.0401
30
0
0
VERTEX
8
Visible_ISO
10
112.4243
20
122.0824
30
0
0
VERTEX
8
Visible_ISO
10
112.4098
20
122.1247
30
0
0
VERTEX
8
Visible_ISO
10
112.3952
20
122.1671
30
0
0
VERTEX
8
Visible_ISO
10
112.3804
20
122.2093
30
0
0
VERTEX
8
Visible_ISO
10
112.3656
20
122.2516
30
0
0
VERTEX
8
Visible_ISO
10
112.3507
20
122.2939
30
0
0
VERTEX
8
Visible_ISO
10
112.3358
20
122.3361
30
0
0
VERTEX
8
Visible_ISO
10
112.3207
20
122.3783
30
0
0
VERTEX
8
Visible_ISO
10
112.3055
20
122.4205
30
0
0
VERTEX
8
Visible_ISO
10
112.2903
20
122.4626
30
0
0
VERTEX
8
Visible_ISO
10
112.2749
20
122.5048
30
0
0
VERTEX
8
Visible_ISO
10
112.2595
20
122.5469
30
0
0
VERTEX
8
Visible_ISO
10
112.2440
20
122.5890
30
0
0
VERTEX
8
Visible_ISO
10
112.2284
20
122.6311
30
0
0
VERTEX
8
Visible_ISO
10
112.2128
20
122.6731
30
0
0
VERTEX
8
Visible_ISO
10
112.1970
20
122.7152
30
0
0
VERTEX
8
Visible_ISO
10
112.1811
20
122.7572
30
0
0
VERTEX
8
Visible_ISO
10
112.1652
20
122.7992
30
0
0
VERTEX
8
Visible_ISO
10
112.1492
20
122.8411
30
0
0
VERTEX
8
Visible_ISO
10
112.1330
20
122.8831
30
0
0
VERTEX
8
Visible_ISO
10
112.1168
20
122.9250
30
0
0
VERTEX
8
Visible_ISO
10
112.1005
20
122.9669
30
0
0
VERTEX
8
Visible_ISO
10
112.0842
20
123.0087
30
0
0
VERTEX
8
Visible_ISO
10
112.0677
20
123.0506
30
0
0
VERTEX
8
Visible_ISO
10
112.0511
20
123.0924
30
0
0
VERTEX
8
Visible_ISO
10
112.0345
20
123.1342
30
0
0
VERTEX
8
Visible_ISO
10
112.0178
20
123.1760
30
0
0
VERTEX
8
Visible_ISO
10
112.0010
20
123.2177
30
0
0
VERTEX
8
Visible_ISO
10
111.9841
20
123.2595
30
0
0
SEQEND
8
Visible_ISO
0
POLYLINE
8
Visible_ISO
66
1
70
0
10
0
20
0
30
0
0
VERTEX
8
Visible_ISO
10
70.2929
20
123.2595
30
0
0
VERTEX
8
Visible_ISO
10
70.2760
20
123.2177
30
0
0
VERTEX
8
Visible_ISO
10
70.2592
20
123.1760
30
0
0
VERTEX
8
Visible_ISO
10
70.2424
20
123.1342
30
0
0
VERTEX
8
Visible_ISO
10
70.2258
20
123.0924
30
0
0
VERTEX
8
Visible_ISO
10
70.2092
20
123.0506
30
0
0
VERTEX
8
Visible_ISO
10
70.1928
20
123.0087
30
0
0
VERTEX
8
Visible_ISO
10
70.1764
20
122.9669
30
0
0
VERTEX
8
Visible_ISO
10
70.1601
20
122.9250
30
0
0
VERTEX
8
Visible_ISO
10
70.1439
20
122.8831
30
0
0
VERTEX
8
Visible_ISO
10
70.1278
20
122.8411
30
0
0
VERTEX
8
Visible_ISO
10
70.1118
20
122.7992
30
0
0
VERTEX
8
Visible_ISO
10
70.0958
20
122.7572
30
0
0
VERTEX
8
Visible_ISO
10
70.0800
20
122.7152
30
0
0
VERTEX
8
Visible_ISO
10
70.0642
20
122.6731
30
0
0
VERTEX
8
Visible_ISO
10
70.0485
20
122.6311
30
0
0
VERTEX
8
Visible_ISO
10
70.0329
20
122.5890
30
0
0
VERTEX
8
Visible_ISO
10
70.0174
20
122.5469
30
0
0
VERTEX
8
Visible_ISO
10
70.0020
20
122.5048
30
0
0
VERTEX
8
Visible_ISO
10
69.9867
20
122.4626
30
0
0
VERTEX
8
Visible_ISO
10
69.9714
20
122.4205
30
0
0
VERTEX
8
Visible_ISO
10
69.9563
20
122.3783
30
0
0
VERTEX
8
Visible_ISO
10
69.9412
20
122.3361
30
0
0
VERTEX
8
Visible_ISO
10
69.9262
20
122.2939
30
0
0
VERTEX
8
Visible_ISO
10
69.9113
20
122.2516
30
0
0
VERTEX
8
Visible_ISO
10
69.8965
20
122.2093
30
0
0
VERTEX
8
Visible_ISO
10
69.8818
20
122.1671
30
0
0
VERTEX
8
Visible_ISO
10
69.8671
20
122.1247
30
0
0
VERTEX
8
Visible_ISO
10
69.8526
20
122.0824
30
0
0
VERTEX
8
Visible_ISO
10
69.8381
20
122.0401
30
0
0
VERTEX
8
Visible_ISO
10
69.8238
20
121.9977
30
0
0
VERTEX
8
Visible_ISO
10
69.8095
20
121.9553
30
0
0
VERTEX
8
Visible_ISO
10
69.7953
20
121.9129
30
0
0
VERTEX
8
Visible_ISO
10
69.7812
20
121.8705
30
0
0
VERTEX
8
Visible_ISO
10
69.7671
20
121.8280
30
0
0
VERTEX
8
Visible_ISO
10
69.7532
20
121.7856
30
0
0
VERTEX
8
Visible_ISO
10
69.7394
20
121.7431
30
0
0
VERTEX
8
Visible_ISO
10
69.7256
20
121.7006
30
0
0
VERTEX
8
Visible_ISO
10
69.7119
20
121.6580
30
0
0
VERTEX
8
Visible_ISO
10
69.6983
20
121.6155
30
0
0
VERTEX
8
Visible_ISO
10
69.6848
20
121.5729
30
0
0
VERTEX
8
Visible_ISO
10
69.6714
20
121.5304
30
0
0
VERTEX
8
Visible_ISO
10
69.6581
20
121.4878
30
0
0
VERTEX
8
Visible_ISO
10
69.6449
20
121.4452
30
0
0
VERTEX
8
Visible_ISO
10
69.6317
20
121.4025
30
0
0
VERTEX
8
Visible_ISO
10
69.6186
20
121.3599
30
0
0
VERTEX
8
Visible_ISO
10
69.6057
20
121.3172
30
0
0
VERTEX
8
Visible_ISO
10
69.5928
20
121.2745
30
0
0
VERTEX
8
Visible_ISO
10
69.5800
20
121.2318
30
0
0
VERTEX
8
Visible_ISO
10
69.5673
20
121.1891
30
0
0
VERTEX
8
Visible_ISO
10
69.5546
20
121.1464
30
0
0
VERTEX
8
Visible_ISO
10
69.5421
20
121.1036
30
0
0
VERTEX
8
Visible_ISO
10
69.5296
20
121.0609
30
0
0
VERTEX
8
Visible_ISO
10
69.5173
20
121.0181
30
0
0
VERTEX
8
Visible_ISO
10
69.5050
20
120.9753
30
0
0
VERTEX
8
Visible_ISO
10
69.4928
20
120.9325
30
0
0
VERTEX
8
Visible_ISO
10
69.4807
20
120.8896
30
0
0
VERTEX
8
Visible_ISO
10
69.4687
20
120.8468
30
0
0
VERTEX
8
Visible_ISO
10
69.4567
20
120.8039
30
0
0
VERTEX
8
Visible_ISO
10
69.4449
20
120.7611
30
0
0
VERTEX
8
Visible_ISO
10
69.4331
20
120.7182
30
0
0
VERTEX
8
Visible_ISO
10
69.4215
20
120.6753
30
0
0
VERTEX
8
Visible_ISO
10
69.4099
20
120.6324
30
0
0
VERTEX
8
Visible_ISO
10
69.3984
20
120.5894
30
0
0
VERTEX
8
Visible_ISO
10
69.3870
20
120.5465
30
0
0
VERTEX
8
Visible_ISO
10
69.3757
20
120.5035
30
0
0
VERTEX
8
Visible_ISO
10
69.3644
20
120.4606
30
0
0
VERTEX
8
Visible_ISO
10
69.3533
20
120.4176
30
0
0
VERTEX
8
Visible_ISO
10
69.3422
20
120.3746
30
0
0
VERTEX
8
Visible_ISO
10
69.3313
20
120.3316
30
0
0
VERTEX
8
Visible_ISO
10
69.3204
20
120.2885
30
0
0
VERTEX
8
Visible_ISO
10
69.3096
20
120.2455
30
0
0
VERTEX
8
Visible_ISO
10
69.2989
20
120.2024
30
0
0
VERTEX
8
Visible_ISO
10
69.2882
20
120.1594
30
0
0
VERTEX
8
Visible_ISO
10
69.2777
20
120.1163
30
0
0
VERTEX
8
Visible_ISO
10
69.2672
20
120.0732
30
0
0
VERTEX
8
Visible_ISO
10
69.2569
20
120.0301
30
0
0
VERTEX
8
Visible_ISO
10
69.2466
20
119.9870
30
0
0
VERTEX
8
Visible_ISO
10
69.2364
20
119.9439
30
0
0
VERTEX
8
Visible_ISO
10
69.2263
20
119.9008
30
0
0
VERTEX
8
Visible_ISO
10
69.2163
20
119.8576
30
0
0
VERTEX
8
Visible_ISO
10
69.2064
20
119.8145
30
0
0
VERTEX
8
Visible_ISO
10
69.1965
20
119.7713
30
0
0
VERTEX
8
Visible_ISO
10
69.1868
20
119.7281
30
0
0
VERTEX
8
Visible_ISO
10
69.1771
20
119.6849
30
0
0
VERTEX
8
Visible_ISO
10
69.1675
20
119.6417
30
0
0
VERTEX
8
Visible_ISO
10
69.1580
20
119.5985
30
0
0
VERTEX
8
Visible_ISO
10
69.1486
20
119.5553
30
0
0
VERTEX
8
Visible_ISO
10
69.1393
20
119.5121
30
0
0
VERTEX
8
Visible_ISO
10
69.1301
20
119.4688
30
0
0
VERTEX
8
Visible_ISO
10
69.1209
20
119.4256
30
0
0
VERTEX
8
Visible_ISO
10
69.1119
20
119.3823
30
0
0
VERTEX
8
Visible_ISO
10
69.1029
20
119.3391
30
0
0
VERTEX
8
Visible_ISO
10
69.0940
20
119.2958
30
0
0
VERTEX
8
Visible_ISO
10
69.0852
20
119.2525
30
0
0
VERTEX
8
Visible_ISO
10
69.0765
20
119.2093
30
0
0
VERTEX
8
Visible_ISO
10
69.0679
20
119.1660
30
0
0
VERTEX
8
Visible_ISO
10
69.0593
20
119.1227
30
0
0
VERTEX
8
Visible_ISO
10
69.0509
20
119.0793
30
0
0
VERTEX
8
Visible_ISO
10
69.0425
20
119.0360
30
0
0
VERTEX
8
Visible_ISO
10
69.0342
20
118.9927
30
0
0
VERTEX
8
Visible_ISO
10
69.0260
20
118.9494
30
0
0
VERTEX
8
Visible_ISO
10
69.0179
20
118.9060
30
0
0
VERTEX
8
Visible_ISO
10
69.0099
20
118.8627
30
0
0
VERTEX
8
Visible_ISO
10
69.0020
20
118.8193
30
0
0
VERTEX
8
Visible_ISO
10
68.9941
20
118.7760
30
0
0
VERTEX
8
Visible_ISO
10
68.9864
20
118.7326
30
0
0
VERTEX
8
Visible_ISO
10
68.9787
20
118.6893
30
0
0
VERTEX
8
Visible_ISO
10
68.9711
20
118.6459
30
0
0
VERTEX
8
Visible_ISO
10
68.9636
20
118.6025
30
0
0
VERTEX
8
Visible_ISO
10
68.9562
20
118.5591
30
0
0
VERTEX
8
Visible_ISO
10
68.9489
20
118.5157
30
0
0
VERTEX
8
Visible_ISO
10
68.9416
20
118.4723
30
0
0
VERTEX
8
Visible_ISO
10
68.9345
20
118.4289
30
0
0
VERTEX
8
Visible_ISO
10
68.9274
20
118.3855
30
0
0
VERTEX
8
Visible_ISO
10
68.9204
20
118.3421
30
0
0
VERTEX
8
Visible_ISO
10
68.9135
20
118.2987
30
0
0
VERTEX
8
Visible_ISO
10
68.9067
20
118.2553
30
0
0
VERTEX
8
Visible_ISO
10
68.9000
20
118.2119
30
0
0
VERTEX
8
Visible_ISO
10
68.8934
20
118.1685
30
0
0
VERTEX
8
Visible_ISO
10
68.8868
20
118.1250
30
0
0
VERTEX
8
Visible_ISO
10
68.8804
20
118.0816
30
0
0
VERTEX
8
Visible_ISO
10
68.8740
20
118.0382
30
0
0
VERTEX
8
Visible_ISO
10
68.8677
20
117.9947
30
0
0
VERTEX
8
Visible_ISO
10
68.8615
20
117.9513
30
0
0
VERTEX
8
Visible_ISO
10
68.8554
20
117.9079
30
0
0
VERTEX
8
Visible_ISO
10
68.8493
20
117.8644
30
0
0
VERTEX
8
Visible_ISO
10
68.8434
20
117.8210
30
0
0
VERTEX
8
Visible_ISO
10
68.8375
20
117.7775
30
0
0
VERTEX
8
Visible_ISO
10
68.8318
20
117.7341
30
0
0
VERTEX
8
Visible_ISO
10
68.8261
20
117.6906
30
0
0
VERTEX
8
Visible_ISO
10
68.8205
20
117.6472
30
0
0
VERTEX
8
Visible_ISO
10
68.8149
20
117.6037
30
0
0
SEQEND
8
Visible_ISO
0
LINE
8
Visible_ISO
10
104.0275
20
141.9995
30
0
11
102.9421
21
141.2329
31
0
0
LINE
8
Visible_ISO
10
111.1342
20
136.0802
30
0
11
110.7815
21
138.8792
31
0
0
ARC
8
Visible_ISO
10
95.6825
20
140.3910
30
0
40
2.7500
50
259.9347
51
305.2295
0
ARC
8
Visible_ISO
10
91.1385
20
114.7912
30
0
40
23.2500
50
79.9347
51
100.0653
0
ARC
8
Visible_ISO
10
86.5944
20
140.3910
30
0
40
2.7500
50
234.7705
51
280.0653
0
LINE
8
Visible_ISO
10
74.8820
20
145.2957
30
0
11
85.0081
21
138.1447
31
0
0
ARC
8
Visible_ISO
10
73.5841
20
143.4578
30
0
40
2.2500
50
54.7705
51
172.8192
0
LINE
8
Visible_ISO
10
68.0708
20
117.6975
30
0
11
71.3518
21
143.7390
31
0
0
ARC
8
Visible_ISO
10
91.1385
20
114.7912
30
0
40
23.2500
50
172.8192
51
7.1808
0
LINE
8
Visible_ISO
10
110.9252
20
143.7390
30
0
11
114.2061
21
117.6975
31
0
0
ARC
8
Visible_ISO
10
108.6928
20
143.4578
30
0
40
2.2500
50
7.1808
51
125.2295
0
LINE
8
Visible_ISO
10
97.2689
20
138.1447
30
0
11
107.3949
21
145.2957
31
0
0
POLYLINE
8
Visible_ISO
66
1
70
0
10
0
20
0
30
0
0
VERTEX
8
Visible_ISO
10
87.2061
20
136.9449
30
0
0
VERTEX
8
Visible_ISO
10
87.2060
20
136.9449
30
0
0
VERTEX
8
Visible_ISO
10
87.2058
20
136.9449
30
0
0
VERTEX
8
Visible_ISO
10
87.2055
20
136.9448
30
0
0
VERTEX
8
Visible_ISO
10
87.2050
20
136.9447
30
0
0
VERTEX
8
Visible_ISO
10
87.2043
20
136.9446
30
0
0
VERTEX
8
Visible_ISO
10
87.2036
20
136.9445
30
0
0
VERTEX
8
Visible_ISO
10
87.2026
20
136.9443
30
0
0
VERTEX
8
Visible_ISO
10
87.2016
20
136.9441
30
0
0
VERTEX
8
Visible_ISO
10
87.2004
20
136.9439
30
0
0
VERTEX
8
Visible_ISO
10
87.1991
20
136.9437
30
0
0
VERTEX
8
Visible_ISO
10
87.1976
20
136.9434
30
0
0
VERTEX
8
Visible_ISO
10
87.1960
20
136.9431
30
0
0
VERTEX
8
Visible_ISO
10
87.1942
20
136.9428
30
0
0
VERTEX
8
Visible_ISO
10
87.1923
20
136.9425
30
0
0
VERTEX
8
Visible_ISO
10
87.1903
20
136.9421
30
0
0
VERTEX
8
Visible_ISO
10
87.1881
20
136.9417
30
0
0
VERTEX
8
Visible_ISO
10
87.1858
20
136.9413
30
0
0
VERTEX
8
Visible_ISO
10
87.1834
20
136.9409
30
0
0
VERTEX
8
Visible_ISO
10
87.1808
20
136.9404
30
0
0
VERTEX
8
Visible_ISO
10
87.1781
20
136.9399
30
0
0
VERTEX
8
Visible_ISO
10
87.1753
20
136.9394
30
0
0
VERTEX
8
Visible_ISO
10
87.1723
20
136.9389
30
0
0
VERTEX
8
Visible_ISO
10
87.1692
20
136.9383
30
0
0
VERTEX
8
Visible_ISO
10
87.1659
20
136.9377
30
0
0
VERTEX
8
Visible_ISO
10
87.1626
20
136.9371
30
0
0
VERTEX
8
Visible_ISO
10
87.1590
20
136.9365
30
0
0
VERTEX
8
Visible_ISO
10
87.1554
20
136.9359
30
0
0
VERTEX
8
Visible_ISO
10
87.1516
20
136.9352
30
0
0
VERTEX
8
Visible_ISO
10
87.1477
20
136.9345
30
0
0
VERTEX
8
Visible_ISO
10
87.1437
20
136.9337
30
0
0
VERTEX
8
Visible_ISO
10
87.1395
20
136.9330
30
0
0
VERTEX
8
Visible_ISO
10
87.1352
20
136.9322
30
0
0
VERTEX
8
Visible_ISO
10
87.1307
20
136.9314
30
0
0
VERTEX
8
Visible_ISO
10
87.1262
20
136.9306
30
0
0
VERTEX
8
Visible_ISO
10
87.1215
20
136.9297
30
0
0
VERTEX
8
Visible_ISO
10
87.1167
20
136.9288
30
0
0
VERTEX
8
Visible_ISO
10
87.1117
20
136.9280
30
0
0
VERTEX
8
Visible_ISO
10
87.1066
20
136.9270
30
0
0
VERTEX
8
Visible_ISO
10
87.1014
20
136.9261
30
0
0
VERTEX
8
Visible_ISO
10
87.0961
20
136.9251
30
0
0
VERTEX
8
Visible_ISO
10
87.0907
20
136.9241
30
0
0
VERTEX
8
Visible_ISO
10
87.0851
20
136.9231
30
0
0
VERTEX
8
Visible_ISO
10
87.0794
20
136.9220
30
0
0
VERTEX
8
Visible_ISO
10
87.0736
20
136.9210
30
0
0
VERTEX
8
Visible_ISO
10
87.0676
20
136.9199
30
0
0
VERTEX
8
Visible_ISO
10
87.0616
20
136.9188
30
0
0
VERTEX
8
Visible_ISO
10
87.0554
20
136.9176
30
0
0
VERTEX
8
Visible_ISO
10
87.0491
20
136.9165
30
0
0
VERTEX
8
Visible_ISO
10
87.0427
20
136.9153
30
0
0
VERTEX
8
Visible_ISO
10
87.0362
20
136.9141
30
0
0
VERTEX
8
Visible_ISO
10
87.0295
20
136.9128
30
0
0
VERTEX
8
Visible_ISO
10
87.0228
20
136.9116
30
0
0
VERTEX
8
Visible_ISO
10
87.0159
20
136.9103
30
0
0
VERTEX
8
Visible_ISO
10
87.0089
20
136.9090
30
0
0
VERTEX
8
Visible_ISO
10
87.0018
20
136.9077
30
0
0
VERTEX
8
Visible_ISO
10
86.9946
20
136.9063
30
0
0
VERTEX
8
Visible_ISO
10
86.9873
20
136.9050
30
0
0
VERTEX
8
Visible_ISO
10
86.9799
20
136.9036
30
0
0
VERTEX
8
Visible_ISO
10
86.9723
20
136.9021
30
0
0
VERTEX
8
Visible_ISO
10
86.9647
20
136.9007
30
0
0
VERTEX
8
Visible_ISO
10
86.9569
20
136.8992
30
0
0
VERTEX
8
Visible_ISO
10
86.9491
20
136.8977
30
0
0
VERTEX
8
Visible_ISO
10
86.9411
20
136.8962
30
0
0
VERTEX
8
Visible_ISO
10
86.9330
20
136.8947
30
0
0
VERTEX
8
Visible_ISO
10
86.9248
20
136.8931
30
0
0
VERTEX
8
Visible_ISO
10
86.9166
20
136.8916
30
0
0
VERTEX
8
Visible_ISO
10
86.9082
20
136.8900
30
0
0
VERTEX
8
Visible_ISO
10
86.8997
20
136.8883
30
0
0
VERTEX
8
Visible_ISO
10
86.8911
20
136.8867
30
0
0
VERTEX
8
Visible_ISO
10
86.8824
20
136.8850
30
0
0
VERTEX
8
Visible_ISO
10
86.8736
20
136.8833
30
0
0
VERTEX
8
Visible_ISO
10
86.8648
20
136.8816
30
0
0
VERTEX
8
Visible_ISO
10
86.8558
20
136.8799
30
0
0
VERTEX
8
Visible_ISO
10
86.8467
20
136.8781
30
0
0
VERTEX
8
Visible_ISO
10
86.8375
20
136.8763
30
0
0
VERTEX
8
Visible_ISO
10
86.8282
20
136.8745
30
0
0
VERTEX
8
Visible_ISO
10
86.8189
20
136.8727
30
0
0
VERTEX
8
Visible_ISO
10
86.8094
20
136.8708
30
0
0
VERTEX
8
Visible_ISO
10
86.7999
20
136.8690
30
0
0
VERTEX
8
Visible_ISO
10
86.7902
20
136.8671
30
0
0
VERTEX
8
Visible_ISO
10
86.7805
20
136.8651
30
0
0
VERTEX
8
Visible_ISO
10
86.7707
20
136.8632
30
0
0
VERTEX
8
Visible_ISO
10
86.7608
20
136.8612
30
0
0
VERTEX
8
Visible_ISO
10
86.7508
20
136.8592
30
0
0
VERTEX
8
Visible_ISO
10
86.7407
20
136.8572
30
0
0
VERTEX
8
Visible_ISO
10
86.7305
20
136.8552
30
0
0
VERTEX
8
Visible_ISO
10
86.7203
20
136.8532
30
0
0
VERTEX
8
Visible_ISO
10
86.7099
20
136.8511
30
0
0
VERTEX
8
Visible_ISO
10
86.6995
20
136.8490
30
0
0
VERTEX
8
Visible_ISO
10
86.6890
20
136.8469
30
0
0
VERTEX
8
Visible_ISO
10
86.6784
20
136.8447
30
0
0
VERTEX
8
Visible_ISO
10
86.6677
20
136.8426
30
0
0
VERTEX
8
Visible_ISO
10
86.6570
20
136.8404
30
0
0
VERTEX
8
Visible_ISO
10
86.6461
20
136.8382
30
0
0
VERTEX
8
Visible_ISO
10
86.6352
20
136.8360
30
0
0
VERTEX
8
Visible_ISO
10
86.6242
20
136.8337
30
0
0
VERTEX
8
Visible_ISO
10
86.6132
20
136.8314
30
0
0
VERTEX
8
Visible_ISO
10
86.6020
20
136.8291
30
0
0
VERTEX
8
Visible_ISO
10
86.5908
20
136.8268
30
0
0
VERTEX
8
Visible_ISO
10
86.5795
20
136.8245
30
0
0
VERTEX
8
Visible_ISO
10
86.5681
20
136.8221
30
0
0
VERTEX
8
Visible_ISO
10
86.5567
20
136.8198
30
0
0
VERTEX
8
Visible_ISO
10
86.5452
20
136.8174
30
0
0
VERTEX
8
Visible_ISO
10
86.5336
20
136.8149
30
0
0
VERTEX
8
Visible_ISO
10
86.5219
20
136.8125
30
0
0
VERTEX
8
Visible_ISO
10
86.5102
20
136.8100
30
0
0
VERTEX
8
Visible_ISO
10
86.4984
20
136.8075
30
0
0
VERTEX
8
Visible_ISO
10
86.4865
20
136.8050
30
0
0
VERTEX
8
Visible_ISO
10
86.4745
20
136.8025
30
0
0
VERTEX
8
Visible_ISO
10
86.4625
20
136.8000
30
0
0
VERTEX
8
Visible_ISO
10
86.4504
20
136.7974
30
0
0
VERTEX
8
Visible_ISO
10
86.4383
20
136.7948
30
0
0
VERTEX
8
Visible_ISO
10
86.4261
20
136.7922
30
0
0
VERTEX
8
Visible_ISO
10
86.4138
20
136.7895
30
0
0
VERTEX
8
Visible_ISO
10
86.4014
20
136.7869
30
0
0
VERTEX
8
Visible_ISO
10
86.3890
20
136.7842
30
0
0
VERTEX
8
Visible_ISO
10
86.3765
20
136.7815
30
0
0
VERTEX
8
Visible_ISO
10
86.3640
20
136.7788
30
0
0
VERTEX
8
Visible_ISO
10
86.3514
20
136.7761
30
0
0
VERTEX
8
Visible_ISO
10
86.3387
20
136.7733
30
0
0
VERTEX
8
Visible_ISO
10
86.3260
20
136.7705
30
0
0
VERTEX
8
Visible_ISO
10
86.3132
20
136.7677
30
0
0
VERTEX
8
Visible_ISO
10
86.3003
20
136.7649
30
0
0
VERTEX
8
Visible_ISO
10
86.2874
20
136.7620
30
0
0
VERTEX
8
Visible_ISO
10
86.2744
20
136.7592
30
0
0
VERTEX
8
Visible_ISO
10
86.2614
20
136.7563
30
0
0
VERTEX
8
Visible_ISO
10
86.2483
20
136.7534
30
0
0
VERTEX
8
Visible_ISO
10
86.2351
20
136.7504
30
0
0
VERTEX
8
Visible_ISO
10
86.2219
20
136.7475
30
0
0
VERTEX
8
Visible_ISO
10
86.2087
20
136.7445
30
0
0
VERTEX
8
Visible_ISO
10
86.1954
20
136.7415
30
0
0
VERTEX
8
Visible_ISO
10
86.1820
20
136.7385
30
0
0
SEQEND
8
Visible_ISO
0
POLYLINE
8
Visible_ISO
66
1
70
0
10
0
20
0
30
0
0
VERTEX
8
Visible_ISO
10
96.0949
20
136.7385
30
0
0
VERTEX
8
Visible_ISO
10
96.0816
20
136.7415
30
0
0
VERTEX
8
Visible_ISO
10
96.0683
20
136.7445
30
0
0
VERTEX
8
Visible_ISO
10
96.0550
20
136.7475
30
0
0
VERTEX
8
Visible_ISO
10
96.0418
20
136.7504
30
0
0
VERTEX
8
Visible_ISO
10
96.0286
20
136.7534
30
0
0
VERTEX
8
Visible_ISO
10
96.0156
20
136.7563
30
0
0
VERTEX
8
Visible_ISO
10
96.0025
20
136.7592
30
0
0
VERTEX
8
Visible_ISO
10
95.9895
20
136.7620
30
0
0
VERTEX
8
Visible_ISO
10
95.9766
20
136.7649
30
0
0
VERTEX
8
Visible_ISO
10
95.9638
20
136.7677
30
0
0
VERTEX
8
Visible_ISO
10
95.9510
20
136.7705
30
0
0
VERTEX
8
Visible_ISO
10
95.9382
20
136.7733
30
0
0
VERTEX
8
Visible_ISO
10
95.9256
20
136.7761
30
0
0
VERTEX
8
Visible_ISO
10
95.9130
20
136.7788
30
0
0
VERTEX
8
Visible_ISO
10
95.9004
20
136.7815
30
0
0
VERTEX
8
Visible_ISO
10
95.8879
20
136.7842
30
0
0
VERTEX
8
Visible_ISO
10
95.8755
20
136.7869
30
0
0
VERTEX
8
Visible_ISO
10
95.8632
20
136.7895
30
0
0
VERTEX
8
Visible_ISO
10
95.8509
20
136.7922
30
0
0
VERTEX
8
Visible_ISO
10
95.8387
20
136.7948
30
0
0
VERTEX
8
Visible_ISO
10
95.8265
20
136.7974
30
0
0
VERTEX
8
Visible_ISO
10
95.8144
20
136.8000
30
0
0
VERTEX
8
Visible_ISO
10
95.8024
20
136.8025
30
0
0
VERTEX
8
Visible_ISO
10
95.7904
20
136.8050
30
0
0
VERTEX
8
Visible_ISO
10
95.7786
20
136.8075
30
0
0
VERTEX
8
Visible_ISO
10
95.7668
20
136.8100
30
0
0
VERTEX
8
Visible_ISO
10
95.7550
20
136.8125
30
0
0
VERTEX
8
Visible_ISO
10
95.7434
20
136.8149
30
0
0
VERTEX
8
Visible_ISO
10
95.7318
20
136.8174
30
0
0
VERTEX
8
Visible_ISO
10
95.7202
20
136.8198
30
0
0
VERTEX
8
Visible_ISO
10
95.7088
20
136.8221
30
0
0
VERTEX
8
Visible_ISO
10
95.6974
20
136.8245
30
0
0
VERTEX
8
Visible_ISO
10
95.6861
20
136.8268
30
0
0
VERTEX
8
Visible_ISO
10
95.6749
20
136.8291
30
0
0
VERTEX
8
Visible_ISO
10
95.6638
20
136.8314
30
0
0
VERTEX
8
Visible_ISO
10
95.6527
20
136.8337
30
0
0
VERTEX
8
Visible_ISO
10
95.6417
20
136.8360
30
0
0
VERTEX
8
Visible_ISO
10
95.6308
20
136.8382
30
0
0
VERTEX
8
Visible_ISO
10
95.6200
20
136.8404
30
0
0
VERTEX
8
Visible_ISO
10
95.6092
20
136.8426
30
0
0
VERTEX
8
Visible_ISO
10
95.5985
20
136.8447
30
0
0
VERTEX
8
Visible_ISO
10
95.5879
20
136.8469
30
0
0
VERTEX
8
Visible_ISO
10
95.5774
20
136.8490
30
0
0
VERTEX
8
Visible_ISO
10
95.5670
20
136.8511
30
0
0
VERTEX
8
Visible_ISO
10
95.5567
20
136.8532
30
0
0
VERTEX
8
Visible_ISO
10
95.5464
20
136.8552
30
0
0
VERTEX
8
Visible_ISO
10
95.5362
20
136.8572
30
0
0
VERTEX
8
Visible_ISO
10
95.5262
20
136.8592
30
0
0
VERTEX
8
Visible_ISO
10
95.5162
20
136.8612
30
0
0
VERTEX
8
Visible_ISO
10
95.5062
20
136.8632
30
0
0
VERTEX
8
Visible_ISO
10
95.4964
20
136.8651
30
0
0
VERTEX
8
Visible_ISO
10
95.4867
20
136.8671
30
0
0
VERTEX
8
Visible_ISO
10
95.4771
20
136.8690
30
0
0
VERTEX
8
Visible_ISO
10
95.4675
20
136.8708
30
0
0
VERTEX
8
Visible_ISO
10
95.4581
20
136.8727
30
0
0
VERTEX
8
Visible_ISO
10
95.4487
20
136.8745
30
0
0
VERTEX
8
Visible_ISO
10
95.4394
20
136.8763
30
0
0
VERTEX
8
Visible_ISO
10
95.4302
20
136.8781
30
0
0
VERTEX
8
Visible_ISO
10
95.4212
20
136.8799
30
0
0
VERTEX
8
Visible_ISO
10
95.4122
20
136.8816
30
0
0
VERTEX
8
Visible_ISO
10
95.4033
20
136.8833
30
0
0
VERTEX
8
Visible_ISO
10
95.3945
20
136.8850
30
0
0
VERTEX
8
Visible_ISO
10
95.3858
20
136.8867
30
0
0
VERTEX
8
Visible_ISO
10
95.3772
20
136.8883
30
0
0
VERTEX
8
Visible_ISO
10
95.3688
20
136.8900
30
0
0
VERTEX
8
Visible_ISO
10
95.3604
20
136.8916
30
0
0
VERTEX
8
Visible_ISO
10
95.3521
20
136.8931
30
0
0
VERTEX
8
Visible_ISO
10
95.3439
20
136.8947
30
0
0
VERTEX
8
Visible_ISO
10
95.3358
20
136.8962
30
0
0
VERTEX
8
Visible_ISO
10
95.3279
20
136.8977
30
0
0
VERTEX
8
Visible_ISO
10
95.3200
20
136.8992
30
0
0
VERTEX
8
Visible_ISO
10
95.3122
20
136.9007
30
0
0
VERTEX
8
Visible_ISO
10
95.3046
20
136.9021
30
0
0
VERTEX
8
Visible_ISO
10
95.2971
20
136.9036
30
0
0
VERTEX
8
Visible_ISO
10
95.2896
20
136.9050
30
0
0
VERTEX
8
Visible_ISO
10
95.2823
20
136.9063
30
0
0
VERTEX
8
Visible_ISO
10
95.2751
20
136.9077
30
0
0
VERTEX
8
Visible_ISO
10
95.2680
20
136.9090
30
0
0
VERTEX
8
Visible_ISO
10
95.2610
20
136.9103
30
0
0
VERTEX
8
Visible_ISO
10
95.2541
20
136.9116
30
0
0
VERTEX
8
Visible_ISO
10
95.2474
20
136.9128
30
0
0
VERTEX
8
Visible_ISO
10
95.2407
20
136.9141
30
0
0
VERTEX
8
Visible_ISO
10
95.2342
20
136.9153
30
0
0
VERTEX
8
Visible_ISO
10
95.2278
20
136.9165
30
0
0
VERTEX
8
Visible_ISO
10
95.2215
20
136.9176
30
0
0
VERTEX
8
Visible_ISO
10
95.2153
20
136.9188
30
0
0
VERTEX
8
Visible_ISO
10
95.2093
20
136.9199
30
0
0
VERTEX
8
Visible_ISO
10
95.2034
20
136.9210
30
0
0
VERTEX
8
Visible_ISO
10
95.1975
20
136.9220
30
0
0
VERTEX
8
Visible_ISO
10
95.1918
20
136.9231
30
0
0
VERTEX
8
Visible_ISO
10
95.1863
20
136.9241
30
0
0
VERTEX
8
Visible_ISO
10
95.1808
20
136.9251
30
0
0
VERTEX
8
Visible_ISO
10
95.1755
20
136.9261
30
0
0
VERTEX
8
Visible_ISO
10
95.1703
20
136.9270
30
0
0
VERTEX
8
Visible_ISO
10
95.1652
20
136.9280
30
0
0
VERTEX
8
Visible_ISO
10
95.1603
20
136.9288
30
0
0
VERTEX
8
Visible_ISO
10
95.1555
20
136.9297
30
0
0
VERTEX
8
Visible_ISO
10
95.1508
20
136.9306
30
0
0
VERTEX
8
Visible_ISO
10
95.1462
20
136.9314
30
0
0
VERTEX
8
Visible_ISO
10
95.1418
20
136.9322
30
0
0
VERTEX
8
Visible_ISO
10
95.1375
20
136.9330
30
0
0
VERTEX
8
Visible_ISO
10
95.1333
20
136.9337
30
0
0
VERTEX
8
Visible_ISO
10
95.1292
20
136.9345
30
0
0
VERTEX
8
Visible_ISO
10
95.1253
20
136.9352
30
0
0
VERTEX
8
Visible_ISO
10
95.1215
20
136.9359
30
0
0
VERTEX
8
Visible_ISO
10
95.1179
20
136.9365
30
0
0
VERTEX
8
Visible_ISO
10
95.1144
20
136.9371
30
0
0
VERTEX
8
Visible_ISO
10
95.1110
20
136.9377
30
0
0
VERTEX
8
Visible_ISO
10
95.1078
20
136.9383
30
0
0
VERTEX
8
Visible_ISO
10
95.1046
20
136.9389
30
0
0
VERTEX
8
Visible_ISO
10
95.1017
20
136.9394
30
0
0
VERTEX
8
Visible_ISO
10
95.0988
20
136.9399
30
0
0
VERTEX
8
Visible_ISO
10
95.0961
20
136.9404
30
0
0
VERTEX
8
Visible_ISO
10
95.0935
20
136.9409
30
0
0
VERTEX
8
Visible_ISO
10
95.0911
20
136.9413
30
0
0
VERTEX
8
Visible_ISO
10
95.0888
20
136.9417
30
0
0
VERTEX
8
Visible_ISO
10
95.0866
20
136.9421
30
0
0
VERTEX
8
Visible_ISO
10
95.0846
20
136.9425
30
0
0
VERTEX
8
Visible_ISO
10
95.0827
20
136.9428
30
0
0
VERTEX
8
Visible_ISO
10
95.0810
20
136.9431
30
0
0
VERTEX
8
Visible_ISO
10
95.0794
20
136.9434
30
0
0
VERTEX
8
Visible_ISO
10
95.0779
20
136.9437
30
0
0
VERTEX
8
Visible_ISO
10
95.0765
20
136.9439
30
0
0
VERTEX
8
Visible_ISO
10
95.0753
20
136.9441
30
0
0
VERTEX
8
Visible_ISO
10
95.0743
20
136.9443
30
0
0
VERTEX
8
Visible_ISO
10
95.0734
20
136.9445
30
0
0
VERTEX
8
Visible_ISO
10
95.0726
20
136.9446
30
0
0
VERTEX
8
Visible_ISO
10
95.0720
20
136.9447
30
0
0
VERTEX
8
Visible_ISO
10
95.0715
20
136.9448
30
0
0
VERTEX
8
Visible_ISO
10
95.0711
20
136.9449
30
0
0
VERTEX
8
Visible_ISO
10
95.0709
20
136.9449
30
0
0
VERTEX
8
Visible_ISO
10
95.0708
20
136.9449
30
0
0
SEQEND
8
Visible_ISO
0
LINE
8
Visible_ISO
10
109.5075
20
140.6758
30
0
11
104.0275
21
141.9995
31
0
0
LINE
8
Visible_ISO
10
106.9623
20
145.9083
30
0
11
96.8362
21
138.7573
31
0
0
ARC
8
Visible_ISO
10
95.6825
20
140.3910
30
0
40
2.0000
50
259.9347
51
305.2295
0
ARC
8
Visible_ISO
10
91.1385
20
114.7912
30
0
40
24.0000
50
79.9347
51
100.0653
0
ARC
8
Visible_ISO
10
86.5944
20
140.3910
30
0
40
2.0000
50
234.7705
51
280.0653
0
LINE
8
Visible_ISO
10
85.4407
20
138.7573
30
0
11
75.3147
21
145.9083
31
0
0
ARC
8
Visible_ISO
10
73.5841
20
143.4578
30
0
40
3.0000
50
54.7705
51
172.8192
0
LINE
8
Visible_ISO
10
70.6076
20
143.8328
30
0
11
67.3267
21
117.7912
31
0
0
ARC
8
Visible_ISO
10
91.1385
20
114.7912
30
0
40
24.0000
50
172.8192
51
7.1808
0
LINE
8
Visible_ISO
10
114.9502
20
117.7912
30
0
11
111.6693
21
143.8328
31
0
0
ARC
8
Visible_ISO
10
108.6928
20
143.4578
30
0
40
3.0000
50
7.1808
51
125.2295
0
LINE
8
Visible_ISO
10
101.1313
20
138.1108
30
0
11
99.7836
21
132.5313
31
0
0
LINE
8
Visible_ISO
10
99.7836
20
132.5313
30
0
11
101.9707
21
132.0030
31
0
0
LINE
8
Visible_ISO
10
102.2055
20
132.9750
30
0
11
101.9707
21
132.0030
31
0
0
LINE
8
Visible_ISO
10
100.9904
20
133.2685
30
0
11
102.2055
21
132.9750
31
0
0
LINE
8
Visible_ISO
10
102.1034
20
137.8760
30
0
11
100.9904
21
133.2685
31
0
0
LINE
8
Visible_ISO
10
111.1342
20
136.0802
30
0
11
109.6984
21
130.1363
31
0
0
LINE
8
Visible_ISO
10
107.5113
20
130.6646
30
0
11
109.6984
21
130.1363
31
0
0
LINE
8
Visible_ISO
10
107.7461
20
131.6366
30
0
11
107.5113
21
130.6646
31
0
0
LINE
8
Visible_ISO
10
107.7461
20
131.6366
30
0
11
108.9612
21
131.3431
31
0
0
CIRCLE
8
Visible_ISO
10
91.1385
20
96.7912
30
0
40
1.2000
0
CIRCLE
8
Visible_ISO
10
91.1385
20
96.7912
30
0
40
2.2000
0
CIRCLE
8
Visible_ISO
10
77.6885
20
132.3412
30
0
40
1.2000
0
CIRCLE
8
Visible_ISO
10
77.6885
20
132.3412
30
0
40
2.2000
0
CIRCLE
8
Sketch_Geometry_ISO
6
HIDDEN
10
91.1385
20
114.7912
30
0
40
2.5000
0
POLYLINE
8
SECTION
6
PHANTOM
66
1
70
0
10
0
20
0
30
0
0
VERTEX
8
SECTION
10
98.1384
20
163.1862
30
0
0
VERTEX
8
SECTION
10
91.1384
20
163.1862
30
0
0
VERTEX
8
SECTION
10
91.1385
20
76.9411
30
0
0
VERTEX
8
SECTION
10
98.1385
20
76.9411
30
0
0
SEQEND
8
SECTION
0
SOLID
8
SECTION
10
98.1384
20
163.1862
30
0
11
96.8884
21
163.4362
31
0
12
96.8884
22
162.9362
32
0
13
96.8884
23
162.9362
33
0
0
SOLID
8
SECTION
10
98.1385
20
76.9411
30
0
11
96.8885
21
77.1911
31
0
12
96.8885
22
76.6911
32
0
13
96.8885
23
76.6911
33
0
0
LINE
8
Visible_ISO
10
155.2920
20
95.5912
30
0
11
151.8920
21
95.5912
31
0
0
LINE
8
Visible_ISO
10
151.8920
20
95.5912
30
0
11
151.8920
21
97.9912
31
0
0
LINE
8
Visible_ISO
10
151.8920
20
97.9912
30
0
11
155.2920
21
97.9912
31
0
0
LINE
8
Visible_ISO
10
155.2920
20
97.9912
30
0
11
155.2920
21
98.9912
31
0
0
LINE
8
Visible_ISO
10
155.2920
20
98.9912
30
0
11
151.8920
21
98.9912
31
0
0
LINE
8
Visible_ISO
10
151.8920
20
98.9912
30
0
11
151.8920
21
103.7912
31
0
0
LINE
8
Visible_ISO
10
151.8920
20
103.7912
30
0
11
153.8920
21
103.7912
31
0
0
LINE
8
Visible_ISO
10
153.8920
20
103.7912
30
0
11
153.8920
21
104.7912
31
0
0
LINE
8
Visible_ISO
10
153.8920
20
104.7912
30
0
11
151.8920
21
104.7912
31
0
0
LINE
8
Visible_ISO
10
151.8920
20
104.7912
30
0
11
151.8920
21
107.7912
31
0
0
LINE
8
Visible_ISO
10
151.8920
20
107.7912
30
0
11
153.8920
21
107.7912
31
0
0
LINE
8
Visible_ISO
10
153.8920
20
107.7912
30
0
11
153.8920
21
108.7912
31
0
0
LINE
8
Visible_ISO
10
153.8920
20
108.7912
30
0
11
151.8920
21
108.7912
31
0
0
LINE
8
Visible_ISO
10
151.8920
20
108.7912
30
0
11
151.8920
21
120.7912
31
0
0
LINE
8
Visible_ISO
10
151.8920
20
120.7912
30
0
11
153.8920
21
120.7912
31
0
0
LINE
8
Visible_ISO
10
153.8920
20
120.7912
30
0
11
153.8920
21
121.7912
31
0
0
LINE
8
Visible_ISO
10
153.8920
20
121.7912
30
0
11
151.8920
21
121.7912
31
0
0
LINE
8
Visible_ISO
10
151.8920
20
121.7912
30
0
11
151.8920
21
124.7912
31
0
0
LINE
8
Visible_ISO
10
151.8920
20
124.7912
30
0
11
153.8920
21
124.7912
31
0
0
LINE
8
Visible_ISO
10
153.8920
20
124.7912
30
0
11
153.8920
21
125.7912
31
0
0
LINE
8
Visible_ISO
10
153.8920
20
125.7912
30
0
11
151.8920
21
125.7912
31
0
0
LINE
8
Visible_ISO
10
151.8920
20
125.7912
30
0
11
151.8920
21
136.7912
31
0
0
ARC
8
Visible_ISO
10
152.3920
20
136.7912
30
0
40
0.5000
50
90.0000
51
180.0000
0
LINE
8
Visible_ISO
10
152.3920
20
137.2912
30
0
11
155.3920
21
137.2912
31
0
0
LINE
8
Visible_ISO
10
155.3920
20
137.2912
30
0
11
155.3920
21
138.0412
31
0
0
LINE
8
Visible_ISO
10
155.3920
20
138.0412
30
0
11
157.3920
21
138.0412
31
0
0
LINE
8
Visible_ISO
10
157.3920
20
138.0412
30
0
11
157.3920
21
138.7912
31
0
0
LINE
8
Visible_ISO
10
157.3920
20
138.7912
30
0
11
152.3920
21
138.7912
31
0
0
ARC
8
Visible_ISO
10
152.3920
20
136.7912
30
0
40
2.0000
50
90.0000
51
180.0000
0
LINE
8
Visible_ISO
10
150.3920
20
136.7912
30
0
11
150.3920
21
92.7912
31
0
0
ARC
8
Visible_ISO
10
152.3920
20
92.7912
30
0
40
2.0000
50
180.0000
51
270.0000
0
LINE
8
Visible_ISO
10
152.3920
20
90.7912
30
0
11
157.3920
21
90.7912
31
0
0
LINE
8
Visible_ISO
10
157.3920
20
90.7912
30
0
11
157.3920
21
91.5412
31
0
0
LINE
8
Visible_ISO
10
157.3920
20
91.5412
30
0
11
155.3920
21
91.5412
31
0
0
LINE
8
Visible_ISO
10
155.3920
20
91.5412
30
0
11
155.3920
21
92.2912
31
0
0
LINE
8
Visible_ISO
10
155.3920
20
92.2912
30
0
11
152.3920
21
92.2912
31
0
0
ARC
8
Visible_ISO
10
152.3920
20
92.7912
30
0
40
0.5000
50
180.0000
51
270.0000
0
LINE
8
Visible_ISO
10
151.8920
20
92.7912
30
0
11
151.8920
21
94.5912
31
0
0
LINE
8
Visible_ISO
10
151.8920
20
94.5912
30
0
11
155.2920
21
94.5912
31
0
0
LINE
8
Visible_ISO
10
155.2920
20
94.5912
30
0
11
155.2920
21
95.5912
31
0
0
LINE
8
Visible_ISO
10
153.8920
20
120.7912
30
0
11
153.8920
21
108.7912
31
0
0
LINE
8
Visible_ISO
10
153.8920
20
107.7912
30
0
11
153.8920
21
104.7912
31
0
0
LINE
8
Visible_ISO
10
153.8920
20
124.7912
30
0
11
153.8920
21
121.7912
31
0
0
LINE
8
Visible_ISO
10
155.2920
20
95.5912
30
0
11
155.2920
21
97.9912
31
0
0
LINE
8
Visible_ISO
10
155.3920
20
136.9449
30
0
11
155.3920
21
137.2912
31
0
0
LINE
8
Visible_ISO
10
155.3920
20
136.9449
30
0
11
155.3920
21
136.8910
31
0
0
LINE
8
Visible_ISO
10
155.3920
20
117.6037
30
0
11
155.3920
21
130.1363
31
0
0
LINE
8
Visible_ISO
10
155.3920
20
92.2912
30
0
11
155.3920
21
117.6037
31
0
0
POLYLINE
8
Visible_ISO
66
1
70
0
10
0
20
0
30
0
0
VERTEX
8
Visible_ISO
10
154.2035
20
131.6367
30
0
0
VERTEX
8
Visible_ISO
10
154.2057
20
131.6441
30
0
0
VERTEX
8
Visible_ISO
10
154.2078
20
131.6516
30
0
0
VERTEX
8
Visible_ISO
10
154.2100
20
131.6590
30
0
0
VERTEX
8
Visible_ISO
10
154.2121
20
131.6665
30
0
0
VERTEX
8
Visible_ISO
10
154.2143
20
131.6740
30
0
0
VERTEX
8
Visible_ISO
10
154.2164
20
131.6815
30
0
0
VERTEX
8
Visible_ISO
10
154.2185
20
131.6890
30
0
0
VERTEX
8
Visible_ISO
10
154.2206
20
131.6965
30
0
0
VERTEX
8
Visible_ISO
10
154.2227
20
131.7040
30
0
0
VERTEX
8
Visible_ISO
10
154.2248
20
131.7115
30
0
0
VERTEX
8
Visible_ISO
10
154.2269
20
131.7191
30
0
0
VERTEX
8
Visible_ISO
10
154.2290
20
131.7266
30
0
0
VERTEX
8
Visible_ISO
10
154.2310
20
131.7342
30
0
0
VERTEX
8
Visible_ISO
10
154.2331
20
131.7417
30
0
0
VERTEX
8
Visible_ISO
10
154.2351
20
131.7493
30
0
0
VERTEX
8
Visible_ISO
10
154.2371
20
131.7569
30
0
0
VERTEX
8
Visible_ISO
10
154.2391
20
131.7645
30
0
0
VERTEX
8
Visible_ISO
10
154.2411
20
131.7721
30
0
0
VERTEX
8
Visible_ISO
10
154.2431
20
131.7797
30
0
0
VERTEX
8
Visible_ISO
10
154.2451
20
131.7873
30
0
0
VERTEX
8
Visible_ISO
10
154.2470
20
131.7949
30
0
0
VERTEX
8
Visible_ISO
10
154.2490
20
131.8025
30
0
0
VERTEX
8
Visible_ISO
10
154.2509
20
131.8101
30
0
0
VERTEX
8
Visible_ISO
10
154.2529
20
131.8178
30
0
0
VERTEX
8
Visible_ISO
10
154.2548
20
131.8254
30
0
0
VERTEX
8
Visible_ISO
10
154.2567
20
131.8331
30
0
0
VERTEX
8
Visible_ISO
10
154.2586
20
131.8407
30
0
0
VERTEX
8
Visible_ISO
10
154.2604
20
131.8484
30
0
0
VERTEX
8
Visible_ISO
10
154.2623
20
131.8561
30
0
0
VERTEX
8
Visible_ISO
10
154.2642
20
131.8638
30
0
0
VERTEX
8
Visible_ISO
10
154.2660
20
131.8714
30
0
0
VERTEX
8
Visible_ISO
10
154.2679
20
131.8791
30
0
0
VERTEX
8
Visible_ISO
10
154.2697
20
131.8868
30
0
0
VERTEX
8
Visible_ISO
10
154.2715
20
131.8945
30
0
0
VERTEX
8
Visible_ISO
10
154.2733
20
131.9023
30
0
0
VERTEX
8
Visible_ISO
10
154.2751
20
131.9100
30
0
0
VERTEX
8
Visible_ISO
10
154.2768
20
131.9177
30
0
0
VERTEX
8
Visible_ISO
10
154.2786
20
131.9254
30
0
0
VERTEX
8
Visible_ISO
10
154.2803
20
131.9332
30
0
0
VERTEX
8
Visible_ISO
10
154.2821
20
131.9409
30
0
0
VERTEX
8
Visible_ISO
10
154.2838
20
131.9486
30
0
0
VERTEX
8
Visible_ISO
10
154.2855
20
131.9564
30
0
0
VERTEX
8
Visible_ISO
10
154.2872
20
131.9641
30
0
0
VERTEX
8
Visible_ISO
10
154.2889
20
131.9719
30
0
0
VERTEX
8
Visible_ISO
10
154.2905
20
131.9797
30
0
0
VERTEX
8
Visible_ISO
10
154.2922
20
131.9874
30
0
0
VERTEX
8
Visible_ISO
10
154.2938
20
131.9952
30
0
0
VERTEX
8
Visible_ISO
10
154.2955
20
132.0030
30
0
0
SEQEND
8
Visible_ISO
0
LINE
8
Visible_ISO
10
157.3920
20
131.6366
30
0
11
157.3920
21
132.0030
31
0
0
LINE
8
Visible_ISO
10
157.3920
20
137.6410
30
0
11
157.3920
21
137.6834
31
0
0
LINE
8
Visible_ISO
10
157.3920
20
138.0412
30
0
11
157.3920
21
137.6834
31
0
0
LINE
8
Visible_ISO
10
157.3920
20
117.6975
30
0
11
157.3920
21
91.5412
31
0
0
LINE
8
Visible_ISO
10
157.3920
20
130.1363
30
0
11
157.3920
21
117.6975
31
0
0
LINE
8
Visible_ISO
10
157.3920
20
145.9083
30
0
11
157.3920
21
146.4578
31
0
0
LINE
8
Visible_ISO
10
157.3920
20
145.9083
30
0
11
157.3920
21
138.7912
31
0
0
POLYLINE
8
Visible_ISO
66
1
70
0
10
0
20
0
30
0
0
VERTEX
8
Visible_ISO
10
152.2045
20
135.2395
30
0
0
VERTEX
8
Visible_ISO
10
152.2272
20
135.2487
30
0
0
VERTEX
8
Visible_ISO
10
152.2499
20
135.2581
30
0
0
VERTEX
8
Visible_ISO
10
152.2726
20
135.2677
30
0
0
VERTEX
8
Visible_ISO
10
152.2953
20
135.2776
30
0
0
VERTEX
8
Visible_ISO
10
152.3181
20
135.2877
30
0
0
VERTEX
8
Visible_ISO
10
152.3410
20
135.2980
30
0
0
VERTEX
8
Visible_ISO
10
152.3638
20
135.3086
30
0
0
VERTEX
8
Visible_ISO
10
152.3867
20
135.3194
30
0
0
VERTEX
8
Visible_ISO
10
152.4097
20
135.3305
30
0
0
VERTEX
8
Visible_ISO
10
152.4326
20
135.3418
30
0
0
VERTEX
8
Visible_ISO
10
152.4555
20
135.3533
30
0
0
VERTEX
8
Visible_ISO
10
152.4785
20
135.3650
30
0
0
VERTEX
8
Visible_ISO
10
152.5014
20
135.3769
30
0
0
VERTEX
8
Visible_ISO
10
152.5244
20
135.3890
30
0
0
VERTEX
8
Visible_ISO
10
152.5473
20
135.4013
30
0
0
VERTEX
8
Visible_ISO
10
152.5702
20
135.4139
30
0
0
VERTEX
8
Visible_ISO
10
152.5930
20
135.4266
30
0
0
VERTEX
8
Visible_ISO
10
152.6159
20
135.4395
30
0
0
VERTEX
8
Visible_ISO
10
152.6386
20
135.4526
30
0
0
VERTEX
8
Visible_ISO
10
152.6614
20
135.4659
30
0
0
VERTEX
8
Visible_ISO
10
152.6841
20
135.4793
30
0
0
VERTEX
8
Visible_ISO
10
152.7067
20
135.4929
30
0
0
VERTEX
8
Visible_ISO
10
152.7292
20
135.5067
30
0
0
VERTEX
8
Visible_ISO
10
152.7517
20
135.5207
30
0
0
VERTEX
8
Visible_ISO
10
152.7741
20
135.5348
30
0
0
VERTEX
8
Visible_ISO
10
152.7964
20
135.5491
30
0
0
VERTEX
8
Visible_ISO
10
152.8186
20
135.5635
30
0
0
VERTEX
8
Visible_ISO
10
152.8407
20
135.5780
30
0
0
VERTEX
8
Visible_ISO
10
152.8628
20
135.5928
30
0
0
VERTEX
8
Visible_ISO
10
152.8847
20
135.6076
30
0
0
VERTEX
8
Visible_ISO
10
152.9064
20
135.6226
30
0
0
VERTEX
8
Visible_ISO
10
152.9281
20
135.6377
30
0
0
VERTEX
8
Visible_ISO
10
152.9496
20
135.6529
30
0
0
VERTEX
8
Visible_ISO
10
152.9710
20
135.6683
30
0
0
VERTEX
8
Visible_ISO
10
152.9923
20
135.6838
30
0
0
VERTEX
8
Visible_ISO
10
153.0134
20
135.6994
30
0
0
VERTEX
8
Visible_ISO
10
153.0343
20
135.7151
30
0
0
VERTEX
8
Visible_ISO
10
153.0551
20
135.7309
30
0
0
VERTEX
8
Visible_ISO
10
153.0757
20
135.7468
30
0
0
VERTEX
8
Visible_ISO
10
153.0962
20
135.7628
30
0
0
VERTEX
8
Visible_ISO
10
153.1165
20
135.7789
30
0
0
VERTEX
8
Visible_ISO
10
153.1365
20
135.7951
30
0
0
VERTEX
8
Visible_ISO
10
153.1564
20
135.8114
30
0
0
VERTEX
8
Visible_ISO
10
153.1761
20
135.8277
30
0
0
VERTEX
8
Visible_ISO
10
153.1956
20
135.8441
30
0
0
VERTEX
8
Visible_ISO
10
153.2148
20
135.8606
30
0
0
VERTEX
8
Visible_ISO
10
153.2339
20
135.8772
30
0
0
VERTEX
8
Visible_ISO
10
153.2527
20
135.8938
30
0
0
VERTEX
8
Visible_ISO
10
153.2713
20
135.9105
30
0
0
VERTEX
8
Visible_ISO
10
153.2897
20
135.9273
30
0
0
VERTEX
8
Visible_ISO
10
153.3078
20
135.9441
30
0
0
VERTEX
8
Visible_ISO
10
153.3256
20
135.9609
30
0
0
VERTEX
8
Visible_ISO
10
153.3433
20
135.9778
30
0
0
VERTEX
8
Visible_ISO
10
153.3606
20
135.9947
30
0
0
VERTEX
8
Visible_ISO
10
153.3778
20
136.0118
30
0
0
VERTEX
8
Visible_ISO
10
153.3950
20
136.0291
30
0
0
VERTEX
8
Visible_ISO
10
153.4121
20
136.0467
30
0
0
VERTEX
8
Visible_ISO
10
153.4292
20
136.0645
30
0
0
VERTEX
8
Visible_ISO
10
153.4462
20
136.0826
30
0
0
VERTEX
8
Visible_ISO
10
153.4631
20
136.1009
30
0
0
VERTEX
8
Visible_ISO
10
153.4800
20
136.1194
30
0
0
VERTEX
8
Visible_ISO
10
153.4969
20
136.1381
30
0
0
VERTEX
8
Visible_ISO
10
153.5136
20
136.1570
30
0
0
VERTEX
8
Visible_ISO
10
153.5303
20
136.1761
30
0
0
VERTEX
8
Visible_ISO
10
153.5469
20
136.1955
30
0
0
VERTEX
8
Visible_ISO
10
153.5634
20
136.2150
30
0
0
VERTEX
8
Visible_ISO
10
153.5798
20
136.2347
30
0
0
VERTEX
8
Visible_ISO
10
153.5962
20
136.2546
30
0
0
VERTEX
8
Visible_ISO
10
153.6124
20
136.2746
30
0
0
VERTEX
8
Visible_ISO
10
153.6285
20
136.2948
30
0
0
VERTEX
8
Visible_ISO
10
153.6446
20
136.3152
30
0
0
VERTEX
8
Visible_ISO
10
153.6605
20
136.3357
30
0
0
VERTEX
8
Visible_ISO
10
153.6763
20
136.3564
30
0
0
VERTEX
8
Visible_ISO
10
153.6920
20
136.3773
30
0
0
VERTEX
8
Visible_ISO
10
153.7076
20
136.3982
30
0
0
VERTEX
8
Visible_ISO
10
153.7230
20
136.4193
30
0
0
VERTEX
8
Visible_ISO
10
153.7384
20
136.4405
30
0
0
VERTEX
8
Visible_ISO
10
153.7535
20
136.4619
30
0
0
VERTEX
8
Visible_ISO
10
153.7686
20
136.4833
30
0
0
VERTEX
8
Visible_ISO
10
153.7835
20
136.5049
30
0
0
VERTEX
8
Visible_ISO
10
153.7983
20
136.5265
30
0
0
VERTEX
8
Visible_ISO
10
153.8129
20
136.5482
30
0
0
VERTEX
8
Visible_ISO
10
153.8274
20
136.5701
30
0
0
VERTEX
8
Visible_ISO
10
153.8417
20
136.5920
30
0
0
VERTEX
8
Visible_ISO
10
153.8558
20
136.6140
30
0
0
VERTEX
8
Visible_ISO
10
153.8698
20
136.6360
30
0
0
VERTEX
8
Visible_ISO
10
153.8836
20
136.6582
30
0
0
VERTEX
8
Visible_ISO
10
153.8972
20
136.6803
30
0
0
VERTEX
8
Visible_ISO
10
153.9107
20
136.7026
30
0
0
VERTEX
8
Visible_ISO
10
153.9240
20
136.7248
30
0
0
VERTEX
8
Visible_ISO
10
153.9371
20
136.7471
30
0
0
VERTEX
8
Visible_ISO
10
153.9500
20
136.7695
30
0
0
VERTEX
8
Visible_ISO
10
153.9627
20
136.7919
30
0
0
VERTEX
8
Visible_ISO
10
153.9752
20
136.8142
30
0
0
VERTEX
8
Visible_ISO
10
153.9875
20
136.8366
30
0
0
VERTEX
8
Visible_ISO
10
153.9996
20
136.8591
30
0
0
SEQEND
8
Visible_ISO
0
POLYLINE
8
Visible_ISO
66
1
70
0
10
0
20
0
30
0
0
VERTEX
8
Visible_ISO
10
151.8920
20
134.7805
30
0
0
VERTEX
8
Visible_ISO
10
151.8921
20
134.7851
30
0
0
VERTEX
8
Visible_ISO
10
151.8921
20
134.7898
30
0
0
VERTEX
8
Visible_ISO
10
151.8923
20
134.7945
30
0
0
VERTEX
8
Visible_ISO
10
151.8925
20
134.7992
30
0
0
VERTEX
8
Visible_ISO
10
151.8927
20
134.8039
30
0
0
VERTEX
8
Visible_ISO
10
151.8930
20
134.8087
30
0
0
VERTEX
8
Visible_ISO
10
151.8933
20
134.8135
30
0
0
VERTEX
8
Visible_ISO
10
151.8937
20
134.8183
30
0
0
VERTEX
8
Visible_ISO
10
151.8942
20
134.8232
30
0
0
VERTEX
8
Visible_ISO
10
151.8947
20
134.8280
30
0
0
VERTEX
8
Visible_ISO
10
151.8952
20
134.8329
30
0
0
VERTEX
8
Visible_ISO
10
151.8958
20
134.8378
30
0
0
VERTEX
8
Visible_ISO
10
151.8964
20
134.8427
30
0
0
VERTEX
8
Visible_ISO
10
151.8971
20
134.8476
30
0
0
VERTEX
8
Visible_ISO
10
151.8979
20
134.8525
30
0
0
VERTEX
8
Visible_ISO
10
151.8986
20
134.8574
30
0
0
VERTEX
8
Visible_ISO
10
151.8995
20
134.8624
30
0
0
VERTEX
8
Visible_ISO
10
151.9003
20
134.8673
30
0
0
VERTEX
8
Visible_ISO
10
151.9013
20
134.8722
30
0
0
VERTEX
8
Visible_ISO
10
151.9022
20
134.8771
30
0
0
VERTEX
8
Visible_ISO
10
151.9032
20
134.8820
30
0
0
VERTEX
8
Visible_ISO
10
151.9043
20
134.8869
30
0
0
VERTEX
8
Visible_ISO
10
151.9054
20
134.8918
30
0
0
VERTEX
8
Visible_ISO
10
151.9065
20
134.8967
30
0
0
VERTEX
8
Visible_ISO
10
151.9077
20
134.9015
30
0
0
VERTEX
8
Visible_ISO
10
151.9089
20
134.9063
30
0
0
VERTEX
8
Visible_ISO
10
151.9102
20
134.9111
30
0
0
VERTEX
8
Visible_ISO
10
151.9115
20
134.9159
30
0
0
VERTEX
8
Visible_ISO
10
151.9129
20
134.9207
30
0
0
VERTEX
8
Visible_ISO
10
151.9142
20
134.9254
30
0
0
VERTEX
8
Visible_ISO
10
151.9157
20
134.9301
30
0
0
VERTEX
8
Visible_ISO
10
151.9171
20
134.9347
30
0
0
VERTEX
8
Visible_ISO
10
151.9186
20
134.9393
30
0
0
VERTEX
8
Visible_ISO
10
151.9202
20
134.9439
30
0
0
VERTEX
8
Visible_ISO
10
151.9218
20
134.9484
30
0
0
VERTEX
8
Visible_ISO
10
151.9234
20
134.9529
30
0
0
VERTEX
8
Visible_ISO
10
151.9250
20
134.9574
30
0
0
VERTEX
8
Visible_ISO
10
151.9267
20
134.9618
30
0
0
VERTEX
8
Visible_ISO
10
151.9285
20
134.9661
30
0
0
VERTEX
8
Visible_ISO
10
151.9302
20
134.9704
30
0
0
VERTEX
8
Visible_ISO
10
151.9320
20
134.9746
30
0
0
VERTEX
8
Visible_ISO
10
151.9339
20
134.9789
30
0
0
VERTEX
8
Visible_ISO
10
151.9359
20
134.9832
30
0
0
VERTEX
8
Visible_ISO
10
151.9379
20
134.9875
30
0
0
VERTEX
8
Visible_ISO
10
151.9399
20
134.9918
30
0
0
VERTEX
8
Visible_ISO
10
151.9420
20
134.9961
30
0
0
VERTEX
8
Visible_ISO
10
151.9442
20
135.0004
30
0
0
VERTEX
8
Visible_ISO
10
151.9465
20
135.0047
30
0
0
VERTEX
8
Visible_ISO
10
151.9487
20
135.0090
30
0
0
VERTEX
8
Visible_ISO
10
151.9511
20
135.0133
30
0
0
VERTEX
8
Visible_ISO
10
151.9535
20
135.0177
30
0
0
VERTEX
8
Visible_ISO
10
151.9559
20
135.0220
30
0
0
VERTEX
8
Visible_ISO
10
151.9584
20
135.0263
30
0
0
VERTEX
8
Visible_ISO
10
151.9610
20
135.0306
30
0
0
VERTEX
8
Visible_ISO
10
151.9636
20
135.0348
30
0
0
VERTEX
8
Visible_ISO
10
151.9662
20
135.0391
30
0
0
VERTEX
8
Visible_ISO
10
151.9689
20
135.0433
30
0
0
VERTEX
8
Visible_ISO
10
151.9716
20
135.0476
30
0
0
VERTEX
8
Visible_ISO
10
151.9744
20
135.0518
30
0
0
VERTEX
8
Visible_ISO
10
151.9772
20
135.0560
30
0
0
VERTEX
8
Visible_ISO
10
151.9801
20
135.0601
30
0
0
VERTEX
8
Visible_ISO
10
151.9830
20
135.0643
30
0
0
VERTEX
8
Visible_ISO
10
151.9859
20
135.0684
30
0
0
VERTEX
8
Visible_ISO
10
151.9888
20
135.0725
30
0
0
VERTEX
8
Visible_ISO
10
151.9918
20
135.0765
30
0
0
VERTEX
8
Visible_ISO
10
151.9948
20
135.0805
30
0
0
VERTEX
8
Visible_ISO
10
151.9979
20
135.0845
30
0
0
VERTEX
8
Visible_ISO
10
152.0010
20
135.0884
30
0
0
VERTEX
8
Visible_ISO
10
152.0041
20
135.0923
30
0
0
VERTEX
8
Visible_ISO
10
152.0072
20
135.0962
30
0
0
VERTEX
8
Visible_ISO
10
152.0104
20
135.1000
30
0
0
VERTEX
8
Visible_ISO
10
152.0135
20
135.1037
30
0
0
VERTEX
8
Visible_ISO
10
152.0167
20
135.1074
30
0
0
VERTEX
8
Visible_ISO
10
152.0200
20
135.1111
30
0
0
VERTEX
8
Visible_ISO
10
152.0232
20
135.1147
30
0
0
VERTEX
8
Visible_ISO
10
152.0265
20
135.1182
30
0
0
VERTEX
8
Visible_ISO
10
152.0297
20
135.1217
30
0
0
VERTEX
8
Visible_ISO
10
152.0330
20
135.1251
30
0
0
VERTEX
8
Visible_ISO
10
152.0363
20
135.1285
30
0
0
VERTEX
8
Visible_ISO
10
152.0396
20
135.1318
30
0
0
VERTEX
8
Visible_ISO
10
152.0430
20
135.1351
30
0
0
VERTEX
8
Visible_ISO
10
152.0464
20
135.1383
30
0
0
VERTEX
8
Visible_ISO
10
152.0499
20
135.1415
30
0
0
VERTEX
8
Visible_ISO
10
152.0534
20
135.1448
30
0
0
VERTEX
8
Visible_ISO
10
152.0570
20
135.1480
30
0
0
VERTEX
8
Visible_ISO
10
152.0607
20
135.1512
30
0
0
VERTEX
8
Visible_ISO
10
152.0644
20
135.1543
30
0
0
VERTEX
8
Visible_ISO
10
152.0682
20
135.1575
30
0
0
VERTEX
8
Visible_ISO
10
152.0720
20
135.1606
30
0
0
VERTEX
8
Visible_ISO
10
152.0759
20
135.1637
30
0
0
VERTEX
8
Visible_ISO
10
152.0798
20
135.1668
30
0
0
VERTEX
8
Visible_ISO
10
152.0838
20
135.1699
30
0
0
VERTEX
8
Visible_ISO
10
152.0878
20
135.1729
30
0
0
VERTEX
8
Visible_ISO
10
152.0919
20
135.1759
30
0
0
VERTEX
8
Visible_ISO
10
152.0960
20
135.1789
30
0
0
VERTEX
8
Visible_ISO
10
152.1001
20
135.1819
30
0
0
VERTEX
8
Visible_ISO
10
152.1043
20
135.1848
30
0
0
VERTEX
8
Visible_ISO
10
152.1085
20
135.1876
30
0
0
VERTEX
8
Visible_ISO
10
152.1127
20
135.1905
30
0
0
VERTEX
8
Visible_ISO
10
152.1169
20
135.1933
30
0
0
VERTEX
8
Visible_ISO
10
152.1212
20
135.1961
30
0
0
VERTEX
8
Visible_ISO
10
152.1255
20
135.1988
30
0
0
VERTEX
8
Visible_ISO
10
152.1299
20
135.2015
30
0
0
VERTEX
8
Visible_ISO
10
152.1342
20
135.2041
30
0
0
VERTEX
8
Visible_ISO
10
152.1386
20
135.2067
30
0
0
VERTEX
8
Visible_ISO
10
152.1429
20
135.2093
30
0
0
VERTEX
8
Visible_ISO
10
152.1473
20
135.2118
30
0
0
VERTEX
8
Visible_ISO
10
152.1517
20
135.2143
30
0
0
VERTEX
8
Visible_ISO
10
152.1561
20
135.2167
30
0
0
VERTEX
8
Visible_ISO
10
152.1605
20
135.2191
30
0
0
VERTEX
8
Visible_ISO
10
152.1650
20
135.2214
30
0
0
VERTEX
8
Visible_ISO
10
152.1694
20
135.2236
30
0
0
VERTEX
8
Visible_ISO
10
152.1738
20
135.2258
30
0
0
VERTEX
8
Visible_ISO
10
152.1782
20
135.2279
30
0
0
VERTEX
8
Visible_ISO
10
152.1826
20
135.2300
30
0
0
VERTEX
8
Visible_ISO
10
152.1870
20
135.2321
30
0
0
VERTEX
8
Visible_ISO
10
152.1914
20
135.2340
30
0
0
VERTEX
8
Visible_ISO
10
152.1958
20
135.2359
30
0
0
VERTEX
8
Visible_ISO
10
152.2002
20
135.2377
30
0
0
VERTEX
8
Visible_ISO
10
152.2045
20
135.2395
30
0
0
SEQEND
8
Visible_ISO
0
LINE
8
Visible_ISO
10
157.3920
20
132.5313
30
0
11
151.8920
21
132.5313
31
0
0
LINE
8
Visible_ISO
10
157.3920
20
137.6410
30
0
11
157.3920
21
132.5313
31
0
0
LINE
8
Visible_ISO
10
157.3920
20
132.0030
30
0
11
151.8920
21
132.0030
31
0
0
LINE
8
Visible_ISO
10
157.3920
20
132.5313
30
0
11
157.3920
21
132.0030
31
0
0
POLYLINE
8
Visible_ISO
66
1
70
0
10
0
20
0
30
0
0
VERTEX
8
Visible_ISO
10
153.9914
20
130.1363
30
0
0
VERTEX
8
Visible_ISO
10
153.9810
20
130.1439
30
0
0
VERTEX
8
Visible_ISO
10
153.9705
20
130.1516
30
0
0
VERTEX
8
Visible_ISO
10
153.9598
20
130.1593
30
0
0
VERTEX
8
Visible_ISO
10
153.9489
20
130.1670
30
0
0
VERTEX
8
Visible_ISO
10
153.9378
20
130.1747
30
0
0
VERTEX
8
Visible_ISO
10
153.9265
20
130.1825
30
0
0
VERTEX
8
Visible_ISO
10
153.9150
20
130.1902
30
0
0
VERTEX
8
Visible_ISO
10
153.9034
20
130.1980
30
0
0
VERTEX
8
Visible_ISO
10
153.8915
20
130.2058
30
0
0
VERTEX
8
Visible_ISO
10
153.8795
20
130.2136
30
0
0
VERTEX
8
Visible_ISO
10
153.8672
20
130.2214
30
0
0
VERTEX
8
Visible_ISO
10
153.8548
20
130.2292
30
0
0
VERTEX
8
Visible_ISO
10
153.8423
20
130.2371
30
0
0
VERTEX
8
Visible_ISO
10
153.8295
20
130.2449
30
0
0
VERTEX
8
Visible_ISO
10
153.8166
20
130.2528
30
0
0
VERTEX
8
Visible_ISO
10
153.8035
20
130.2606
30
0
0
VERTEX
8
Visible_ISO
10
153.7902
20
130.2685
30
0
0
VERTEX
8
Visible_ISO
10
153.7768
20
130.2763
30
0
0
VERTEX
8
Visible_ISO
10
153.7632
20
130.2842
30
0
0
VERTEX
8
Visible_ISO
10
153.7495
20
130.2920
30
0
0
VERTEX
8
Visible_ISO
10
153.7355
20
130.2998
30
0
0
VERTEX
8
Visible_ISO
10
153.7215
20
130.3077
30
0
0
VERTEX
8
Visible_ISO
10
153.7072
20
130.3155
30
0
0
VERTEX
8
Visible_ISO
10
153.6929
20
130.3233
30
0
0
VERTEX
8
Visible_ISO
10
153.6783
20
130.3311
30
0
0
VERTEX
8
Visible_ISO
10
153.6636
20
130.3389
30
0
0
VERTEX
8
Visible_ISO
10
153.6488
20
130.3467
30
0
0
VERTEX
8
Visible_ISO
10
153.6338
20
130.3545
30
0
0
VERTEX
8
Visible_ISO
10
153.6187
20
130.3622
30
0
0
VERTEX
8
Visible_ISO
10
153.6035
20
130.3700
30
0
0
VERTEX
8
Visible_ISO
10
153.5881
20
130.3777
30
0
0
VERTEX
8
Visible_ISO
10
153.5725
20
130.3854
30
0
0
VERTEX
8
Visible_ISO
10
153.5569
20
130.3931
30
0
0
VERTEX
8
Visible_ISO
10
153.5411
20
130.4007
30
0
0
VERTEX
8
Visible_ISO
10
153.5252
20
130.4083
30
0
0
VERTEX
8
Visible_ISO
10
153.5091
20
130.4159
30
0
0
VERTEX
8
Visible_ISO
10
153.4929
20
130.4235
30
0
0
VERTEX
8
Visible_ISO
10
153.4766
20
130.4310
30
0
0
VERTEX
8
Visible_ISO
10
153.4602
20
130.4385
30
0
0
VERTEX
8
Visible_ISO
10
153.4436
20
130.4460
30
0
0
VERTEX
8
Visible_ISO
10
153.4270
20
130.4534
30
0
0
VERTEX
8
Visible_ISO
10
153.4102
20
130.4608
30
0
0
VERTEX
8
Visible_ISO
10
153.3933
20
130.4682
30
0
0
VERTEX
8
Visible_ISO
10
153.3763
20
130.4755
30
0
0
VERTEX
8
Visible_ISO
10
153.3592
20
130.4828
30
0
0
VERTEX
8
Visible_ISO
10
153.3420
20
130.4900
30
0
0
VERTEX
8
Visible_ISO
10
153.3247
20
130.4972
30
0
0
VERTEX
8
Visible_ISO
10
153.3072
20
130.5043
30
0
0
VERTEX
8
Visible_ISO
10
153.2897
20
130.5114
30
0
0
VERTEX
8
Visible_ISO
10
153.2721
20
130.5185
30
0
0
VERTEX
8
Visible_ISO
10
153.2544
20
130.5255
30
0
0
VERTEX
8
Visible_ISO
10
153.2366
20
130.5324
30
0
0
VERTEX
8
Visible_ISO
10
153.2187
20
130.5393
30
0
0
VERTEX
8
Visible_ISO
10
153.2007
20
130.5461
30
0
0
VERTEX
8
Visible_ISO
10
153.1826
20
130.5529
30
0
0
VERTEX
8
Visible_ISO
10
153.1644
20
130.5596
30
0
0
VERTEX
8
Visible_ISO
10
153.1462
20
130.5663
30
0
0
VERTEX
8
Visible_ISO
10
153.1278
20
130.5729
30
0
0
VERTEX
8
Visible_ISO
10
153.1094
20
130.5794
30
0
0
VERTEX
8
Visible_ISO
10
153.0909
20
130.5859
30
0
0
VERTEX
8
Visible_ISO
10
153.0721
20
130.5924
30
0
0
VERTEX
8
Visible_ISO
10
153.0530
20
130.5989
30
0
0
VERTEX
8
Visible_ISO
10
153.0336
20
130.6055
30
0
0
VERTEX
8
Visible_ISO
10
153.0139
20
130.6120
30
0
0
VERTEX
8
Visible_ISO
10
152.9939
20
130.6186
30
0
0
VERTEX
8
Visible_ISO
10
152.9737
20
130.6252
30
0
0
VERTEX
8
Visible_ISO
10
152.9531
20
130.6318
30
0
0
VERTEX
8
Visible_ISO
10
152.9322
20
130.6383
30
0
0
VERTEX
8
Visible_ISO
10
152.9111
20
130.6449
30
0
0
VERTEX
8
Visible_ISO
10
152.8896
20
130.6515
30
0
0
VERTEX
8
Visible_ISO
10
152.8679
20
130.6581
30
0
0
VERTEX
8
Visible_ISO
10
152.8459
20
130.6646
30
0
0
SEQEND
8
Visible_ISO
0
POLYLINE
8
Visible_ISO
66
1
70
0
10
0
20
0
30
0
0
VERTEX
8
Visible_ISO
10
152.8459
20
130.6646
30
0
0
VERTEX
8
Visible_ISO
10
152.8609
20
130.6762
30
0
0
VERTEX
8
Visible_ISO
10
152.8757
20
130.6879
30
0
0
VERTEX
8
Visible_ISO
10
152.8905
20
130.6997
30
0
0
VERTEX
8
Visible_ISO
10
152.9052
20
130.7115
30
0
0
VERTEX
8
Visible_ISO
10
152.9199
20
130.7234
30
0
0
VERTEX
8
Visible_ISO
10
152.9344
20
130.7354
30
0
0
VERTEX
8
Visible_ISO
10
152.9489
20
130.7474
30
0
0
VERTEX
8
Visible_ISO
10
152.9633
20
130.7595
30
0
0
VERTEX
8
Visible_ISO
10
152.9776
20
130.7716
30
0
0
VERTEX
8
Visible_ISO
10
152.9918
20
130.7838
30
0
0
VERTEX
8
Visible_ISO
10
153.0059
20
130.7961
30
0
0
VERTEX
8
Visible_ISO
10
153.0199
20
130.8083
30
0
0
VERTEX
8
Visible_ISO
10
153.0339
20
130.8207
30
0
0
VERTEX
8
Visible_ISO
10
153.0477
20
130.8330
30
0
0
VERTEX
8
Visible_ISO
10
153.0615
20
130.8454
30
0
0
VERTEX
8
Visible_ISO
10
153.0752
20
130.8579
30
0
0
VERTEX
8
Visible_ISO
10
153.0887
20
130.8704
30
0
0
VERTEX
8
Visible_ISO
10
153.1022
20
130.8829
30
0
0
VERTEX
8
Visible_ISO
10
153.1156
20
130.8954
30
0
0
VERTEX
8
Visible_ISO
10
153.1289
20
130.9080
30
0
0
VERTEX
8
Visible_ISO
10
153.1420
20
130.9206
30
0
0
VERTEX
8
Visible_ISO
10
153.1551
20
130.9332
30
0
0
VERTEX
8
Visible_ISO
10
153.1681
20
130.9459
30
0
0
VERTEX
8
Visible_ISO
10
153.1809
20
130.9585
30
0
0
VERTEX
8
Visible_ISO
10
153.1937
20
130.9712
30
0
0
VERTEX
8
Visible_ISO
10
153.2063
20
130.9839
30
0
0
VERTEX
8
Visible_ISO
10
153.2189
20
130.9966
30
0
0
VERTEX
8
Visible_ISO
10
153.2313
20
131.0093
30
0
0
VERTEX
8
Visible_ISO
10
153.2436
20
131.0220
30
0
0
VERTEX
8
Visible_ISO
10
153.2558
20
131.0347
30
0
0
VERTEX
8
Visible_ISO
10
153.2679
20
131.0474
30
0
0
VERTEX
8
Visible_ISO
10
153.2799
20
131.0601
30
0
0
VERTEX
8
Visible_ISO
10
153.2917
20
131.0728
30
0
0
VERTEX
8
Visible_ISO
10
153.3035
20
131.0855
30
0
0
VERTEX
8
Visible_ISO
10
153.3153
20
131.0984
30
0
0
VERTEX
8
Visible_ISO
10
153.3270
20
131.1113
30
0
0
VERTEX
8
Visible_ISO
10
153.3388
20
131.1244
30
0
0
VERTEX
8
Visible_ISO
10
153.3505
20
131.1376
30
0
0
VERTEX
8
Visible_ISO
10
153.3622
20
131.1508
30
0
0
VERTEX
8
Visible_ISO
10
153.3739
20
131.1642
30
0
0
VERTEX
8
Visible_ISO
10
153.3855
20
131.1777
30
0
0
VERTEX
8
Visible_ISO
10
153.3972
20
131.1913
30
0
0
VERTEX
8
Visible_ISO
10
153.4088
20
131.2049
30
0
0
VERTEX
8
Visible_ISO
10
153.4203
20
131.2187
30
0
0
VERTEX
8
Visible_ISO
10
153.4319
20
131.2325
30
0
0
VERTEX
8
Visible_ISO
10
153.4434
20
131.2465
30
0
0
VERTEX
8
Visible_ISO
10
153.4549
20
131.2605
30
0
0
VERTEX
8
Visible_ISO
10
153.4664
20
131.2747
30
0
0
VERTEX
8
Visible_ISO
10
153.4778
20
131.2889
30
0
0
VERTEX
8
Visible_ISO
10
153.4892
20
131.3032
30
0
0
VERTEX
8
Visible_ISO
10
153.5005
20
131.3176
30
0
0
VERTEX
8
Visible_ISO
10
153.5118
20
131.3320
30
0
0
VERTEX
8
Visible_ISO
10
153.5231
20
131.3466
30
0
0
VERTEX
8
Visible_ISO
10
153.5343
20
131.3612
30
0
0
VERTEX
8
Visible_ISO
10
153.5455
20
131.3759
30
0
0
VERTEX
8
Visible_ISO
10
153.5566
20
131.3907
30
0
0
VERTEX
8
Visible_ISO
10
153.5677
20
131.4056
30
0
0
VERTEX
8
Visible_ISO
10
153.5787
20
131.4205
30
0
0
VERTEX
8
Visible_ISO
10
153.5897
20
131.4355
30
0
0
VERTEX
8
Visible_ISO
10
153.6006
20
131.4506
30
0
0
VERTEX
8
Visible_ISO
10
153.6115
20
131.4658
30
0
0
VERTEX
8
Visible_ISO
10
153.6223
20
131.4810
30
0
0
VERTEX
8
Visible_ISO
10
153.6331
20
131.4963
30
0
0
VERTEX
8
Visible_ISO
10
153.6438
20
131.5116
30
0
0
VERTEX
8
Visible_ISO
10
153.6544
20
131.5271
30
0
0
VERTEX
8
Visible_ISO
10
153.6650
20
131.5425
30
0
0
VERTEX
8
Visible_ISO
10
153.6755
20
131.5581
30
0
0
VERTEX
8
Visible_ISO
10
153.6859
20
131.5737
30
0
0
VERTEX
8
Visible_ISO
10
153.6963
20
131.5893
30
0
0
VERTEX
8
Visible_ISO
10
153.7066
20
131.6051
30
0
0
VERTEX
8
Visible_ISO
10
153.7168
20
131.6208
30
0
0
VERTEX
8
Visible_ISO
10
153.7270
20
131.6366
30
0
0
SEQEND
8
Visible_ISO
0
LINE
8
Visible_ISO
10
157.3920
20
130.1363
30
0
11
153.9914
21
130.1363
31
0
0
LINE
8
Visible_ISO
10
157.3920
20
130.6646
30
0
11
157.3920
21
130.1363
31
0
0
LINE
8
Visible_ISO
10
157.3920
20
130.6646
30
0
11
152.8459
21
130.6646
31
0
0
LINE
8
Visible_ISO
10
157.3920
20
131.6366
30
0
11
157.3920
21
130.6646
31
0
0
LINE
8
Visible_ISO
10
157.3920
20
131.6366
30
0
11
153.7270
21
131.6366
31
0
0
LINE
8
Visible_ISO
10
152.8920
20
144.2746
30
0
11
152.8920
21
138.7916
31
0
0
LINE
8
Visible_ISO
10
152.8920
20
144.2746
30
0
11
152.8920
21
144.4578
31
0
0
LINE
8
Visible_ISO
10
157.3920
20
137.6410
30
0
11
155.3920
21
137.6410
31
0
0
LINE
8
Visible_ISO
10
155.3920
20
136.8910
30
0
11
154.8920
21
136.8910
31
0
0
ARC
8
Visible_ISO
10
154.8920
20
144.4578
30
0
40
2.0000
50
90.0000
51
180.0000
0
POLYLINE
8
Visible_ISO
66
1
70
0
10
0
20
0
30
0
0
VERTEX
8
Visible_ISO
10
152.8920
20
138.7916
30
0
0
VERTEX
8
Visible_ISO
10
152.8920
20
138.7916
30
0
0
VERTEX
8
Visible_ISO
10
152.8920
20
138.7916
30
0
0
VERTEX
8
Visible_ISO
10
152.8920
20
138.7916
30
0
0
VERTEX
8
Visible_ISO
10
152.8920
20
138.7916
30
0
0
VERTEX
8
Visible_ISO
10
152.8920
20
138.7916
30
0
0
VERTEX
8
Visible_ISO
10
152.8920
20
138.7916
30
0
0
VERTEX
8
Visible_ISO
10
152.8920
20
138.7916
30
0
0
VERTEX
8
Visible_ISO
10
152.8920
20
138.7916
30
0
0
VERTEX
8
Visible_ISO
10
152.8920
20
138.7915
30
0
0
VERTEX
8
Visible_ISO
10
152.8920
20
138.7915
30
0
0
VERTEX
8
Visible_ISO
10
152.8920
20
138.7915
30
0
0
VERTEX
8
Visible_ISO
10
152.8920
20
138.7915
30
0
0
VERTEX
8
Visible_ISO
10
152.8920
20
138.7915
30
0
0
VERTEX
8
Visible_ISO
10
152.8920
20
138.7915
30
0
0
VERTEX
8
Visible_ISO
10
152.8920
20
138.7915
30
0
0
VERTEX
8
Visible_ISO
10
152.8920
20
138.7915
30
0
0
VERTEX
8
Visible_ISO
10
152.8920
20
138.7915
30
0
0
VERTEX
8
Visible_ISO
10
152.8920
20
138.7915
30
0
0
VERTEX
8
Visible_ISO
10
152.8920
20
138.7915
30
0
0
VERTEX
8
Visible_ISO
10
152.8920
20
138.7915
30
0
0
VERTEX
8
Visible_ISO
10
152.8920
20
138.7914
30
0
0
VERTEX
8
Visible_ISO
10
152.8920
20
138.7914
30
0
0
VERTEX
8
Visible_ISO
10
152.8920
20
138.7914
30
0
0
VERTEX
8
Visible_ISO
10
152.8920
20
138.7914
30
0
0
VERTEX
8
Visible_ISO
10
152.8920
20
138.7914
30
0
0
VERTEX
8
Visible_ISO
10
152.8920
20
138.7914
30
0
0
VERTEX
8
Visible_ISO
10
152.8920
20
138.7914
30
0
0
VERTEX
8
Visible_ISO
10
152.8920
20
138.7914
30
0
0
VERTEX
8
Visible_ISO
10
152.8920
20
138.7914
30
0
0
VERTEX
8
Visible_ISO
10
152.8920
20
138.7914
30
0
0
VERTEX
8
Visible_ISO
10
152.8920
20
138.7914
30
0
0
VERTEX
8
Visible_ISO
10
152.8920
20
138.7913
30
0
0
VERTEX
8
Visible_ISO
10
152.8920
20
138.7913
30
0
0
VERTEX
8
Visible_ISO
10
152.8920
20
138.7913
30
0
0
VERTEX
8
Visible_ISO
10
152.8920
20
138.7913
30
0
0
VERTEX
8
Visible_ISO
10
152.8920
20
138.7913
30
0
0
VERTEX
8
Visible_ISO
10
152.8920
20
138.7913
30
0
0
VERTEX
8
Visible_ISO
10
152.8920
20
138.7913
30
0
0
VERTEX
8
Visible_ISO
10
152.8920
20
138.7913
30
0
0
VERTEX
8
Visible_ISO
10
152.8920
20
138.7913
30
0
0
VERTEX
8
Visible_ISO
10
152.8920
20
138.7913
30
0
0
VERTEX
8
Visible_ISO
10
152.8920
20
138.7913
30
0
0
VERTEX
8
Visible_ISO
10
152.8920
20
138.7913
30
0
0
VERTEX
8
Visible_ISO
10
152.8920
20
138.7912
30
0
0
VERTEX
8
Visible_ISO
10
152.8920
20
138.7912
30
0
0
VERTEX
8
Visible_ISO
10
152.8920
20
138.7912
30
0
0
VERTEX
8
Visible_ISO
10
152.8920
20
138.7912
30
0
0
VERTEX
8
Visible_ISO
10
152.8920
20
138.7912
30
0
0
SEQEND
8
Visible_ISO
0
POLYLINE
8
Visible_ISO
66
1
70
0
10
0
20
0
30
0
0
VERTEX
8
Visible_ISO
10
153.2008
20
136.7472
30
0
0
VERTEX
8
Visible_ISO
10
153.2060
20
136.7485
30
0
0
VERTEX
8
Visible_ISO
10
153.2114
20
136.7497
30
0
0
VERTEX
8
Visible_ISO
10
153.2169
20
136.7510
30
0
0
VERTEX
8
Visible_ISO
10
153.2225
20
136.7523
30
0
0
VERTEX
8
Visible_ISO
10
153.2282
20
136.7536
30
0
0
VERTEX
8
Visible_ISO
10
153.2341
20
136.7549
30
0
0
VERTEX
8
Visible_ISO
10
153.2400
20
136.7562
30
0
0
VERTEX
8
Visible_ISO
10
153.2461
20
136.7575
30
0
0
VERTEX
8
Visible_ISO
10
153.2523
20
136.7589
30
0
0
VERTEX
8
Visible_ISO
10
153.2586
20
136.7602
30
0
0
VERTEX
8
Visible_ISO
10
153.2650
20
136.7616
30
0
0
VERTEX
8
Visible_ISO
10
153.2715
20
136.7629
30
0
0
VERTEX
8
Visible_ISO
10
153.2781
20
136.7643
30
0
0
VERTEX
8
Visible_ISO
10
153.2849
20
136.7657
30
0
0
VERTEX
8
Visible_ISO
10
153.2917
20
136.7671
30
0
0
VERTEX
8
Visible_ISO
10
153.2987
20
136.7685
30
0
0
VERTEX
8
Visible_ISO
10
153.3058
20
136.7699
30
0
0
VERTEX
8
Visible_ISO
10
153.3130
20
136.7713
30
0
0
VERTEX
8
Visible_ISO
10
153.3203
20
136.7727
30
0
0
VERTEX
8
Visible_ISO
10
153.3277
20
136.7741
30
0
0
VERTEX
8
Visible_ISO
10
153.3352
20
136.7755
30
0
0
VERTEX
8
Visible_ISO
10
153.3428
20
136.7769
30
0
0
VERTEX
8
Visible_ISO
10
153.3505
20
136.7784
30
0
0
VERTEX
8
Visible_ISO
10
153.3583
20
136.7798
30
0
0
VERTEX
8
Visible_ISO
10
153.3663
20
136.7812
30
0
0
VERTEX
8
Visible_ISO
10
153.3743
20
136.7827
30
0
0
VERTEX
8
Visible_ISO
10
153.3825
20
136.7841
30
0
0
VERTEX
8
Visible_ISO
10
153.3907
20
136.7855
30
0
0
VERTEX
8
Visible_ISO
10
153.3991
20
136.7870
30
0
0
VERTEX
8
Visible_ISO
10
153.4076
20
136.7884
30
0
0
VERTEX
8
Visible_ISO
10
153.4161
20
136.7899
30
0
0
VERTEX
8
Visible_ISO
10
153.4248
20
136.7913
30
0
0
VERTEX
8
Visible_ISO
10
153.4336
20
136.7927
30
0
0
VERTEX
8
Visible_ISO
10
153.4424
20
136.7942
30
0
0
VERTEX
8
Visible_ISO
10
153.4514
20
136.7956
30
0
0
VERTEX
8
Visible_ISO
10
153.4605
20
136.7971
30
0
0
VERTEX
8
Visible_ISO
10
153.4697
20
136.7985
30
0
0
VERTEX
8
Visible_ISO
10
153.4790
20
136.7999
30
0
0
VERTEX
8
Visible_ISO
10
153.4883
20
136.8013
30
0
0
VERTEX
8
Visible_ISO
10
153.4978
20
136.8028
30
0
0
VERTEX
8
Visible_ISO
10
153.5074
20
136.8042
30
0
0
VERTEX
8
Visible_ISO
10
153.5171
20
136.8056
30
0
0
VERTEX
8
Visible_ISO
10
153.5268
20
136.8070
30
0
0
VERTEX
8
Visible_ISO
10
153.5367
20
136.8084
30
0
0
VERTEX
8
Visible_ISO
10
153.5467
20
136.8098
30
0
0
VERTEX
8
Visible_ISO
10
153.5567
20
136.8113
30
0
0
VERTEX
8
Visible_ISO
10
153.5669
20
136.8127
30
0
0
VERTEX
8
Visible_ISO
10
153.5771
20
136.8140
30
0
0
VERTEX
8
Visible_ISO
10
153.5875
20
136.8154
30
0
0
VERTEX
8
Visible_ISO
10
153.5979
20
136.8168
30
0
0
VERTEX
8
Visible_ISO
10
153.6085
20
136.8182
30
0
0
VERTEX
8
Visible_ISO
10
153.6191
20
136.8196
30
0
0
VERTEX
8
Visible_ISO
10
153.6298
20
136.8209
30
0
0
VERTEX
8
Visible_ISO
10
153.6406
20
136.8223
30
0
0
VERTEX
8
Visible_ISO
10
153.6515
20
136.8236
30
0
0
VERTEX
8
Visible_ISO
10
153.6625
20
136.8250
30
0
0
VERTEX
8
Visible_ISO
10
153.6736
20
136.8263
30
0
0
VERTEX
8
Visible_ISO
10
153.6848
20
136.8276
30
0
0
VERTEX
8
Visible_ISO
10
153.6960
20
136.8289
30
0
0
VERTEX
8
Visible_ISO
10
153.7074
20
136.8302
30
0
0
VERTEX
8
Visible_ISO
10
153.7188
20
136.8315
30
0
0
VERTEX
8
Visible_ISO
10
153.7303
20
136.8328
30
0
0
VERTEX
8
Visible_ISO
10
153.7420
20
136.8341
30
0
0
VERTEX
8
Visible_ISO
10
153.7537
20
136.8354
30
0
0
VERTEX
8
Visible_ISO
10
153.7654
20
136.8366
30
0
0
VERTEX
8
Visible_ISO
10
153.7773
20
136.8379
30
0
0
VERTEX
8
Visible_ISO
10
153.7893
20
136.8391
30
0
0
VERTEX
8
Visible_ISO
10
153.8013
20
136.8404
30
0
0
VERTEX
8
Visible_ISO
10
153.8134
20
136.8416
30
0
0
VERTEX
8
Visible_ISO
10
153.8256
20
136.8428
30
0
0
VERTEX
8
Visible_ISO
10
153.8379
20
136.8440
30
0
0
VERTEX
8
Visible_ISO
10
153.8503
20
136.8452
30
0
0
VERTEX
8
Visible_ISO
10
153.8627
20
136.8464
30
0
0
VERTEX
8
Visible_ISO
10
153.8752
20
136.8475
30
0
0
VERTEX
8
Visible_ISO
10
153.8878
20
136.8487
30
0
0
VERTEX
8
Visible_ISO
10
153.9005
20
136.8498
30
0
0
VERTEX
8
Visible_ISO
10
153.9132
20
136.8510
30
0
0
VERTEX
8
Visible_ISO
10
153.9261
20
136.8521
30
0
0
VERTEX
8
Visible_ISO
10
153.9390
20
136.8532
30
0
0
VERTEX
8
Visible_ISO
10
153.9519
20
136.8543
30
0
0
VERTEX
8
Visible_ISO
10
153.9650
20
136.8553
30
0
0
VERTEX
8
Visible_ISO
10
153.9781
20
136.8564
30
0
0
VERTEX
8
Visible_ISO
10
153.9913
20
136.8575
30
0
0
VERTEX
8
Visible_ISO
10
154.0045
20
136.8585
30
0
0
VERTEX
8
Visible_ISO
10
154.0179
20
136.8595
30
0
0
VERTEX
8
Visible_ISO
10
154.0313
20
136.8605
30
0
0
VERTEX
8
Visible_ISO
10
154.0448
20
136.8615
30
0
0
VERTEX
8
Visible_ISO
10
154.0583
20
136.8625
30
0
0
VERTEX
8
Visible_ISO
10
154.0719
20
136.8635
30
0
0
VERTEX
8
Visible_ISO
10
154.0856
20
136.8644
30
0
0
VERTEX
8
Visible_ISO
10
154.0993
20
136.8654
30
0
0
VERTEX
8
Visible_ISO
10
154.1131
20
136.8663
30
0
0
VERTEX
8
Visible_ISO
10
154.1270
20
136.8672
30
0
0
VERTEX
8
Visible_ISO
10
154.1409
20
136.8681
30
0
0
VERTEX
8
Visible_ISO
10
154.1549
20
136.8690
30
0
0
VERTEX
8
Visible_ISO
10
154.1689
20
136.8698
30
0
0
VERTEX
8
Visible_ISO
10
154.1830
20
136.8707
30
0
0
VERTEX
8
Visible_ISO
10
154.1972
20
136.8715
30
0
0
VERTEX
8
Visible_ISO
10
154.2114
20
136.8723
30
0
0
VERTEX
8
Visible_ISO
10
154.2257
20
136.8731
30
0
0
VERTEX
8
Visible_ISO
10
154.2400
20
136.8739
30
0
0
VERTEX
8
Visible_ISO
10
154.2544
20
136.8747
30
0
0
VERTEX
8
Visible_ISO
10
154.2689
20
136.8754
30
0
0
VERTEX
8
Visible_ISO
10
154.2833
20
136.8762
30
0
0
VERTEX
8
Visible_ISO
10
154.2979
20
136.8769
30
0
0
VERTEX
8
Visible_ISO
10
154.3125
20
136.8776
30
0
0
VERTEX
8
Visible_ISO
10
154.3271
20
136.8783
30
0
0
VERTEX
8
Visible_ISO
10
154.3418
20
136.8789
30
0
0
VERTEX
8
Visible_ISO
10
154.3565
20
136.8796
30
0
0
VERTEX
8
Visible_ISO
10
154.3713
20
136.8802
30
0
0
VERTEX
8
Visible_ISO
10
154.3861
20
136.8809
30
0
0
VERTEX
8
Visible_ISO
10
154.4010
20
136.8815
30
0
0
VERTEX
8
Visible_ISO
10
154.4159
20
136.8820
30
0
0
VERTEX
8
Visible_ISO
10
154.4308
20
136.8826
30
0
0
VERTEX
8
Visible_ISO
10
154.4458
20
136.8831
30
0
0
VERTEX
8
Visible_ISO
10
154.4609
20
136.8837
30
0
0
VERTEX
8
Visible_ISO
10
154.4759
20
136.8842
30
0
0
VERTEX
8
Visible_ISO
10
154.4910
20
136.8847
30
0
0
VERTEX
8
Visible_ISO
10
154.5062
20
136.8852
30
0
0
VERTEX
8
Visible_ISO
10
154.5213
20
136.8856
30
0
0
VERTEX
8
Visible_ISO
10
154.5365
20
136.8861
30
0
0
VERTEX
8
Visible_ISO
10
154.5518
20
136.8865
30
0
0
VERTEX
8
Visible_ISO
10
154.5670
20
136.8869
30
0
0
VERTEX
8
Visible_ISO
10
154.5823
20
136.8873
30
0
0
VERTEX
8
Visible_ISO
10
154.5976
20
136.8876
30
0
0
VERTEX
8
Visible_ISO
10
154.6130
20
136.8880
30
0
0
VERTEX
8
Visible_ISO
10
154.6284
20
136.8883
30
0
0
VERTEX
8
Visible_ISO
10
154.6438
20
136.8886
30
0
0
VERTEX
8
Visible_ISO
10
154.6592
20
136.8889
30
0
0
VERTEX
8
Visible_ISO
10
154.6746
20
136.8892
30
0
0
VERTEX
8
Visible_ISO
10
154.6901
20
136.8894
30
0
0
VERTEX
8
Visible_ISO
10
154.7055
20
136.8897
30
0
0
VERTEX
8
Visible_ISO
10
154.7210
20
136.8899
30
0
0
VERTEX
8
Visible_ISO
10
154.7365
20
136.8901
30
0
0
VERTEX
8
Visible_ISO
10
154.7520
20
136.8903
30
0
0
VERTEX
8
Visible_ISO
10
154.7676
20
136.8904
30
0
0
VERTEX
8
Visible_ISO
10
154.7831
20
136.8906
30
0
0
VERTEX
8
Visible_ISO
10
154.7986
20
136.8907
30
0
0
VERTEX
8
Visible_ISO
10
154.8142
20
136.8908
30
0
0
VERTEX
8
Visible_ISO
10
154.8298
20
136.8909
30
0
0
VERTEX
8
Visible_ISO
10
154.8453
20
136.8910
30
0
0
VERTEX
8
Visible_ISO
10
154.8609
20
136.8910
30
0
0
VERTEX
8
Visible_ISO
10
154.8765
20
136.8910
30
0
0
VERTEX
8
Visible_ISO
10
154.8920
20
136.8910
30
0
0
SEQEND
8
Visible_ISO
0
LINE
8
Visible_ISO
10
154.8920
20
146.4578
30
0
11
157.3920
21
146.4578
31
0
0
LINE
8
Hidden_ISO
6
HIDDEN
10
189.7256
20
137.1265
30
0
11
189.4908
21
138.0985
31
0
0
LINE
8
Hidden_ISO
6
HIDDEN
10
196.8949
20
135.2987
30
0
11
197.8669
21
135.5335
31
0
0
LINE
8
Hidden_ISO
6
HIDDEN
10
188.2167
20
136.3019
30
0
11
189.6515
21
130.3623
31
0
0
LINE
8
Hidden_ISO
6
HIDDEN
10
187.8641
20
133.5029
30
0
11
188.2167
21
136.3019
31
0
0
ARC
8
Hidden_ISO
6
HIDDEN
10
203.3157
20
137.8138
30
0
40
2.7500
50
234.7705
51
280.0653
0
ARC
8
Hidden_ISO
6
HIDDEN
10
207.8598
20
112.2140
30
0
40
23.2500
50
79.9347
51
100.0653
0
ARC
8
Hidden_ISO
6
HIDDEN
10
212.4038
20
137.8138
30
0
40
2.7500
50
259.9347
51
305.2295
0
LINE
8
Hidden_ISO
6
HIDDEN
10
224.1162
20
142.7184
30
0
11
213.9902
21
135.5675
31
0
0
ARC
8
Hidden_ISO
6
HIDDEN
10
225.4142
20
140.8805
30
0
40
2.2500
50
7.1808
51
125.2295
0
LINE
8
Hidden_ISO
6
HIDDEN
10
230.9274
20
115.1202
30
0
11
227.6465
21
141.1617
31
0
0
ARC
8
Hidden_ISO
6
HIDDEN
10
207.8598
20
112.2140
30
0
40
23.2500
50
172.8192
51
7.1808
0
LINE
8
Hidden_ISO
6
HIDDEN
10
188.0731
20
141.1617
30
0
11
184.7922
21
115.1202
31
0
0
ARC
8
Hidden_ISO
6
HIDDEN
10
190.3054
20
140.8805
30
0
40
2.2500
50
54.7705
51
172.8192
0
LINE
8
Hidden_ISO
6
HIDDEN
10
201.7294
20
135.5675
30
0
11
191.6033
21
142.7184
31
0
0
LINE
8
Hidden_ISO
6
HIDDEN
10
196.0562
20
138.6557
30
0
11
189.7256
21
137.1265
31
0
0
LINE
8
Hidden_ISO
6
HIDDEN
10
194.9707
20
139.4222
30
0
11
196.0562
21
138.6557
31
0
0
CIRCLE
8
Hidden_ISO
6
HIDDEN
10
207.8598
20
112.2140
30
0
40
6.0000
0
CIRCLE
8
Hidden_ISO
6
HIDDEN
10
207.8598
20
112.2140
30
0
40
7.0000
0
CIRCLE
8
Hidden_ISO
6
HIDDEN
10
207.8598
20
94.2140
30
0
40
2.2000
0
LINE
8
Hidden_ISO
6
HIDDEN
10
199.2147
20
129.9540
30
0
11
198.6714
21
132.2033
31
0
0
ARC
8
Hidden_ISO
6
HIDDEN
10
221.3098
20
129.7640
30
0
40
2.2000
50
148.2828
51
316.7854
0
LINE
8
Hidden_ISO
6
HIDDEN
10
197.7511
20
131.7540
30
0
11
198.0079
21
130.6913
31
0
0
LINE
8
Hidden_ISO
6
HIDDEN
10
198.0079
20
130.6913
30
0
11
196.7928
21
130.3978
31
0
0
LINE
8
Hidden_ISO
6
HIDDEN
10
196.7928
20
130.3978
30
0
11
197.0276
21
129.4257
31
0
0
LINE
8
Hidden_ISO
6
HIDDEN
10
197.0276
20
129.4257
30
0
11
199.2147
21
129.9540
31
0
0
ARC
8
Hidden_ISO
6
HIDDEN
10
207.8598
20
112.2140
30
0
40
10.0000
50
179.2896
51
163.8408
0
LINE
8
Hidden_ISO
6
HIDDEN
10
197.8606
20
112.3379
30
0
11
196.8814
21
112.9033
31
0
0
ARC
8
Hidden_ISO
6
HIDDEN
10
207.8598
20
112.2140
30
0
40
11.0000
50
176.4073
51
162.5609
0
LINE
8
Hidden_ISO
6
HIDDEN
10
197.3654
20
115.5106
30
0
11
198.2549
21
114.9970
31
0
0
LINE
8
Hidden_ISO
6
HIDDEN
10
199.2079
20
136.4299
30
0
11
198.6464
21
136.2144
31
0
0
ARC
8
Hidden_ISO
6
HIDDEN
10
207.8598
20
112.2140
30
0
40
25.7081
50
115.3362
51
135.0945
0
ARC
8
Hidden_ISO
6
HIDDEN
10
207.8598
20
112.2140
30
0
40
25.7081
50
111.0010
51
113.0685
0
LINE
8
Hidden_ISO
6
HIDDEN
10
190.0371
20
128.7659
30
0
11
189.6515
21
130.3623
31
0
0
LINE
8
Hidden_ISO
6
HIDDEN
10
230.1833
20
115.0265
30
0
11
226.9024
21
141.0680
31
0
0
ARC
8
Hidden_ISO
6
HIDDEN
10
207.8598
20
112.2140
30
0
40
22.5000
50
157.8912
51
22.1088
0
LINE
8
Hidden_ISO
6
HIDDEN
10
187.8641
20
133.5029
30
0
11
185.5363
21
115.0265
31
0
0
LINE
8
Hidden_ISO
6
HIDDEN
10
188.8172
20
141.0680
30
0
11
188.4102
21
137.8375
31
0
0
ARC
8
Hidden_ISO
6
HIDDEN
10
190.3054
20
140.8805
30
0
40
1.5000
50
54.7705
51
172.8192
0
LINE
8
Hidden_ISO
6
HIDDEN
10
194.9707
20
139.4222
30
0
11
191.1707
21
142.1058
31
0
0
LINE
8
Hidden_ISO
6
HIDDEN
10
201.2968
20
134.9548
30
0
11
199.2079
21
136.4299
31
0
0
ARC
8
Hidden_ISO
6
HIDDEN
10
203.3157
20
137.8138
30
0
40
3.5000
50
234.7705
51
280.0653
0
ARC
8
Hidden_ISO
6
HIDDEN
10
207.8598
20
112.2140
30
0
40
22.5000
50
77.2741
51
102.7259
0
LINE
8
Hidden_ISO
6
HIDDEN
10
194.3249
20
139.2662
30
0
11
188.9300
21
137.9630
31
0
0
LINE
8
Hidden_ISO
6
HIDDEN
10
194.3249
20
139.2662
30
0
11
194.9707
21
139.4222
31
0
0
LINE
8
Hidden_ISO
6
HIDDEN
10
198.5605
20
132.6623
30
0
11
197.7866
21
135.8664
31
0
0
LINE
8
Hidden_ISO
6
HIDDEN
10
198.6714
20
132.2033
30
0
11
198.5605
21
132.6623
31
0
0
LINE
8
Hidden_ISO
6
HIDDEN
10
188.9300
20
137.9630
30
0
11
188.4102
21
137.8375
31
0
0
LINE
8
Hidden_ISO
6
HIDDEN
10
196.8585
20
135.4492
30
0
11
197.6392
21
132.2177
31
0
0
LINE
8
Hidden_ISO
6
HIDDEN
10
197.6392
20
132.2177
30
0
11
197.7511
21
131.7540
31
0
0
POLYLINE
8
Hidden_ISO
6
HIDDEN
66
1
70
0
10
0
20
0
30
0
0
VERTEX
8
Hidden_ISO
10
222.9131
20
128.2575
30
0
0
VERTEX
8
Hidden_ISO
10
222.9165
20
128.2612
30
0
0
VERTEX
8
Hidden_ISO
10
222.9199
20
128.2648
30
0
0
VERTEX
8
Hidden_ISO
10
222.9233
20
128.2685
30
0
0
VERTEX
8
Hidden_ISO
10
222.9267
20
128.2721
30
0
0
VERTEX
8
Hidden_ISO
10
222.9301
20
128.2758
30
0
0
VERTEX
8
Hidden_ISO
10
222.9334
20
128.2794
30
0
0
VERTEX
8
Hidden_ISO
10
222.9368
20
128.2831
30
0
0
VERTEX
8
Hidden_ISO
10
222.9401
20
128.2868
30
0
0
VERTEX
8
Hidden_ISO
10
222.9434
20
128.2904
30
0
0
VERTEX
8
Hidden_ISO
10
222.9467
20
128.2941
30
0
0
VERTEX
8
Hidden_ISO
10
222.9500
20
128.2978
30
0
0
VERTEX
8
Hidden_ISO
10
222.9533
20
128.3014
30
0
0
VERTEX
8
Hidden_ISO
10
222.9565
20
128.3051
30
0
0
VERTEX
8
Hidden_ISO
10
222.9598
20
128.3088
30
0
0
VERTEX
8
Hidden_ISO
10
222.9630
20
128.3125
30
0
0
VERTEX
8
Hidden_ISO
10
222.9663
20
128.3162
30
0
0
VERTEX
8
Hidden_ISO
10
222.9695
20
128.3199
30
0
0
VERTEX
8
Hidden_ISO
10
222.9727
20
128.3235
30
0
0
VERTEX
8
Hidden_ISO
10
222.9759
20
128.3272
30
0
0
VERTEX
8
Hidden_ISO
10
222.9790
20
128.3309
30
0
0
VERTEX
8
Hidden_ISO
10
222.9822
20
128.3346
30
0
0
VERTEX
8
Hidden_ISO
10
222.9853
20
128.3383
30
0
0
VERTEX
8
Hidden_ISO
10
222.9884
20
128.3420
30
0
0
VERTEX
8
Hidden_ISO
10
222.9916
20
128.3456
30
0
0
VERTEX
8
Hidden_ISO
10
222.9946
20
128.3493
30
0
0
VERTEX
8
Hidden_ISO
10
222.9977
20
128.3530
30
0
0
VERTEX
8
Hidden_ISO
10
223.0008
20
128.3567
30
0
0
VERTEX
8
Hidden_ISO
10
223.0038
20
128.3603
30
0
0
VERTEX
8
Hidden_ISO
10
223.0069
20
128.3640
30
0
0
VERTEX
8
Hidden_ISO
10
223.0099
20
128.3677
30
0
0
VERTEX
8
Hidden_ISO
10
223.0129
20
128.3713
30
0
0
VERTEX
8
Hidden_ISO
10
223.0159
20
128.3750
30
0
0
VERTEX
8
Hidden_ISO
10
223.0188
20
128.3786
30
0
0
VERTEX
8
Hidden_ISO
10
223.0218
20
128.3823
30
0
0
VERTEX
8
Hidden_ISO
10
223.0247
20
128.3859
30
0
0
VERTEX
8
Hidden_ISO
10
223.0276
20
128.3895
30
0
0
VERTEX
8
Hidden_ISO
10
223.0305
20
128.3932
30
0
0
VERTEX
8
Hidden_ISO
10
223.0334
20
128.3968
30
0
0
VERTEX
8
Hidden_ISO
10
223.0363
20
128.4004
30
0
0
VERTEX
8
Hidden_ISO
10
223.0391
20
128.4040
30
0
0
VERTEX
8
Hidden_ISO
10
223.0420
20
128.4076
30
0
0
VERTEX
8
Hidden_ISO
10
223.0448
20
128.4112
30
0
0
VERTEX
8
Hidden_ISO
10
223.0476
20
128.4148
30
0
0
VERTEX
8
Hidden_ISO
10
223.0503
20
128.4184
30
0
0
VERTEX
8
Hidden_ISO
10
223.0531
20
128.4219
30
0
0
VERTEX
8
Hidden_ISO
10
223.0558
20
128.4255
30
0
0
VERTEX
8
Hidden_ISO
10
223.0585
20
128.4290
30
0
0
VERTEX
8
Hidden_ISO
10
223.0612
20
128.4326
30
0
0
VERTEX
8
Hidden_ISO
10
223.0639
20
128.4361
30
0
0
VERTEX
8
Hidden_ISO
10
223.0665
20
128.4396
30
0
0
VERTEX
8
Hidden_ISO
10
223.0691
20
128.4431
30
0
0
VERTEX
8
Hidden_ISO
10
223.0717
20
128.4465
30
0
0
VERTEX
8
Hidden_ISO
10
223.0743
20
128.4500
30
0
0
VERTEX
8
Hidden_ISO
10
223.0769
20
128.4534
30
0
0
VERTEX
8
Hidden_ISO
10
223.0794
20
128.4569
30
0
0
VERTEX
8
Hidden_ISO
10
223.0819
20
128.4603
30
0
0
VERTEX
8
Hidden_ISO
10
223.0844
20
128.4637
30
0
0
VERTEX
8
Hidden_ISO
10
223.0869
20
128.4670
30
0
0
VERTEX
8
Hidden_ISO
10
223.0893
20
128.4704
30
0
0
VERTEX
8
Hidden_ISO
10
223.0917
20
128.4737
30
0
0
VERTEX
8
Hidden_ISO
10
223.0941
20
128.4771
30
0
0
VERTEX
8
Hidden_ISO
10
223.0965
20
128.4804
30
0
0
VERTEX
8
Hidden_ISO
10
223.0989
20
128.4837
30
0
0
VERTEX
8
Hidden_ISO
10
223.1012
20
128.4869
30
0
0
VERTEX
8
Hidden_ISO
10
223.1035
20
128.4902
30
0
0
VERTEX
8
Hidden_ISO
10
223.1058
20
128.4934
30
0
0
VERTEX
8
Hidden_ISO
10
223.1081
20
128.4966
30
0
0
VERTEX
8
Hidden_ISO
10
223.1104
20
128.4998
30
0
0
VERTEX
8
Hidden_ISO
10
223.1126
20
128.5030
30
0
0
VERTEX
8
Hidden_ISO
10
223.1148
20
128.5062
30
0
0
VERTEX
8
Hidden_ISO
10
223.1170
20
128.5093
30
0
0
VERTEX
8
Hidden_ISO
10
223.1191
20
128.5124
30
0
0
VERTEX
8
Hidden_ISO
10
223.1213
20
128.5155
30
0
0
VERTEX
8
Hidden_ISO
10
223.1234
20
128.5186
30
0
0
VERTEX
8
Hidden_ISO
10
223.1255
20
128.5216
30
0
0
VERTEX
8
Hidden_ISO
10
223.1275
20
128.5247
30
0
0
VERTEX
8
Hidden_ISO
10
223.1296
20
128.5277
30
0
0
VERTEX
8
Hidden_ISO
10
223.1316
20
128.5306
30
0
0
VERTEX
8
Hidden_ISO
10
223.1336
20
128.5336
30
0
0
VERTEX
8
Hidden_ISO
10
223.1356
20
128.5365
30
0
0
VERTEX
8
Hidden_ISO
10
223.1375
20
128.5394
30
0
0
VERTEX
8
Hidden_ISO
10
223.1394
20
128.5423
30
0
0
VERTEX
8
Hidden_ISO
10
223.1413
20
128.5452
30
0
0
VERTEX
8
Hidden_ISO
10
223.1432
20
128.5480
30
0
0
VERTEX
8
Hidden_ISO
10
223.1451
20
128.5508
30
0
0
VERTEX
8
Hidden_ISO
10
223.1469
20
128.5536
30
0
0
VERTEX
8
Hidden_ISO
10
223.1487
20
128.5563
30
0
0
VERTEX
8
Hidden_ISO
10
223.1505
20
128.5590
30
0
0
VERTEX
8
Hidden_ISO
10
223.1523
20
128.5617
30
0
0
VERTEX
8
Hidden_ISO
10
223.1540
20
128.5644
30
0
0
VERTEX
8
Hidden_ISO
10
223.1557
20
128.5670
30
0
0
VERTEX
8
Hidden_ISO
10
223.1574
20
128.5696
30
0
0
VERTEX
8
Hidden_ISO
10
223.1590
20
128.5722
30
0
0
VERTEX
8
Hidden_ISO
10
223.1607
20
128.5747
30
0
0
VERTEX
8
Hidden_ISO
10
223.1623
20
128.5772
30
0
0
VERTEX
8
Hidden_ISO
10
223.1639
20
128.5797
30
0
0
VERTEX
8
Hidden_ISO
10
223.1654
20
128.5821
30
0
0
VERTEX
8
Hidden_ISO
10
223.1670
20
128.5845
30
0
0
VERTEX
8
Hidden_ISO
10
223.1685
20
128.5869
30
0
0
VERTEX
8
Hidden_ISO
10
223.1699
20
128.5893
30
0
0
VERTEX
8
Hidden_ISO
10
223.1714
20
128.5916
30
0
0
VERTEX
8
Hidden_ISO
10
223.1728
20
128.5939
30
0
0
VERTEX
8
Hidden_ISO
10
223.1743
20
128.5961
30
0
0
VERTEX
8
Hidden_ISO
10
223.1756
20
128.5983
30
0
0
VERTEX
8
Hidden_ISO
10
223.1770
20
128.6005
30
0
0
VERTEX
8
Hidden_ISO
10
223.1783
20
128.6027
30
0
0
VERTEX
8
Hidden_ISO
10
223.1797
20
128.6048
30
0
0
VERTEX
8
Hidden_ISO
10
223.1809
20
128.6069
30
0
0
VERTEX
8
Hidden_ISO
10
223.1822
20
128.6089
30
0
0
VERTEX
8
Hidden_ISO
10
223.1834
20
128.6109
30
0
0
VERTEX
8
Hidden_ISO
10
223.1847
20
128.6129
30
0
0
VERTEX
8
Hidden_ISO
10
223.1859
20
128.6149
30
0
0
VERTEX
8
Hidden_ISO
10
223.1870
20
128.6168
30
0
0
VERTEX
8
Hidden_ISO
10
223.1882
20
128.6186
30
0
0
VERTEX
8
Hidden_ISO
10
223.1893
20
128.6205
30
0
0
VERTEX
8
Hidden_ISO
10
223.1904
20
128.6223
30
0
0
VERTEX
8
Hidden_ISO
10
223.1914
20
128.6240
30
0
0
VERTEX
8
Hidden_ISO
10
223.1925
20
128.6257
30
0
0
VERTEX
8
Hidden_ISO
10
223.1935
20
128.6274
30
0
0
VERTEX
8
Hidden_ISO
10
223.1945
20
128.6291
30
0
0
SEQEND
8
Hidden_ISO
0
POLYLINE
8
Hidden_ISO
6
HIDDEN
66
1
70
0
10
0
20
0
30
0
0
VERTEX
8
Hidden_ISO
10
219.7240
20
131.2888
30
0
0
VERTEX
8
Hidden_ISO
10
219.7227
20
131.2874
30
0
0
VERTEX
8
Hidden_ISO
10
219.7213
20
131.2860
30
0
0
VERTEX
8
Hidden_ISO
10
219.7199
20
131.2846
30
0
0
VERTEX
8
Hidden_ISO
10
219.7185
20
131.2831
30
0
0
VERTEX
8
Hidden_ISO
10
219.7170
20
131.2815
30
0
0
VERTEX
8
Hidden_ISO
10
219.7155
20
131.2800
30
0
0
VERTEX
8
Hidden_ISO
10
219.7140
20
131.2784
30
0
0
VERTEX
8
Hidden_ISO
10
219.7125
20
131.2768
30
0
0
VERTEX
8
Hidden_ISO
10
219.7109
20
131.2751
30
0
0
VERTEX
8
Hidden_ISO
10
219.7093
20
131.2734
30
0
0
VERTEX
8
Hidden_ISO
10
219.7077
20
131.2717
30
0
0
VERTEX
8
Hidden_ISO
10
219.7060
20
131.2699
30
0
0
VERTEX
8
Hidden_ISO
10
219.7044
20
131.2681
30
0
0
VERTEX
8
Hidden_ISO
10
219.7027
20
131.2663
30
0
0
VERTEX
8
Hidden_ISO
10
219.7009
20
131.2645
30
0
0
VERTEX
8
Hidden_ISO
10
219.6992
20
131.2626
30
0
0
VERTEX
8
Hidden_ISO
10
219.6974
20
131.2607
30
0
0
VERTEX
8
Hidden_ISO
10
219.6956
20
131.2587
30
0
0
VERTEX
8
Hidden_ISO
10
219.6937
20
131.2567
30
0
0
VERTEX
8
Hidden_ISO
10
219.6919
20
131.2547
30
0
0
VERTEX
8
Hidden_ISO
10
219.6900
20
131.2527
30
0
0
VERTEX
8
Hidden_ISO
10
219.6881
20
131.2506
30
0
0
VERTEX
8
Hidden_ISO
10
219.6862
20
131.2485
30
0
0
VERTEX
8
Hidden_ISO
10
219.6842
20
131.2463
30
0
0
VERTEX
8
Hidden_ISO
10
219.6822
20
131.2442
30
0
0
VERTEX
8
Hidden_ISO
10
219.6802
20
131.2420
30
0
0
VERTEX
8
Hidden_ISO
10
219.6782
20
131.2397
30
0
0
VERTEX
8
Hidden_ISO
10
219.6762
20
131.2375
30
0
0
VERTEX
8
Hidden_ISO
10
219.6741
20
131.2352
30
0
0
VERTEX
8
Hidden_ISO
10
219.6720
20
131.2328
30
0
0
VERTEX
8
Hidden_ISO
10
219.6699
20
131.2305
30
0
0
VERTEX
8
Hidden_ISO
10
219.6677
20
131.2281
30
0
0
VERTEX
8
Hidden_ISO
10
219.6656
20
131.2257
30
0
0
VERTEX
8
Hidden_ISO
10
219.6634
20
131.2232
30
0
0
VERTEX
8
Hidden_ISO
10
219.6612
20
131.2207
30
0
0
VERTEX
8
Hidden_ISO
10
219.6590
20
131.2182
30
0
0
VERTEX
8
Hidden_ISO
10
219.6568
20
131.2157
30
0
0
VERTEX
8
Hidden_ISO
10
219.6545
20
131.2131
30
0
0
VERTEX
8
Hidden_ISO
10
219.6522
20
131.2105
30
0
0
VERTEX
8
Hidden_ISO
10
219.6499
20
131.2078
30
0
0
VERTEX
8
Hidden_ISO
10
219.6476
20
131.2052
30
0
0
VERTEX
8
Hidden_ISO
10
219.6453
20
131.2025
30
0
0
VERTEX
8
Hidden_ISO
10
219.6429
20
131.1998
30
0
0
VERTEX
8
Hidden_ISO
10
219.6406
20
131.1970
30
0
0
VERTEX
8
Hidden_ISO
10
219.6382
20
131.1942
30
0
0
VERTEX
8
Hidden_ISO
10
219.6358
20
131.1914
30
0
0
VERTEX
8
Hidden_ISO
10
219.6333
20
131.1886
30
0
0
VERTEX
8
Hidden_ISO
10
219.6309
20
131.1857
30
0
0
VERTEX
8
Hidden_ISO
10
219.6285
20
131.1828
30
0
0
VERTEX
8
Hidden_ISO
10
219.6260
20
131.1799
30
0
0
VERTEX
8
Hidden_ISO
10
219.6235
20
131.1769
30
0
0
VERTEX
8
Hidden_ISO
10
219.6210
20
131.1739
30
0
0
VERTEX
8
Hidden_ISO
10
219.6185
20
131.1709
30
0
0
VERTEX
8
Hidden_ISO
10
219.6160
20
131.1679
30
0
0
VERTEX
8
Hidden_ISO
10
219.6135
20
131.1648
30
0
0
VERTEX
8
Hidden_ISO
10
219.6109
20
131.1617
30
0
0
VERTEX
8
Hidden_ISO
10
219.6084
20
131.1586
30
0
0
VERTEX
8
Hidden_ISO
10
219.6058
20
131.1555
30
0
0
VERTEX
8
Hidden_ISO
10
219.6032
20
131.1523
30
0
0
VERTEX
8
Hidden_ISO
10
219.6006
20
131.1491
30
0
0
VERTEX
8
Hidden_ISO
10
219.5980
20
131.1459
30
0
0
VERTEX
8
Hidden_ISO
10
219.5954
20
131.1427
30
0
0
VERTEX
8
Hidden_ISO
10
219.5928
20
131.1394
30
0
0
VERTEX
8
Hidden_ISO
10
219.5902
20
131.1361
30
0
0
VERTEX
8
Hidden_ISO
10
219.5875
20
131.1328
30
0
0
VERTEX
8
Hidden_ISO
10
219.5849
20
131.1295
30
0
0
VERTEX
8
Hidden_ISO
10
219.5822
20
131.1261
30
0
0
VERTEX
8
Hidden_ISO
10
219.5796
20
131.1227
30
0
0
VERTEX
8
Hidden_ISO
10
219.5769
20
131.1193
30
0
0
VERTEX
8
Hidden_ISO
10
219.5742
20
131.1159
30
0
0
VERTEX
8
Hidden_ISO
10
219.5715
20
131.1124
30
0
0
VERTEX
8
Hidden_ISO
10
219.5688
20
131.1090
30
0
0
VERTEX
8
Hidden_ISO
10
219.5661
20
131.1055
30
0
0
VERTEX
8
Hidden_ISO
10
219.5634
20
131.1019
30
0
0
VERTEX
8
Hidden_ISO
10
219.5607
20
131.0984
30
0
0
VERTEX
8
Hidden_ISO
10
219.5580
20
131.0948
30
0
0
VERTEX
8
Hidden_ISO
10
219.5553
20
131.0912
30
0
0
VERTEX
8
Hidden_ISO
10
219.5525
20
131.0876
30
0
0
VERTEX
8
Hidden_ISO
10
219.5498
20
131.0839
30
0
0
VERTEX
8
Hidden_ISO
10
219.5471
20
131.0803
30
0
0
VERTEX
8
Hidden_ISO
10
219.5443
20
131.0766
30
0
0
VERTEX
8
Hidden_ISO
10
219.5416
20
131.0729
30
0
0
VERTEX
8
Hidden_ISO
10
219.5388
20
131.0692
30
0
0
VERTEX
8
Hidden_ISO
10
219.5360
20
131.0654
30
0
0
VERTEX
8
Hidden_ISO
10
219.5333
20
131.0616
30
0
0
VERTEX
8
Hidden_ISO
10
219.5305
20
131.0579
30
0
0
VERTEX
8
Hidden_ISO
10
219.5278
20
131.0540
30
0
0
VERTEX
8
Hidden_ISO
10
219.5250
20
131.0502
30
0
0
VERTEX
8
Hidden_ISO
10
219.5222
20
131.0464
30
0
0
VERTEX
8
Hidden_ISO
10
219.5195
20
131.0425
30
0
0
VERTEX
8
Hidden_ISO
10
219.5167
20
131.0387
30
0
0
VERTEX
8
Hidden_ISO
10
219.5140
20
131.0348
30
0
0
VERTEX
8
Hidden_ISO
10
219.5112
20
131.0309
30
0
0
VERTEX
8
Hidden_ISO
10
219.5085
20
131.0269
30
0
0
VERTEX
8
Hidden_ISO
10
219.5057
20
131.0230
30
0
0
VERTEX
8
Hidden_ISO
10
219.5030
20
131.0191
30
0
0
VERTEX
8
Hidden_ISO
10
219.5002
20
131.0151
30
0
0
VERTEX
8
Hidden_ISO
10
219.4975
20
131.0111
30
0
0
VERTEX
8
Hidden_ISO
10
219.4947
20
131.0071
30
0
0
VERTEX
8
Hidden_ISO
10
219.4920
20
131.0031
30
0
0
VERTEX
8
Hidden_ISO
10
219.4893
20
130.9991
30
0
0
VERTEX
8
Hidden_ISO
10
219.4865
20
130.9951
30
0
0
VERTEX
8
Hidden_ISO
10
219.4838
20
130.9910
30
0
0
VERTEX
8
Hidden_ISO
10
219.4811
20
130.9870
30
0
0
VERTEX
8
Hidden_ISO
10
219.4784
20
130.9829
30
0
0
VERTEX
8
Hidden_ISO
10
219.4757
20
130.9788
30
0
0
VERTEX
8
Hidden_ISO
10
219.4730
20
130.9747
30
0
0
VERTEX
8
Hidden_ISO
10
219.4703
20
130.9706
30
0
0
VERTEX
8
Hidden_ISO
10
219.4676
20
130.9665
30
0
0
VERTEX
8
Hidden_ISO
10
219.4649
20
130.9624
30
0
0
VERTEX
8
Hidden_ISO
10
219.4622
20
130.9582
30
0
0
VERTEX
8
Hidden_ISO
10
219.4595
20
130.9541
30
0
0
VERTEX
8
Hidden_ISO
10
219.4568
20
130.9499
30
0
0
VERTEX
8
Hidden_ISO
10
219.4542
20
130.9458
30
0
0
VERTEX
8
Hidden_ISO
10
219.4515
20
130.9416
30
0
0
VERTEX
8
Hidden_ISO
10
219.4489
20
130.9374
30
0
0
VERTEX
8
Hidden_ISO
10
219.4462
20
130.9332
30
0
0
VERTEX
8
Hidden_ISO
10
219.4436
20
130.9290
30
0
0
VERTEX
8
Hidden_ISO
10
219.4410
20
130.9248
30
0
0
VERTEX
8
Hidden_ISO
10
219.4384
20
130.9206
30
0
0
SEQEND
8
Hidden_ISO
0
LINE
8
Hidden_ISO
6
HIDDEN
10
188.8310
20
129.5001
30
0
11
189.2999
21
127.5590
31
0
0
LINE
8
Hidden_ISO
6
HIDDEN
10
189.2999
20
127.5590
30
0
11
191.4870
21
128.0873
31
0
0
LINE
8
Hidden_ISO
6
HIDDEN
10
191.4870
20
128.0873
30
0
11
191.2522
21
129.0594
31
0
0
LINE
8
Hidden_ISO
6
HIDDEN
10
191.2522
20
129.0594
30
0
11
190.0371
21
128.7659
31
0
0
LINE
8
Hidden_ISO
6
HIDDEN
10
188.1953
20
132.1318
30
0
11
188.8310
21
129.5001
31
0
0
LINE
8
Hidden_ISO
6
HIDDEN
10
188.1953
20
132.1318
30
0
11
187.8641
21
133.5029
31
0
0
CIRCLE
8
Hidden_ISO
6
HIDDEN
10
207.8598
20
94.2140
30
0
40
1.2000
0
ARC
8
Hidden_ISO
6
HIDDEN
10
221.3098
20
129.7640
30
0
40
1.2000
50
149.4012
51
315.6670
0
POLYLINE
8
Hidden_ISO
6
HIDDEN
66
1
70
0
10
0
20
0
30
0
0
VERTEX
8
Hidden_ISO
10
222.4234
20
129.3169
30
0
0
VERTEX
8
Hidden_ISO
10
222.4227
20
129.3151
30
0
0
VERTEX
8
Hidden_ISO
10
222.4219
20
129.3132
30
0
0
VERTEX
8
Hidden_ISO
10
222.4211
20
129.3113
30
0
0
VERTEX
8
Hidden_ISO
10
222.4203
20
129.3093
30
0
0
VERTEX
8
Hidden_ISO
10
222.4195
20
129.3073
30
0
0
VERTEX
8
Hidden_ISO
10
222.4187
20
129.3053
30
0
0
VERTEX
8
Hidden_ISO
10
222.4178
20
129.3032
30
0
0
VERTEX
8
Hidden_ISO
10
222.4169
20
129.3011
30
0
0
VERTEX
8
Hidden_ISO
10
222.4160
20
129.2989
30
0
0
VERTEX
8
Hidden_ISO
10
222.4151
20
129.2967
30
0
0
VERTEX
8
Hidden_ISO
10
222.4141
20
129.2945
30
0
0
VERTEX
8
Hidden_ISO
10
222.4132
20
129.2922
30
0
0
VERTEX
8
Hidden_ISO
10
222.4122
20
129.2899
30
0
0
VERTEX
8
Hidden_ISO
10
222.4112
20
129.2876
30
0
0
VERTEX
8
Hidden_ISO
10
222.4101
20
129.2852
30
0
0
VERTEX
8
Hidden_ISO
10
222.4091
20
129.2828
30
0
0
VERTEX
8
Hidden_ISO
10
222.4080
20
129.2803
30
0
0
VERTEX
8
Hidden_ISO
10
222.4069
20
129.2778
30
0
0
VERTEX
8
Hidden_ISO
10
222.4058
20
129.2753
30
0
0
VERTEX
8
Hidden_ISO
10
222.4046
20
129.2727
30
0
0
VERTEX
8
Hidden_ISO
10
222.4035
20
129.2701
30
0
0
VERTEX
8
Hidden_ISO
10
222.4023
20
129.2675
30
0
0
VERTEX
8
Hidden_ISO
10
222.4011
20
129.2649
30
0
0
VERTEX
8
Hidden_ISO
10
222.3998
20
129.2622
30
0
0
VERTEX
8
Hidden_ISO
10
222.3986
20
129.2595
30
0
0
VERTEX
8
Hidden_ISO
10
222.3973
20
129.2567
30
0
0
VERTEX
8
Hidden_ISO
10
222.3960
20
129.2539
30
0
0
VERTEX
8
Hidden_ISO
10
222.3947
20
129.2511
30
0
0
VERTEX
8
Hidden_ISO
10
222.3933
20
129.2483
30
0
0
VERTEX
8
Hidden_ISO
10
222.3920
20
129.2454
30
0
0
VERTEX
8
Hidden_ISO
10
222.3906
20
129.2425
30
0
0
VERTEX
8
Hidden_ISO
10
222.3892
20
129.2396
30
0
0
VERTEX
8
Hidden_ISO
10
222.3877
20
129.2366
30
0
0
VERTEX
8
Hidden_ISO
10
222.3863
20
129.2336
30
0
0
VERTEX
8
Hidden_ISO
10
222.3848
20
129.2306
30
0
0
VERTEX
8
Hidden_ISO
10
222.3832
20
129.2276
30
0
0
VERTEX
8
Hidden_ISO
10
222.3817
20
129.2245
30
0
0
VERTEX
8
Hidden_ISO
10
222.3802
20
129.2214
30
0
0
VERTEX
8
Hidden_ISO
10
222.3786
20
129.2183
30
0
0
VERTEX
8
Hidden_ISO
10
222.3770
20
129.2152
30
0
0
VERTEX
8
Hidden_ISO
10
222.3753
20
129.2120
30
0
0
VERTEX
8
Hidden_ISO
10
222.3737
20
129.2088
30
0
0
VERTEX
8
Hidden_ISO
10
222.3720
20
129.2056
30
0
0
VERTEX
8
Hidden_ISO
10
222.3703
20
129.2024
30
0
0
VERTEX
8
Hidden_ISO
10
222.3685
20
129.1991
30
0
0
VERTEX
8
Hidden_ISO
10
222.3668
20
129.1958
30
0
0
VERTEX
8
Hidden_ISO
10
222.3650
20
129.1925
30
0
0
VERTEX
8
Hidden_ISO
10
222.3632
20
129.1892
30
0
0
VERTEX
8
Hidden_ISO
10
222.3613
20
129.1858
30
0
0
VERTEX
8
Hidden_ISO
10
222.3595
20
129.1824
30
0
0
VERTEX
8
Hidden_ISO
10
222.3576
20
129.1791
30
0
0
VERTEX
8
Hidden_ISO
10
222.3557
20
129.1756
30
0
0
VERTEX
8
Hidden_ISO
10
222.3537
20
129.1722
30
0
0
VERTEX
8
Hidden_ISO
10
222.3518
20
129.1688
30
0
0
VERTEX
8
Hidden_ISO
10
222.3498
20
129.1653
30
0
0
VERTEX
8
Hidden_ISO
10
222.3478
20
129.1618
30
0
0
VERTEX
8
Hidden_ISO
10
222.3457
20
129.1583
30
0
0
VERTEX
8
Hidden_ISO
10
222.3437
20
129.1548
30
0
0
VERTEX
8
Hidden_ISO
10
222.3416
20
129.1512
30
0
0
VERTEX
8
Hidden_ISO
10
222.3395
20
129.1477
30
0
0
VERTEX
8
Hidden_ISO
10
222.3373
20
129.1441
30
0
0
VERTEX
8
Hidden_ISO
10
222.3351
20
129.1405
30
0
0
VERTEX
8
Hidden_ISO
10
222.3329
20
129.1369
30
0
0
VERTEX
8
Hidden_ISO
10
222.3307
20
129.1333
30
0
0
VERTEX
8
Hidden_ISO
10
222.3285
20
129.1297
30
0
0
VERTEX
8
Hidden_ISO
10
222.3262
20
129.1261
30
0
0
VERTEX
8
Hidden_ISO
10
222.3239
20
129.1225
30
0
0
VERTEX
8
Hidden_ISO
10
222.3216
20
129.1188
30
0
0
VERTEX
8
Hidden_ISO
10
222.3193
20
129.1151
30
0
0
VERTEX
8
Hidden_ISO
10
222.3169
20
129.1115
30
0
0
VERTEX
8
Hidden_ISO
10
222.3145
20
129.1078
30
0
0
VERTEX
8
Hidden_ISO
10
222.3121
20
129.1041
30
0
0
VERTEX
8
Hidden_ISO
10
222.3096
20
129.1004
30
0
0
VERTEX
8
Hidden_ISO
10
222.3072
20
129.0967
30
0
0
VERTEX
8
Hidden_ISO
10
222.3047
20
129.0930
30
0
0
VERTEX
8
Hidden_ISO
10
222.3021
20
129.0892
30
0
0
VERTEX
8
Hidden_ISO
10
222.2996
20
129.0855
30
0
0
VERTEX
8
Hidden_ISO
10
222.2970
20
129.0818
30
0
0
VERTEX
8
Hidden_ISO
10
222.2944
20
129.0780
30
0
0
VERTEX
8
Hidden_ISO
10
222.2918
20
129.0743
30
0
0
VERTEX
8
Hidden_ISO
10
222.2891
20
129.0705
30
0
0
VERTEX
8
Hidden_ISO
10
222.2865
20
129.0667
30
0
0
VERTEX
8
Hidden_ISO
10
222.2838
20
129.0630
30
0
0
VERTEX
8
Hidden_ISO
10
222.2810
20
129.0592
30
0
0
VERTEX
8
Hidden_ISO
10
222.2783
20
129.0554
30
0
0
VERTEX
8
Hidden_ISO
10
222.2755
20
129.0516
30
0
0
VERTEX
8
Hidden_ISO
10
222.2727
20
129.0478
30
0
0
VERTEX
8
Hidden_ISO
10
222.2699
20
129.0441
30
0
0
VERTEX
8
Hidden_ISO
10
222.2670
20
129.0403
30
0
0
VERTEX
8
Hidden_ISO
10
222.2641
20
129.0365
30
0
0
VERTEX
8
Hidden_ISO
10
222.2612
20
129.0327
30
0
0
VERTEX
8
Hidden_ISO
10
222.2583
20
129.0289
30
0
0
VERTEX
8
Hidden_ISO
10
222.2553
20
129.0251
30
0
0
VERTEX
8
Hidden_ISO
10
222.2524
20
129.0213
30
0
0
VERTEX
8
Hidden_ISO
10
222.2494
20
129.0175
30
0
0
VERTEX
8
Hidden_ISO
10
222.2464
20
129.0137
30
0
0
VERTEX
8
Hidden_ISO
10
222.2433
20
129.0099
30
0
0
VERTEX
8
Hidden_ISO
10
222.2403
20
129.0062
30
0
0
VERTEX
8
Hidden_ISO
10
222.2372
20
129.0024
30
0
0
VERTEX
8
Hidden_ISO
10
222.2341
20
128.9986
30
0
0
VERTEX
8
Hidden_ISO
10
222.2310
20
128.9949
30
0
0
VERTEX
8
Hidden_ISO
10
222.2278
20
128.9912
30
0
0
VERTEX
8
Hidden_ISO
10
222.2247
20
128.9874
30
0
0
VERTEX
8
Hidden_ISO
10
222.2215
20
128.9837
30
0
0
VERTEX
8
Hidden_ISO
10
222.2183
20
128.9800
30
0
0
VERTEX
8
Hidden_ISO
10
222.2151
20
128.9763
30
0
0
VERTEX
8
Hidden_ISO
10
222.2118
20
128.9726
30
0
0
VERTEX
8
Hidden_ISO
10
222.2086
20
128.9689
30
0
0
VERTEX
8
Hidden_ISO
10
222.2053
20
128.9652
30
0
0
VERTEX
8
Hidden_ISO
10
222.2020
20
128.9615
30
0
0
VERTEX
8
Hidden_ISO
10
222.1987
20
128.9578
30
0
0
VERTEX
8
Hidden_ISO
10
222.1954
20
128.9542
30
0
0
VERTEX
8
Hidden_ISO
10
222.1920
20
128.9505
30
0
0
VERTEX
8
Hidden_ISO
10
222.1887
20
128.9469
30
0
0
VERTEX
8
Hidden_ISO
10
222.1853
20
128.9433
30
0
0
VERTEX
8
Hidden_ISO
10
222.1819
20
128.9397
30
0
0
VERTEX
8
Hidden_ISO
10
222.1785
20
128.9361
30
0
0
VERTEX
8
Hidden_ISO
10
222.1751
20
128.9325
30
0
0
VERTEX
8
Hidden_ISO
10
222.1716
20
128.9289
30
0
0
VERTEX
8
Hidden_ISO
10
222.1681
20
128.9254
30
0
0
SEQEND
8
Hidden_ISO
0
POLYLINE
8
Hidden_ISO
6
HIDDEN
66
1
70
0
10
0
20
0
30
0
0
VERTEX
8
Hidden_ISO
10
220.5886
20
130.7231
30
0
0
VERTEX
8
Hidden_ISO
10
220.5945
20
130.7275
30
0
0
VERTEX
8
Hidden_ISO
10
220.6005
20
130.7319
30
0
0
VERTEX
8
Hidden_ISO
10
220.6067
20
130.7364
30
0
0
VERTEX
8
Hidden_ISO
10
220.6129
20
130.7409
30
0
0
VERTEX
8
Hidden_ISO
10
220.6193
20
130.7454
30
0
0
VERTEX
8
Hidden_ISO
10
220.6258
20
130.7500
30
0
0
VERTEX
8
Hidden_ISO
10
220.6324
20
130.7545
30
0
0
VERTEX
8
Hidden_ISO
10
220.6391
20
130.7591
30
0
0
VERTEX
8
Hidden_ISO
10
220.6460
20
130.7637
30
0
0
VERTEX
8
Hidden_ISO
10
220.6530
20
130.7683
30
0
0
VERTEX
8
Hidden_ISO
10
220.6601
20
130.7729
30
0
0
VERTEX
8
Hidden_ISO
10
220.6673
20
130.7775
30
0
0
VERTEX
8
Hidden_ISO
10
220.6746
20
130.7821
30
0
0
VERTEX
8
Hidden_ISO
10
220.6821
20
130.7868
30
0
0
VERTEX
8
Hidden_ISO
10
220.6897
20
130.7914
30
0
0
VERTEX
8
Hidden_ISO
10
220.6974
20
130.7960
30
0
0
VERTEX
8
Hidden_ISO
10
220.7053
20
130.8006
30
0
0
VERTEX
8
Hidden_ISO
10
220.7133
20
130.8052
30
0
0
VERTEX
8
Hidden_ISO
10
220.7214
20
130.8098
30
0
0
VERTEX
8
Hidden_ISO
10
220.7296
20
130.8144
30
0
0
VERTEX
8
Hidden_ISO
10
220.7380
20
130.8190
30
0
0
VERTEX
8
Hidden_ISO
10
220.7466
20
130.8236
30
0
0
VERTEX
8
Hidden_ISO
10
220.7552
20
130.8281
30
0
0
VERTEX
8
Hidden_ISO
10
220.7640
20
130.8327
30
0
0
VERTEX
8
Hidden_ISO
10
220.7730
20
130.8372
30
0
0
VERTEX
8
Hidden_ISO
10
220.7821
20
130.8417
30
0
0
VERTEX
8
Hidden_ISO
10
220.7913
20
130.8462
30
0
0
VERTEX
8
Hidden_ISO
10
220.8007
20
130.8506
30
0
0
VERTEX
8
Hidden_ISO
10
220.8102
20
130.8550
30
0
0
VERTEX
8
Hidden_ISO
10
220.8199
20
130.8594
30
0
0
VERTEX
8
Hidden_ISO
10
220.8297
20
130.8637
30
0
0
VERTEX
8
Hidden_ISO
10
220.8396
20
130.8680
30
0
0
VERTEX
8
Hidden_ISO
10
220.8497
20
130.8723
30
0
0
VERTEX
8
Hidden_ISO
10
220.8600
20
130.8765
30
0
0
VERTEX
8
Hidden_ISO
10
220.8703
20
130.8806
30
0
0
VERTEX
8
Hidden_ISO
10
220.8809
20
130.8847
30
0
0
VERTEX
8
Hidden_ISO
10
220.8916
20
130.8887
30
0
0
VERTEX
8
Hidden_ISO
10
220.9024
20
130.8927
30
0
0
VERTEX
8
Hidden_ISO
10
220.9134
20
130.8966
30
0
0
VERTEX
8
Hidden_ISO
10
220.9246
20
130.9005
30
0
0
VERTEX
8
Hidden_ISO
10
220.9358
20
130.9042
30
0
0
VERTEX
8
Hidden_ISO
10
220.9473
20
130.9079
30
0
0
VERTEX
8
Hidden_ISO
10
220.9589
20
130.9115
30
0
0
VERTEX
8
Hidden_ISO
10
220.9707
20
130.9150
30
0
0
VERTEX
8
Hidden_ISO
10
220.9826
20
130.9185
30
0
0
VERTEX
8
Hidden_ISO
10
220.9946
20
130.9218
30
0
0
VERTEX
8
Hidden_ISO
10
221.0069
20
130.9251
30
0
0
VERTEX
8
Hidden_ISO
10
221.0193
20
130.9283
30
0
0
VERTEX
8
Hidden_ISO
10
221.0318
20
130.9313
30
0
0
VERTEX
8
Hidden_ISO
10
221.0444
20
130.9342
30
0
0
VERTEX
8
Hidden_ISO
10
221.0571
20
130.9370
30
0
0
VERTEX
8
Hidden_ISO
10
221.0698
20
130.9397
30
0
0
VERTEX
8
Hidden_ISO
10
221.0826
20
130.9422
30
0
0
VERTEX
8
Hidden_ISO
10
221.0955
20
130.9447
30
0
0
VERTEX
8
Hidden_ISO
10
221.1084
20
130.9469
30
0
0
VERTEX
8
Hidden_ISO
10
221.1214
20
130.9491
30
0
0
VERTEX
8
Hidden_ISO
10
221.1344
20
130.9511
30
0
0
VERTEX
8
Hidden_ISO
10
221.1475
20
130.9529
30
0
0
VERTEX
8
Hidden_ISO
10
221.1607
20
130.9546
30
0
0
VERTEX
8
Hidden_ISO
10
221.1738
20
130.9562
30
0
0
VERTEX
8
Hidden_ISO
10
221.1871
20
130.9576
30
0
0
VERTEX
8
Hidden_ISO
10
221.2004
20
130.9589
30
0
0
VERTEX
8
Hidden_ISO
10
221.2137
20
130.9601
30
0
0
VERTEX
8
Hidden_ISO
10
221.2271
20
130.9611
30
0
0
VERTEX
8
Hidden_ISO
10
221.2405
20
130.9619
30
0
0
VERTEX
8
Hidden_ISO
10
221.2539
20
130.9626
30
0
0
VERTEX
8
Hidden_ISO
10
221.2674
20
130.9632
30
0
0
VERTEX
8
Hidden_ISO
10
221.2810
20
130.9636
30
0
0
VERTEX
8
Hidden_ISO
10
221.2946
20
130.9638
30
0
0
VERTEX
8
Hidden_ISO
10
221.3082
20
130.9639
30
0
0
VERTEX
8
Hidden_ISO
10
221.3218
20
130.9639
30
0
0
VERTEX
8
Hidden_ISO
10
221.3355
20
130.9637
30
0
0
VERTEX
8
Hidden_ISO
10
221.3492
20
130.9633
30
0
0
VERTEX
8
Hidden_ISO
10
221.3629
20
130.9628
30
0
0
VERTEX
8
Hidden_ISO
10
221.3767
20
130.9621
30
0
0
VERTEX
8
Hidden_ISO
10
221.3905
20
130.9612
30
0
0
VERTEX
8
Hidden_ISO
10
221.4043
20
130.9602
30
0
0
VERTEX
8
Hidden_ISO
10
221.4183
20
130.9590
30
0
0
VERTEX
8
Hidden_ISO
10
221.4322
20
130.9577
30
0
0
VERTEX
8
Hidden_ISO
10
221.4462
20
130.9562
30
0
0
VERTEX
8
Hidden_ISO
10
221.4603
20
130.9545
30
0
0
VERTEX
8
Hidden_ISO
10
221.4744
20
130.9526
30
0
0
VERTEX
8
Hidden_ISO
10
221.4886
20
130.9506
30
0
0
VERTEX
8
Hidden_ISO
10
221.5027
20
130.9483
30
0
0
VERTEX
8
Hidden_ISO
10
221.5170
20
130.9459
30
0
0
VERTEX
8
Hidden_ISO
10
221.5312
20
130.9433
30
0
0
VERTEX
8
Hidden_ISO
10
221.5455
20
130.9406
30
0
0
VERTEX
8
Hidden_ISO
10
221.5598
20
130.9376
30
0
0
VERTEX
8
Hidden_ISO
10
221.5742
20
130.9345
30
0
0
VERTEX
8
Hidden_ISO
10
221.5885
20
130.9311
30
0
0
VERTEX
8
Hidden_ISO
10
221.6029
20
130.9276
30
0
0
VERTEX
8
Hidden_ISO
10
221.6174
20
130.9239
30
0
0
VERTEX
8
Hidden_ISO
10
221.6318
20
130.9199
30
0
0
VERTEX
8
Hidden_ISO
10
221.6462
20
130.9158
30
0
0
VERTEX
8
Hidden_ISO
10
221.6607
20
130.9115
30
0
0
VERTEX
8
Hidden_ISO
10
221.6752
20
130.9070
30
0
0
VERTEX
8
Hidden_ISO
10
221.6897
20
130.9022
30
0
0
VERTEX
8
Hidden_ISO
10
221.7042
20
130.8973
30
0
0
VERTEX
8
Hidden_ISO
10
221.7187
20
130.8921
30
0
0
VERTEX
8
Hidden_ISO
10
221.7331
20
130.8868
30
0
0
VERTEX
8
Hidden_ISO
10
221.7476
20
130.8812
30
0
0
VERTEX
8
Hidden_ISO
10
221.7619
20
130.8755
30
0
0
VERTEX
8
Hidden_ISO
10
221.7763
20
130.8696
30
0
0
VERTEX
8
Hidden_ISO
10
221.7905
20
130.8634
30
0
0
VERTEX
8
Hidden_ISO
10
221.8048
20
130.8571
30
0
0
VERTEX
8
Hidden_ISO
10
221.8189
20
130.8506
30
0
0
VERTEX
8
Hidden_ISO
10
221.8330
20
130.8439
30
0
0
VERTEX
8
Hidden_ISO
10
221.8470
20
130.8369
30
0
0
VERTEX
8
Hidden_ISO
10
221.8610
20
130.8298
30
0
0
VERTEX
8
Hidden_ISO
10
221.8749
20
130.8225
30
0
0
VERTEX
8
Hidden_ISO
10
221.8887
20
130.8150
30
0
0
VERTEX
8
Hidden_ISO
10
221.9025
20
130.8074
30
0
0
VERTEX
8
Hidden_ISO
10
221.9161
20
130.7995
30
0
0
VERTEX
8
Hidden_ISO
10
221.9297
20
130.7914
30
0
0
VERTEX
8
Hidden_ISO
10
221.9432
20
130.7831
30
0
0
VERTEX
8
Hidden_ISO
10
221.9566
20
130.7747
30
0
0
VERTEX
8
Hidden_ISO
10
221.9699
20
130.7661
30
0
0
VERTEX
8
Hidden_ISO
10
221.9832
20
130.7572
30
0
0
VERTEX
8
Hidden_ISO
10
221.9963
20
130.7482
30
0
0
VERTEX
8
Hidden_ISO
10
222.0093
20
130.7390
30
0
0
VERTEX
8
Hidden_ISO
10
222.0222
20
130.7296
30
0
0
VERTEX
8
Hidden_ISO
10
222.0350
20
130.7200
30
0
0
VERTEX
8
Hidden_ISO
10
222.0477
20
130.7103
30
0
0
VERTEX
8
Hidden_ISO
10
222.0602
20
130.7004
30
0
0
VERTEX
8
Hidden_ISO
10
222.0725
20
130.6903
30
0
0
VERTEX
8
Hidden_ISO
10
222.0847
20
130.6802
30
0
0
VERTEX
8
Hidden_ISO
10
222.0968
20
130.6698
30
0
0
VERTEX
8
Hidden_ISO
10
222.1087
20
130.6593
30
0
0
VERTEX
8
Hidden_ISO
10
222.1204
20
130.6487
30
0
0
VERTEX
8
Hidden_ISO
10
222.1320
20
130.6379
30
0
0
VERTEX
8
Hidden_ISO
10
222.1435
20
130.6270
30
0
0
VERTEX
8
Hidden_ISO
10
222.1547
20
130.6160
30
0
0
VERTEX
8
Hidden_ISO
10
222.1659
20
130.6048
30
0
0
VERTEX
8
Hidden_ISO
10
222.1768
20
130.5935
30
0
0
VERTEX
8
Hidden_ISO
10
222.1876
20
130.5821
30
0
0
VERTEX
8
Hidden_ISO
10
222.1982
20
130.5706
30
0
0
VERTEX
8
Hidden_ISO
10
222.2087
20
130.5589
30
0
0
VERTEX
8
Hidden_ISO
10
222.2190
20
130.5471
30
0
0
VERTEX
8
Hidden_ISO
10
222.2291
20
130.5352
30
0
0
VERTEX
8
Hidden_ISO
10
222.2391
20
130.5232
30
0
0
VERTEX
8
Hidden_ISO
10
222.2489
20
130.5110
30
0
0
VERTEX
8
Hidden_ISO
10
222.2585
20
130.4988
30
0
0
VERTEX
8
Hidden_ISO
10
222.2679
20
130.4865
30
0
0
VERTEX
8
Hidden_ISO
10
222.2772
20
130.4740
30
0
0
VERTEX
8
Hidden_ISO
10
222.2862
20
130.4615
30
0
0
VERTEX
8
Hidden_ISO
10
222.2951
20
130.4489
30
0
0
VERTEX
8
Hidden_ISO
10
222.3038
20
130.4363
30
0
0
VERTEX
8
Hidden_ISO
10
222.3122
20
130.4236
30
0
0
VERTEX
8
Hidden_ISO
10
222.3205
20
130.4109
30
0
0
VERTEX
8
Hidden_ISO
10
222.3286
20
130.3981
30
0
0
VERTEX
8
Hidden_ISO
10
222.3364
20
130.3853
30
0
0
VERTEX
8
Hidden_ISO
10
222.3441
20
130.3724
30
0
0
VERTEX
8
Hidden_ISO
10
222.3516
20
130.3595
30
0
0
VERTEX
8
Hidden_ISO
10
222.3589
20
130.3466
30
0
0
VERTEX
8
Hidden_ISO
10
222.3660
20
130.3336
30
0
0
VERTEX
8
Hidden_ISO
10
222.3729
20
130.3206
30
0
0
VERTEX
8
Hidden_ISO
10
222.3796
20
130.3076
30
0
0
VERTEX
8
Hidden_ISO
10
222.3861
20
130.2945
30
0
0
VERTEX
8
Hidden_ISO
10
222.3925
20
130.2814
30
0
0
VERTEX
8
Hidden_ISO
10
222.3986
20
130.2683
30
0
0
VERTEX
8
Hidden_ISO
10
222.4046
20
130.2552
30
0
0
VERTEX
8
Hidden_ISO
10
222.4104
20
130.2421
30
0
0
VERTEX
8
Hidden_ISO
10
222.4160
20
130.2290
30
0
0
VERTEX
8
Hidden_ISO
10
222.4215
20
130.2158
30
0
0
VERTEX
8
Hidden_ISO
10
222.4267
20
130.2027
30
0
0
VERTEX
8
Hidden_ISO
10
222.4318
20
130.1895
30
0
0
VERTEX
8
Hidden_ISO
10
222.4367
20
130.1764
30
0
0
VERTEX
8
Hidden_ISO
10
222.4414
20
130.1632
30
0
0
VERTEX
8
Hidden_ISO
10
222.4460
20
130.1501
30
0
0
VERTEX
8
Hidden_ISO
10
222.4504
20
130.1369
30
0
0
VERTEX
8
Hidden_ISO
10
222.4546
20
130.1237
30
0
0
VERTEX
8
Hidden_ISO
10
222.4586
20
130.1105
30
0
0
VERTEX
8
Hidden_ISO
10
222.4625
20
130.0973
30
0
0
VERTEX
8
Hidden_ISO
10
222.4663
20
130.0841
30
0
0
VERTEX
8
Hidden_ISO
10
222.4699
20
130.0709
30
0
0
VERTEX
8
Hidden_ISO
10
222.4733
20
130.0576
30
0
0
VERTEX
8
Hidden_ISO
10
222.4765
20
130.0444
30
0
0
VERTEX
8
Hidden_ISO
10
222.4796
20
130.0312
30
0
0
VERTEX
8
Hidden_ISO
10
222.4826
20
130.0179
30
0
0
VERTEX
8
Hidden_ISO
10
222.4853
20
130.0047
30
0
0
VERTEX
8
Hidden_ISO
10
222.4880
20
129.9914
30
0
0
VERTEX
8
Hidden_ISO
10
222.4905
20
129.9782
30
0
0
VERTEX
8
Hidden_ISO
10
222.4928
20
129.9650
30
0
0
VERTEX
8
Hidden_ISO
10
222.4949
20
129.9517
30
0
0
VERTEX
8
Hidden_ISO
10
222.4970
20
129.9385
30
0
0
VERTEX
8
Hidden_ISO
10
222.4988
20
129.9253
30
0
0
VERTEX
8
Hidden_ISO
10
222.5006
20
129.9122
30
0
0
VERTEX
8
Hidden_ISO
10
222.5021
20
129.8990
30
0
0
VERTEX
8
Hidden_ISO
10
222.5035
20
129.8858
30
0
0
VERTEX
8
Hidden_ISO
10
222.5048
20
129.8727
30
0
0
VERTEX
8
Hidden_ISO
10
222.5059
20
129.8596
30
0
0
VERTEX
8
Hidden_ISO
10
222.5069
20
129.8465
30
0
0
VERTEX
8
Hidden_ISO
10
222.5078
20
129.8335
30
0
0
VERTEX
8
Hidden_ISO
10
222.5084
20
129.8205
30
0
0
VERTEX
8
Hidden_ISO
10
222.5090
20
129.8075
30
0
0
VERTEX
8
Hidden_ISO
10
222.5094
20
129.7946
30
0
0
VERTEX
8
Hidden_ISO
10
222.5097
20
129.7816
30
0
0
VERTEX
8
Hidden_ISO
10
222.5098
20
129.7688
30
0
0
VERTEX
8
Hidden_ISO
10
222.5098
20
129.7559
30
0
0
VERTEX
8
Hidden_ISO
10
222.5096
20
129.7432
30
0
0
VERTEX
8
Hidden_ISO
10
222.5093
20
129.7305
30
0
0
VERTEX
8
Hidden_ISO
10
222.5089
20
129.7179
30
0
0
VERTEX
8
Hidden_ISO
10
222.5084
20
129.7054
30
0
0
VERTEX
8
Hidden_ISO
10
222.5077
20
129.6930
30
0
0
VERTEX
8
Hidden_ISO
10
222.5069
20
129.6807
30
0
0
VERTEX
8
Hidden_ISO
10
222.5060
20
129.6685
30
0
0
VERTEX
8
Hidden_ISO
10
222.5049
20
129.6563
30
0
0
VERTEX
8
Hidden_ISO
10
222.5038
20
129.6443
30
0
0
VERTEX
8
Hidden_ISO
10
222.5025
20
129.6324
30
0
0
VERTEX
8
Hidden_ISO
10
222.5012
20
129.6206
30
0
0
VERTEX
8
Hidden_ISO
10
222.4997
20
129.6089
30
0
0
VERTEX
8
Hidden_ISO
10
222.4981
20
129.5972
30
0
0
VERTEX
8
Hidden_ISO
10
222.4964
20
129.5857
30
0
0
VERTEX
8
Hidden_ISO
10
222.4947
20
129.5743
30
0
0
VERTEX
8
Hidden_ISO
10
222.4928
20
129.5630
30
0
0
VERTEX
8
Hidden_ISO
10
222.4908
20
129.5518
30
0
0
VERTEX
8
Hidden_ISO
10
222.4888
20
129.5407
30
0
0
VERTEX
8
Hidden_ISO
10
222.4867
20
129.5297
30
0
0
VERTEX
8
Hidden_ISO
10
222.4844
20
129.5188
30
0
0
VERTEX
8
Hidden_ISO
10
222.4821
20
129.5080
30
0
0
VERTEX
8
Hidden_ISO
10
222.4798
20
129.4974
30
0
0
VERTEX
8
Hidden_ISO
10
222.4773
20
129.4868
30
0
0
VERTEX
8
Hidden_ISO
10
222.4748
20
129.4764
30
0
0
VERTEX
8
Hidden_ISO
10
222.4722
20
129.4660
30
0
0
VERTEX
8
Hidden_ISO
10
222.4695
20
129.4558
30
0
0
VERTEX
8
Hidden_ISO
10
222.4668
20
129.4457
30
0
0
VERTEX
8
Hidden_ISO
10
222.4640
20
129.4357
30
0
0
VERTEX
8
Hidden_ISO
10
222.4611
20
129.4259
30
0
0
VERTEX
8
Hidden_ISO
10
222.4582
20
129.4161
30
0
0
VERTEX
8
Hidden_ISO
10
222.4553
20
129.4065
30
0
0
VERTEX
8
Hidden_ISO
10
222.4523
20
129.3970
30
0
0
VERTEX
8
Hidden_ISO
10
222.4492
20
129.3876
30
0
0
VERTEX
8
Hidden_ISO
10
222.4461
20
129.3783
30
0
0
VERTEX
8
Hidden_ISO
10
222.4430
20
129.3692
30
0
0
VERTEX
8
Hidden_ISO
10
222.4398
20
129.3601
30
0
0
VERTEX
8
Hidden_ISO
10
222.4366
20
129.3512
30
0
0
VERTEX
8
Hidden_ISO
10
222.4333
20
129.3425
30
0
0
VERTEX
8
Hidden_ISO
10
222.4301
20
129.3338
30
0
0
VERTEX
8
Hidden_ISO
10
222.4267
20
129.3253
30
0
0
VERTEX
8
Hidden_ISO
10
222.4234
20
129.3169
30
0
0
SEQEND
8
Hidden_ISO
0
POLYLINE
8
Hidden_ISO
6
HIDDEN
66
1
70
0
10
0
20
0
30
0
0
VERTEX
8
Hidden_ISO
10
220.2769
20
130.3748
30
0
0
VERTEX
8
Hidden_ISO
10
220.2794
20
130.3791
30
0
0
VERTEX
8
Hidden_ISO
10
220.2820
20
130.3833
30
0
0
VERTEX
8
Hidden_ISO
10
220.2846
20
130.3876
30
0
0
VERTEX
8
Hidden_ISO
10
220.2872
20
130.3919
30
0
0
VERTEX
8
Hidden_ISO
10
220.2898
20
130.3961
30
0
0
VERTEX
8
Hidden_ISO
10
220.2924
20
130.4003
30
0
0
VERTEX
8
Hidden_ISO
10
220.2951
20
130.4046
30
0
0
VERTEX
8
Hidden_ISO
10
220.2978
20
130.4088
30
0
0
VERTEX
8
Hidden_ISO
10
220.3004
20
130.4129
30
0
0
VERTEX
8
Hidden_ISO
10
220.3031
20
130.4171
30
0
0
VERTEX
8
Hidden_ISO
10
220.3058
20
130.4213
30
0
0
VERTEX
8
Hidden_ISO
10
220.3086
20
130.4254
30
0
0
VERTEX
8
Hidden_ISO
10
220.3113
20
130.4295
30
0
0
VERTEX
8
Hidden_ISO
10
220.3140
20
130.4336
30
0
0
VERTEX
8
Hidden_ISO
10
220.3168
20
130.4377
30
0
0
VERTEX
8
Hidden_ISO
10
220.3196
20
130.4417
30
0
0
VERTEX
8
Hidden_ISO
10
220.3223
20
130.4458
30
0
0
VERTEX
8
Hidden_ISO
10
220.3251
20
130.4498
30
0
0
VERTEX
8
Hidden_ISO
10
220.3279
20
130.4538
30
0
0
VERTEX
8
Hidden_ISO
10
220.3307
20
130.4578
30
0
0
VERTEX
8
Hidden_ISO
10
220.3336
20
130.4617
30
0
0
VERTEX
8
Hidden_ISO
10
220.3364
20
130.4657
30
0
0
VERTEX
8
Hidden_ISO
10
220.3392
20
130.4696
30
0
0
VERTEX
8
Hidden_ISO
10
220.3421
20
130.4735
30
0
0
VERTEX
8
Hidden_ISO
10
220.3449
20
130.4774
30
0
0
VERTEX
8
Hidden_ISO
10
220.3478
20
130.4812
30
0
0
VERTEX
8
Hidden_ISO
10
220.3506
20
130.4851
30
0
0
VERTEX
8
Hidden_ISO
10
220.3535
20
130.4889
30
0
0
VERTEX
8
Hidden_ISO
10
220.3564
20
130.4927
30
0
0
VERTEX
8
Hidden_ISO
10
220.3593
20
130.4964
30
0
0
VERTEX
8
Hidden_ISO
10
220.3622
20
130.5002
30
0
0
VERTEX
8
Hidden_ISO
10
220.3651
20
130.5039
30
0
0
VERTEX
8
Hidden_ISO
10
220.3680
20
130.5076
30
0
0
VERTEX
8
Hidden_ISO
10
220.3709
20
130.5113
30
0
0
VERTEX
8
Hidden_ISO
10
220.3739
20
130.5149
30
0
0
VERTEX
8
Hidden_ISO
10
220.3768
20
130.5186
30
0
0
VERTEX
8
Hidden_ISO
10
220.3797
20
130.5222
30
0
0
VERTEX
8
Hidden_ISO
10
220.3827
20
130.5258
30
0
0
VERTEX
8
Hidden_ISO
10
220.3856
20
130.5294
30
0
0
VERTEX
8
Hidden_ISO
10
220.3885
20
130.5329
30
0
0
VERTEX
8
Hidden_ISO
10
220.3915
20
130.5364
30
0
0
VERTEX
8
Hidden_ISO
10
220.3944
20
130.5399
30
0
0
VERTEX
8
Hidden_ISO
10
220.3974
20
130.5434
30
0
0
VERTEX
8
Hidden_ISO
10
220.4003
20
130.5468
30
0
0
VERTEX
8
Hidden_ISO
10
220.4033
20
130.5502
30
0
0
VERTEX
8
Hidden_ISO
10
220.4063
20
130.5536
30
0
0
VERTEX
8
Hidden_ISO
10
220.4092
20
130.5570
30
0
0
VERTEX
8
Hidden_ISO
10
220.4122
20
130.5603
30
0
0
VERTEX
8
Hidden_ISO
10
220.4151
20
130.5636
30
0
0
VERTEX
8
Hidden_ISO
10
220.4180
20
130.5669
30
0
0
VERTEX
8
Hidden_ISO
10
220.4210
20
130.5702
30
0
0
VERTEX
8
Hidden_ISO
10
220.4239
20
130.5734
30
0
0
VERTEX
8
Hidden_ISO
10
220.4268
20
130.5766
30
0
0
VERTEX
8
Hidden_ISO
10
220.4298
20
130.5797
30
0
0
VERTEX
8
Hidden_ISO
10
220.4327
20
130.5829
30
0
0
VERTEX
8
Hidden_ISO
10
220.4356
20
130.5860
30
0
0
VERTEX
8
Hidden_ISO
10
220.4385
20
130.5891
30
0
0
VERTEX
8
Hidden_ISO
10
220.4414
20
130.5921
30
0
0
VERTEX
8
Hidden_ISO
10
220.4443
20
130.5951
30
0
0
VERTEX
8
Hidden_ISO
10
220.4472
20
130.5981
30
0
0
VERTEX
8
Hidden_ISO
10
220.4500
20
130.6011
30
0
0
VERTEX
8
Hidden_ISO
10
220.4529
20
130.6040
30
0
0
VERTEX
8
Hidden_ISO
10
220.4557
20
130.6069
30
0
0
VERTEX
8
Hidden_ISO
10
220.4586
20
130.6098
30
0
0
VERTEX
8
Hidden_ISO
10
220.4614
20
130.6126
30
0
0
VERTEX
8
Hidden_ISO
10
220.4643
20
130.6154
30
0
0
VERTEX
8
Hidden_ISO
10
220.4671
20
130.6182
30
0
0
VERTEX
8
Hidden_ISO
10
220.4699
20
130.6210
30
0
0
VERTEX
8
Hidden_ISO
10
220.4727
20
130.6237
30
0
0
VERTEX
8
Hidden_ISO
10
220.4754
20
130.6264
30
0
0
VERTEX
8
Hidden_ISO
10
220.4782
20
130.6291
30
0
0
VERTEX
8
Hidden_ISO
10
220.4810
20
130.6317
30
0
0
VERTEX
8
Hidden_ISO
10
220.4837
20
130.6343
30
0
0
VERTEX
8
Hidden_ISO
10
220.4864
20
130.6369
30
0
0
VERTEX
8
Hidden_ISO
10
220.4891
20
130.6395
30
0
0
VERTEX
8
Hidden_ISO
10
220.4918
20
130.6420
30
0
0
VERTEX
8
Hidden_ISO
10
220.4945
20
130.6445
30
0
0
VERTEX
8
Hidden_ISO
10
220.4972
20
130.6469
30
0
0
VERTEX
8
Hidden_ISO
10
220.4998
20
130.6494
30
0
0
VERTEX
8
Hidden_ISO
10
220.5025
20
130.6518
30
0
0
VERTEX
8
Hidden_ISO
10
220.5051
20
130.6541
30
0
0
VERTEX
8
Hidden_ISO
10
220.5077
20
130.6565
30
0
0
VERTEX
8
Hidden_ISO
10
220.5103
20
130.6588
30
0
0
VERTEX
8
Hidden_ISO
10
220.5128
20
130.6611
30
0
0
VERTEX
8
Hidden_ISO
10
220.5154
20
130.6633
30
0
0
VERTEX
8
Hidden_ISO
10
220.5179
20
130.6656
30
0
0
VERTEX
8
Hidden_ISO
10
220.5204
20
130.6678
30
0
0
VERTEX
8
Hidden_ISO
10
220.5229
20
130.6699
30
0
0
VERTEX
8
Hidden_ISO
10
220.5254
20
130.6721
30
0
0
VERTEX
8
Hidden_ISO
10
220.5278
20
130.6742
30
0
0
VERTEX
8
Hidden_ISO
10
220.5302
20
130.6762
30
0
0
VERTEX
8
Hidden_ISO
10
220.5326
20
130.6783
30
0
0
VERTEX
8
Hidden_ISO
10
220.5350
20
130.6803
30
0
0
VERTEX
8
Hidden_ISO
10
220.5373
20
130.6823
30
0
0
VERTEX
8
Hidden_ISO
10
220.5396
20
130.6842
30
0
0
VERTEX
8
Hidden_ISO
10
220.5419
20
130.6861
30
0
0
VERTEX
8
Hidden_ISO
10
220.5442
20
130.6880
30
0
0
VERTEX
8
Hidden_ISO
10
220.5465
20
130.6899
30
0
0
VERTEX
8
Hidden_ISO
10
220.5487
20
130.6917
30
0
0
VERTEX
8
Hidden_ISO
10
220.5509
20
130.6935
30
0
0
VERTEX
8
Hidden_ISO
10
220.5530
20
130.6953
30
0
0
VERTEX
8
Hidden_ISO
10
220.5552
20
130.6970
30
0
0
VERTEX
8
Hidden_ISO
10
220.5573
20
130.6987
30
0
0
VERTEX
8
Hidden_ISO
10
220.5594
20
130.7004
30
0
0
VERTEX
8
Hidden_ISO
10
220.5614
20
130.7020
30
0
0
VERTEX
8
Hidden_ISO
10
220.5635
20
130.7036
30
0
0
VERTEX
8
Hidden_ISO
10
220.5655
20
130.7052
30
0
0
VERTEX
8
Hidden_ISO
10
220.5674
20
130.7068
30
0
0
VERTEX
8
Hidden_ISO
10
220.5694
20
130.7083
30
0
0
VERTEX
8
Hidden_ISO
10
220.5713
20
130.7098
30
0
0
VERTEX
8
Hidden_ISO
10
220.5731
20
130.7112
30
0
0
VERTEX
8
Hidden_ISO
10
220.5750
20
130.7127
30
0
0
VERTEX
8
Hidden_ISO
10
220.5768
20
130.7141
30
0
0
VERTEX
8
Hidden_ISO
10
220.5786
20
130.7155
30
0
0
VERTEX
8
Hidden_ISO
10
220.5803
20
130.7168
30
0
0
VERTEX
8
Hidden_ISO
10
220.5821
20
130.7181
30
0
0
VERTEX
8
Hidden_ISO
10
220.5837
20
130.7194
30
0
0
VERTEX
8
Hidden_ISO
10
220.5854
20
130.7206
30
0
0
VERTEX
8
Hidden_ISO
10
220.5870
20
130.7219
30
0
0
VERTEX
8
Hidden_ISO
10
220.5886
20
130.7231
30
0
0
SEQEND
8
Hidden_ISO
0
POLYLINE
8
Hidden_ISO
6
HIDDEN
66
1
70
0
10
0
20
0
30
0
0
VERTEX
8
Hidden_ISO
10
223.1945
20
128.6291
30
0
0
VERTEX
8
Hidden_ISO
10
223.1999
20
128.6382
30
0
0
VERTEX
8
Hidden_ISO
10
223.2054
20
128.6475
30
0
0
VERTEX
8
Hidden_ISO
10
223.2110
20
128.6570
30
0
0
VERTEX
8
Hidden_ISO
10
223.2166
20
128.6667
30
0
0
VERTEX
8
Hidden_ISO
10
223.2223
20
128.6766
30
0
0
VERTEX
8
Hidden_ISO
10
223.2280
20
128.6867
30
0
0
VERTEX
8
Hidden_ISO
10
223.2338
20
128.6970
30
0
0
VERTEX
8
Hidden_ISO
10
223.2396
20
128.7076
30
0
0
VERTEX
8
Hidden_ISO
10
223.2455
20
128.7183
30
0
0
VERTEX
8
Hidden_ISO
10
223.2514
20
128.7293
30
0
0
VERTEX
8
Hidden_ISO
10
223.2573
20
128.7405
30
0
0
VERTEX
8
Hidden_ISO
10
223.2632
20
128.7519
30
0
0
VERTEX
8
Hidden_ISO
10
223.2692
20
128.7635
30
0
0
VERTEX
8
Hidden_ISO
10
223.2752
20
128.7753
30
0
0
VERTEX
8
Hidden_ISO
10
223.2812
20
128.7874
30
0
0
VERTEX
8
Hidden_ISO
10
223.2872
20
128.7997
30
0
0
VERTEX
8
Hidden_ISO
10
223.2933
20
128.8122
30
0
0
VERTEX
8
Hidden_ISO
10
223.2993
20
128.8249
30
0
0
VERTEX
8
Hidden_ISO
10
223.3054
20
128.8379
30
0
0
VERTEX
8
Hidden_ISO
10
223.3115
20
128.8511
30
0
0
VERTEX
8
Hidden_ISO
10
223.3175
20
128.8645
30
0
0
VERTEX
8
Hidden_ISO
10
223.3236
20
128.8781
30
0
0
VERTEX
8
Hidden_ISO
10
223.3296
20
128.8920
30
0
0
VERTEX
8
Hidden_ISO
10
223.3357
20
128.9061
30
0
0
VERTEX
8
Hidden_ISO
10
223.3417
20
128.9204
30
0
0
VERTEX
8
Hidden_ISO
10
223.3476
20
128.9349
30
0
0
VERTEX
8
Hidden_ISO
10
223.3536
20
128.9497
30
0
0
VERTEX
8
Hidden_ISO
10
223.3595
20
128.9647
30
0
0
VERTEX
8
Hidden_ISO
10
223.3654
20
128.9799
30
0
0
VERTEX
8
Hidden_ISO
10
223.3712
20
128.9953
30
0
0
VERTEX
8
Hidden_ISO
10
223.3770
20
129.0109
30
0
0
VERTEX
8
Hidden_ISO
10
223.3827
20
129.0268
30
0
0
VERTEX
8
Hidden_ISO
10
223.3883
20
129.0429
30
0
0
VERTEX
8
Hidden_ISO
10
223.3939
20
129.0592
30
0
0
VERTEX
8
Hidden_ISO
10
223.3994
20
129.0758
30
0
0
VERTEX
8
Hidden_ISO
10
223.4049
20
129.0926
30
0
0
VERTEX
8
Hidden_ISO
10
223.4103
20
129.1096
30
0
0
VERTEX
8
Hidden_ISO
10
223.4155
20
129.1268
30
0
0
VERTEX
8
Hidden_ISO
10
223.4207
20
129.1443
30
0
0
VERTEX
8
Hidden_ISO
10
223.4259
20
129.1619
30
0
0
VERTEX
8
Hidden_ISO
10
223.4309
20
129.1799
30
0
0
VERTEX
8
Hidden_ISO
10
223.4358
20
129.1980
30
0
0
VERTEX
8
Hidden_ISO
10
223.4406
20
129.2164
30
0
0
VERTEX
8
Hidden_ISO
10
223.4453
20
129.2350
30
0
0
VERTEX
8
Hidden_ISO
10
223.4499
20
129.2539
30
0
0
VERTEX
8
Hidden_ISO
10
223.4543
20
129.2730
30
0
0
VERTEX
8
Hidden_ISO
10
223.4586
20
129.2923
30
0
0
VERTEX
8
Hidden_ISO
10
223.4628
20
129.3118
30
0
0
VERTEX
8
Hidden_ISO
10
223.4669
20
129.3314
30
0
0
VERTEX
8
Hidden_ISO
10
223.4708
20
129.3513
30
0
0
VERTEX
8
Hidden_ISO
10
223.4745
20
129.3713
30
0
0
VERTEX
8
Hidden_ISO
10
223.4781
20
129.3915
30
0
0
VERTEX
8
Hidden_ISO
10
223.4815
20
129.4119
30
0
0
VERTEX
8
Hidden_ISO
10
223.4847
20
129.4324
30
0
0
VERTEX
8
Hidden_ISO
10
223.4878
20
129.4532
30
0
0
VERTEX
8
Hidden_ISO
10
223.4907
20
129.4741
30
0
0
VERTEX
8
Hidden_ISO
10
223.4934
20
129.4952
30
0
0
VERTEX
8
Hidden_ISO
10
223.4959
20
129.5165
30
0
0
VERTEX
8
Hidden_ISO
10
223.4982
20
129.5379
30
0
0
VERTEX
8
Hidden_ISO
10
223.5003
20
129.5595
30
0
0
VERTEX
8
Hidden_ISO
10
223.5023
20
129.5813
30
0
0
VERTEX
8
Hidden_ISO
10
223.5040
20
129.6033
30
0
0
VERTEX
8
Hidden_ISO
10
223.5055
20
129.6254
30
0
0
VERTEX
8
Hidden_ISO
10
223.5068
20
129.6477
30
0
0
VERTEX
8
Hidden_ISO
10
223.5078
20
129.6701
30
0
0
VERTEX
8
Hidden_ISO
10
223.5087
20
129.6928
30
0
0
VERTEX
8
Hidden_ISO
10
223.5093
20
129.7155
30
0
0
VERTEX
8
Hidden_ISO
10
223.5097
20
129.7385
30
0
0
VERTEX
8
Hidden_ISO
10
223.5098
20
129.7616
30
0
0
VERTEX
8
Hidden_ISO
10
223.5097
20
129.7849
30
0
0
VERTEX
8
Hidden_ISO
10
223.5094
20
129.8083
30
0
0
VERTEX
8
Hidden_ISO
10
223.5087
20
129.8319
30
0
0
VERTEX
8
Hidden_ISO
10
223.5079
20
129.8556
30
0
0
VERTEX
8
Hidden_ISO
10
223.5068
20
129.8795
30
0
0
VERTEX
8
Hidden_ISO
10
223.5054
20
129.9035
30
0
0
VERTEX
8
Hidden_ISO
10
223.5037
20
129.9275
30
0
0
VERTEX
8
Hidden_ISO
10
223.5018
20
129.9516
30
0
0
VERTEX
8
Hidden_ISO
10
223.4996
20
129.9758
30
0
0
VERTEX
8
Hidden_ISO
10
223.4971
20
130.0000
30
0
0
VERTEX
8
Hidden_ISO
10
223.4943
20
130.0243
30
0
0
VERTEX
8
Hidden_ISO
10
223.4913
20
130.0486
30
0
0
VERTEX
8
Hidden_ISO
10
223.4880
20
130.0730
30
0
0
VERTEX
8
Hidden_ISO
10
223.4844
20
130.0974
30
0
0
VERTEX
8
Hidden_ISO
10
223.4805
20
130.1218
30
0
0
VERTEX
8
Hidden_ISO
10
223.4763
20
130.1463
30
0
0
VERTEX
8
Hidden_ISO
10
223.4718
20
130.1709
30
0
0
VERTEX
8
Hidden_ISO
10
223.4671
20
130.1954
30
0
0
VERTEX
8
Hidden_ISO
10
223.4620
20
130.2200
30
0
0
VERTEX
8
Hidden_ISO
10
223.4566
20
130.2446
30
0
0
VERTEX
8
Hidden_ISO
10
223.4510
20
130.2692
30
0
0
VERTEX
8
Hidden_ISO
10
223.4450
20
130.2939
30
0
0
VERTEX
8
Hidden_ISO
10
223.4387
20
130.3185
30
0
0
VERTEX
8
Hidden_ISO
10
223.4322
20
130.3432
30
0
0
VERTEX
8
Hidden_ISO
10
223.4253
20
130.3679
30
0
0
VERTEX
8
Hidden_ISO
10
223.4181
20
130.3926
30
0
0
VERTEX
8
Hidden_ISO
10
223.4106
20
130.4172
30
0
0
VERTEX
8
Hidden_ISO
10
223.4027
20
130.4419
30
0
0
VERTEX
8
Hidden_ISO
10
223.3946
20
130.4666
30
0
0
VERTEX
8
Hidden_ISO
10
223.3861
20
130.4912
30
0
0
VERTEX
8
Hidden_ISO
10
223.3773
20
130.5159
30
0
0
VERTEX
8
Hidden_ISO
10
223.3682
20
130.5405
30
0
0
VERTEX
8
Hidden_ISO
10
223.3588
20
130.5650
30
0
0
VERTEX
8
Hidden_ISO
10
223.3491
20
130.5894
30
0
0
VERTEX
8
Hidden_ISO
10
223.3390
20
130.6137
30
0
0
VERTEX
8
Hidden_ISO
10
223.3287
20
130.6380
30
0
0
VERTEX
8
Hidden_ISO
10
223.3181
20
130.6621
30
0
0
VERTEX
8
Hidden_ISO
10
223.3071
20
130.6862
30
0
0
VERTEX
8
Hidden_ISO
10
223.2959
20
130.7101
30
0
0
VERTEX
8
Hidden_ISO
10
223.2844
20
130.7340
30
0
0
VERTEX
8
Hidden_ISO
10
223.2725
20
130.7577
30
0
0
VERTEX
8
Hidden_ISO
10
223.2604
20
130.7813
30
0
0
VERTEX
8
Hidden_ISO
10
223.2480
20
130.8048
30
0
0
VERTEX
8
Hidden_ISO
10
223.2352
20
130.8282
30
0
0
VERTEX
8
Hidden_ISO
10
223.2222
20
130.8514
30
0
0
VERTEX
8
Hidden_ISO
10
223.2089
20
130.8745
30
0
0
VERTEX
8
Hidden_ISO
10
223.1953
20
130.8975
30
0
0
VERTEX
8
Hidden_ISO
10
223.1813
20
130.9203
30
0
0
VERTEX
8
Hidden_ISO
10
223.1671
20
130.9430
30
0
0
VERTEX
8
Hidden_ISO
10
223.1526
20
130.9656
30
0
0
VERTEX
8
Hidden_ISO
10
223.1378
20
130.9880
30
0
0
VERTEX
8
Hidden_ISO
10
223.1227
20
131.0102
30
0
0
VERTEX
8
Hidden_ISO
10
223.1074
20
131.0323
30
0
0
VERTEX
8
Hidden_ISO
10
223.0917
20
131.0543
30
0
0
VERTEX
8
Hidden_ISO
10
223.0757
20
131.0760
30
0
0
VERTEX
8
Hidden_ISO
10
223.0595
20
131.0976
30
0
0
VERTEX
8
Hidden_ISO
10
223.0429
20
131.1190
30
0
0
VERTEX
8
Hidden_ISO
10
223.0261
20
131.1403
30
0
0
VERTEX
8
Hidden_ISO
10
223.0091
20
131.1613
30
0
0
VERTEX
8
Hidden_ISO
10
222.9917
20
131.1821
30
0
0
VERTEX
8
Hidden_ISO
10
222.9741
20
131.2027
30
0
0
VERTEX
8
Hidden_ISO
10
222.9563
20
131.2230
30
0
0
VERTEX
8
Hidden_ISO
10
222.9382
20
131.2432
30
0
0
VERTEX
8
Hidden_ISO
10
222.9199
20
131.2632
30
0
0
VERTEX
8
Hidden_ISO
10
222.9013
20
131.2829
30
0
0
VERTEX
8
Hidden_ISO
10
222.8824
20
131.3024
30
0
0
VERTEX
8
Hidden_ISO
10
222.8633
20
131.3217
30
0
0
VERTEX
8
Hidden_ISO
10
222.8440
20
131.3407
30
0
0
VERTEX
8
Hidden_ISO
10
222.8244
20
131.3595
30
0
0
VERTEX
8
Hidden_ISO
10
222.8046
20
131.3781
30
0
0
VERTEX
8
Hidden_ISO
10
222.7846
20
131.3964
30
0
0
VERTEX
8
Hidden_ISO
10
222.7643
20
131.4145
30
0
0
VERTEX
8
Hidden_ISO
10
222.7438
20
131.4323
30
0
0
VERTEX
8
Hidden_ISO
10
222.7231
20
131.4499
30
0
0
VERTEX
8
Hidden_ISO
10
222.7022
20
131.4673
30
0
0
VERTEX
8
Hidden_ISO
10
222.6810
20
131.4844
30
0
0
VERTEX
8
Hidden_ISO
10
222.6596
20
131.5012
30
0
0
VERTEX
8
Hidden_ISO
10
222.6380
20
131.5178
30
0
0
VERTEX
8
Hidden_ISO
10
222.6162
20
131.5341
30
0
0
VERTEX
8
Hidden_ISO
10
222.5942
20
131.5501
30
0
0
VERTEX
8
Hidden_ISO
10
222.5720
20
131.5658
30
0
0
VERTEX
8
Hidden_ISO
10
222.5497
20
131.5813
30
0
0
VERTEX
8
Hidden_ISO
10
222.5271
20
131.5964
30
0
0
VERTEX
8
Hidden_ISO
10
222.5044
20
131.6113
30
0
0
VERTEX
8
Hidden_ISO
10
222.4815
20
131.6259
30
0
0
VERTEX
8
Hidden_ISO
10
222.4585
20
131.6403
30
0
0
VERTEX
8
Hidden_ISO
10
222.4352
20
131.6543
30
0
0
VERTEX
8
Hidden_ISO
10
222.4118
20
131.6680
30
0
0
VERTEX
8
Hidden_ISO
10
222.3883
20
131.6815
30
0
0
VERTEX
8
Hidden_ISO
10
222.3645
20
131.6946
30
0
0
VERTEX
8
Hidden_ISO
10
222.3407
20
131.7075
30
0
0
VERTEX
8
Hidden_ISO
10
222.3166
20
131.7200
30
0
0
VERTEX
8
Hidden_ISO
10
222.2925
20
131.7323
30
0
0
VERTEX
8
Hidden_ISO
10
222.2681
20
131.7442
30
0
0
VERTEX
8
Hidden_ISO
10
222.2437
20
131.7559
30
0
0
VERTEX
8
Hidden_ISO
10
222.2191
20
131.7672
30
0
0
VERTEX
8
Hidden_ISO
10
222.1944
20
131.7783
30
0
0
VERTEX
8
Hidden_ISO
10
222.1695
20
131.7890
30
0
0
VERTEX
8
Hidden_ISO
10
222.1446
20
131.7994
30
0
0
VERTEX
8
Hidden_ISO
10
222.1195
20
131.8095
30
0
0
VERTEX
8
Hidden_ISO
10
222.0944
20
131.8193
30
0
0
VERTEX
8
Hidden_ISO
10
222.0691
20
131.8287
30
0
0
VERTEX
8
Hidden_ISO
10
222.0438
20
131.8379
30
0
0
VERTEX
8
Hidden_ISO
10
222.0184
20
131.8467
30
0
0
VERTEX
8
Hidden_ISO
10
221.9929
20
131.8552
30
0
0
VERTEX
8
Hidden_ISO
10
221.9674
20
131.8633
30
0
0
VERTEX
8
Hidden_ISO
10
221.9418
20
131.8712
30
0
0
VERTEX
8
Hidden_ISO
10
221.9161
20
131.8787
30
0
0
VERTEX
8
Hidden_ISO
10
221.8904
20
131.8859
30
0
0
VERTEX
8
Hidden_ISO
10
221.8646
20
131.8928
30
0
0
VERTEX
8
Hidden_ISO
10
221.8388
20
131.8994
30
0
0
VERTEX
8
Hidden_ISO
10
221.8129
20
131.9056
30
0
0
VERTEX
8
Hidden_ISO
10
221.7870
20
131.9115
30
0
0
VERTEX
8
Hidden_ISO
10
221.7610
20
131.9171
30
0
0
VERTEX
8
Hidden_ISO
10
221.7350
20
131.9224
30
0
0
VERTEX
8
Hidden_ISO
10
221.7090
20
131.9274
30
0
0
VERTEX
8
Hidden_ISO
10
221.6829
20
131.9321
30
0
0
VERTEX
8
Hidden_ISO
10
221.6569
20
131.9364
30
0
0
VERTEX
8
Hidden_ISO
10
221.6308
20
131.9404
30
0
0
VERTEX
8
Hidden_ISO
10
221.6046
20
131.9441
30
0
0
VERTEX
8
Hidden_ISO
10
221.5785
20
131.9475
30
0
0
VERTEX
8
Hidden_ISO
10
221.5524
20
131.9505
30
0
0
VERTEX
8
Hidden_ISO
10
221.5262
20
131.9533
30
0
0
VERTEX
8
Hidden_ISO
10
221.5001
20
131.9557
30
0
0
VERTEX
8
Hidden_ISO
10
221.4741
20
131.9578
30
0
0
VERTEX
8
Hidden_ISO
10
221.4481
20
131.9596
30
0
0
VERTEX
8
Hidden_ISO
10
221.4223
20
131.9611
30
0
0
VERTEX
8
Hidden_ISO
10
221.3965
20
131.9622
30
0
0
VERTEX
8
Hidden_ISO
10
221.3707
20
131.9631
30
0
0
VERTEX
8
Hidden_ISO
10
221.3451
20
131.9637
30
0
0
VERTEX
8
Hidden_ISO
10
221.3195
20
131.9639
30
0
0
VERTEX
8
Hidden_ISO
10
221.2940
20
131.9639
30
0
0
VERTEX
8
Hidden_ISO
10
221.2686
20
131.9636
30
0
0
VERTEX
8
Hidden_ISO
10
221.2433
20
131.9629
30
0
0
VERTEX
8
Hidden_ISO
10
221.2181
20
131.9620
30
0
0
VERTEX
8
Hidden_ISO
10
221.1930
20
131.9608
30
0
0
VERTEX
8
Hidden_ISO
10
221.1680
20
131.9594
30
0
0
VERTEX
8
Hidden_ISO
10
221.1431
20
131.9576
30
0
0
VERTEX
8
Hidden_ISO
10
221.1182
20
131.9556
30
0
0
VERTEX
8
Hidden_ISO
10
221.0935
20
131.9533
30
0
0
VERTEX
8
Hidden_ISO
10
221.0689
20
131.9507
30
0
0
VERTEX
8
Hidden_ISO
10
221.0445
20
131.9479
30
0
0
VERTEX
8
Hidden_ISO
10
221.0201
20
131.9448
30
0
0
VERTEX
8
Hidden_ISO
10
220.9958
20
131.9414
30
0
0
VERTEX
8
Hidden_ISO
10
220.9717
20
131.9378
30
0
0
VERTEX
8
Hidden_ISO
10
220.9477
20
131.9339
30
0
0
VERTEX
8
Hidden_ISO
10
220.9238
20
131.9298
30
0
0
VERTEX
8
Hidden_ISO
10
220.9001
20
131.9255
30
0
0
VERTEX
8
Hidden_ISO
10
220.8764
20
131.9208
30
0
0
VERTEX
8
Hidden_ISO
10
220.8530
20
131.9160
30
0
0
VERTEX
8
Hidden_ISO
10
220.8296
20
131.9109
30
0
0
VERTEX
8
Hidden_ISO
10
220.8064
20
131.9056
30
0
0
VERTEX
8
Hidden_ISO
10
220.7834
20
131.9000
30
0
0
VERTEX
8
Hidden_ISO
10
220.7605
20
131.8943
30
0
0
VERTEX
8
Hidden_ISO
10
220.7378
20
131.8883
30
0
0
VERTEX
8
Hidden_ISO
10
220.7153
20
131.8821
30
0
0
VERTEX
8
Hidden_ISO
10
220.6930
20
131.8757
30
0
0
VERTEX
8
Hidden_ISO
10
220.6708
20
131.8691
30
0
0
VERTEX
8
Hidden_ISO
10
220.6489
20
131.8623
30
0
0
VERTEX
8
Hidden_ISO
10
220.6271
20
131.8553
30
0
0
VERTEX
8
Hidden_ISO
10
220.6055
20
131.8482
30
0
0
VERTEX
8
Hidden_ISO
10
220.5841
20
131.8408
30
0
0
VERTEX
8
Hidden_ISO
10
220.5629
20
131.8333
30
0
0
VERTEX
8
Hidden_ISO
10
220.5419
20
131.8256
30
0
0
VERTEX
8
Hidden_ISO
10
220.5211
20
131.8177
30
0
0
VERTEX
8
Hidden_ISO
10
220.5004
20
131.8096
30
0
0
VERTEX
8
Hidden_ISO
10
220.4800
20
131.8014
30
0
0
VERTEX
8
Hidden_ISO
10
220.4597
20
131.7931
30
0
0
VERTEX
8
Hidden_ISO
10
220.4397
20
131.7845
30
0
0
VERTEX
8
Hidden_ISO
10
220.4198
20
131.7759
30
0
0
VERTEX
8
Hidden_ISO
10
220.4001
20
131.7670
30
0
0
VERTEX
8
Hidden_ISO
10
220.3807
20
131.7581
30
0
0
VERTEX
8
Hidden_ISO
10
220.3614
20
131.7490
30
0
0
VERTEX
8
Hidden_ISO
10
220.3423
20
131.7398
30
0
0
VERTEX
8
Hidden_ISO
10
220.3234
20
131.7304
30
0
0
VERTEX
8
Hidden_ISO
10
220.3048
20
131.7209
30
0
0
VERTEX
8
Hidden_ISO
10
220.2863
20
131.7114
30
0
0
VERTEX
8
Hidden_ISO
10
220.2680
20
131.7016
30
0
0
VERTEX
8
Hidden_ISO
10
220.2499
20
131.6918
30
0
0
VERTEX
8
Hidden_ISO
10
220.2321
20
131.6819
30
0
0
VERTEX
8
Hidden_ISO
10
220.2144
20
131.6719
30
0
0
VERTEX
8
Hidden_ISO
10
220.1970
20
131.6617
30
0
0
VERTEX
8
Hidden_ISO
10
220.1797
20
131.6515
30
0
0
VERTEX
8
Hidden_ISO
10
220.1627
20
131.6413
30
0
0
VERTEX
8
Hidden_ISO
10
220.1460
20
131.6309
30
0
0
VERTEX
8
Hidden_ISO
10
220.1296
20
131.6206
30
0
0
VERTEX
8
Hidden_ISO
10
220.1134
20
131.6102
30
0
0
VERTEX
8
Hidden_ISO
10
220.0974
20
131.5998
30
0
0
VERTEX
8
Hidden_ISO
10
220.0817
20
131.5893
30
0
0
VERTEX
8
Hidden_ISO
10
220.0663
20
131.5789
30
0
0
VERTEX
8
Hidden_ISO
10
220.0511
20
131.5684
30
0
0
VERTEX
8
Hidden_ISO
10
220.0362
20
131.5579
30
0
0
VERTEX
8
Hidden_ISO
10
220.0215
20
131.5474
30
0
0
VERTEX
8
Hidden_ISO
10
220.0071
20
131.5369
30
0
0
VERTEX
8
Hidden_ISO
10
219.9929
20
131.5264
30
0
0
VERTEX
8
Hidden_ISO
10
219.9790
20
131.5159
30
0
0
VERTEX
8
Hidden_ISO
10
219.9653
20
131.5054
30
0
0
VERTEX
8
Hidden_ISO
10
219.9519
20
131.4950
30
0
0
VERTEX
8
Hidden_ISO
10
219.9387
20
131.4845
30
0
0
VERTEX
8
Hidden_ISO
10
219.9257
20
131.4741
30
0
0
VERTEX
8
Hidden_ISO
10
219.9130
20
131.4638
30
0
0
VERTEX
8
Hidden_ISO
10
219.9005
20
131.4534
30
0
0
VERTEX
8
Hidden_ISO
10
219.8883
20
131.4432
30
0
0
VERTEX
8
Hidden_ISO
10
219.8763
20
131.4329
30
0
0
VERTEX
8
Hidden_ISO
10
219.8646
20
131.4227
30
0
0
VERTEX
8
Hidden_ISO
10
219.8530
20
131.4126
30
0
0
VERTEX
8
Hidden_ISO
10
219.8417
20
131.4026
30
0
0
VERTEX
8
Hidden_ISO
10
219.8307
20
131.3926
30
0
0
VERTEX
8
Hidden_ISO
10
219.8198
20
131.3827
30
0
0
VERTEX
8
Hidden_ISO
10
219.8093
20
131.3729
30
0
0
VERTEX
8
Hidden_ISO
10
219.7989
20
131.3631
30
0
0
VERTEX
8
Hidden_ISO
10
219.7887
20
131.3535
30
0
0
VERTEX
8
Hidden_ISO
10
219.7788
20
131.3439
30
0
0
VERTEX
8
Hidden_ISO
10
219.7691
20
131.3344
30
0
0
VERTEX
8
Hidden_ISO
10
219.7597
20
131.3251
30
0
0
VERTEX
8
Hidden_ISO
10
219.7504
20
131.3158
30
0
0
VERTEX
8
Hidden_ISO
10
219.7414
20
131.3067
30
0
0
VERTEX
8
Hidden_ISO
10
219.7326
20
131.2977
30
0
0
VERTEX
8
Hidden_ISO
10
219.7240
20
131.2888
30
0
0
SEQEND
8
Hidden_ISO
0
ARC
8
Hidden_ISO
6
HIDDEN
10
225.4142
20
140.8805
30
0
40
1.5000
50
7.1808
51
125.2295
0
LINE
8
Hidden_ISO
6
HIDDEN
10
224.5489
20
142.1058
30
0
11
214.4228
21
134.9548
31
0
0
ARC
8
Hidden_ISO
6
HIDDEN
10
212.4038
20
137.8138
30
0
40
3.5000
50
259.9347
51
305.2295
0
CIRCLE
8
Visible_ISO
10
206.6098
20
114.3790
30
0
40
1.0000
0
CIRCLE
8
Visible_ISO
10
206.6098
20
110.0489
30
0
40
1.0000
0
CIRCLE
8
Visible_ISO
10
210.3598
20
112.2140
30
0
40
1.0000
0
LINE
8
Visible_ISO
10
189.3598
20
108.2140
30
0
11
189.3598
21
116.2140
31
0
0
LINE
8
Visible_ISO
10
189.3598
20
116.2140
30
0
11
190.8598
21
116.2140
31
0
0
LINE
8
Visible_ISO
10
190.8598
20
116.2140
30
0
11
190.8598
21
108.2140
31
0
0
LINE
8
Visible_ISO
10
190.8598
20
108.2140
30
0
11
189.3598
21
108.2140
31
0
0
LINE
8
Visible_ISO
10
202.1620
20
136.1801
30
0
11
192.0360
21
143.3310
31
0
0
ARC
8
Visible_ISO
10
207.8598
20
112.2140
30
0
40
24.0000
50
157.8912
51
22.1088
0
ARC
8
Visible_ISO
10
207.8598
20
112.2140
30
0
40
24.0000
50
77.2741
51
102.7259
0
LINE
8
Visible_ISO
10
187.3290
20
141.2555
30
0
11
184.0480
21
115.2140
31
0
0
LINE
8
Visible_ISO
10
223.6836
20
143.3310
30
0
11
213.5576
21
136.1801
31
0
0
ARC
8
Visible_ISO
10
225.4142
20
140.8805
30
0
40
3.0000
50
7.1808
51
125.2295
0
LINE
8
Visible_ISO
10
231.6716
20
115.2140
30
0
11
228.3906
21
141.2555
31
0
0
ARC
8
Visible_ISO
10
190.3054
20
140.8805
30
0
40
3.0000
50
54.7705
51
172.8192
0
ARC
8
Visible_ISO
10
203.3157
20
137.8138
30
0
40
2.0000
50
234.7705
51
280.0653
0
ARC
8
Visible_ISO
10
212.4038
20
137.8138
30
0
40
2.0000
50
259.9347
51
305.2295
0
POLYLINE
8
HATCH
66
1
70
1
10
0
20
0
30
0
0
VERTEX
8
HATCH
10
155.2920
20
95.5912
30
0
0
VERTEX
8
HATCH
10
151.8920
20
95.5912
30
0
0
VERTEX
8
HATCH
10
151.8920
20
95.5912
30
0
0
VERTEX
8
HATCH
10
151.8920
20
97.9912
30
0
0
VERTEX
8
HATCH
10
151.8920
20
97.9912
30
0
0
VERTEX
8
HATCH
10
155.2920
20
97.9912
30
0
0
VERTEX
8
HATCH
10
155.2920
20
97.9912
30
0
0
VERTEX
8
HATCH
10
155.2920
20
98.9912
30
0
0
VERTEX
8
HATCH
10
155.2920
20
98.9912
30
0
0
VERTEX
8
HATCH
10
151.8920
20
98.9912
30
0
0
VERTEX
8
HATCH
10
151.8920
20
98.9912
30
0
0
VERTEX
8
HATCH
10
151.8920
20
103.7912
30
0
0
VERTEX
8
HATCH
10
151.8920
20
103.7912
30
0
0
VERTEX
8
HATCH
10
153.8920
20
103.7912
30
0
0
VERTEX
8
HATCH
10
153.8920
20
103.7912
30
0
0
VERTEX
8
HATCH
10
153.8920
20
104.7912
30
0
0
VERTEX
8
HATCH
10
153.8920
20
104.7912
30
0
0
VERTEX
8
HATCH
10
151.8920
20
104.7912
30
0
0
VERTEX
8
HATCH
10
151.8920
20
104.7912
30
0
0
VERTEX
8
HATCH
10
151.8920
20
107.7912
30
0
0
VERTEX
8
HATCH
10
151.8920
20
107.7912
30
0
0
VERTEX
8
HATCH
10
153.8920
20
107.7912
30
0
0
VERTEX
8
HATCH
10
153.8920
20
107.7912
30
0
0
VERTEX
8
HATCH
10
153.8920
20
108.7912
30
0
0
VERTEX
8
HATCH
10
153.8920
20
108.7912
30
0
0
VERTEX
8
HATCH
10
151.8920
20
108.7912
30
0
0
VERTEX
8
HATCH
10
151.8920
20
108.7912
30
0
0
VERTEX
8
HATCH
10
151.8920
20
120.7912
30
0
0
VERTEX
8
HATCH
10
151.8920
20
120.7912
30
0
0
VERTEX
8
HATCH
10
153.8920
20
120.7912
30
0
0
VERTEX
8
HATCH
10
153.8920
20
120.7912
30
0
0
VERTEX
8
HATCH
10
153.8920
20
121.7912
30
0
0
VERTEX
8
HATCH
10
153.8920
20
121.7912
30
0
0
VERTEX
8
HATCH
10
151.8920
20
121.7912
30
0
0
VERTEX
8
HATCH
10
151.8920
20
121.7912
30
0
0
VERTEX
8
HATCH
10
151.8920
20
124.7912
30
0
0
VERTEX
8
HATCH
10
151.8920
20
124.7912
30
0
0
VERTEX
8
HATCH
10
153.8920
20
124.7912
30
0
0
VERTEX
8
HATCH
10
153.8920
20
124.7912
30
0
0
VERTEX
8
HATCH
10
153.8920
20
125.7912
30
0
0
VERTEX
8
HATCH
10
153.8920
20
125.7912
30
0
0
VERTEX
8
HATCH
10
151.8920
20
125.7912
30
0
0
VERTEX
8
HATCH
10
151.8920
20
125.7912
30
0
0
VERTEX
8
HATCH
10
151.8920
20
136.7912
30
0
0
VERTEX
8
HATCH
10
151.8920
20
136.7912
30
0
0
VERTEX
8
HATCH
10
151.8925
20
136.8130
30
0
0
VERTEX
8
HATCH
10
151.8939
20
136.8348
30
0
0
VERTEX
8
HATCH
10
151.8963
20
136.8565
30
0
0
VERTEX
8
HATCH
10
151.8996
20
136.8780
30
0
0
VERTEX
8
HATCH
10
151.9039
20
136.8994
30
0
0
VERTEX
8
HATCH
10
151.9091
20
136.9206
30
0
0
VERTEX
8
HATCH
10
151.9152
20
136.9416
30
0
0
VERTEX
8
HATCH
10
151.9222
20
136.9622
30
0
0
VERTEX
8
HATCH
10
151.9301
20
136.9826
30
0
0
VERTEX
8
HATCH
10
151.9389
20
137.0025
30
0
0
VERTEX
8
HATCH
10
151.9485
20
137.0221
30
0
0
VERTEX
8
HATCH
10
151.9590
20
137.0412
30
0
0
VERTEX
8
HATCH
10
151.9703
20
137.0599
30
0
0
VERTEX
8
HATCH
10
151.9825
20
137.0780
30
0
0
VERTEX
8
HATCH
10
151.9954
20
137.0956
30
0
0
VERTEX
8
HATCH
10
152.0090
20
137.1126
30
0
0
VERTEX
8
HATCH
10
152.0234
20
137.1290
30
0
0
VERTEX
8
HATCH
10
152.0385
20
137.1448
30
0
0
VERTEX
8
HATCH
10
152.0542
20
137.1598
30
0
0
VERTEX
8
HATCH
10
152.0706
20
137.1742
30
0
0
VERTEX
8
HATCH
10
152.0876
20
137.1879
30
0
0
VERTEX
8
HATCH
10
152.1052
20
137.2008
30
0
0
VERTEX
8
HATCH
10
152.1234
20
137.2129
30
0
0
VERTEX
8
HATCH
10
152.1420
20
137.2242
30
0
0
VERTEX
8
HATCH
10
152.1612
20
137.2347
30
0
0
VERTEX
8
HATCH
10
152.1807
20
137.2444
30
0
0
VERTEX
8
HATCH
10
152.2007
20
137.2531
30
0
0
VERTEX
8
HATCH
10
152.2210
20
137.2611
30
0
0
VERTEX
8
HATCH
10
152.2417
20
137.2681
30
0
0
VERTEX
8
HATCH
10
152.2626
20
137.2742
30
0
0
VERTEX
8
HATCH
10
152.2838
20
137.2794
30
0
0
VERTEX
8
HATCH
10
152.3052
20
137.2836
30
0
0
VERTEX
8
HATCH
10
152.3268
20
137.2869
30
0
0
VERTEX
8
HATCH
10
152.3485
20
137.2893
30
0
0
VERTEX
8
HATCH
10
152.3702
20
137.2907
30
0
0
VERTEX
8
HATCH
10
152.3920
20
137.2912
30
0
0
VERTEX
8
HATCH
10
152.3920
20
137.2912
30
0
0
VERTEX
8
HATCH
10
155.3920
20
137.2912
30
0
0
VERTEX
8
HATCH
10
155.3920
20
137.2912
30
0
0
VERTEX
8
HATCH
10
155.3920
20
138.0412
30
0
0
VERTEX
8
HATCH
10
155.3920
20
138.0412
30
0
0
VERTEX
8
HATCH
10
157.3920
20
138.0412
30
0
0
VERTEX
8
HATCH
10
157.3920
20
138.0412
30
0
0
VERTEX
8
HATCH
10
157.3920
20
138.7912
30
0
0
VERTEX
8
HATCH
10
157.3920
20
138.7912
30
0
0
VERTEX
8
HATCH
10
152.3920
20
138.7912
30
0
0
VERTEX
8
HATCH
10
152.3920
20
138.7912
30
0
0
VERTEX
8
HATCH
10
152.3048
20
138.7893
30
0
0
VERTEX
8
HATCH
10
152.2177
20
138.7836
30
0
0
VERTEX
8
HATCH
10
152.1310
20
138.7741
30
0
0
VERTEX
8
HATCH
10
152.0447
20
138.7608
30
0
0
VERTEX
8
HATCH
10
151.9592
20
138.7438
30
0
0
VERTEX
8
HATCH
10
151.8744
20
138.7231
30
0
0
VERTEX
8
HATCH
10
151.7906
20
138.6986
30
0
0
VERTEX
8
HATCH
10
151.7080
20
138.6706
30
0
0
VERTEX
8
HATCH
10
151.6267
20
138.6390
30
0
0
VERTEX
8
HATCH
10
151.5468
20
138.6038
30
0
0
VERTEX
8
HATCH
10
151.4685
20
138.5652
30
0
0
VERTEX
8
HATCH
10
151.3920
20
138.5233
30
0
0
VERTEX
8
HATCH
10
151.3174
20
138.4780
30
0
0
VERTEX
8
HATCH
10
151.2449
20
138.4295
30
0
0
VERTEX
8
HATCH
10
151.1745
20
138.3779
30
0
0
VERTEX
8
HATCH
10
151.1065
20
138.3233
30
0
0
VERTEX
8
HATCH
10
151.0409
20
138.2658
30
0
0
VERTEX
8
HATCH
10
150.9778
20
138.2054
30
0
0
VERTEX
8
HATCH
10
150.9175
20
138.1424
30
0
0
VERTEX
8
HATCH
10
150.8599
20
138.0768
30
0
0
VERTEX
8
HATCH
10
150.8053
20
138.0087
30
0
0
VERTEX
8
HATCH
10
150.7537
20
137.9384
30
0
0
VERTEX
8
HATCH
10
150.7052
20
137.8658
30
0
0
VERTEX
8
HATCH
10
150.6600
20
137.7912
30
0
0
VERTEX
8
HATCH
10
150.6180
20
137.7147
30
0
0
VERTEX
8
HATCH
10
150.5794
20
137.6364
30
0
0
VERTEX
8
HATCH
10
150.5443
20
137.5566
30
0
0
VERTEX
8
HATCH
10
150.5126
20
137.4752
30
0
0
VERTEX
8
HATCH
10
150.4846
20
137.3926
30
0
0
VERTEX
8
HATCH
10
150.4602
20
137.3088
30
0
0
VERTEX
8
HATCH
10
150.4394
20
137.2241
30
0
0
VERTEX
8
HATCH
10
150.4224
20
137.1385
30
0
0
VERTEX
8
HATCH
10
150.4091
20
137.0523
30
0
0
VERTEX
8
HATCH
10
150.3996
20
136.9655
30
0
0
VERTEX
8
HATCH
10
150.3939
20
136.8784
30
0
0
VERTEX
8
HATCH
10
150.3920
20
136.7912
30
0
0
VERTEX
8
HATCH
10
150.3920
20
136.7912
30
0
0
VERTEX
8
HATCH
10
150.3920
20
92.7912
30
0
0
VERTEX
8
HATCH
10
150.3920
20
92.7912
30
0
0
VERTEX
8
HATCH
10
150.3939
20
92.7040
30
0
0
VERTEX
8
HATCH
10
150.3996
20
92.6169
30
0
0
VERTEX
8
HATCH
10
150.4091
20
92.5302
30
0
0
VERTEX
8
HATCH
10
150.4224
20
92.4439
30
0
0
VERTEX
8
HATCH
10
150.4394
20
92.3583
30
0
0
VERTEX
8
HATCH
10
150.4602
20
92.2736
30
0
0
VERTEX
8
HATCH
10
150.4846
20
92.1898
30
0
0
VERTEX
8
HATCH
10
150.5126
20
92.1072
30
0
0
VERTEX
8
HATCH
10
150.5443
20
92.0258
30
0
0
VERTEX
8
HATCH
10
150.5794
20
91.9460
30
0
0
VERTEX
8
HATCH
10
150.6180
20
91.8677
30
0
0
VERTEX
8
HATCH
10
150.6600
20
91.7912
30
0
0
VERTEX
8
HATCH
10
150.7052
20
91.7166
30
0
0
VERTEX
8
HATCH
10
150.7537
20
91.6441
30
0
0
VERTEX
8
HATCH
10
150.8053
20
91.5737
30
0
0
VERTEX
8
HATCH
10
150.8599
20
91.5056
30
0
0
VERTEX
8
HATCH
10
150.9175
20
91.4400
30
0
0
VERTEX
8
HATCH
10
150.9778
20
91.3770
30
0
0
VERTEX
8
HATCH
10
151.0409
20
91.3167
30
0
0
VERTEX
8
HATCH
10
151.1065
20
91.2591
30
0
0
VERTEX
8
HATCH
10
151.1745
20
91.2045
30
0
0
VERTEX
8
HATCH
10
151.2449
20
91.1529
30
0
0
VERTEX
8
HATCH
10
151.3174
20
91.1044
30
0
0
VERTEX
8
HATCH
10
151.3920
20
91.0592
30
0
0
VERTEX
8
HATCH
10
151.4685
20
91.0172
30
0
0
VERTEX
8
HATCH
10
151.5468
20
90.9786
30
0
0
VERTEX
8
HATCH
10
151.6267
20
90.9435
30
0
0
VERTEX
8
HATCH
10
151.7080
20
90.9118
30
0
0
VERTEX
8
HATCH
10
151.7906
20
90.8838
30
0
0
VERTEX
8
HATCH
10
151.8744
20
90.8594
30
0
0
VERTEX
8
HATCH
10
151.9592
20
90.8386
30
0
0
VERTEX
8
HATCH
10
152.0447
20
90.8216
30
0
0
VERTEX
8
HATCH
10
152.1310
20
90.8083
30
0
0
VERTEX
8
HATCH
10
152.2177
20
90.7988
30
0
0
VERTEX
8
HATCH
10
152.3048
20
90.7931
30
0
0
VERTEX
8
HATCH
10
152.3920
20
90.7912
30
0
0
VERTEX
8
HATCH
10
152.3920
20
90.7912
30
0
0
VERTEX
8
HATCH
10
157.3920
20
90.7912
30
0
0
VERTEX
8
HATCH
10
157.3920
20
90.7912
30
0
0
VERTEX
8
HATCH
10
157.3920
20
91.5412
30
0
0
VERTEX
8
HATCH
10
157.3920
20
91.5412
30
0
0
VERTEX
8
HATCH
10
155.3920
20
91.5412
30
0
0
VERTEX
8
HATCH
10
155.3920
20
91.5412
30
0
0
VERTEX
8
HATCH
10
155.3920
20
92.2912
30
0
0
VERTEX
8
HATCH
10
155.3920
20
92.2912
30
0
0
VERTEX
8
HATCH
10
152.3920
20
92.2912
30
0
0
VERTEX
8
HATCH
10
152.3920
20
92.2912
30
0
0
VERTEX
8
HATCH
10
152.3702
20
92.2917
30
0
0
VERTEX
8
HATCH
10
152.3485
20
92.2931
30
0
0
VERTEX
8
HATCH
10
152.3268
20
92.2955
30
0
0
VERTEX
8
HATCH
10
152.3052
20
92.2988
30
0
0
VERTEX
8
HATCH
10
152.2838
20
92.3031
30
0
0
VERTEX
8
HATCH
10
152.2626
20
92.3082
30
0
0
VERTEX
8
HATCH
10
152.2417
20
92.3144
30
0
0
VERTEX
8
HATCH
10
152.2210
20
92.3214
30
0
0
VERTEX
8
HATCH
10
152.2007
20
92.3293
30
0
0
VERTEX
8
HATCH
10
152.1807
20
92.3381
30
0
0
VERTEX
8
HATCH
10
152.1612
20
92.3477
30
0
0
VERTEX
8
HATCH
10
152.1420
20
92.3582
30
0
0
VERTEX
8
HATCH
10
152.1234
20
92.3695
30
0
0
VERTEX
8
HATCH
10
152.1052
20
92.3816
30
0
0
VERTEX
8
HATCH
10
152.0876
20
92.3945
30
0
0
VERTEX
8
HATCH
10
152.0706
20
92.4082
30
0
0
VERTEX
8
HATCH
10
152.0542
20
92.4226
30
0
0
VERTEX
8
HATCH
10
152.0385
20
92.4377
30
0
0
VERTEX
8
HATCH
10
152.0234
20
92.4534
30
0
0
VERTEX
8
HATCH
10
152.0090
20
92.4698
30
0
0
VERTEX
8
HATCH
10
151.9954
20
92.4868
30
0
0
VERTEX
8
HATCH
10
151.9825
20
92.5044
30
0
0
VERTEX
8
HATCH
10
151.9703
20
92.5226
30
0
0
VERTEX
8
HATCH
10
151.9590
20
92.5412
30
0
0
VERTEX
8
HATCH
10
151.9485
20
92.5603
30
0
0
VERTEX
8
HATCH
10
151.9389
20
92.5799
30
0
0
VERTEX
8
HATCH
10
151.9301
20
92.5999
30
0
0
VERTEX
8
HATCH
10
151.9222
20
92.6202
30
0
0
VERTEX
8
HATCH
10
151.9152
20
92.6409
30
0
0
VERTEX
8
HATCH
10
151.9091
20
92.6618
30
0
0
VERTEX
8
HATCH
10
151.9039
20
92.6830
30
0
0
VERTEX
8
HATCH
10
151.8996
20
92.7044
30
0
0
VERTEX
8
HATCH
10
151.8963
20
92.7259
30
0
0
VERTEX
8
HATCH
10
151.8939
20
92.7476
30
0
0
VERTEX
8
HATCH
10
151.8925
20
92.7694
30
0
0
VERTEX
8
HATCH
10
151.8920
20
92.7912
30
0
0
VERTEX
8
HATCH
10
151.8920
20
92.7912
30
0
0
VERTEX
8
HATCH
10
151.8920
20
94.5912
30
0
0
VERTEX
8
HATCH
10
151.8920
20
94.5912
30
0
0
VERTEX
8
HATCH
10
155.2920
20
94.5912
30
0
0
VERTEX
8
HATCH
10
155.2920
20
94.5912
30
0
0
VERTEX
8
HATCH
10
155.2920
20
95.5912
30
0
0
SEQEND
8
HATCH
0
LINE
8
HATCH
10
156.3081
20
90.7912
30
0
11
157.0581
21
91.5412
31
0
0
LINE
8
HATCH
10
154.0630
20
90.7912
30
0
11
155.3920
21
92.1202
31
0
0
LINE
8
HATCH
10
151.8838
20
90.8571
30
0
11
153.3179
21
92.2912
31
0
0
LINE
8
HATCH
10
150.6291
20
91.8475
30
0
11
151.8920
21
93.1104
31
0
0
LINE
8
HATCH
10
153.3729
20
94.5912
30
0
11
154.3729
21
95.5912
31
0
0
LINE
8
HATCH
10
150.3920
20
93.8554
30
0
11
152.1278
21
95.5912
31
0
0
LINE
8
HATCH
10
154.5278
20
97.9912
30
0
11
155.2920
21
98.7554
31
0
0
LINE
8
HATCH
10
150.3920
20
96.1005
30
0
11
151.8920
21
97.6005
31
0
0
LINE
8
HATCH
10
152.2827
20
97.9912
30
0
11
153.2827
21
98.9912
31
0
0
LINE
8
HATCH
10
150.3920
20
98.3456
30
0
11
151.8920
21
99.8456
31
0
0
LINE
8
HATCH
10
150.3920
20
100.5906
30
0
11
151.8920
21
102.0906
31
0
0
LINE
8
HATCH
10
153.5926
20
103.7912
30
0
11
153.8920
21
104.0906
31
0
0
LINE
8
HATCH
10
150.3920
20
102.8357
30
0
11
152.3476
21
104.7912
31
0
0
LINE
8
HATCH
10
150.3920
20
105.0807
30
0
11
151.8920
21
106.5807
31
0
0
LINE
8
HATCH
10
153.1025
20
107.7912
30
0
11
153.8920
21
108.5807
31
0
0
LINE
8
HATCH
10
150.3920
20
107.3258
30
0
11
151.8920
21
108.8258
31
0
0
LINE
8
HATCH
10
150.3920
20
109.5709
30
0
11
151.8920
21
111.0709
31
0
0
LINE
8
HATCH
10
150.3920
20
111.8159
30
0
11
151.8920
21
113.3159
31
0
0
LINE
8
HATCH
10
150.3920
20
114.0610
30
0
11
151.8920
21
115.5610
31
0
0
LINE
8
HATCH
10
150.3920
20
116.3061
30
0
11
151.8920
21
117.8061
31
0
0
LINE
8
HATCH
10
150.3920
20
118.5511
30
0
11
151.8920
21
120.0511
31
0
0
LINE
8
HATCH
10
152.6321
20
120.7912
30
0
11
153.6321
21
121.7912
31
0
0
LINE
8
HATCH
10
150.3920
20
120.7962
30
0
11
151.8920
21
122.2962
31
0
0
LINE
8
HATCH
10
150.3920
20
123.0413
30
0
11
151.8920
21
124.5413
31
0
0
LINE
8
HATCH
10
152.1420
20
124.7912
30
0
11
153.1420
21
125.7912
31
0
0
LINE
8
HATCH
10
150.3920
20
125.2863
30
0
11
151.8920
21
126.7863
31
0
0
LINE
8
HATCH
10
150.3920
20
127.5314
30
0
11
151.8920
21
129.0314
31
0
0
LINE
8
HATCH
10
150.3920
20
129.7765
30
0
11
151.8920
21
131.2765
31
0
0
LINE
8
HATCH
10
150.3920
20
132.0215
30
0
11
151.8920
21
133.5215
31
0
0
LINE
8
HATCH
10
156.4117
20
138.0412
30
0
11
157.1617
21
138.7912
31
0
0
LINE
8
HATCH
10
150.3920
20
134.2666
30
0
11
151.8920
21
135.7666
31
0
0
LINE
8
HATCH
10
153.4167
20
137.2912
30
0
11
154.9167
21
138.7912
31
0
0
LINE
8
HATCH
10
150.3920
20
136.5116
30
0
11
152.6716
21
138.7912
31
0
0
TEXT
8
Border_ISO
10
235.6052
20
186.7900
30
0
40
1.7500
1
1
72
0
73
0
11
235.6052
21
186.7900
31
0
7
STANDARD
0
TEXT
8
Border_ISO
10
235.6052
20
46.1400
30
0
40
1.7500
1
1
72
0
73
0
11
235.6052
21
46.1400
31
0
7
STANDARD
0
TEXT
8
Border_ISO
10
200.4694
20
186.7900
30
0
40
1.7500
1
2
72
0
73
0
11
200.4694
21
186.7900
31
0
7
STANDARD
0
TEXT
8
Border_ISO
10
200.4694
20
46.1400
30
0
40
1.7500
1
2
72
0
73
0
11
200.4694
21
46.1400
31
0
7
STANDARD
0
TEXT
8
Border_ISO
10
165.4554
20
186.7531
30
0
40
1.7500
1
3
72
0
73
0
11
165.4554
21
186.7531
31
0
7
STANDARD
0
TEXT
8
Border_ISO
10
165.4554
20
46.1031
30
0
40
1.7500
1
3
72
0
73
0
11
165.4554
21
46.1031
31
0
7
STANDARD
0
TEXT
8
Border_ISO
10
130.3896
20
186.7900
30
0
40
1.7500
1
4
72
0
73
0
11
130.3896
21
186.7900
31
0
7
STANDARD
0
TEXT
8
Border_ISO
10
130.3896
20
46.1400
30
0
40
1.7500
1
4
72
0
73
0
11
130.3896
21
46.1400
31
0
7
STANDARD
0
TEXT
8
Border_ISO
10
95.4876
20
186.7531
30
0
40
1.7500
1
5
72
0
73
0
11
95.4876
21
186.7531
31
0
7
STANDARD
0
TEXT
8
Border_ISO
10
95.4876
20
46.1031
30
0
40
1.7500
1
5
72
0
73
0
11
95.4876
21
46.1031
31
0
7
STANDARD
0
TEXT
8
Border_ISO
10
60.4414
20
186.7531
30
0
40
1.7500
1
6
72
0
73
0
11
60.4414
21
186.7531
31
0
7
STANDARD
0
TEXT
8
Border_ISO
10
60.4414
20
46.1031
30
0
40
1.7500
1
6
72
0
73
0
11
60.4414
21
46.1031
31
0
7
STANDARD
0
TEXT
8
Border_ISO
10
46.6806
20
60.7775
30
0
40
1.7500
1
A
72
0
73
0
11
46.6806
21
60.7775
31
0
7
STANDARD
0
TEXT
8
Border_ISO
10
248.8306
20
60.7775
30
0
40
1.7500
1
A
72
0
73
0
11
248.8306
21
60.7775
31
0
7
STANDARD
0
TEXT
8
Border_ISO
10
46.8909
20
97.9025
30
0
40
1.7500
1
B
72
0
73
0
11
46.8909
21
97.9025
31
0
7
STANDARD
0
TEXT
8
Border_ISO
10
249.0409
20
97.9025
30
0
40
1.7500
1
B
72
0
73
0
11
249.0409
21
97.9025
31
0
7
STANDARD
0
TEXT
8
Border_ISO
10
46.7795
20
134.9963
30
0
40
1.7500
1
C
72
0
73
0
11
46.7795
21
134.9963
31
0
7
STANDARD
0
TEXT
8
Border_ISO
10
248.9295
20
134.9963
30
0
40
1.7500
1
C
72
0
73
0
11
248.9295
21
134.9963
31
0
7
STANDARD
0
TEXT
8
Border_ISO
10
46.7839
20
172.1525
30
0
40
1.7500
1
D
72
0
73
0
11
46.7839
21
172.1525
31
0
7
STANDARD
0
TEXT
8
Border_ISO
10
248.9339
20
172.1525
30
0
40
1.7500
1
D
72
0
73
0
11
248.9339
21
172.1525
31
0
7
STANDARD
0
TEXT
8
Title_ISO
10
179.5347
20
52.3659
30
0
40
1.7500
1
General Magic (Thailand) Co., Ltd.
72
0
73
0
11
179.5347
21
52.3659
31
0
7
STANDARD
0
TEXT
8
Title_ISO
10
164.0000
20
61.5900
30
0
40
1.0000
1
Designed by
72
0
73
0
11
164.0000
21
61.5900
31
0
7
STANDARD
0
TEXT
8
Title_ISO
10
180.0000
20
61.5900
30
0
40
1.0000
1
Checked by
72
0
73
0
11
180.0000
21
61.5900
31
0
7
STANDARD
0
TEXT
8
Title_ISO
10
192.5000
20
61.5900
30
0
40
1.0000
1
Approved by
72
0
73
0
11
192.5000
21
61.5900
31
0
7
STANDARD
0
TEXT
8
Title_ISO
10
224.0000
20
61.5900
30
0
40
1.0000
1
Date
72
0
73
0
11
224.0000
21
61.5900
31
0
7
STANDARD
0
TEXT
8
Title_ISO
10
240.5976
20
48.9650
30
0
40
1.7500
1
1 / 1 
72
1
73
0
11
240.5976
21
48.9650
31
0
7
STANDARD
0
TEXT
8
Title_ISO
10
232.6828
20
51.5900
30
0
40
1.0000
1
Edition
72
1
73
0
11
232.6828
21
51.5900
31
0
7
STANDARD
0
TEXT
8
Title_ISO
10
241.7794
20
51.5900
30
0
40
1.0000
1
Sheet
72
1
73
0
11
241.7794
21
51.5900
31
0
7
STANDARD
0
TEXT
8
Title_ISO
10
208.6612
20
61.5900
30
0
40
1.0000
1
Date
72
2
73
0
11
208.6612
21
61.5900
31
0
7
STANDARD
0
TEXT
8
Title_ISO
10
201.5000
20
52.5900
30
0
40
1.0000
1
PART NUMBER
72
0
73
0
11
201.5000
21
52.5900
31
0
7
STANDARD
0
TEXT
8
Title_ISO
10
201.5000
20
57.5900
30
0
40
1.0000
1
TITLE
72
0
73
0
11
201.5000
21
57.5900
31
0
7
STANDARD
0
TEXT
8
Title_ISO
10
212.0000
20
62.5900
30
0
40
1.0150
1
UNIT
72
0
73
0
11
212.0000
21
62.5900
31
0
7
STANDARD
0
TEXT
8
Title_ISO
10
239.0000
20
62.5900
30
0
40
1.0150
1
MATERIAL
72
0
73
0
11
239.0000
21
62.5900
31
0
7
STANDARD
0
TEXT
8
Title_ISO
10
164.0000
20
58.7336
30
0
40
1.2500
1
Russapat
72
0
73
0
11
164.0000
21
58.7336
31
0
7
STANDARD
0
TEXT
8
Title_ISO
10
224.0000
20
58.7336
30
0
40
1.2500
1
1/23/2026
72
0
73
0
11
224.0000
21
58.7336
31
0
7
STANDARD
0
TEXT
8
Title_ISO
10
239.0000
20
58.6053
30
0
40
1.5240
1
Generic
72
0
73
0
11
239.0000
21
58.6053
31
0
7
STANDARD
0
TEXT
8
Title_ISO
10
164.0000
20
58.7336
30
0
40
1.2500
1
Russapat
72
0
73
0
11
164.0000
21
58.7336
31
0
7
STANDARD
0
TEXT
8
Title_ISO
10
224.0000
20
58.7336
30
0
40
1.2500
1
1/23/2026
72
0
73
0
11
224.0000
21
58.7336
31
0
7
STANDARD
0
TEXT
8
Title_ISO
10
239.0000
20
60.1293
30
0
40
1.5240
1
Generic
72
0
73
0
11
239.0000
21
60.1293
31
0
7
STANDARD
0
TEXT
8
Symbol_ISO
10
65.6188
20
125.7634
30
0
40
3.5278
1
3x M2 THRU ALL
72
0
73
0
11
65.6188
21
125.7634
31
0
7
STANDARD
0
TEXT
8
SECTION
10
100.8439
20
161.4082
30
0
40
4.9389
1
A
72
1
73
0
11
100.8439
21
161.4082
31
0
7
STANDARD
0
TEXT
8
SECTION
10
100.8439
20
75.1631
30
0
40
4.9389
1
A
72
1
73
0
11
100.8439
21
75.1631
31
0
7
STANDARD
0
TEXT
8
Symbol_ISO
10
144.6001
20
159.2551
30
0
40
3.5278
1
A-A ( 2 : 1 )
72
0
73
0
11
144.6001
21
159.2551
31
0
7
STANDARD
0
TEXT
8
Symbol_ISO
10
83.6769
20
71.6148
30
0
40
3.5278
1
FRONT VIEW
72
0
73
0
11
83.6769
21
71.6148
31
0
7
STANDARD
0
TEXT
8
Symbol_ISO
10
206.2410
20
72.7024
30
0
40
3.5278
1
BACK VIEW
72
0
73
0
11
206.2410
21
72.7024
31
0
7
STANDARD
0
TEXT
8
Symbol_ISO
10
233.4900
20
50.3637
30
0
40
1.7500
1
01
72
0
73
0
11
233.4900
21
50.3637
31
0
7
STANDARD
0
POLYLINE
8
FRAME
66
1
70
1
10
0
20
0
30
0
0
VERTEX
8
FRAME
10
10.0000
20
200.0000
30
0
0
VERTEX
8
FRAME
10
287.0000
20
200.0000
30
0
0
VERTEX
8
FRAME
10
287.0000
20
10.0000
30
0
0
VERTEX
8
FRAME
10
10.0000
20
10.0000
30
0
0
SEQEND
8
FRAME
0
POLYLINE
8
FRAME
66
1
70
1
10
0
20
0
30
0
0
VERTEX
8
FRAME
10
117.0000
20
34.6800
30
0
0
VERTEX
8
FRAME
10
287.0000
20
34.6800
30
0
0
VERTEX
8
FRAME
10
287.0000
20
10.0000
30
0
0
VERTEX
8
FRAME
10
117.0000
20
10.0000
30
0
0
SEQEND
8
FRAME
0
LINE
8
FRAME
10
157.8680
20
34.6800
30
0
11
157.8680
21
10.0000
31
0
0
LINE
8
FRAME
10
198.6170
20
34.6800
30
0
11
198.6170
21
10.0000
31
0
0
LINE
8
FRAME
10
246.1320
20
34.6800
30
0
11
246.1320
21
10.0000
31
0
0
LINE
8
FRAME
10
141.5480
20
26.4542
30
0
11
141.5480
21
10.0000
31
0
0
LINE
8
FRAME
10
178.1830
20
22.3400
30
0
11
178.1830
21
14.2450
31
0
0
LINE
8
FRAME
10
214.4780
20
26.4542
30
0
11
214.4780
21
18.2925
31
0
0
LINE
8
FRAME
10
230.3390
20
26.4542
30
0
11
230.3390
21
18.2925
31
0
0
LINE
8
FRAME
10
222.3660
20
18.2925
30
0
11
222.3660
21
10.0000
31
0
0
LINE
8
FRAME
10
258.4060
20
18.2925
30
0
11
258.4060
21
10.0000
31
0
0
LINE
8
FRAME
10
270.6120
20
26.4542
30
0
11
270.6120
21
10.0000
31
0
0
LINE
8
FRAME
10
117.0000
20
26.4542
30
0
11
157.8680
21
26.4542
31
0
0
LINE
8
FRAME
10
198.6170
20
26.4542
30
0
11
287.0000
21
26.4542
31
0
0
LINE
8
FRAME
10
198.6170
20
18.2925
30
0
11
270.6120
21
18.2925
31
0
0
LINE
8
FRAME
10
117.0000
20
22.3400
30
0
11
198.6170
21
22.3400
31
0
0
LINE
8
FRAME
10
117.0000
20
18.2925
30
0
11
157.8680
21
18.2925
31
0
0
LINE
8
FRAME
10
117.0000
20
14.2450
30
0
11
198.6170
21
14.2450
31
0
0
TEXT
8
TITLE
10
137.4340
20
31.1014
30
0
40
1.6500
1
BREAK ALL SHARP EDGES AND REMOVE
72
1
73
0
11
137.4340
21
31.1014
31
0
7
STANDARD
0
TEXT
8
TITLE
10
137.4340
20
28.7074
30
0
40
1.6500
1
BURRS
72
1
73
0
11
137.4340
21
28.7074
31
0
7
STANDARD
0
TEXT
8
TITLE
10
129.2740
20
23.8064
30
0
40
1.6500
1
APPROVALS
72
1
73
0
11
129.2740
21
23.8064
31
0
7
STANDARD
0
TEXT
8
TITLE
10
149.7080
20
23.8064
30
0
40
1.6500
1
DATE
72
1
73
0
11
149.7080
21
23.8064
31
0
7
STANDARD
0
TEXT
8
TITLE
10
117.9000
20
19.7112
30
0
40
1.6900
1
DESIGN
72
0
73
0
11
117.9000
21
19.7112
31
0
7
STANDARD
0
TEXT
8
TITLE
10
135.6490
20
19.7255
30
0
40
1.6500
1
NAME
72
1
73
0
11
135.6490
21
19.7255
31
0
7
STANDARD
0
TEXT
8
TITLE
10
149.7080
20
19.7255
30
0
40
1.6500
1
YYYY/MM/DD
72
1
73
0
11
149.7080
21
19.7255
31
0
7
STANDARD
0
TEXT
8
TITLE
10
117.9000
20
15.6637
30
0
40
1.6900
1
DRAWN
72
0
73
0
11
117.9000
21
15.6637
31
0
7
STANDARD
0
TEXT
8
TITLE
10
135.6490
20
15.6780
30
0
40
1.6500
1
NAME
72
1
73
0
11
135.6490
21
15.6780
31
0
7
STANDARD
0
TEXT
8
TITLE
10
149.7080
20
15.6780
30
0
40
1.6500
1
YYYY/MM/DD
72
1
73
0
11
149.7080
21
15.6780
31
0
7
STANDARD
0
TEXT
8
TITLE
10
117.9000
20
11.5175
30
0
40
1.6900
1
APPROVED
72
0
73
0
11
117.9000
21
11.5175
31
0
7
STANDARD
0
TEXT
8
TITLE
10
135.6490
20
11.5318
30
0
40
1.6500
1
NAME
72
1
73
0
11
135.6490
21
11.5318
31
0
7
STANDARD
0
TEXT
8
TITLE
10
149.7080
20
11.5318
30
0
40
1.6500
1
YYYY/MM/DD
72
1
73
0
11
149.7080
21
11.5318
31
0
7
STANDARD
0
TEXT
8
TITLE
10
158.7680
20
32.1626
30
0
40
1.4800
1
UNLESS OTHERWISE SPECIFIED DIMENSIONS
72
0
73
0
11
158.7680
21
32.1626
31
0
7
STANDARD
0
TEXT
8
TITLE
10
158.7680
20
29.7687
30
0
40
1.4800
1
ARE IN MILLIMETERS TOLERANCES ARE:
72
0
73
0
11
158.7680
21
29.7687
31
0
7
STANDARD
0
TEXT
8
TITLE
10
172.5900
20
27.1279
30
0
40
1.2000
1
+-
72
0
73
0
11
172.5900
21
27.1279
31
0
7
STANDARD
0
TEXT
8
TITLE
10
174.9700
20
27.1279
30
0
40
1.2000
1
x.x
72
0
73
0
11
174.9700
21
27.1279
31
0
7
STANDARD
0
TEXT
8
TITLE
10
174.9700
20
25.2522
30
0
40
1.2000
1
x.xx
72
0
73
0
11
174.9700
21
25.2522
31
0
7
STANDARD
0
TEXT
8
TITLE
10
174.9700
20
23.5246
30
0
40
1.2000
1
x.xxx
72
0
73
0
11
174.9700
21
23.5246
31
0
7
STANDARD
0
TEXT
8
TITLE
10
180.2400
20
27.1279
30
0
40
1.2000
1
0.1
72
0
73
0
11
180.2400
21
27.1279
31
0
7
STANDARD
0
TEXT
8
TITLE
10
180.2400
20
25.2522
30
0
40
1.2000
1
0.05
72
0
73
0
11
180.2400
21
25.2522
31
0
7
STANDARD
0
TEXT
8
TITLE
10
180.2400
20
23.5246
30
0
40
1.2000
1
0.02
72
0
73
0
11
180.2400
21
23.5246
31
0
7
STANDARD
0
TEXT
8
TITLE
10
158.6680
20
19.8226
30
0
40
1.6500
1
SCALE
72
0
73
0
11
158.6680
21
19.8226
31
0
7
STANDARD
0
TEXT
8
TITLE
10
168.0255
20
16.2440
30
0
40
2.2100
1
1:1
72
1
73
0
11
168.0255
21
16.2440
31
0
7
STANDARD
0
LINE
8
FRAME
10
189.1853
20
18.3334
30
0
11
191.2464
21
18.3334
31
0
0
LINE
8
FRAME
10
194.2533
20
18.3334
30
0
11
196.2709
21
18.3334
31
0
0
LINE
8
FRAME
10
192.1533
20
18.3334
30
0
11
193.2442
21
18.3334
31
0
0
LINE
8
FRAME
10
192.6988
20
21.2130
30
0
11
192.6988
21
19.8478
31
0
0
LINE
8
FRAME
10
192.6988
20
16.8409
30
0
11
192.6988
21
15.4539
31
0
0
LINE
8
FRAME
10
192.6988
20
18.9407
30
0
11
192.6988
21
17.8499
31
0
0
LINE
8
FRAME
10
180.4816
20
18.3334
30
0
11
182.5427
21
18.3334
31
0
0
LINE
8
FRAME
10
185.5495
20
18.3334
30
0
11
187.5671
21
18.3334
31
0
0
LINE
8
FRAME
10
183.4496
20
18.3334
30
0
11
184.5405
21
18.3334
31
0
0
POLYLINE
8
FRAME
66
1
70
1
10
0
20
0
30
0
0
VERTEX
8
FRAME
10
186.1518
20
20.3789
30
0
0
VERTEX
8
FRAME
10
186.1518
20
16.2881
30
0
0
VERTEX
8
FRAME
10
181.8967
20
17.3108
30
0
0
VERTEX
8
FRAME
10
181.8967
20
19.3563
30
0
0
SEQEND
8
FRAME
0
TEXT
8
TITLE
10
178.2425
20
11.4602
30
0
40
1.8500
1
DO NOT SCALE DRAWING
72
1
73
0
11
178.2425
21
11.4602
31
0
7
STANDARD
0
TEXT
8
TITLE
10
199.4170
20
32.1800
30
0
40
1.6500
1
TITLE
72
0
73
0
11
199.4170
21
32.1800
31
0
7
STANDARD
0
TEXT
8
TITLE
10
222.3745
20
28.4695
30
0
40
3.3400
1
TITLE
72
1
73
0
11
222.3745
21
28.4695
31
0
7
STANDARD
0
TEXT
8
TITLE
10
246.9320
20
32.1800
30
0
40
1.6500
1
PROJECT
72
0
73
0
11
246.9320
21
32.1800
31
0
7
STANDARD
0
TEXT
8
TITLE
10
266.5660
20
28.4695
30
0
40
3.3400
1
PROJECT 1
72
1
73
0
11
266.5660
21
28.4695
31
0
7
STANDARD
0
TEXT
8
TITLE
10
199.4170
20
23.9542
30
0
40
1.6500
1
SIZE
72
0
73
0
11
199.4170
21
23.9542
31
0
7
STANDARD
0
TEXT
8
TITLE
10
206.5475
20
20.2921
30
0
40
2.2400
1
A4
72
1
73
0
11
206.5475
21
20.2921
31
0
7
STANDARD
0
TEXT
8
TITLE
10
215.2780
20
23.9542
30
0
40
1.6500
1
VERSION
72
0
73
0
11
215.2780
21
23.9542
31
0
7
STANDARD
0
TEXT
8
TITLE
10
222.4085
20
20.2921
30
0
40
2.2400
1
VER.
72
1
73
0
11
222.4085
21
20.2921
31
0
7
STANDARD
0
TEXT
8
TITLE
10
231.1390
20
23.9542
30
0
40
1.6500
1
PART NO.
72
0
73
0
11
231.1390
21
23.9542
31
0
7
STANDARD
0
TEXT
8
TITLE
10
238.2355
20
20.2921
30
0
40
2.2400
1
NO.
72
1
73
0
11
238.2355
21
20.2921
31
0
7
STANDARD
0
TEXT
8
TITLE
10
246.9320
20
23.9542
30
0
40
1.6500
1
DRAWING NO.
72
0
73
0
11
246.9320
21
23.9542
31
0
7
STANDARD
0
TEXT
8
TITLE
10
258.3720
20
20.2921
30
0
40
2.2400
1
PRJ-VER-PRT-XX
72
1
73
0
11
258.3720
21
20.2921
31
0
7
STANDARD
0
TEXT
8
TITLE
10
199.4170
20
15.7925
30
0
40
1.6500
1
MATERIAL
72
0
73
0
11
199.4170
21
15.7925
31
0
7
STANDARD
0
TEXT
8
TITLE
10
210.4915
20
12.0317
30
0
40
2.2400
1
MATERIAL
72
1
73
0
11
210.4915
21
12.0317
31
0
7
STANDARD
0
TEXT
8
TITLE
10
223.1660
20
15.7925
30
0
40
1.6500
1
FINISH
72
0
73
0
11
223.1660
21
15.7925
31
0
7
STANDARD
0
TEXT
8
TITLE
10
234.2490
20
12.0317
30
0
40
2.2400
1
FINISH
72
1
73
0
11
234.2490
21
12.0317
31
0
7
STANDARD
0
TEXT
8
TITLE
10
246.9320
20
15.7925
30
0
40
1.6500
1
COLOR
72
0
73
0
11
246.9320
21
15.7925
31
0
7
STANDARD
0
TEXT
8
TITLE
10
252.2690
20
12.0317
30
0
40
2.2400
1
COLOR
72
1
73
0
11
252.2690
21
12.0317
31
0
7
STANDARD
0
TEXT
8
TITLE
10
259.2060
20
15.7925
30
0
40
1.6500
1
SHEET
72
0
73
0
11
259.2060
21
15.7925
31
0
7
STANDARD
0
TEXT
8
TITLE
10
264.5090
20
12.0317
30
0
40
2.2400
1
1 OF 1
72
1
73
0
11
264.5090
21
12.0317
31
0
7
STANDARD
0
DIMENSION
8
DIMENSIONS
2
*D1
11
63.5949
21
93.3425
31
0
12
0
22
0
32
0
3
ISO-DM
10
92.9131
20
116.5521
30
0
70
163
15
89.3638
25
113.0303
35
0
42
5.0000
40
0
1
<>
1001
ACAD
1000
DSTYLE
1002
{
1070
41
1040
1.2500
1070
140
1040
3.5278
1070
147
1040
1.0583
1070
271
1070
2
1070
40
1040
1.0000
1070
174
1070
0
1070
172
1070
0
1070
141
1040
0.4375
1002
}
0
DIMENSION
8
DIMENSIONS
2
*D2
11
84.4135
21
146.7419
31
0
12
0
22
0
32
0
3
ISO-DM
10
91.1385
20
145.6483
30
0
70
160
13
77.6885
23
133.5412
33
0
14
91.1385
24
114.7912
34
0
50
180.0000
42
13.4500
1
<>
1001
ACAD
1000
DSTYLE
1002
{
1070
41
1040
1.2500
1070
140
1040
3.5278
1070
147
1040
1.0583
1070
271
1070
2
1070
40
1040
1.0000
1002
}
0
DIMENSION
8
DIMENSIONS
2
*D3
11
120.1969
21
123.5662
31
0
12
0
22
0
32
0
3
ISO-DM
10
121.2905
20
114.7912
30
0
70
160
13
91.1385
23
114.7912
33
0
14
77.6885
24
132.3412
34
0
50
90.0000
42
17.5500
1
<>
1001
ACAD
1000
DSTYLE
1002
{
1070
41
1040
1.2500
1070
140
1040
3.5278
1070
147
1040
1.0583
1070
271
1070
2
1070
40
1040
1.0000
1002
}
0
DIMENSION
8
DIMENSIONS
2
*D4
11
145.9007
21
81.5442
31
0
12
0
22
0
32
0
3
ISO-DM
10
150.3920
20
80.4506
30
0
70
160
13
153.8920
23
104.7912
33
0
14
150.3920
24
92.7912
34
0
50
0.0000
42
3.5000
1
<>
1001
ACAD
1000
DSTYLE
1002
{
1070
41
1040
1.2500
1070
140
1040
3.5278
1070
147
1040
1.0583
1070
271
1070
2
1070
40
1040
1.0000
1002
}
0
DIMENSION
8
DIMENSIONS
2
*D5
11
145.9007
21
75.5442
31
0
12
0
22
0
32
0
3
ISO-DM
10
155.2920
20
74.4506
30
0
70
160
13
155.2920
23
95.5912
33
0
14
150.3920
24
92.7912
34
0
50
180.0000
42
4.9000
1
<>
1001
ACAD
1000
DSTYLE
1002
{
1070
41
1040
1.2500
1070
140
1040
3.5278
1070
147
1040
1.0583
1070
271
1070
2
1070
40
1040
1.0000
1002
}
0
DIMENSION
8
DIMENSIONS
2
*D6
11
120.1969
21
105.7912
31
0
12
0
22
0
32
0
3
ISO-DM
10
121.2905
20
96.7912
30
0
70
160
13
91.1385
23
96.7912
33
0
14
91.1385
24
114.7912
34
0
50
90.0000
42
18.0000
1
<>
1001
ACAD
1000
DSTYLE
1002
{
1070
41
1040
1.2500
1070
140
1040
3.5278
1070
147
1040
1.0583
1070
271
1070
2
1070
40
1040
1.0000
1002
}
0
DIMENSION
8
DIMENSIONS
2
*D7
11
60.2715
21
100.3372
31
0
12
0
22
0
32
0
3
ISO-DM
10
91.1385
20
114.7912
30
0
70
164
15
81.7656
25
109.0336
35
0
42
11.0000
40
0
1
<>
1001
ACAD
1000
DSTYLE
1002
{
1070
41
1040
1.2500
1070
140
1040
3.5278
1070
147
1040
1.0583
1070
271
1070
2
1070
40
1040
1.0000
1070
174
1070
0
1070
172
1070
0
1070
141
1040
0.4375
1002
}
0
DIMENSION
8
DIMENSIONS
2
*D8
11
59.1488
21
105.5212
31
0
12
0
22
0
32
0
3
ISO-DM
10
91.1385
20
114.7912
30
0
70
164
15
81.8347
25
111.1253
35
0
42
10.0000
40
0
1
<>
1001
ACAD
1000
DSTYLE
1002
{
1070
41
1040
1.2500
1070
140
1040
3.5278
1070
147
1040
1.0583
1070
271
1070
2
1070
40
1040
1.0000
1070
174
1070
0
1070
172
1070
0
1070
141
1040
0.4375
1002
}
0
DIMENSION
8
DIMENSIONS
2
*D9
11
58.8192
21
131.1375
31
0
12
0
22
0
32
0
3
ISO-DM
10
97.2495
20
111.3773
30
0
70
163
15
85.0274
25
118.2051
35
0
42
14.0000
40
0
1
<>
1001
ACAD
1000
DSTYLE
1002
{
1070
41
1040
1.2500
1070
140
1040
3.5278
1070
147
1040
1.0583
1070
271
1070
2
1070
40
1040
1.0000
1070
174
1070
0
1070
172
1070
0
1070
141
1040
0.4375
1002
}
0
DIMENSION
8
DIMENSIONS
2
*D10
11
58.5487
21
138.0796
31
0
12
0
22
0
32
0
3
ISO-DM
10
95.8019
20
111.0160
30
0
70
163
15
86.4750
25
118.5664
35
0
42
12.0000
40
0
1
<>
1001
ACAD
1000
DSTYLE
1002
{
1070
41
1040
1.2500
1070
140
1040
3.5278
1070
147
1040
1.0583
1070
271
1070
2
1070
40
1040
1.0000
1070
174
1070
0
1070
172
1070
0
1070
141
1040
0.4375
1002
}
0
DIMENSION
8
DIMENSIONS
2
*D11
11
110.1233
21
88.1146
31
0
12
0
22
0
32
0
3
ISO-DM
10
90.2251
20
97.5695
30
0
70
163
15
92.0518
25
96.0129
35
0
42
2.4000
40
0
1
<>
1001
ACAD
1000
DSTYLE
1002
{
1070
41
1040
1.2500
1070
140
1040
3.5278
1070
147
1040
1.0583
1070
271
1070
2
1070
40
1040
1.0000
1070
174
1070
0
1070
172
1070
0
1070
141
1040
0.4375
1002
}
0
DIMENSION
8
DIMENSIONS
2
*D12
11
57.9219
21
153.6824
31
0
12
0
22
0
32
0
3
ISO-DM
10
73.5841
20
143.4578
30
0
70
164
15
71.5269
25
145.6413
35
0
42
3.0000
40
0
1
<>
1001
ACAD
1000
DSTYLE
1002
{
1070
41
1040
1.2500
1070
140
1040
3.5278
1070
147
1040
1.0583
1070
271
1070
2
1070
40
1040
1.0000
1070
174
1070
0
1070
172
1070
0
1070
141
1040
0.4375
1002
}
0
DIMENSION
8
DIMENSIONS
2
*D13
11
57.6417
21
147.7716
31
0
12
0
22
0
32
0
3
ISO-DM
10
73.5841
20
143.4578
30
0
70
164
15
71.4688
25
144.2246
35
0
42
2.2500
40
0
1
<>
1001
ACAD
1000
DSTYLE
1002
{
1070
41
1040
1.2500
1070
140
1040
3.5278
1070
147
1040
1.0583
1070
271
1070
2
1070
40
1040
1.0000
1070
174
1070
0
1070
172
1070
0
1070
141
1040
0.4375
1002
}
0
DIMENSION
8
DIMENSIONS
2
*D14
11
121.8247
21
150.7444
31
0
12
0
22
0
32
0
3
ISO-DM
10
108.6928
20
143.4578
30
0
70
164
15
109.7430
25
144.5288
35
0
42
1.5000
40
0
1
<>
1001
ACAD
1000
DSTYLE
1002
{
1070
41
1040
1.2500
1070
140
1040
3.5278
1070
147
1040
1.0583
1070
271
1070
2
1070
40
1040
1.0000
1070
174
1070
0
1070
172
1070
0
1070
141
1040
0.4375
1002
}
0
DIMENSION
8
DIMENSIONS
2
*D15
11
110.1053
21
84.1309
31
0
12
0
22
0
32
0
3
ISO-DM
10
89.7038
20
98.4591
30
0
70
163
15
92.5731
25
95.1233
35
0
42
4.4000
40
0
1
<>
1001
ACAD
1000
DSTYLE
1002
{
1070
41
1040
1.2500
1070
140
1040
3.5278
1070
147
1040
1.0583
1070
271
1070
2
1070
40
1040
1.0000
1070
174
1070
0
1070
172
1070
0
1070
141
1040
0.4375
1002
}
0
DIMENSION
8
DIMENSIONS
2
*D16
11
147.4007
21
87.5442
31
0
12
0
22
0
32
0
3
ISO-DM
10
155.2920
20
86.4506
30
0
70
160
13
155.2920
23
95.5912
33
0
14
151.8920
24
95.5912
34
0
50
180.0000
42
3.4000
1
<>
1001
ACAD
1000
DSTYLE
1002
{
1070
41
1040
1.2500
1070
140
1040
3.5278
1070
147
1040
1.0583
1070
271
1070
2
1070
40
1040
1.0000
1002
}
0
DIMENSION
8
DIMENSIONS
2
*D17
11
161.8834
21
87.5442
31
0
12
0
22
0
32
0
3
ISO-DM
10
157.3920
20
86.4506
30
0
70
160
13
157.3920
23
91.5412
33
0
14
155.3920
24
91.5412
34
0
50
180.0000
42
2.0000
1
<>
1001
ACAD
1000
DSTYLE
1002
{
1070
41
1040
1.2500
1070
140
1040
3.5278
1070
147
1040
1.0583
1070
271
1070
2
1070
40
1040
1.0000
1002
}
0
DIMENSION
8
DIMENSIONS
2
*D18
11
184.8684
21
87.8922
31
0
12
0
22
0
32
0
3
ISO-DM
10
190.8598
20
86.7986
30
0
70
160
13
190.8598
23
108.2140
33
0
14
189.3598
24
108.2140
34
0
50
180.0000
42
1.5000
1
<>
1001
ACAD
1000
DSTYLE
1002
{
1070
41
1040
1.2500
1070
140
1040
3.5278
1070
147
1040
1.0583
1070
271
1070
2
1070
40
1040
1.0000
1002
}
0
DIMENSION
8
DIMENSIONS
2
*D19
11
177.2662
21
120.7053
31
0
12
0
22
0
32
0
3
ISO-DM
10
178.3598
20
108.2140
30
0
70
160
13
189.3598
23
108.2140
33
0
14
189.3598
24
116.2140
34
0
50
90.0000
42
8.0000
1
<>
1001
ACAD
1000
DSTYLE
1002
{
1070
41
1040
1.2500
1070
140
1040
3.5278
1070
147
1040
1.0583
1070
271
1070
2
1070
40
1040
1.0000
1002
}
0
DIMENSION
8
DIMENSIONS
2
*D20
11
198.5951
21
154.8798
31
0
12
0
22
0
32
0
3
ISO-DM
10
207.8598
20
112.2140
30
0
70
164
15
205.8024
25
136.1256
35
0
42
24.0000
40
0
1
<>
1001
ACAD
1000
DSTYLE
1002
{
1070
41
1040
1.2500
1070
140
1040
3.5278
1070
147
1040
1.0583
1070
271
1070
2
1070
40
1040
1.0000
1070
174
1070
0
1070
172
1070
0
1070
141
1040
0.4375
1002
}
0
DIMENSION
8
DIMENSIONS
2
*D21
11
240.9238
21
86.7742
31
0
12
0
22
0
32
0
3
ISO-DM
10
207.8598
20
112.2140
30
0
70
164
15
225.0936
25
95.5107
35
0
42
24.0000
40
0
1
<>
1001
ACAD
1000
DSTYLE
1002
{
1070
41
1040
1.2500
1070
140
1040
3.5278
1070
147
1040
1.0583
1070
271
1070
2
1070
40
1040
1.0000
1070
174
1070
0
1070
172
1070
0
1070
141
1040
0.4375
1002
}
0
DIMENSION
8
DIMENSIONS
2
*D22
11
177.2187
21
154.2669
31
0
12
0
22
0
32
0
3
ISO-DM
10
192.7097
20
156.8838
30
0
70
160
13
188.1953
23
132.1318
33
0
14
197.7866
24
135.8664
34
0
50
-166.4200
42
10.2000
1
<>
1001
ACAD
1000
DSTYLE
1002
{
1070
41
1040
1.2500
1070
140
1040
3.5278
1070
147
1040
1.0583
1070
271
1070
2
1070
40
1040
1.0000
1002
}
0
DIMENSION
8
DIMENSIONS
2
*D23
11
180.2736
21
150.0570
31
0
12
0
22
0
32
0
3
ISO-DM
10
192.8669
20
151.9740
30
0
70
160
13
188.2167
23
136.3019
33
0
14
196.8585
24
135.4492
34
0
50
-166.4200
42
8.2000
1
<>
1001
ACAD
1000
DSTYLE
1002
{
1070
41
1040
1.2500
1070
140
1040
3.5278
1070
147
1040
1.0583
1070
271
1070
2
1070
40
1040
1.0000
1002
}
0
DIMENSION
8
DIMENSIONS
2
*D24
11
175.1231
21
118.5048
31
0
12
0
22
0
32
0
3
ISO-DM
10
170.3802
20
133.4822
30
0
70
160
13
189.2999
23
127.5590
33
0
14
188.9300
24
137.9630
34
0
50
-76.4200
42
10.2000
1
<>
1001
ACAD
1000
DSTYLE
1002
{
1070
41
1040
1.2500
1070
140
1040
3.5278
1070
147
1040
1.0583
1070
271
1070
2
1070
40
1040
1.0000
1002
}
0
DIMENSION
8
DIMENSIONS
2
*D25
11
175.7829
21
138.3791
31
0
12
0
22
0
32
0
3
ISO-DM
10
177.6998
20
125.7857
30
0
70
160
13
190.0371
23
128.7659
33
0
14
189.7256
24
137.1265
34
0
50
103.5800
42
8.2000
1
<>
1001
ACAD
1000
DSTYLE
1002
{
1070
41
1040
1.2500
1070
140
1040
3.5278
1070
147
1040
1.0583
1070
271
1070
2
1070
40
1040
1.0000
1002
}
0
DIMENSION
8
DIMENSIONS
2
*D26
11
196.7285
21
149.7923
31
0
12
0
22
0
32
0
3
ISO-DM
10
187.0788
20
146.3363
30
0
70
160
13
191.2522
23
129.0594
33
0
14
196.7928
24
130.3978
34
0
50
13.5800
42
5.7000
1
<>
1001
ACAD
1000
DSTYLE
1002
{
1070
41
1040
1.2500
1070
140
1040
3.5278
1070
147
1040
1.0583
1070
271
1070
2
1070
40
1040
1.0000
1002
}
0
DIMENSION
8
DIMENSIONS
2
*D27
11
148.4007
21
152.0019
31
0
12
0
22
0
32
0
3
ISO-DM
10
157.3920
20
150.9083
30
0
70
160
13
157.3920
23
145.9083
33
0
14
152.8920
24
144.2746
34
0
50
180.0000
42
4.5000
1
<>
1001
ACAD
1000
DSTYLE
1002
{
1070
41
1040
1.2500
1070
140
1040
3.5278
1070
147
1040
1.0583
1070
271
1070
2
1070
40
1040
1.0000
1002
}
0
DIMENSION
8
DIMENSIONS
2
*D28
11
140.7984
21
148.7660
31
0
12
0
22
0
32
0
3
ISO-DM
10
141.8920
20
138.7916
30
0
70
160
13
152.8920
23
144.2746
33
0
14
152.8920
24
138.7916
34
0
50
90.0000
42
5.4830
1
<>
1001
ACAD
1000
DSTYLE
1002
{
1070
41
1040
1.2500
1070
140
1040
3.5278
1070
147
1040
1.0583
1070
271
1070
2
1070
40
1040
1.0000
1002
}
0
DIMENSION
8
DIMENSIONS
2
*D29
11
161.2984
21
150.3997
31
0
12
0
22
0
32
0
3
ISO-DM
10
162.3920
20
138.7573
30
0
70
160
13
157.3920
23
145.9083
33
0
14
157.3920
24
138.7573
34
0
50
90.0000
42
7.1510
1
<>
1001
ACAD
1000
DSTYLE
1002
{
1070
41
1040
1.2500
1070
140
1040
3.5278
1070
147
1040
1.0583
1070
271
1070
2
1070
40
1040
1.0000
1002
}
0
DIMENSION
8
DIMENSIONS
2
*D30
11
140.8367
21
114.7912
31
0
12
0
22
0
32
0
3
ISO-DM
10
141.9303
20
92.7912
30
0
70
160
13
150.3920
23
136.7912
33
0
14
150.3920
24
92.7912
34
0
50
90.0000
42
44.0000
1
<>
1001
ACAD
1000
DSTYLE
1002
{
1070
41
1040
1.2500
1070
140
1040
3.5278
1070
147
1040
1.0583
1070
271
1070
2
1070
40
1040
1.0000
1002
}
0
DIMENSION
8
DIMENSIONS
2
*D31
11
145.9007
21
69.6348
31
0
12
0
22
0
32
0
3
ISO-DM
10
157.3920
20
68.5412
30
0
70
160
13
150.3920
23
92.7912
33
0
14
157.3920
24
91.5412
34
0
50
180.0000
42
7.0000
1
<>
1001
ACAD
1000
DSTYLE
1002
{
1070
41
1040
1.2500
1070
140
1040
3.5278
1070
147
1040
1.0583
1070
271
1070
2
1070
40
1040
1.0000
1002
}
0
DIMENSION
8
DIMENSIONS
2
*D32
11
238.9494
21
129.3583
31
0
12
0
22
0
32
0
3
ISO-DM
10
236.2239
20
142.2424
30
0
70
160
13
231.6716
23
115.2140
33
0
14
228.3906
24
141.2555
34
0
50
-82.8192
42
26.2474
1
<>
1001
ACAD
1000
DSTYLE
1002
{
1070
41
1040
1.2500
1070
140
1040
3.5278
1070
147
1040
1.0583
1070
271
1070
2
1070
40
1040
1.0000
1002
}
0
DIMENSION
8
DIMENSIONS
2
*D33
11
211.6443
21
149.6342
31
0
12
0
22
0
32
0
3
ISO-DM
10
207.2122
20
145.1654
30
0
70
160
13
223.6836
23
143.3310
33
0
14
213.5576
24
136.1801
34
0
50
35.2295
42
12.3965
1
<>
1001
ACAD
1000
DSTYLE
1002
{
1070
41
1040
1.2500
1070
140
1040
3.5278
1070
147
1040
1.0583
1070
271
1070
2
1070
40
1040
1.0000
1002
}
0
ENDSEC
0
EOF
