0
SECTION
2
HEADER
9
$INSUNITS
70
4
0
ENDSEC
0
SECTION
2
BLOCKS
0
BLOCK
8
0
2
*DM1
70
1
10
0
20
0
30
0
3
*DM1
1

0
ARC
8
0
10
0
20
0
30
0
40
30
50
0
51
105
0
TEXT
8
0
10
21.002269300800858
20
27.37069024004761
30
0
40
2.5
1
105°
72
1
11
21.002269300800858
21
27.37069024004761
31
0
0
ENDBLK
8
0
0
ENDSEC
0
SECTION
2
ENTITIES
0
LINE
8
0
10
-60
20
7.34788079488412e-15
30
0
11
60
21
0
31
0
0
LINE
8
0
10
15.529142706151218
20
-57.95554957734411
30
0
11
-15.529142706151251
21
57.9555495773441
31
0
0
DIMENSION
8
0
2
*DM1
10
-15.529142706151251
20
57.9555495773441
30
0
11
18.26284287026162
21
23.800600208737055
31
0
70
34
71
5
1

13
-60
23
7.34788079488412e-15
33
0
14
60
24
0
34
0
15
15.529142706151218
25
-57.95554957734411
35
0
16
18.26284287026162
26
23.800600208737055
36
0
0
ENDSEC
0
EOF
