0
SECTION
2
HEADER
9
$INSUNITS
70
4
0
ENDSEC
0
SECTION
2
ENTITIES
0
LINE
8
0
10
40
20
60
30
0
11
40
21
140
31
0
0
LINE
8
0
10
140
20
60
30
0
11
140
21
140
31
0
0
LINE
8
Dims
10
50
20
104
30
0
11
50
21
112
31
0
0
LINE
8
Dims
10
74
20
104
30
0
11
74
21
112
31
0
0
LINE
8
Dims
10
50
20
110
30
0
11
74
21
110
31
0
0
LINE
8
Dims
10
49.1
20
109.1
30
0
11
50.9
21
110.9
31
0
0
LINE
8
Dims
10
73.1
20
109.1
30
0
11
74.9
21
110.9
31
0
0
TEXT
8
Dims
10
62
20
111.2
30
0
40
2.5
1
24
72
1
11
62
21
111.2
31
0
0
LINE
8
Dims
10
50
20
89
30
0
11
50
21
97
31
0
0
LINE
8
Dims
10
68
20
89
30
0
11
68
21
97
31
0
0
LINE
8
Dims
10
50
20
95
30
0
11
68
21
95
31
0
0
LINE
8
Dims
10
49.1
20
94.1
30
0
11
50.9
21
95.9
31
0
0
LINE
8
Dims
10
67.1
20
94.1
30
0
11
68.9
21
95.9
31
0
0
TEXT
8
Dims
10
59
20
96.2
30
0
40
2.5
1
18
72
1
11
59
21
96.2
31
0
0
ENDSEC
0
EOF
