0
SECTION
2
HEADER
9
$INSUNITS
70
4
0
ENDSEC
0
SECTION
2
ENTITIES
0
LINE
8
0
10
40
20
60
30
0
11
40
21
140
31
0
0
LINE
8
0
10
140
20
60
30
0
11
140
21
140
31
0
0
LINE
8
Dims
10
50
20
104
30
0
11
50
21
112
31
0
0
LINE
8
Dims
10
62
20
104
30
0
11
62
21
112
31
0
0
LINE
8
Dims
10
50
20
110
30
0
11
62
21
110
31
0
0
SOLID
8
Dims
10
51.2
20
110.45
30
0
11
50
21
110
31
0
12
51.2
22
109.55
32
0
13
51.2
23
109.55
33
0
0
SOLID
8
Dims
10
60.8
20
110.45
30
0
11
62
21
110
31
0
12
60.8
22
109.55
32
0
13
60.8
23
109.55
33
0
0
TEXT
8
Dims
10
56
20
111.2
30
0
40
2.5
1
24
72
1
11
56
21
111.2
31
0
0
LINE
8
Dims
10
50
20
89
30
0
11
50
21
97
31
0
0
LINE
8
Dims
10
59
20
89
30
0
11
59
21
97
31
0
0
LINE
8
Dims
10
50
20
95
30
0
11
59
21
95
31
0
0
SOLID
8
Dims
10
51.2
20
95.45
30
0
11
50
21
95
31
0
12
51.2
22
94.55
32
0
13
51.2
23
94.55
33
0
0
SOLID
8
Dims
10
57.8
20
95.45
30
0
11
59
21
95
31
0
12
57.8
22
94.55
32
0
13
57.8
23
94.55
33
0
0
TEXT
8
Dims
10
54.5
20
96.2
30
0
40
2.5
1
18
72
1
11
54.5
21
96.2
31
0
0
ENDSEC
0
EOF
