0
SECTION
2
HEADER
9
$INSUNITS
70
4
0
ENDSEC
0
SECTION
2
ENTITIES
0
LINE
8
0
10
40
20
60
30
0
11
40
21
140
31
0
0
LINE
8
0
10
140
20
60
30
0
11
140
21
140
31
0
0
LINE
8
Dims
10
50
20
104
30
0
11
50
21
112
31
0
0
LINE
8
Dims
10
74
20
104
30
0
11
74
21
112
31
0
0
LINE
8
Dims
10
50
20
110
30
0
11
74
21
110
31
0
0
SOLID
8
Dims
10
51.2
20
110.45
30
0
11
50
21
110
31
0
12
51.2
22
109.55
32
0
13
51.2
23
109.55
33
0
0
SOLID
8
Dims
10
72.8
20
110.45
30
0
11
74
21
110
31
0
12
72.8
22
109.55
32
0
13
72.8
23
109.55
33
0
0
TEXT
8
Dims
10
62
20
111.2
30
0
40
2.5
1
24
72
1
11
62
21
111.2
31
0
0
LINE
8
Dims
10
50
20
89
30
0
11
50
21
97
31
0
0
LINE
8
Dims
10
68
20
89
30
0
11
68
21
97
31
0
0
LINE
8
Dims
10
50
20
95
30
0
11
68
21
95
31
0
0
SOLID
8
Dims
10
51.2
20
95.45
30
0
11
50
21
95
31
0
12
51.2
22
94.55
32
0
13
51.2
23
94.55
33
0
0
SOLID
8
Dims
10
66.8
20
95.45
30
0
11
68
21
95
31
0
12
66.8
22
94.55
32
0
13
66.8
23
94.55
33
0
0
TEXT
8
Dims
10
59
20
96.2
30
0
40
2.5
1
18
72
1
11
59
21
96.2
31
0
0
LINE
8
Dims
10
50
20
74
30
0
11
50
21
82
31
0
0
LINE
8
Dims
10
57
20
74
30
0
11
57
21
82
31
0
0
LINE
8
Dims
10
50
20
80
30
0
11
57
21
80
31
0
0
SOLID
8
Dims
10
51.2
20
80.45
30
0
11
50
21
80
31
0
12
51.2
22
79.55
32
0
13
51.2
23
79.55
33
0
0
SOLID
8
Dims
10
55.8
20
80.45
30
0
11
57
21
80
31
0
12
55.8
22
79.55
32
0
13
55.8
23
79.55
33
0
0
TEXT
8
Dims
10
53.5
20
81.2
30
0
40
2.5
1
7
72
1
11
53.5
21
81.2
31
0
0
ENDSEC
0
EOF
