0
SECTION
2
HEADER
9
$INSUNITS
70
4
0
ENDSEC
0
SECTION
2
ENTITIES
0
LINE
8
0
10
40
20
60
30
0
11
40
21
140
31
0
0
LINE
8
0
10
140
20
60
30
0
11
140
21
140
31
0
0
LINE
8
Dims
10
50
20
104
30
0
11
50
21
112
31
0
0
LINE
8
Dims
10
74.37
20
104
30
0
11
74.37
21
112
31
0
0
LINE
8
Dims
10
50
20
110
30
0
11
74.37
21
110
31
0
0
SOLID
8
Dims
10
51.2
20
110.45
30
0
11
50
21
110
31
0
12
51.2
22
109.55
32
0
13
51.2
23
109.55
33
0
0
SOLID
8
Dims
10
73.17
20
110.45
30
0
11
74.37
21
110
31
0
12
73.17
22
109.55
32
0
13
73.17
23
109.55
33
0
0
TEXT
8
Dims
10
62.185
20
111.2
30
0
40
2.5
1
24
72
1
11
62.185
21
111.2
31
0
0
LINE
8
Dims
10
50
20
89
30
0
11
50
21
97
31
0
0
LINE
8
Dims
10
68
20
89
30
0
11
68
21
97
31
0
0
LINE
8
Dims
10
50
20
95
30
0
11
68
21
95
31
0
0
SOLID
8
Dims
10
51.2
20
95.45
30
0
11
50
21
95
31
0
12
51.2
22
94.55
32
0
13
51.2
23
94.55
33
0
0
SOLID
8
Dims
10
66.8
20
95.45
30
0
11
68
21
95
31
0
12
66.8
22
94.55
32
0
13
66.8
23
94.55
33
0
0
TEXT
8
Dims
10
59
20
96.2
30
0
40
2.5
1
18
72
1
11
59
21
96.2
31
0
0
LINE
8
Dims
10
50
20
74
30
0
11
50
21
82
31
0
0
LINE
8
Dims
10
74.37
20
74
30
0
11
74.37
21
82
31
0
0
LINE
8
Dims
10
50
20
80
30
0
11
74.37
21
80
31
0
0
SOLID
8
Dims
10
51.2
20
80.45
30
0
11
50
21
80
31
0
12
51.2
22
79.55
32
0
13
51.2
23
79.55
33
0
0
SOLID
8
Dims
10
73.17
20
80.45
30
0
11
74.37
21
80
31
0
12
73.17
22
79.55
32
0
13
73.17
23
79.55
33
0
0
TEXT
8
Dims
10
62.185
20
81.2
30
0
40
2.5
1
2x 24
72
1
11
62.185
21
81.2
31
0
0
LINE
8
Dims
10
50
20
59
30
0
11
50
21
67
31
0
0
LINE
8
Dims
10
74.37
20
59
30
0
11
74.37
21
67
31
0
0
LINE
8
Dims
10
50
20
65
30
0
11
74.37
21
65
31
0
0
SOLID
8
Dims
10
51.2
20
65.45
30
0
11
50
21
65
31
0
12
51.2
22
64.55
32
0
13
51.2
23
64.55
33
0
0
SOLID
8
Dims
10
73.17
20
65.45
30
0
11
74.37
21
65
31
0
12
73.17
22
64.55
32
0
13
73.17
23
64.55
33
0
0
TEXT
8
Dims
10
62.185
20
66.2
30
0
40
2.5
1
24.4
72
1
11
62.185
21
66.2
31
0
0
ENDSEC
0
EOF
