  0
SECTION
  2
HEADER
  9
$ACADVER
  1
AC1009
  9
$DWGCODEPAGE
  3
ANSI_1252
  9
$INSBASE
 10
0.0
 20
0.0
 30
0.0
  9
$EXTMIN
 10
1e+20
 20
1e+20
 30
1e+20
  9
$EXTMAX
 10
-1e+20
 20
-1e+20
 30
-1e+20
  9
$LIMMIN
 10
0.0
 20
0.0
  9
$LIMMAX
 10
420.0
 20
297.0
  9
$ORTHOMODE
 70
0
  9
$REGENMODE
 70
1
  9
$FILLMODE
 70
1
  9
$DRAGMODE
 70
2
  9
$QTEXTMODE
 70
0
  9
$MIRRTEXT
 70
1
  9
$OSMODE
 70
20583
  9
$LTSCALE
 40
1.0
  9
$ATTMODE
 70
1
  9
$TEXTSIZE
 40
2.5
  9
$TRACEWID
 40
1.0
  9
$TEXTSTYLE
  7
Standard
  9
$CLAYER
  8
0
  9
$CELTYPE
  6
ByLayer
  9
$CECOLOR
 62
256
  9
$DIMSCALE
 40
1.0
  9
$DIMASZ
 40
2.5
  9
$DIMEXO
 40
0.625
  9
$DIMDLI
 40
3.75
  9
$DIMRND
 40
0.0
  9
$DIMDLE
 40
0.0
  9
$DIMEXE
 40
1.25
  9
$DIMTP
 40
0.0
  9
$DIMTM
 40
0.0
  9
$DIMTXT
 40
2.5
  9
$DIMCEN
 40
2.5
  9
$DIMTSZ
 40
0.0
  9
$DIMTOL
 70
0
  9
$DIMLIM
 70
0
  9
$DIMTIH
 70
0
  9
$DIMTOH
 70
0
  9
$DIMSE1
 70
0
  9
$DIMSE2
 70
0
  9
$DIMTAD
 70
1
  9
$DIMZIN
 70
8
  9
$DIMBLK
  1

  9
$DIMASO
 70
1
  9
$DIMSHO
 70
1
  9
$DIMPOST
  1

  9
$DIMAPOST
  1

  9
$DIMALT
 70
0
  9
$DIMALTD
 70
3
  9
$DIMALTF
 40
0.03937007874
  9
$DIMLFAC
 40
1.0
  9
$DIMTOFL
 70
1
  9
$DIMTVP
 40
0.0
  9
$DIMTIX
 70
0
  9
$DIMSOXD
 70
0
  9
$DIMSAH
 70
0
  9
$DIMBLK1
  1

  9
$DIMBLK2
  1

  9
$DIMSTYLE
  2
ISO-25
  9
$DIMCLRD
 70
0
  9
$DIMCLRE
 70
0
  9
$DIMCLRT
 70
0
  9
$DIMTFAC
 40
1.0
  9
$DIMGAP
 40
0.625
  9
$COORDS
 70
1
  9
$ATTDIA
 70
0
  9
$ATTREQ
 70
1
  9
$HANDLING
 70
1
  9
$LUNITS
 70
2
  9
$LUPREC
 70
4
  9
$SKETCHINC
 40
1.0
  9
$FILLETRAD
 40
10.0
  9
$AUNITS
 70
0
  9
$AUPREC
 70
2
  9
$MENU
  1
.
  9
$ELEVATION
 40
0.0
  9
$PELEVATION
 40
0.0
  9
$THICKNESS
 40
0.0
  9
$LIMCHECK
 70
0
  9
$CHAMFERA
 40
0.0
  9
$CHAMFERB
 40
0.0
  9
$SKPOLY
 70
0
  9
$TDCREATE
 40
2461285.248726852
  9
$TDUPDATE
 40
2461285.248726852
  9
$TDINDWG
 40
0.0
  9
$TDUSRTIMER
 40
0.0
  9
$USRTIMER
 70
1
  9
$ANGBASE
 50
0.0
  9
$ANGDIR
 70
0
  9
$PDMODE
 70
0
  9
$PDSIZE
 40
0.0
  9
$PLINEWID
 40
0.0
  9
$SPLFRAME
 70
0
  9
$SPLINETYPE
 70
6
  9
$SPLINESEGS
 70
8
  9
$HANDSEED
  5
1E3
  9
$SURFTAB1
 70
6
  9
$SURFTAB2
 70
6
  9
$SURFTYPE
 70
6
  9
$SURFU
 70
6
  9
$SURFV
 70
6
  9
$UCSNAME
  2

  9
$UCSORG
 10
0.0
 20
0.0
 30
0.0
  9
$UCSXDIR
 10
1.0
 20
0.0
 30
0.0
  9
$UCSYDIR
 10
0.0
 20
1.0
 30
0.0
  9
$PUCSNAME
  2

  9
$PUCSORG
 10
0.0
 20
0.0
 30
0.0
  9
$PUCSXDIR
 10
1.0
 20
0.0
 30
0.0
  9
$PUCSYDIR
 10
0.0
 20
1.0
 30
0.0
  9
$USERI1
 70
0
  9
$USERI2
 70
0
  9
$USERI3
 70
0
  9
$USERI4
 70
0
  9
$USERI5
 70
0
  9
$USERR1
 40
0.0
  9
$USERR2
 40
0.0
  9
$USERR3
 40
0.0
  9
$USERR4
 40
0.0
  9
$USERR5
 40
0.0
  9
$WORLDVIEW
 70
1
  9
$SHADEDGE
 70
3
  9
$SHADEDIF
 70
70
  9
$TILEMODE
 70
1
  9
$MAXACTVP
 70
64
  9
$PLIMCHECK
 70
0
  9
$PEXTMIN
 10
1e+20
 20
1e+20
 30
1e+20
  9
$PEXTMAX
 10
-1e+20
 20
-1e+20
 30
-1e+20
  9
$PLIMMIN
 10
0.0
 20
0.0
  9
$PLIMMAX
 10
420.0
 20
297.0
  9
$UNITMODE
 70
0
  9
$VISRETAIN
 70
1
  9
$PLINEGEN
 70
0
  9
$PSLTSCALE
 70
1
  0
ENDSEC
  0
SECTION
  2
TABLES
  0
TABLE
  2
VPORT
 70
1
  0
VPORT
  5
23
  2
*Active
 70
0
 10
0.0
 20
0.0
 11
1.0
 21
1.0
 12
0.0
 22
0.0
 13
0.0
 23
0.0
 14
0.5
 24
0.5
 15
0.5
 25
0.5
 16
0.0
 26
0.0
 36
1.0
 17
0.0
 27
0.0
 37
0.0
 40
1000.0
 41
1.34
 42
50.0
 43
0.0
 44
0.0
 50
0.0
 51
0.0
 71
0
 72
1000
 73
1
 74
3
 75
0
 76
0
 77
0
 78
0
  0
ENDTAB
  0
TABLE
  2
LTYPE
 70
3
  0
LTYPE
  5
24
  2
ByBlock
 70
0
  3

 72
65
 73
0
 40
0.0
  0
LTYPE
  5
25
  2
ByLayer
 70
0
  3

 72
65
 73
0
 40
0.0
  0
LTYPE
  5
26
  2
Continuous
 70
0
  3

 72
65
 73
0
 40
0.0
  0
ENDTAB
  0
TABLE
  2
LAYER
 70
2
  0
LAYER
  5
27
  2
0
 70
0
 62
7
  6
Continuous
  0
LAYER
  5
28
  2
Defpoints
 70
0
 62
7
  6
Continuous
  0
ENDTAB
  0
TABLE
  2
STYLE
 70
1
  0
STYLE
  5
29
  2
Standard
 70
0
 40
0.0
 41
1.0
 50
0.0
 71
0
 42
2.5
  3
txt
  4

  0
ENDTAB
  0
TABLE
  2
VIEW
 70
0
  0
ENDTAB
  0
TABLE
  2
UCS
 70
0
  0
ENDTAB
  0
TABLE
  2
APPID
 70
3
  0
APPID
  5
2A
  2
ACAD
 70
0
  0
APPID
  5
1E1
  2
HATCHBACKGROUNDCOLOR
 70
0
  0
APPID
  5
1E2
  2
EZDXF
 70
0
  0
ENDTAB
  0
TABLE
  2
DIMSTYLE
 70
1
  0
DIMSTYLE
105
2B
  2
Standard
 70
0
  3

  4

  5

  6

  7

 40
1.0
 41
2.5
 42
0.625
 43
3.75
 44
1.25
 45
0.0
 46
0.0
 47
0.0
 48
0.0
140
2.5
141
2.5
142
0.0
143
0.03937007874
144
1.0
145
0.0
146
1.0
147
0.625
 71
0
 72
0
 73
0
 74
0
 75
0
 76
0
 77
1
 78
8
170
0
171
3
172
1
173
0
174
0
175
0
176
0
177
0
178
0
  0
ENDTAB
  0
ENDSEC
  0
SECTION
  2
BLOCKS
  0
BLOCK
  5
18
  8
0
  2
$Model_Space
 70
0
 10
0.0
 20
0.0
 30
0.0
  3
$Model_Space
  1

1001
EZDXF
1000
CREATED_BY_EZDXF
1000
1.4.4 @ 2026-09-01T05:58:10.551925+00:00
1000
WRITTEN_BY_EZDXF
1000
1.4.4 @ 2026-09-01T05:58:10.566006+00:00
  0
ENDBLK
  5
19
  8
0
  0
BLOCK
  5
1C
  8
0
  2
$Paper_Space
 70
0
 10
0.0
 20
0.0
 30
0.0
  3
$Paper_Space
  1

  0
ENDBLK
  5
1D
  8
0
  0
ENDSEC
  0
SECTION
  2
ENTITIES
  0
LINE
  5
2D
  8
Visible (ISO)
 10
65.77269996538486
 20
96.61372855572725
 30
0.0
 11
66.00750278577544
 21
97.58577157717056
 31
0.0
  0
LINE
  5
2E
  8
Visible (ISO)
 10
56.29032180899638
 20
95.91718930017595
 30
0.0
 11
56.8518495752359
 21
95.70162764127593
 31
0.0
  0
ARC
  5
2F
  8
Visible (ISO)
 10
47.63846814740632
 20
71.70121161608125
 30
0.0
 40
25.70809924356713
 50
66.93148861498854
 51
68.99899110141378
  0
LINE
  5
30
  8
Visible (ISO)
 10
57.71171231262066
 20
95.35361358089389
 30
0.0
 11
57.63131795787749
 21
95.02079487215121
 31
0.0
  0
LINE
  5
31
  8
Visible (ISO)
 10
58.6033609793208
 20
94.78599205176064
 30
0.0
 11
58.63971830080789
 21
94.9365050676239
 31
0.0
  0
ARC
  5
32
  8
Visible (ISO)
 10
47.63846814740632
 20
71.70121161608125
 30
0.0
 40
25.70809924356562
 50
44.90554134669011
 51
64.66377701923746
  0
LINE
  5
33
  8
Visible (ISO)
 10
69.9619948345211
 20
74.51371161609914
 30
0.0
 11
67.63417685842107
 21
92.99019400265807
 31
0.0
  0
ARC
  5
34
  8
Visible (ISO)
 10
47.6384681474136
 20
71.70121161609912
 30
0.0
 40
22.5
 50
172.8192442185417
 51
7.180755781458332
  0
LINE
  5
35
  8
Visible (ISO)
 10
28.59586791388931
 20
100.5552580143217
 30
0.0
 11
25.31494146030612
 21
74.51371161609912
 31
0.0
  0
ARC
  5
36
  8
Visible (ISO)
 10
30.08410302636314
 20
100.3677580143217
 30
0.0
 40
1.5
 50
54.77051148528507
 51
172.8192442185421
  0
LINE
  5
37
  8
Visible (ISO)
 10
41.07543305313973
 20
94.44207928041563
 30
0.0
 11
30.94938222807117
 21
101.5930301894287
 31
0.0
  0
ARC
  5
38
  8
Visible (ISO)
 10
43.09441785712512
 20
97.3010476889987
 30
0.0
 40
3.5
 50
234.7705114852855
 51
280.0653416049097
  0
ARC
  5
39
  8
Visible (ISO)
 10
47.6384681474136
 20
71.70121161609912
 30
0.0
 40
22.5
 50
79.93465839509024
 51
100.0653416049098
  0
ARC
  5
3A
  8
Visible (ISO)
 10
52.18251843770208
 20
97.3010476889987
 30
0.0
 40
3.5
 50
259.93465839509
 51
305.2294885147145
  0
LINE
  5
3B
  8
Visible (ISO)
 10
56.29032180899638
 20
95.91718930017595
 30
0.0
 11
54.20150324168746
 21
94.44207928041563
 31
0.0
  0
LINE
  5
3C
  8
Visible (ISO)
 10
64.32755406675602
 20
101.5930301894287
 30
0.0
 11
60.52754459479285
 21
98.90948833710848
 31
0.0
  0
ARC
  5
3D
  8
Visible (ISO)
 10
65.19283326846406
 20
100.3677580143217
 30
0.0
 40
1.500000000000022
 50
7.18075578145841
 51
125.2294885147148
  0
LINE
  5
3E
  8
Visible (ISO)
 10
67.08807373264696
 20
97.32475318563803
 30
0.0
 11
66.68106838093792
 21
100.5552580143217
 31
0.0
  0
LINE
  5
3F
  8
Visible (ISO)
 10
67.08807373264696
 20
97.32475318563803
 30
0.0
 11
66.00750278577544
 21
97.58577157717056
 31
0.0
  0
CIRCLE
  5
40
  8
Visible (ISO)
 10
47.6384681474136
 20
71.70121161609912
 30
0.0
 40
6.0
  0
CIRCLE
  5
41
  8
Visible (ISO)
 10
47.6384681474136
 20
71.70121161609912
 30
0.0
 40
7.0
  0
LINE
  5
42
  8
Visible (ISO)
 10
66.13846814741362
 20
75.70121155649448
 30
0.0
 11
66.13846814741362
 21
67.70121155649448
 31
0.0
  0
LINE
  5
43
  8
Visible (ISO)
 10
66.13846814741362
 20
67.70121155649448
 30
0.0
 11
64.6384681474136
 21
67.70121155649448
 31
0.0
  0
LINE
  5
44
  8
Visible (ISO)
 10
64.6384681474136
 20
67.70121155649448
 30
0.0
 11
64.6384681474136
 21
75.70121161609913
 31
0.0
  0
LINE
  5
45
  8
Visible (ISO)
 10
64.6384681474136
 20
75.70121161609913
 30
0.0
 11
66.13846814741362
 21
75.70121155649448
 31
0.0
  0
ARC
  5
46
  8
Visible (ISO)
 10
47.6384681474136
 20
71.70121161609912
 30
0.0
 40
10.0
 50
16.15924594769572
 51
0.7103995458357915
  0
LINE
  5
47
  8
Visible (ISO)
 10
58.61685002328695
 20
72.390509365621
 30
0.0
 11
57.63769950467974
 21
71.82519655012597
 31
0.0
  0
ARC
  5
48
  8
Visible (ISO)
 10
47.6384681474136
 20
71.70121161609912
 30
0.0
 40
11.0
 50
17.43914079543019
 51
3.592704040272192
  0
LINE
  5
49
  8
Visible (ISO)
 10
57.24338701729933
 20
74.48429147534019
 30
0.0
 11
58.132862171988
 21
74.99783019533717
 31
0.0
  0
CIRCLE
  5
4A
  8
Visible (ISO)
 10
48.8884681474136
 20
73.86627512556022
 30
0.0
 40
1.0
  0
CIRCLE
  5
4B
  8
Visible (ISO)
 10
48.8884681474136
 20
69.53614810663804
 30
0.0
 40
1.0
  0
CIRCLE
  5
4C
  8
Visible (ISO)
 10
45.1384681474136
 20
71.70121161609912
 30
0.0
 40
1.0
  0
LINE
  5
4D
  8
Visible (ISO)
 10
58.6033609793208
 20
94.78599205176064
 30
0.0
 11
57.63131795787749
 21
95.02079487215119
 31
0.0
  0
LINE
  5
4E
  8
Visible (ISO)
 10
65.46115297172976
 20
88.25314398495519
 30
0.0
 11
67.28153430353841
 21
95.78920750841206
 31
0.0
  0
LINE
  5
4F
  8
Visible (ISO)
 10
65.77269996538486
 20
96.61372855572725
 30
0.0
 11
59.44206674034399
 21
98.1429309709566
 31
0.0
  0
LINE
  5
52
  8
Visible (ISO)
 10
60.52754459479285
 20
98.90948833710848
 30
0.0
 11
59.44206674034399
 21
98.1429309709566
 31
0.0
  0
LINE
  5
53
  8
Visible (ISO)
 10
67.63417685842109
 20
92.99019400265809
 30
0.0
 11
67.28153430353841
 21
95.78920750841206
 31
0.0
  0
ARC
  5
54
  8
Visible (ISO)
 10
52.18251843770208
 20
97.3010476889987
 30
0.0
 40
2.750000000000001
 50
259.9346583950903
 51
305.2294885147146
  0
ARC
  5
55
  8
Visible (ISO)
 10
47.6384681474136
 20
71.70121161609912
 30
0.0
 40
23.25
 50
79.9346583950902
 51
100.0653416049098
  0
ARC
  5
56
  8
Visible (ISO)
 10
43.09441785712512
 20
97.3010476889987
 30
0.0
 40
2.750000000000001
 50
234.7705114852854
 51
280.0653416049097
  0
LINE
  5
57
  8
Visible (ISO)
 10
31.38202182892518
 20
102.2056662769822
 30
0.0
 11
41.50807265399374
 21
95.0547153679691
 31
0.0
  0
ARC
  5
58
  8
Visible (ISO)
 10
30.08410302636314
 20
100.3677580143217
 30
0.0
 40
2.250000000000003
 50
54.77051148528529
 51
172.8192442185415
  0
LINE
  5
59
  8
Visible (ISO)
 10
24.57082390406919
 20
74.60746161609906
 30
0.0
 11
27.85175035765239
 21
100.6490080143217
 31
0.0
  0
ARC
  5
5A
  8
Visible (ISO)
 10
47.6384681474136
 20
71.70121161609912
 30
0.0
 40
23.25000000000001
 50
172.8192442185419
 51
7.180755781458254
  0
LINE
  5
5B
  8
Visible (ISO)
 10
67.42518593717483
 20
100.6490080143217
 30
0.0
 11
70.70611239075801
 21
74.60746161609913
 31
0.0
  0
ARC
  5
5C
  8
Visible (ISO)
 10
65.19283326846406
 20
100.3677580143217
 30
0.0
 40
2.250000000000019
 50
7.180755781458004
 51
125.2294885147146
  0
LINE
  5
5D
  8
Visible (ISO)
 10
53.76886364083347
 20
95.05471536796912
 30
0.0
 11
63.89491446590202
 21
102.2056662769822
 31
0.0
  0
LINE
  5
60
  8
Visible (ISO)
 10
66.00750278577544
 20
97.58577157717056
 30
0.0
 11
60.52754459479285
 21
98.90948833710848
 31
0.0
  0
LINE
  5
61
  8
Visible (ISO)
 10
63.46227486504801
 20
102.8183023645358
 30
0.0
 11
53.33622403997944
 21
95.66735145552263
 31
0.0
  0
ARC
  5
62
  8
Visible (ISO)
 10
52.18251843770208
 20
97.3010476889987
 30
0.0
 40
2.0
 50
259.9346583950904
 51
305.229488514715
  0
ARC
  5
63
  8
Visible (ISO)
 10
47.6384681474136
 20
71.70121161609912
 30
0.0
 40
24.0
 50
79.93465839509021
 51
100.0653416049098
  0
ARC
  5
64
  8
Visible (ISO)
 10
43.09441785712512
 20
97.3010476889987
 30
0.0
 40
1.999999999999999
 50
234.7705114852858
 51
280.0653416049099
  0
LINE
  5
65
  8
Visible (ISO)
 10
41.94071225484776
 20
95.66735145552263
 30
0.0
 11
31.81466142977919
 21
102.8183023645357
 31
0.0
  0
ARC
  5
66
  8
Visible (ISO)
 10
30.08410302636314
 20
100.3677580143217
 30
0.0
 40
3.0
 50
54.77051148528541
 51
172.8192442185418
  0
LINE
  5
67
  8
Visible (ISO)
 10
27.10763280141547
 20
100.7427580143217
 30
0.0
 11
23.82670634783229
 21
74.70121161609913
 31
0.0
  0
ARC
  5
68
  8
Visible (ISO)
 10
47.6384681474136
 20
71.70121161609912
 30
0.0
 40
24.0
 50
172.8192442185417
 51
7.180755781458254
  0
LINE
  5
69
  8
Visible (ISO)
 10
71.45022994699492
 20
74.70121161609913
 30
0.0
 11
68.16930349341175
 21
100.7427580143217
 31
0.0
  0
ARC
  5
6A
  8
Visible (ISO)
 10
65.19283326846406
 20
100.3677580143217
 30
0.0
 40
3.000000000000022
 50
7.180755781458157
 51
125.2294885147142
  0
LINE
  5
6B
  8
Visible (ISO)
 10
57.63131795787749
 20
95.02079487215119
 30
0.0
 11
56.28355435406084
 21
89.44128691110538
 31
0.0
  0
LINE
  5
6C
  8
Visible (ISO)
 10
56.28355435406084
 20
89.44128691110538
 30
0.0
 11
58.47065115230801
 21
88.91298056522623
 31
0.0
  0
LINE
  5
6D
  8
Visible (ISO)
 10
58.70545397269876
 20
89.8850235866695
 30
0.0
 11
58.47065115230801
 21
88.91298056522623
 31
0.0
  0
LINE
  5
6E
  8
Visible (ISO)
 10
57.49040019589468
 20
90.17852711215794
 30
0.0
 11
58.70545397269876
 21
89.8850235866695
 31
0.0
  0
LINE
  5
6F
  8
Visible (ISO)
 10
58.6033609793208
 20
94.78599205176064
 30
0.0
 11
57.49040019589468
 21
90.17852711215794
 31
0.0
  0
LINE
  5
70
  8
Visible (ISO)
 10
67.63417685842109
 20
92.99019400265809
 30
0.0
 11
66.19839317278247
 21
87.04629814312129
 31
0.0
  0
LINE
  5
71
  8
Visible (ISO)
 10
64.01129637453506
 20
87.57460448900008
 30
0.0
 11
66.19839317278247
 21
87.04629814312129
 31
0.0
  0
LINE
  5
72
  8
Visible (ISO)
 10
64.24609919492563
 20
88.54664751044339
 30
0.0
 11
64.01129637453506
 21
87.57460448900008
 31
0.0
  0
LINE
  5
73
  8
Visible (ISO)
 10
64.24609919492563
 20
88.54664751044339
 30
0.0
 11
65.46115297172976
 21
88.25314398495519
 31
0.0
  0
CIRCLE
  5
74
  8
Visible (ISO)
 10
47.6384681474136
 20
53.70121161609913
 30
0.0
 40
1.199999999999999
  0
CIRCLE
  5
75
  8
Visible (ISO)
 10
47.6384681474136
 20
53.70121161609913
 30
0.0
 40
2.2
  0
CIRCLE
  5
76
  8
Visible (ISO)
 10
34.1884681474136
 20
89.25121161609913
 30
0.0
 40
1.199999999999998
  0
CIRCLE
  5
77
  8
Visible (ISO)
 10
34.1884681474136
 20
89.25121161609913
 30
0.0
 40
2.199999999999999
  0
CIRCLE
  5
78
  8
Sketch Geometry (ISO)
 10
47.6384681474136
 20
71.70121161609912
 30
0.0
 40
2.499999999999996
  0
LINE
  5
79
  8
Dimension (ISO)
 10
48.52578567999721
 20
72.5816476423778
 30
0.0
 11
46.75115061482992
 21
70.82077558982024
 31
0.0
  0
LINE
  5
7A
  8
Dimension (ISO)
 10
45.86383308224625
 20
69.94033956354146
 30
0.0
 11
24.6355129217619
 21
48.87665361083698
 31
0.0
  0
LINE
  5
7B
  8
Dimension (ISO)
 10
24.6355129217619
 20
48.87665361083698
 30
0.0
 11
17.87895347196941
 21
48.87665361083698
 31
0.0
  0
SOLID
  5
7C
  8
Dimension (ISO)
 10
48.37904634228408
 20
72.72953389780841
 30
0.0
 11
48.67252501771034
 21
72.4337613869472
 31
0.0
 12
49.41310321258089
 22
73.46208366865662
 32
0.0
 13
49.41310321258089
 23
73.46208366865662
 33
0.0
  0
SOLID
  5
7D
  8
Dimension (ISO)
 10
46.60441127711679
 20
70.96866184525086
 30
0.0
 11
46.89788995254305
 21
70.67288933438965
 31
0.0
 12
45.86383308224625
 22
69.94033956354146
 32
0.0
 13
45.86383308224625
 23
69.94033956354146
 33
0.0
  0
TEXT
  5
7E
  8
0
 10
17.87895347196939
 20
51.14254448129009
 30
0.0
 40
1.75
  1
\U+22055.00
 72
1
 11
17.87895347196939
 21
51.14254448129009
 31
0.0
 73
2
  0
TEXT
  5
7F
  8
0
 10
22.11880357716811
 20
82.67338281540592
 30
0.0
 40
1.39500007033348
  1
3x M2 THRU ALL
 72
1
 11
22.11880357716811
 21
82.67338281540592
 31
0.0
 73
2
  0
LINE
  5
80
  8
Dimension (ISO)
 10
34.1884681474136
 20
90.95121161609913
 30
0.0
 11
34.1884681474136
 21
104.1458182187988
 31
0.0
  0
LINE
  5
81
  8
Dimension (ISO)
 10
47.6384681474136
 20
72.20121161609913
 30
0.0
 11
47.6384681474136
 21
104.1458182187988
 31
0.0
  0
LINE
  5
82
  8
Dimension (ISO)
 10
35.4384681474136
 20
102.5583182187988
 30
0.0
 11
46.3884681474136
 21
102.5583182187988
 31
0.0
  0
SOLID
  5
83
  8
Dimension (ISO)
 10
35.4384681474136
 20
102.7666515521321
 30
0.0
 11
35.4384681474136
 21
102.3499848854655
 31
0.0
 12
34.1884681474136
 22
102.5583182187988
 32
0.0
 13
34.1884681474136
 23
102.5583182187988
 33
0.0
  0
SOLID
  5
84
  8
Dimension (ISO)
 10
46.3884681474136
 20
102.7666515521321
 30
0.0
 11
46.3884681474136
 21
102.3499848854655
 31
0.0
 12
47.6384681474136
 22
102.5583182187988
 32
0.0
 13
47.6384681474136
 23
102.5583182187988
 33
0.0
  0
TEXT
  5
85
  8
0
 10
39.02760677774137
 20
104.7621859034617
 30
0.0
 40
1.75
  1
13.45
 72
1
 11
39.02760677774137
 21
104.7621859034617
 31
0.0
 73
2
  0
LINE
  5
86
  8
Dimension (ISO)
 10
48.13846814741363
 20
71.70121161609916
 30
0.0
 11
79.37803863901644
 21
71.70121161609916
 31
0.0
  0
LINE
  5
87
  8
Dimension (ISO)
 10
34.68846814741362
 20
89.25121161609917
 30
0.0
 11
79.37803863901644
 21
89.25121161609917
 31
0.0
  0
LINE
  5
88
  8
Dimension (ISO)
 10
77.79053863901645
 20
72.95121161609916
 30
0.0
 11
77.79053863901645
 21
88.00121161609917
 31
0.0
  0
SOLID
  5
89
  8
Dimension (ISO)
 10
77.58220530568312
 20
72.95121161609916
 30
0.0
 11
77.99887197234978
 21
72.95121161609916
 31
0.0
 12
77.79053863901645
 22
71.70121161609916
 32
0.0
 13
77.79053863901645
 23
71.70121161609916
 33
0.0
  0
SOLID
  5
8A
  8
Dimension (ISO)
 10
77.58220530568312
 20
88.00121161609917
 30
0.0
 11
77.99887197234978
 21
88.00121161609917
 31
0.0
 12
77.79053863901645
 22
89.25121161609917
 32
0.0
 13
77.79053863901645
 23
89.25121161609917
 33
0.0
  0
TEXT
  5
8B
  8
0
 10
75.61722837524405
 20
77.6846199619048
 30
0.0
 40
1.75
  1
17.55
 72
1
 11
75.61722837524405
 21
77.6846199619048
 31
0.0
 73
2
  0
LINE
  5
8C
  8
Visible (ISO)
 10
111.7920304690139
 20
52.50121161609913
 30
0.0
 11
108.3920304690139
 21
52.50121161609913
 31
0.0
  0
LINE
  5
8D
  8
Visible (ISO)
 10
108.3920304690139
 20
52.50121161609913
 30
0.0
 11
108.3920304690139
 21
54.90121161609913
 31
0.0
  0
LINE
  5
8E
  8
Visible (ISO)
 10
108.3920304690139
 20
54.90121161609913
 30
0.0
 11
111.7920304690139
 21
54.90121161609913
 31
0.0
  0
LINE
  5
8F
  8
Visible (ISO)
 10
111.7920304690139
 20
54.90121161609913
 30
0.0
 11
111.7920304690139
 21
55.90121161609913
 31
0.0
  0
LINE
  5
90
  8
Visible (ISO)
 10
111.7920304690139
 20
55.90121161609913
 30
0.0
 11
108.3920304690139
 21
55.90121161609913
 31
0.0
  0
LINE
  5
91
  8
Visible (ISO)
 10
108.3920304690139
 20
55.90121161609913
 30
0.0
 11
108.3920304690139
 21
60.70121161609913
 31
0.0
  0
LINE
  5
92
  8
Visible (ISO)
 10
108.3920304690139
 20
60.70121161609913
 30
0.0
 11
110.3920304690139
 21
60.70121161609913
 31
0.0
  0
LINE
  5
93
  8
Visible (ISO)
 10
110.3920304690139
 20
60.70121161609913
 30
0.0
 11
110.3920304690139
 21
61.70121161609912
 31
0.0
  0
LINE
  5
94
  8
Visible (ISO)
 10
110.3920304690139
 20
61.70121161609912
 30
0.0
 11
108.3920304690139
 21
61.70121161609912
 31
0.0
  0
LINE
  5
95
  8
Visible (ISO)
 10
108.3920304690139
 20
61.70121161609912
 30
0.0
 11
108.3920304690139
 21
64.70121161609913
 31
0.0
  0
LINE
  5
96
  8
Visible (ISO)
 10
108.3920304690139
 20
64.70121161609913
 30
0.0
 11
110.3920304690139
 21
64.70121161609913
 31
0.0
  0
LINE
  5
97
  8
Visible (ISO)
 10
110.3920304690139
 20
64.70121161609913
 30
0.0
 11
110.3920304690139
 21
65.70121161609913
 31
0.0
  0
LINE
  5
98
  8
Visible (ISO)
 10
110.3920304690139
 20
65.70121161609913
 30
0.0
 11
108.3920304690139
 21
65.70121161609913
 31
0.0
  0
LINE
  5
99
  8
Visible (ISO)
 10
108.3920304690139
 20
65.70121161609913
 30
0.0
 11
108.3920304690139
 21
77.70121161609913
 31
0.0
  0
LINE
  5
9A
  8
Visible (ISO)
 10
108.3920304690139
 20
77.70121161609913
 30
0.0
 11
110.3920304690139
 21
77.70121161609913
 31
0.0
  0
LINE
  5
9B
  8
Visible (ISO)
 10
110.3920304690139
 20
77.70121161609913
 30
0.0
 11
110.3920304690139
 21
78.70121161609913
 31
0.0
  0
LINE
  5
9C
  8
Visible (ISO)
 10
110.3920304690139
 20
78.70121161609913
 30
0.0
 11
108.3920304690139
 21
78.70121161609913
 31
0.0
  0
LINE
  5
9D
  8
Visible (ISO)
 10
108.3920304690139
 20
78.70121161609913
 30
0.0
 11
108.3920304690139
 21
81.70121161609912
 31
0.0
  0
LINE
  5
9E
  8
Visible (ISO)
 10
108.3920304690139
 20
81.70121161609912
 30
0.0
 11
110.3920304690139
 21
81.70121161609912
 31
0.0
  0
LINE
  5
9F
  8
Visible (ISO)
 10
110.3920304690139
 20
81.70121161609912
 30
0.0
 11
110.3920304690139
 21
82.70121161609912
 31
0.0
  0
LINE
  5
A0
  8
Visible (ISO)
 10
110.3920304690139
 20
82.70121161609912
 30
0.0
 11
108.3920304690139
 21
82.70121161609912
 31
0.0
  0
LINE
  5
A1
  8
Visible (ISO)
 10
108.3920304690139
 20
82.70121161609912
 30
0.0
 11
108.3920304690139
 21
93.70121161609914
 31
0.0
  0
ARC
  5
A2
  8
Visible (ISO)
 10
108.8920304690139
 20
93.70121161609914
 30
0.0
 40
0.5
 50
90.0
 51
180.0
  0
LINE
  5
A3
  8
Visible (ISO)
 10
108.8920304690139
 20
94.20121161609912
 30
0.0
 11
111.8920304690139
 21
94.20121161609912
 31
0.0
  0
LINE
  5
A4
  8
Visible (ISO)
 10
111.8920304690139
 20
94.20121161609912
 30
0.0
 11
111.8920304690139
 21
94.95121161609914
 31
0.0
  0
LINE
  5
A5
  8
Visible (ISO)
 10
111.8920304690139
 20
94.95121161609914
 30
0.0
 11
113.8920304690139
 21
94.95121161609914
 31
0.0
  0
LINE
  5
A6
  8
Visible (ISO)
 10
113.8920304690139
 20
94.95121161609914
 30
0.0
 11
113.8920304690139
 21
95.70121161609913
 31
0.0
  0
LINE
  5
A7
  8
Visible (ISO)
 10
113.8920304690139
 20
95.70121161609913
 30
0.0
 11
108.8920304690139
 21
95.70121161609913
 31
0.0
  0
ARC
  5
A8
  8
Visible (ISO)
 10
108.8920304690139
 20
93.70121161609914
 30
0.0
 40
2.0
 50
90.0
 51
180.0
  0
LINE
  5
A9
  8
Visible (ISO)
 10
106.8920304690139
 20
93.70121161609914
 30
0.0
 11
106.8920304690139
 21
49.70121161609913
 31
0.0
  0
ARC
  5
AA
  8
Visible (ISO)
 10
108.8920304690139
 20
49.70121161609913
 30
0.0
 40
2.0
 50
180.0
 51
270.0
  0
LINE
  5
AB
  8
Visible (ISO)
 10
108.8920304690139
 20
47.70121161609913
 30
0.0
 11
113.8920304690139
 21
47.70121161609913
 31
0.0
  0
LINE
  5
AC
  8
Visible (ISO)
 10
113.8920304690139
 20
47.70121161609913
 30
0.0
 11
113.8920304690139
 21
48.45121161609913
 31
0.0
  0
LINE
  5
AD
  8
Visible (ISO)
 10
113.8920304690139
 20
48.45121161609913
 30
0.0
 11
111.8920304690139
 21
48.45121161609913
 31
0.0
  0
LINE
  5
AE
  8
Visible (ISO)
 10
111.8920304690139
 20
48.45121161609913
 30
0.0
 11
111.8920304690139
 21
49.20121161609912
 31
0.0
  0
LINE
  5
AF
  8
Visible (ISO)
 10
111.8920304690139
 20
49.20121161609912
 30
0.0
 11
108.8920304690139
 21
49.20121161609912
 31
0.0
  0
ARC
  5
B0
  8
Visible (ISO)
 10
108.8920304690139
 20
49.70121161609913
 30
0.0
 40
0.5
 50
180.0
 51
270.0
  0
LINE
  5
B1
  8
Visible (ISO)
 10
108.3920304690139
 20
49.70121161609913
 30
0.0
 11
108.3920304690139
 21
51.50121161609913
 31
0.0
  0
LINE
  5
B2
  8
Visible (ISO)
 10
108.3920304690139
 20
51.50121161609913
 30
0.0
 11
111.7920304690139
 21
51.50121161609913
 31
0.0
  0
LINE
  5
B3
  8
Visible (ISO)
 10
111.7920304690139
 20
51.50121161609913
 30
0.0
 11
111.7920304690139
 21
52.50121161609913
 31
0.0
  0
LINE
  5
B4
  8
Visible (ISO)
 10
110.3920304690139
 20
77.70121161609913
 30
0.0
 11
110.3920304690139
 21
65.70121161609913
 31
0.0
  0
LINE
  5
B5
  8
Visible (ISO)
 10
110.3920304690139
 20
64.70121161609913
 30
0.0
 11
110.3920304690139
 21
61.70121161609912
 31
0.0
  0
LINE
  5
B6
  8
Visible (ISO)
 10
110.3920304690139
 20
81.70121161609912
 30
0.0
 11
110.3920304690139
 21
78.70121161609913
 31
0.0
  0
LINE
  5
B7
  8
Visible (ISO)
 10
111.7920304690139
 20
52.50121161609913
 30
0.0
 11
111.7920304690139
 21
54.90121161609913
 31
0.0
  0
LINE
  5
B8
  8
Visible (ISO)
 10
111.8920304690139
 20
93.85491590995451
 30
0.0
 11
111.8920304690139
 21
94.20121161609912
 31
0.0
  0
LINE
  5
B9
  8
Visible (ISO)
 10
111.8920304690139
 20
93.85491590995451
 30
0.0
 11
111.8920304690139
 21
93.8010476889987
 31
0.0
  0
LINE
  5
BA
  8
Visible (ISO)
 10
111.8920304690139
 20
74.51371161609914
 30
0.0
 11
111.8920304690139
 21
87.04629814312129
 31
0.0
  0
LINE
  5
BB
  8
Visible (ISO)
 10
111.8920304690139
 20
49.20121161609912
 30
0.0
 11
111.8920304690139
 21
74.51371161609914
 31
0.0
  0
LINE
  5
BD
  8
Visible (ISO)
 10
113.8920304690139
 20
88.54664751044339
 30
0.0
 11
113.8920304690139
 21
88.91298056522623
 31
0.0
  0
LINE
  5
BE
  8
Visible (ISO)
 10
113.8920304690139
 20
94.5510476889987
 30
0.0
 11
113.8920304690139
 21
94.59337271974971
 31
0.0
  0
LINE
  5
BF
  8
Visible (ISO)
 10
113.8920304690139
 20
94.95121161609914
 30
0.0
 11
113.8920304690139
 21
94.59337271974968
 31
0.0
  0
LINE
  5
C0
  8
Visible (ISO)
 10
113.8920304690139
 20
74.60746161609913
 30
0.0
 11
113.8920304690139
 21
48.45121161609911
 31
0.0
  0
LINE
  5
C1
  8
Visible (ISO)
 10
113.8920304690139
 20
87.04629814312128
 30
0.0
 11
113.8920304690139
 21
74.60746161609913
 31
0.0
  0
LINE
  5
C2
  8
Visible (ISO)
 10
113.8920304690139
 20
102.8183023645357
 30
0.0
 11
113.8920304690139
 21
103.3677580143217
 31
0.0
  0
LINE
  5
C3
  8
Visible (ISO)
 10
113.8920304690139
 20
102.8183023645358
 30
0.0
 11
113.8920304690139
 21
95.70121161609913
 31
0.0
  0
LINE
  5
C6
  8
Visible (ISO)
 10
113.8920304690139
 20
89.44128691110538
 30
0.0
 11
108.3920304690139
 21
89.44128691110537
 31
0.0
  0
LINE
  5
C7
  8
Visible (ISO)
 10
113.8920304690139
 20
94.5510476889987
 30
0.0
 11
113.8920304690139
 21
89.44128691110538
 31
0.0
  0
LINE
  5
C8
  8
Visible (ISO)
 10
113.8920304690139
 20
88.91298056522623
 30
0.0
 11
108.3920304690139
 21
88.91298056522623
 31
0.0
  0
LINE
  5
C9
  8
Visible (ISO)
 10
113.8920304690139
 20
89.44128691110538
 30
0.0
 11
113.8920304690139
 21
88.91298056522623
 31
0.0
  0
LINE
  5
CC
  8
Visible (ISO)
 10
113.8920304690139
 20
87.04629814312129
 30
0.0
 11
110.491350709642
 21
87.04629814312129
 31
0.0
  0
LINE
  5
CD
  8
Visible (ISO)
 10
113.8920304690139
 20
87.57460448900008
 30
0.0
 11
113.8920304690139
 21
87.04629814312129
 31
0.0
  0
LINE
  5
CE
  8
Visible (ISO)
 10
113.8920304690139
 20
87.57460448900008
 30
0.0
 11
109.3459230367779
 21
87.57460448900008
 31
0.0
  0
LINE
  5
CF
  8
Visible (ISO)
 10
113.8920304690139
 20
88.54664751044339
 30
0.0
 11
113.8920304690139
 21
87.57460448900008
 31
0.0
  0
LINE
  5
D0
  8
Visible (ISO)
 10
113.8920304690139
 20
88.54664751044339
 30
0.0
 11
110.2269533404538
 21
88.54664751044339
 31
0.0
  0
LINE
  5
D1
  8
Visible (ISO)
 10
109.3920304690139
 20
101.1846061310597
 30
0.0
 11
109.3920304690139
 21
95.70162764126269
 31
0.0
  0
LINE
  5
D2
  8
Visible (ISO)
 10
109.3920304690139
 20
101.1846061310597
 30
0.0
 11
109.3920304690139
 21
101.3677580143217
 31
0.0
  0
LINE
  5
D3
  8
Visible (ISO)
 10
113.8920304690139
 20
94.5510476889987
 30
0.0
 11
111.8920304690139
 21
94.5510476889987
 31
0.0
  0
LINE
  5
D4
  8
Visible (ISO)
 10
111.8920304690139
 20
93.8010476889987
 30
0.0
 11
111.3920304690139
 21
93.8010476889987
 31
0.0
  0
ARC
  5
D5
  8
Visible (ISO)
 10
111.3920304690139
 20
101.3677580143217
 30
0.0
 40
2.0
 50
90.0
 51
180.0
  0
LINE
  5
D8
  8
Visible (ISO)
 10
111.3920304690139
 20
103.3677580143217
 30
0.0
 11
113.8920304690139
 21
103.3677580143217
 31
0.0
  0
TEXT
  5
D9
  8
0
 10
101.1001031359995
 20
116.1650802786187
 30
0.0
 40
2.62499988079071
  1
A-A ( 2 : 1 )
 72
1
 11
101.1001031359995
 21
116.1650802786187
 31
0.0
 73
2
  0
LINE
  5
DB
  8
Dimension (ISO)
 10
110.3920304690139
 20
61.20121161609913
 30
0.0
 11
110.3920304690139
 21
35.77309281839256
 31
0.0
  0
LINE
  5
DC
  8
Dimension (ISO)
 10
106.8920304690139
 20
49.20121161609912
 30
0.0
 11
106.8920304690139
 21
35.77309281839256
 31
0.0
  0
LINE
  5
DD
  8
Dimension (ISO)
 10
111.6420304690139
 20
37.36059281839256
 30
0.0
 11
112.8920304690139
 21
37.36059281839256
 31
0.0
  0
LINE
  5
DE
  8
Dimension (ISO)
 10
105.6420304690139
 20
37.36059281839256
 30
0.0
 11
99.17099758983201
 21
37.36059281839256
 31
0.0
  0
LINE
  5
DF
  8
Dimension (ISO)
 10
110.3920304690139
 20
37.36059281839256
 30
0.0
 11
106.8920304690139
 21
37.36059281839256
 31
0.0
  0
SOLID
  5
E0
  8
Dimension (ISO)
 10
111.6420304690139
 20
37.5689261517259
 30
0.0
 11
111.6420304690139
 21
37.15225948505923
 31
0.0
 12
110.3920304690139
 22
37.36059281839256
 32
0.0
 13
110.3920304690139
 23
37.36059281839256
 33
0.0
  0
SOLID
  5
E1
  8
Dimension (ISO)
 10
105.6420304690139
 20
37.5689261517259
 30
0.0
 11
105.6420304690139
 21
37.15225948505923
 31
0.0
 12
106.8920304690139
 22
37.36059281839256
 32
0.0
 13
106.8920304690139
 23
37.36059281839256
 33
0.0
  0
TEXT
  5
E2
  8
0
 10
99.55199758983201
 20
39.56446050305549
 30
0.0
 40
1.75
  1
3.50
 72
1
 11
99.55199758983201
 21
39.56446050305549
 31
0.0
 73
2
  0
LINE
  5
E3
  8
Dimension (ISO)
 10
111.7920304690139
 20
52.00121161609913
 30
0.0
 11
111.7920304690139
 21
29.77309281839256
 31
0.0
  0
LINE
  5
E4
  8
Dimension (ISO)
 10
106.8920304690139
 20
49.20121161609912
 30
0.0
 11
106.8920304690139
 21
29.77309281839256
 31
0.0
  0
LINE
  5
E5
  8
Dimension (ISO)
 10
110.5420304690139
 20
31.36059281839256
 30
0.0
 11
108.1420304690139
 21
31.36059281839256
 31
0.0
  0
LINE
  5
E6
  8
Dimension (ISO)
 10
106.8920304690139
 20
31.36059281839256
 30
0.0
 11
100.3540063209566
 21
31.36059281839256
 31
0.0
  0
SOLID
  5
E7
  8
Dimension (ISO)
 10
110.5420304690139
 20
31.56892615172589
 30
0.0
 11
110.5420304690139
 21
31.15225948505923
 31
0.0
 12
111.7920304690139
 22
31.36059281839256
 32
0.0
 13
111.7920304690139
 23
31.36059281839256
 33
0.0
  0
SOLID
  5
E8
  8
Dimension (ISO)
 10
108.1420304690139
 20
31.56892615172589
 30
0.0
 11
108.1420304690139
 21
31.15225948505923
 31
0.0
 12
106.8920304690139
 22
31.36059281839256
 32
0.0
 13
106.8920304690139
 23
31.36059281839256
 33
0.0
  0
TEXT
  5
E9
  8
0
 10
100.7350063209565
 20
33.56328521763662
 30
0.0
 40
1.75
  1
4.90
 72
1
 11
100.7350063209565
 21
33.56328521763662
 31
0.0
 73
2
  0
LINE
  5
EA
  8
Dimension (ISO)
 10
48.13846814741363
 20
53.70121161609916
 30
0.0
 11
79.37803863901644
 21
53.70121161609916
 31
0.0
  0
LINE
  5
EB
  8
Dimension (ISO)
 10
48.13846814741363
 20
71.70121161609916
 30
0.0
 11
79.37803863901644
 21
71.70121161609916
 31
0.0
  0
LINE
  5
EC
  8
Dimension (ISO)
 10
77.79053863901645
 20
54.95121161609916
 30
0.0
 11
77.79053863901645
 21
70.45121161609916
 31
0.0
  0
SOLID
  5
ED
  8
Dimension (ISO)
 10
77.58220530568312
 20
54.95121161609916
 30
0.0
 11
77.99887197234978
 21
54.95121161609916
 31
0.0
 12
77.79053863901645
 22
53.70121161609916
 32
0.0
 13
77.79053863901645
 23
53.70121161609916
 33
0.0
  0
SOLID
  5
EE
  8
Dimension (ISO)
 10
77.58220530568312
 20
70.45121161609916
 30
0.0
 11
77.99887197234978
 21
70.45121161609916
 31
0.0
 12
77.79053863901645
 22
71.70121161609916
 32
0.0
 13
77.79053863901645
 23
71.70121161609916
 33
0.0
  0
TEXT
  5
EF
  8
0
 10
75.57961924184032
 20
59.88551653687838
 30
0.0
 40
1.75
  1
18.00
 72
1
 11
75.57961924184032
 21
59.88551653687838
 31
0.0
 73
2
  0
LINE
  5
F0
  8
Dimension (ISO)
 10
13.10819140736968
 20
56.15359761203017
 30
0.0
 11
22.32839411656737
 21
56.15359761203018
 31
0.0
  0
LINE
  5
F1
  8
Dimension (ISO)
 10
22.32839411656737
 20
56.15359761203018
 30
0.0
 11
37.20053678164222
 21
65.28934068762236
 31
0.0
  0
TEXT
  5
F2
  8
0
 10
13.10819140736968
 20
58.35629001127424
 30
0.0
 40
1.75
  1
R11.00
 72
1
 11
13.10819140736968
 21
58.35629001127424
 31
0.0
 73
2
  0
SOLID
  5
F3
  8
Dimension (ISO)
 10
37.09149135768853
 20
65.46685652717629
 30
0.0
 11
37.3095822055959
 21
65.11182484806842
 31
0.0
 12
38.26563181896583
 22
65.94361323134447
 32
0.0
 13
38.26563181896583
 23
65.94361323134447
 33
0.0
  0
LINE
  5
F4
  8
Dimension (ISO)
 10
12.11646726200781
 20
61.33761000985407
 30
0.0
 11
21.33666997120557
 21
61.33761000985407
 31
0.0
  0
LINE
  5
F5
  8
Dimension (ISO)
 10
21.33666997120557
 20
61.33761000985407
 30
0.0
 11
37.17168414487666
 21
67.57702289051478
 31
0.0
  0
TEXT
  5
F6
  8
0
 10
12.11646726200781
 20
63.54030240909813
 30
0.0
 40
1.75
  1
R10.00
 72
1
 11
12.11646726200781
 21
63.54030240909813
 31
0.0
 73
2
  0
SOLID
  5
F7
  8
Dimension (ISO)
 10
37.09531027958807
 20
67.77085222389512
 30
0.0
 11
37.24805801016527
 21
67.38319355713449
 31
0.0
 12
38.33466014515855
 22
68.0352660822464
 32
0.0
 13
38.33466014515855
 23
68.0352660822464
 33
0.0
  0
LINE
  5
F8
  8
Dimension (ISO)
 10
11.14358601431219
 20
86.67165347230241
 30
0.0
 11
20.84080791875109
 21
86.6716534723024
 31
0.0
  0
LINE
  5
F9
  8
Dimension (ISO)
 10
20.84080791875109
 20
86.6716534723024
 30
0.0
 11
40.43614413328579
 21
75.724770835934
 31
0.0
  0
TEXT
  5
FA
  8
0
 10
11.14358601431219
 20
88.93754434275549
 30
0.0
 40
1.75
  1
\U+220514.00
 72
1
 11
11.14358601431219
 21
88.93754434275549
 31
0.0
 73
2
  0
SOLID
  5
FB
  8
Dimension (ISO)
 10
40.5377491640897
 20
75.90664770497763
 30
0.0
 11
40.33453910248189
 21
75.54289396689038
 31
0.0
 12
41.52740534754758
 22
75.11514065111052
 32
0.0
 13
41.52740534754758
 23
75.11514065111052
 33
0.0
  0
LINE
  5
FC
  8
Dimension (ISO)
 10
47.59346814741361
 20
71.70121161609914
 30
0.0
 11
47.68346814741361
 21
71.70121161609914
 31
0.0
  0
LINE
  5
FD
  8
Dimension (ISO)
 10
47.63846814741361
 20
71.65621161609914
 30
0.0
 11
47.6384681474136
 21
71.74621161609913
 31
0.0
  0
LINE
  5
FE
  8
Dimension (ISO)
 10
10.87311579284985
 20
93.61372224851871
 30
0.0
 11
20.57033769728872
 21
93.61372224851871
 31
0.0
  0
LINE
  5
FF
  8
Dimension (ISO)
 10
20.57033769728872
 20
93.61372224851871
 30
0.0
 11
42.00346467810547
 21
76.2629257567359
 31
0.0
  0
TEXT
  5
100
  8
0
 10
10.87311579284984
 20
95.8796131189718
 30
0.0
 40
1.75
  1
\U+220512.00
 72
1
 11
10.87311579284984
 21
95.8796131189718
 31
0.0
 73
2
  0
SOLID
  5
101
  8
Dimension (ISO)
 10
42.13454841777894
 20
76.42485114378498
 30
0.0
 11
41.872380938432
 21
76.10100036968683
 31
0.0
 12
42.97501700039997
 22
75.47642331869507
 32
0.0
 13
42.97501700039997
 23
75.47642331869507
 33
0.0
  0
LINE
  5
102
  8
Dimension (ISO)
 10
47.59346814741359
 20
71.70121161609912
 30
0.0
 11
47.68346814741359
 21
71.70121161609912
 31
0.0
  0
LINE
  5
103
  8
Dimension (ISO)
 10
47.63846814741359
 20
71.65621161609911
 30
0.0
 11
47.63846814741358
 21
71.74621161609913
 31
0.0
  0
LINE
  5
104
  8
Dimension (ISO)
 10
45.77369382304149
 20
55.2902732005453
 30
0.0
 11
44.82227835142307
 21
56.10101890689539
 31
0.0
  0
LINE
  5
105
  8
Dimension (ISO)
 10
49.50324247178569
 20
52.11215003165294
 30
0.0
 11
59.4351086321923
 21
43.64874147272327
 31
0.0
  0
LINE
  5
106
  8
Dimension (ISO)
 10
59.4351086321923
 20
43.64874147272327
 30
0.0
 11
69.6262072281823
 21
43.64874147272328
 31
0.0
  0
LINE
  5
107
  8
Dimension (ISO)
 10
46.72510929465991
 20
54.47952749419521
 30
0.0
 11
48.55182700016727
 21
52.92289573800303
 31
0.0
  0
SOLID
  5
108
  8
Dimension (ISO)
 10
45.90881810743317
 20
55.44884244581503
 30
0.0
 11
45.63856953864981
 21
55.13170395527557
 31
0.0
 12
46.72510929465991
 22
54.47952749419521
 32
0.0
 13
46.72510929465991
 23
54.47952749419521
 33
0.0
  0
SOLID
  5
109
  8
Dimension (ISO)
 10
49.63836675617737
 20
52.27071927692268
 30
0.0
 11
49.36811818739401
 21
51.95358078638321
 31
0.0
 12
48.55182700016727
 22
52.92289573800303
 32
0.0
 13
48.55182700016727
 23
52.92289573800303
 33
0.0
  0
TEXT
  5
10A
  8
0
 10
59.81610863219228
 20
45.91463234317634
 30
0.0
 40
1.75
  1
2X \U+22052.40
 72
1
 11
59.81610863219228
 21
45.91463234317634
 31
0.0
 73
2
  0
LINE
  5
10B
  8
Dimension (ISO)
 10
10.29343437718875
 20
109.4988252933097
 30
0.0
 11
21.48171353597271
 21
109.4988252933097
 31
0.0
  0
LINE
  5
10C
  8
Dimension (ISO)
 10
21.48171353597271
 20
109.4988252933097
 30
0.0
 11
27.16978650278388
 21
103.4611799384039
 31
0.0
  0
TEXT
  5
10D
  8
0
 10
10.29343437718874
 20
111.7026929779726
 30
0.0
 40
1.75
  1
2x R3.00
 72
1
 11
10.29343437718874
 21
111.7026929779726
 31
0.0
 73
2
  0
SOLID
  5
10E
  8
Dimension (ISO)
 10
27.32142483239575
 20
103.6040385915206
 30
0.0
 11
27.01814817317201
 21
103.3183212852873
 31
0.0
 12
28.02693842148367
 22
102.5513499607327
 32
0.0
 13
28.02693842148367
 23
102.5513499607327
 33
0.0
  0
LINE
  5
10F
  8
Dimension (ISO)
 10
10.02735198252024
 20
103.588034322964
 30
0.0
 11
21.20152771627792
 21
103.588034322964
 31
0.0
  0
LINE
  5
110
  8
Dimension (ISO)
 10
21.20152771627792
 20
103.588034322964
 30
0.0
 11
26.79366748128689
 21
101.5606678699683
 31
0.0
  0
TEXT
  5
111
  8
0
 10
10.02735198252024
 20
105.7919020076269
 30
0.0
 40
1.75
  1
2x R2.25
 72
1
 11
10.02735198252024
 21
105.7919020076269
 31
0.0
 73
2
  0
SOLID
  5
112
  8
Dimension (ISO)
 10
26.86467402031347
 20
101.7565271286038
 30
0.0
 11
26.72266094226031
 21
101.3648086113328
 31
0.0
 12
27.96882303309984
 22
101.1346286358088
 32
0.0
 13
27.96882303309984
 23
101.1346286358088
 33
0.0
  0
LINE
  5
113
  8
Dimension (ISO)
 10
82.45312705929967
 20
106.5607796362273
 30
0.0
 11
71.26484790051603
 21
106.5607796362273
 31
0.0
  0
LINE
  5
114
  8
Dimension (ISO)
 10
71.26484790051603
 20
106.5607796362273
 30
0.0
 11
67.11809832792986
 21
102.3313909868499
 31
0.0
  0
TEXT
  5
115
  8
0
 10
73.25651865666434
 20
108.7646473208903
 30
0.0
 40
1.75
  1
2x R1.50
 72
1
 11
73.25651865666434
 21
108.7646473208903
 31
0.0
 73
2
  0
SOLID
  5
116
  8
Dimension (ISO)
 10
66.96933825425347
 20
102.4772444004458
 30
0.0
 11
67.26685840160624
 21
102.185537573254
 31
0.0
 12
66.24297784635449
 22
101.4388305447916
 32
0.0
 13
66.24297784635449
 23
101.4388305447916
 33
0.0
  0
LINE
  5
117
  8
Dimension (ISO)
 10
47.01897000528058
 20
54.42143522852356
 30
0.0
 11
48.25796628954659
 21
52.98098800367464
 31
0.0
  0
LINE
  5
118
  8
Dimension (ISO)
 10
49.07309542393212
 20
52.0333253557477
 30
0.0
 11
59.71165473026863
 21
39.66502092755372
 31
0.0
  0
LINE
  5
119
  8
Dimension (ISO)
 10
59.71165473026863
 20
39.66502092755372
 30
0.0
 11
69.69707837795687
 21
39.66502092755371
 31
0.0
  0
SOLID
  5
11A
  8
Dimension (ISO)
 10
47.17691377993506
 20
54.55729008425449
 30
0.0
 11
46.86102623062609
 21
54.28558037279265
 31
0.0
 12
46.20384087089504
 22
55.3690978764505
 32
0.0
 13
46.20384087089504
 23
55.3690978764505
 33
0.0
  0
SOLID
  5
11B
  8
Dimension (ISO)
 10
48.41591006420107
 20
53.11684285940556
 30
0.0
 11
48.1000225148921
 21
52.84513314794372
 31
0.0
 12
49.07309542393212
 22
52.0333253557477
 32
0.0
 13
49.07309542393212
 23
52.0333253557477
 33
0.0
  0
TEXT
  5
11C
  8
0
 10
60.09265473026863
 20
41.9309117980068
 30
0.0
 40
1.75
  1
2x \U+22054.40
 72
1
 11
60.09265473026863
 21
41.9309117980068
 31
0.0
 73
2
  0
LINE
  5
11D
  8
Dimension (ISO)
 10
111.7920304690139
 20
52.00121161609913
 30
0.0
 11
111.7920304690139
 21
41.77309281839256
 31
0.0
  0
LINE
  5
11E
  8
Dimension (ISO)
 10
108.3920304690139
 20
52.00121161609913
 30
0.0
 11
108.3920304690139
 21
41.77309281839256
 31
0.0
  0
LINE
  5
11F
  8
Dimension (ISO)
 10
113.0420304690139
 20
43.36059281839256
 30
0.0
 11
114.2920304690139
 21
43.36059281839256
 31
0.0
  0
LINE
  5
120
  8
Dimension (ISO)
 10
107.1420304690139
 20
43.36059281839256
 30
0.0
 11
100.670997589832
 21
43.36059281839256
 31
0.0
  0
LINE
  5
121
  8
Dimension (ISO)
 10
111.7920304690139
 20
43.36059281839256
 30
0.0
 11
108.3920304690139
 21
43.36059281839256
 31
0.0
  0
SOLID
  5
122
  8
Dimension (ISO)
 10
113.0420304690139
 20
43.56892615172589
 30
0.0
 11
113.0420304690139
 21
43.15225948505922
 31
0.0
 12
111.7920304690139
 22
43.36059281839256
 32
0.0
 13
111.7920304690139
 23
43.36059281839256
 33
0.0
  0
SOLID
  5
123
  8
Dimension (ISO)
 10
107.1420304690139
 20
43.56892615172589
 30
0.0
 11
107.1420304690139
 21
43.15225948505922
 31
0.0
 12
108.3920304690139
 22
43.36059281839256
 32
0.0
 13
108.3920304690139
 23
43.36059281839256
 33
0.0
  0
TEXT
  5
124
  8
0
 10
101.051997589832
 20
45.56446050305548
 30
0.0
 40
1.75
  1
3.40
 72
1
 11
101.051997589832
 21
45.56446050305548
 31
0.0
 73
2
  0
LINE
  5
125
  8
Dimension (ISO)
 10
113.8920304690139
 20
47.95121161609912
 30
0.0
 11
113.8920304690139
 21
41.77309281839256
 31
0.0
  0
LINE
  5
126
  8
Dimension (ISO)
 10
111.8920304690139
 20
47.95121161609912
 30
0.0
 11
111.8920304690139
 21
41.77309281839256
 31
0.0
  0
LINE
  5
127
  8
Dimension (ISO)
 10
110.6420304690139
 20
43.36059281839256
 30
0.0
 11
109.3920304690139
 21
43.36059281839256
 31
0.0
  0
LINE
  5
128
  8
Dimension (ISO)
 10
115.1420304690139
 20
43.36059281839256
 30
0.0
 11
121.5989599231694
 21
43.36059281839256
 31
0.0
  0
LINE
  5
129
  8
Dimension (ISO)
 10
111.8920304690139
 20
43.36059281839256
 30
0.0
 11
113.8920304690139
 21
43.36059281839256
 31
0.0
  0
SOLID
  5
12A
  8
Dimension (ISO)
 10
110.6420304690139
 20
43.56892615172589
 30
0.0
 11
110.6420304690139
 21
43.15225948505922
 31
0.0
 12
111.8920304690139
 22
43.36059281839256
 32
0.0
 13
111.8920304690139
 23
43.36059281839256
 33
0.0
  0
SOLID
  5
12B
  8
Dimension (ISO)
 10
115.1420304690139
 20
43.56892615172589
 30
0.0
 11
115.1420304690139
 21
43.15225948505922
 31
0.0
 12
113.8920304690139
 22
43.36059281839256
 32
0.0
 13
113.8920304690139
 23
43.36059281839256
 33
0.0
  0
TEXT
  5
12C
  8
0
 10
116.7730304690139
 20
45.56446050305548
 30
0.0
 40
1.75
  1
2.00
 72
1
 11
116.7730304690139
 21
45.56446050305548
 31
0.0
 73
2
  0
LINE
  5
12D
  8
Hidden (ISO)
 10
146.2255643494452
 20
94.03647139742881
 30
0.0
 11
145.9907615290546
 21
95.0085144188721
 31
0.0
  0
LINE
  5
12E
  8
Hidden (ISO)
 10
153.3949033355092
 20
92.20873489346216
 30
0.0
 11
154.3669463569525
 21
92.44353771385275
 31
0.0
  0
LINE
  5
12F
  8
Hidden (ISO)
 10
144.7167300112916
 20
93.2119503501136
 30
0.0
 11
146.151480451566
 21
87.2723319474833
 31
0.0
  0
LINE
  5
130
  8
Hidden (ISO)
 10
144.364087456409
 20
90.41293684435963
 30
0.0
 11
144.7167300112916
 21
93.2119503501136
 31
0.0
  0
ARC
  5
131
  8
Hidden (ISO)
 10
159.8157458771279
 20
94.72379053070026
 30
0.0
 40
2.750000000000001
 50
234.7705114852854
 51
280.0653416049099
  0
ARC
  5
132
  8
Hidden (ISO)
 10
164.3597961674164
 20
69.12395445780068
 30
0.0
 40
23.25
 50
79.93465839509022
 51
100.0653416049098
  0
ARC
  5
133
  8
Hidden (ISO)
 10
168.9038464577049
 20
94.72379053070023
 30
0.0
 40
2.750000000000001
 50
259.93465839509
 51
305.2294885147142
  0
LINE
  5
134
  8
Hidden (ISO)
 10
180.6162424859049
 20
99.6284091186838
 30
0.0
 11
170.4901916608363
 21
92.47745820967066
 31
0.0
  0
ARC
  5
135
  8
Hidden (ISO)
 10
181.9141612884669
 20
97.79050085602324
 30
0.0
 40
2.250000000000003
 50
7.180755781458513
 51
125.2294885147145
  0
LINE
  5
136
  8
Hidden (ISO)
 10
187.4274404107609
 20
72.03020445780062
 30
0.0
 11
184.1465139571776
 21
98.07175085602324
 31
0.0
  0
ARC
  5
137
  8
Hidden (ISO)
 10
164.3597961674164
 20
69.12395445780068
 30
0.0
 40
23.25000000000001
 50
172.8192442185418
 51
7.180755781458014
  0
LINE
  5
138
  8
Hidden (ISO)
 10
144.5730783776552
 20
98.07175085602324
 30
0.0
 11
141.292151924072
 21
72.03020445780068
 31
0.0
  0
ARC
  5
139
  8
Hidden (ISO)
 10
146.805431046366
 20
97.79050085602324
 30
0.0
 40
2.250000000000019
 50
54.77051148528537
 51
172.819244218542
  0
LINE
  5
13A
  8
Hidden (ISO)
 10
158.2294006739966
 20
92.47745820967066
 30
0.0
 11
148.103349848928
 21
99.62840911868383
 31
0.0
  0
LINE
  5
13B
  8
Hidden (ISO)
 10
152.5561975744861
 20
95.56567381265813
 30
0.0
 11
146.2255643494452
 21
94.03647139742881
 31
0.0
  0
LINE
  5
13C
  8
Hidden (ISO)
 10
151.4707197200372
 20
96.33223117881
 30
0.0
 11
152.5561975744861
 21
95.56567381265813
 31
0.0
  0
CIRCLE
  5
13D
  8
Hidden (ISO)
 10
164.3597961674164
 20
69.12395445780068
 30
0.0
 40
6.0
  0
CIRCLE
  5
13E
  8
Hidden (ISO)
 10
164.3597961674164
 20
69.12395445780068
 30
0.0
 40
7.0
  0
CIRCLE
  5
13F
  8
Hidden (ISO)
 10
164.3597961674164
 20
51.12395445780068
 30
0.0
 40
2.2
  0
LINE
  5
140
  8
Hidden (ISO)
 10
155.7147099607692
 20
86.86402975280691
 30
0.0
 11
155.1713897618537
 21
89.11328130305021
 31
0.0
  0
ARC
  5
141
  8
Hidden (ISO)
 10
177.8097961674164
 20
86.67395445780068
 30
0.0
 40
2.199999999999999
 50
148.2827869943558
 51
316.785418258909
  0
LINE
  5
142
  8
Hidden (ISO)
 10
154.2511443145174
 20
88.66404549435627
 30
0.0
 11
154.5078641189354
 21
87.60126995385949
 31
0.0
  0
LINE
  5
143
  8
Hidden (ISO)
 10
154.5078641189354
 20
87.60126995385949
 30
0.0
 11
153.2928103421312
 21
87.30776642837104
 31
0.0
  0
LINE
  5
144
  8
Hidden (ISO)
 10
153.2928103421312
 20
87.30776642837104
 30
0.0
 11
153.527613162522
 21
86.33572340692778
 31
0.0
  0
LINE
  5
145
  8
Hidden (ISO)
 10
153.527613162522
 20
86.33572340692778
 30
0.0
 11
155.7147099607692
 21
86.86402975280691
 31
0.0
  0
ARC
  5
146
  8
Hidden (ISO)
 10
164.3597961674164
 20
69.12395445780068
 30
0.0
 40
10.0
 50
179.2896004541642
 51
163.8407540523044
  0
LINE
  5
147
  8
Hidden (ISO)
 10
154.3605648101503
 20
69.24793939182752
 30
0.0
 11
153.3814142915431
 21
69.81325220732255
 31
0.0
  0
ARC
  5
148
  8
Hidden (ISO)
 10
164.3597961674164
 20
69.12395445780068
 30
0.0
 40
11.0
 50
176.4072959597278
 51
162.5608592045697
  0
LINE
  5
149
  8
Hidden (ISO)
 10
153.8654021428421
 20
72.42057303703872
 30
0.0
 11
154.7548772975307
 21
71.90703431704173
 31
0.0
  0
LINE
  5
14A
  8
Hidden (ISO)
 10
155.7079425058337
 20
93.33993214187751
 30
0.0
 11
155.1464147395941
 21
93.1243704829775
 31
0.0
  0
ARC
  5
14B
  8
Hidden (ISO)
 10
164.3597961674164
 20
69.12395445780068
 30
0.0
 40
25.70809924354784
 50
115.3362229807649
 51
135.0944586533266
  0
ARC
  5
14C
  8
Hidden (ISO)
 10
164.3597961674164
 20
69.12395445780068
 30
0.0
 40
25.70809924354784
 50
111.0010088985849
 51
113.0685113850122
  0
LINE
  5
14D
  8
Hidden (ISO)
 10
146.5371113431002
 20
85.67588682665672
 30
0.0
 11
146.151480451566
 21
87.2723319474833
 31
0.0
  0
LINE
  5
14E
  8
Hidden (ISO)
 10
186.6833228545239
 20
71.9364544578007
 30
0.0
 11
183.4023964009407
 21
97.97800085602324
 31
0.0
  0
ARC
  5
14F
  8
Hidden (ISO)
 10
164.3597961674164
 20
69.12395445780068
 30
0.0
 40
22.5
 50
157.8911677882844
 51
22.10883221171561
  0
LINE
  5
150
  8
Hidden (ISO)
 10
144.364087456409
 20
90.41293684435963
 30
0.0
 11
142.0362694803089
 21
71.9364544578007
 31
0.0
  0
LINE
  5
151
  8
Hidden (ISO)
 10
145.3171959338921
 20
97.97800085602324
 30
0.0
 11
144.9101905821831
 21
94.74749602733957
 31
0.0
  0
ARC
  5
152
  8
Hidden (ISO)
 10
146.805431046366
 20
97.79050085602324
 30
0.0
 40
1.500000000000022
 50
54.77051148528558
 51
172.8192442185421
  0
LINE
  5
153
  8
Hidden (ISO)
 10
151.4707197200372
 20
96.33223117881
 30
0.0
 11
147.670710248074
 21
99.0157730311303
 31
0.0
  0
LINE
  5
154
  8
Hidden (ISO)
 10
157.7967610731425
 20
91.86482212211715
 30
0.0
 11
155.7079425058337
 21
93.33993214187748
 31
0.0
  0
ARC
  5
155
  8
Hidden (ISO)
 10
159.8157458771279
 20
94.72379053070026
 30
0.0
 40
3.500000000000004
 50
234.7705114852855
 51
280.0653416049096
  0
ARC
  5
156
  8
Hidden (ISO)
 10
164.3597961674164
 20
69.12395445780068
 30
0.0
 40
22.5
 50
77.27408217924462
 51
102.7259178207534
  0
LINE
  5
157
  8
Hidden (ISO)
 10
150.8248645410097
 20
96.17622098764137
 30
0.0
 11
145.4299615026047
 21
94.87304980981598
 31
0.0
  0
LINE
  5
158
  8
Hidden (ISO)
 10
150.8248645410097
 20
96.17622098764137
 30
0.0
 11
151.4707197200372
 21
96.33223117881
 31
0.0
  0
LINE
  5
159
  8
Hidden (ISO)
 10
155.0605224833851
 20
89.57225263977651
 30
0.0
 11
154.2865520022093
 21
92.77635642259543
 31
0.0
  0
LINE
  5
15A
  8
Hidden (ISO)
 10
155.1713897618537
 20
89.11328130305021
 30
0.0
 11
155.0605224833851
 21
89.57225263977651
 31
0.0
  0
LINE
  5
15B
  8
Hidden (ISO)
 10
145.4299615026047
 20
94.87304980981598
 30
0.0
 11
144.9101905821831
 21
94.74749602733957
 31
0.0
  0
LINE
  5
15C
  8
Hidden (ISO)
 10
153.3585460140215
 20
92.35924790932683
 30
0.0
 11
154.1391572914486
 21
89.1276523798492
 31
0.0
  0
LINE
  5
15D
  8
Hidden (ISO)
 10
154.1391572914486
 20
89.1276523798492
 30
0.0
 11
154.2511443145174
 21
88.6640454943563
 31
0.0
  0
LINE
  5
160
  8
Hidden (ISO)
 10
145.3309948778944
 20
86.41010753475763
 30
0.0
 11
145.7998711420475
 21
84.46904098482281
 31
0.0
  0
LINE
  5
161
  8
Hidden (ISO)
 10
145.7998711420475
 20
84.46904098482283
 30
0.0
 11
147.986967940295
 21
84.99734733070164
 31
0.0
  0
LINE
  5
162
  8
Hidden (ISO)
 10
147.986967940295
 20
84.99734733070164
 30
0.0
 11
147.7521651199044
 21
85.96939035214496
 31
0.0
  0
LINE
  5
163
  8
Hidden (ISO)
 10
147.7521651199044
 20
85.96939035214496
 30
0.0
 11
146.5371113431002
 21
85.67588682665672
 31
0.0
  0
LINE
  5
164
  8
Hidden (ISO)
 10
144.6952933223137
 20
89.04180190620907
 30
0.0
 11
145.3309948778944
 21
86.41010753475763
 31
0.0
  0
LINE
  5
165
  8
Hidden (ISO)
 10
144.6952933223137
 20
89.04180190620907
 30
0.0
 11
144.364087456409
 21
90.4129368443596
 31
0.0
  0
CIRCLE
  5
166
  8
Hidden (ISO)
 10
164.3597961674164
 20
51.12395445780068
 30
0.0
 40
1.199999999999999
  0
ARC
  5
167
  8
Hidden (ISO)
 10
177.8097961674164
 20
86.67395445780068
 30
0.0
 40
1.199999999999998
 50
149.4011655717461
 51
315.6670396815201
  0
ARC
  5
16C
  8
Hidden (ISO)
 10
181.9141612884669
 20
97.79050085602324
 30
0.0
 40
1.5
 50
7.180755781458564
 51
125.2294885147146
  0
LINE
  5
16D
  8
Hidden (ISO)
 10
181.0488820867589
 20
99.0157730311303
 30
0.0
 11
170.9228312616903
 21
91.86482212211715
 31
0.0
  0
ARC
  5
16E
  8
Hidden (ISO)
 10
168.9038464577049
 20
94.72379053070023
 30
0.0
 40
3.499999999999999
 50
259.9346583950904
 51
305.2294885147147
  0
CIRCLE
  5
16F
  8
Visible (ISO)
 10
163.1097961674164
 20
71.28901796726177
 30
0.0
 40
1.0
  0
CIRCLE
  5
170
  8
Visible (ISO)
 10
163.1097961674164
 20
66.95889094833959
 30
0.0
 40
1.0
  0
CIRCLE
  5
171
  8
Visible (ISO)
 10
166.8597961674164
 20
69.12395445780068
 30
0.0
 40
1.0
  0
LINE
  5
172
  8
Visible (ISO)
 10
145.8597961674164
 20
65.12395439819603
 30
0.0
 11
145.8597961674164
 21
73.12395439819603
 31
0.0
  0
LINE
  5
173
  8
Visible (ISO)
 10
145.8597961674164
 20
73.12395439819603
 30
0.0
 11
147.3597961674164
 21
73.12395445780068
 31
0.0
  0
LINE
  5
174
  8
Visible (ISO)
 10
147.3597961674164
 20
73.12395445780068
 30
0.0
 11
147.3597961674164
 21
65.12395439819603
 31
0.0
  0
LINE
  5
175
  8
Visible (ISO)
 10
147.3597961674164
 20
65.12395439819603
 30
0.0
 11
145.8597961674164
 21
65.12395439819603
 31
0.0
  0
LINE
  5
176
  8
Visible (ISO)
 10
158.6620402748506
 20
93.0900942972242
 30
0.0
 11
148.535989449782
 21
100.2410452062373
 31
0.0
  0
ARC
  5
177
  8
Visible (ISO)
 10
164.3597961674164
 20
69.12395445780068
 30
0.0
 40
24.00000000000001
 50
157.8911677882844
 51
22.10883221171561
  0
ARC
  5
178
  8
Visible (ISO)
 10
164.3597961674164
 20
69.12395445780068
 30
0.0
 40
24.00000000000001
 50
77.27408217924462
 51
102.7259178207554
  0
LINE
  5
179
  8
Visible (ISO)
 10
143.8289608214183
 20
98.16550085602324
 30
0.0
 11
140.5480343678351
 21
72.12395445780069
 31
0.0
  0
LINE
  5
17A
  8
Visible (ISO)
 10
180.1836028850508
 20
100.2410452062373
 30
0.0
 11
170.0575520599822
 21
93.0900942972242
 31
0.0
  0
ARC
  5
17B
  8
Visible (ISO)
 10
181.9141612884669
 20
97.79050085602324
 30
0.0
 40
3.0
 50
7.180755781458259
 51
125.229488514715
  0
LINE
  5
17C
  8
Visible (ISO)
 10
188.1715579669977
 20
72.12395445780069
 30
0.0
 11
184.8906315134146
 21
98.16550085602324
 31
0.0
  0
ARC
  5
17D
  8
Visible (ISO)
 10
146.805431046366
 20
97.79050085602324
 30
0.0
 40
3.000000000000022
 50
54.77051148528547
 51
172.8192442185415
  0
ARC
  5
17E
  8
Visible (ISO)
 10
159.8157458771279
 20
94.72379053070026
 30
0.0
 40
2.000000000000004
 50
234.7705114852856
 51
280.0653416049093
  0
ARC
  5
17F
  8
Visible (ISO)
 10
168.9038464577049
 20
94.72379053070023
 30
0.0
 40
1.999999999999999
 50
259.9346583950906
 51
305.2294885147151
  0
LINE
  5
180
  8
Dimension (ISO)
 10
147.3597961674164
 20
64.62395439819603
 30
0.0
 11
147.3597961674164
 21
42.12106992999363
 31
0.0
  0
LINE
  5
181
  8
Dimension (ISO)
 10
145.8597961674164
 20
64.62395439819603
 30
0.0
 11
145.8597961674164
 21
42.12106992999363
 31
0.0
  0
LINE
  5
182
  8
Dimension (ISO)
 10
148.6097961674164
 20
43.70856992999363
 30
0.0
 11
149.8597961674164
 21
43.70856992999363
 31
0.0
  0
LINE
  5
183
  8
Dimension (ISO)
 10
144.6097961674164
 20
43.70856992999363
 30
0.0
 11
143.3597961674164
 21
43.70856992999363
 31
0.0
  0
LINE
  5
184
  8
Dimension (ISO)
 10
147.3597961674164
 20
43.70856992999363
 30
0.0
 11
145.8597961674164
 21
43.70856992999363
 31
0.0
  0
SOLID
  5
185
  8
Dimension (ISO)
 10
148.6097961674164
 20
43.91690326332696
 30
0.0
 11
148.6097961674164
 21
43.50023659666029
 31
0.0
 12
147.3597961674164
 22
43.70856992999363
 32
0.0
 13
147.3597961674164
 23
43.70856992999363
 33
0.0
  0
SOLID
  5
186
  8
Dimension (ISO)
 10
144.6097961674164
 20
43.91690326332696
 30
0.0
 11
144.6097961674164
 21
43.50023659666029
 31
0.0
 12
145.8597961674164
 22
43.70856992999363
 32
0.0
 13
145.8597961674164
 23
43.70856992999363
 33
0.0
  0
TEXT
  5
187
  8
0
 10
144.4560856373424
 20
45.91126232923769
 30
0.0
 40
1.75
  1
1.50
 72
1
 11
144.4560856373424
 21
45.91126232923769
 31
0.0
 73
2
  0
LINE
  5
188
  8
Dimension (ISO)
 10
145.3597961674165
 20
65.12395439819606
 30
0.0
 11
133.2722961674164
 21
65.12395439819606
 31
0.0
  0
LINE
  5
189
  8
Dimension (ISO)
 10
145.3597961674165
 20
73.12395439819606
 30
0.0
 11
133.2722961674164
 21
73.12395439819606
 31
0.0
  0
LINE
  5
18A
  8
Dimension (ISO)
 10
134.8597961674164
 20
66.37395439819606
 30
0.0
 11
134.8597961674164
 21
71.87395439819606
 31
0.0
  0
SOLID
  5
18B
  8
Dimension (ISO)
 10
134.6514628340831
 20
66.37395439819606
 30
0.0
 11
135.0681295007498
 21
66.37395439819606
 31
0.0
 12
134.8597961674164
 22
65.12395439819606
 32
0.0
 13
134.8597961674164
 23
65.12395439819606
 33
0.0
  0
SOLID
  5
18C
  8
Dimension (ISO)
 10
134.6514628340831
 20
71.87395439819606
 30
0.0
 11
135.0681295007498
 21
71.87395439819606
 31
0.0
 12
134.8597961674164
 22
73.12395439819606
 32
0.0
 13
134.8597961674164
 23
73.12395439819606
 33
0.0
  0
TEXT
  5
18D
  8
0
 10
132.6488767702403
 20
66.88092217628811
 30
0.0
 40
1.75
  1
8.00
 72
1
 11
132.6488767702403
 21
66.88092217628811
 31
0.0
 73
2
  0
LINE
  5
18E
  8
Dimension (ISO)
 10
151.5627007054478
 20
110.6962334641645
 30
0.0
 11
160.7829034146457
 21
110.6962334641645
 31
0.0
  0
LINE
  5
18F
  8
Dimension (ISO)
 10
160.7829034146457
 20
110.6962334641645
 30
0.0
 11
162.195274881133
 21
94.2810080929391
 31
0.0
  0
TEXT
  5
190
  8
0
 10
151.5627007054478
 20
112.9001011488275
 30
0.0
 40
1.75
  1
R24.00
 72
1
 11
151.5627007054478
 21
112.9001011488275
 31
0.0
 73
2
  0
SOLID
  5
191
  8
Dimension (ISO)
 10
162.4028413302678
 20
94.2988671794596
 30
0.0
 11
161.9877084319982
 21
94.26314900641862
 31
0.0
 12
162.302429400256
 22
93.03560939813028
 32
0.0
 13
162.302429400256
 23
93.03560939813028
 33
0.0
  0
LINE
  5
192
  8
Dimension (ISO)
 10
200.9561697340433
 20
42.59056790508512
 30
0.0
 11
191.7359670248454
 21
42.59056790508512
 31
0.0
  0
LINE
  5
193
  8
Dimension (ISO)
 10
191.7359670248454
 20
42.59056790508512
 30
0.0
 11
182.4911507965419
 21
51.55077946541841
 31
0.0
  0
TEXT
  5
194
  8
0
 10
193.7528454018066
 20
44.79443558974804
 30
0.0
 40
1.75
  1
R24.00
 72
1
 11
193.7528454018066
 21
44.79443558974804
 31
0.0
 73
2
  0
SOLID
  5
195
  8
Dimension (ISO)
 10
182.6361439895483
 20
51.70037810097227
 30
0.0
 11
182.3461576035354
 21
51.40118082986457
 31
0.0
 12
181.5935589832189
 22
52.42073862345714
 32
0.0
 13
181.5935589832189
 23
52.42073862345714
 33
0.0
  0
LINE
  5
196
  8
Dimension (ISO)
 10
144.5778919121184
 20
89.52782341693074
 30
0.0
 11
138.9220789759604
 21
112.9419096959463
 31
0.0
  0
LINE
  5
197
  8
Dimension (ISO)
 10
154.1691505920141
 20
93.2623779333171
 30
0.0
 11
148.8369177946822
 21
115.3368984639302
 31
0.0
  0
LINE
  5
198
  8
Dimension (ISO)
 10
140.5098822301346
 20
111.6922949248933
 30
0.0
 11
147.994613495248
 21
113.5002766419007
 31
0.0
  0
SOLID
  5
199
  8
Dimension (ISO)
 10
140.4609649758866
 20
111.894803887694
 30
0.0
 11
140.5587994843827
 21
111.4897859620926
 31
0.0
 12
139.2948284533305
 22
111.3987913994051
 32
0.0
 13
139.2948284533305
 23
111.3987913994051
 33
0.0
  0
SOLID
  5
19A
  8
Dimension (ISO)
 10
147.945696241
 20
113.7027856047014
 30
0.0
 11
148.043530749496
 21
113.2977676791
 31
0.0
 12
149.2096672720522
 22
113.793780167389
 32
0.0
 13
149.2096672720522
 23
113.793780167389
 33
0.0
  0
TEXT
  5
19B
  8
0
 10
141.0026569774032
 20
114.0785808545991
 30
0.0
 40
1.75
  1
10.20
 72
1
 11
141.0026569774032
 21
114.0785808545991
 31
0.0
 73
2
  0
LINE
  5
19C
  8
Dimension (ISO)
 10
144.5993286010963
 20
93.69797186083522
 30
0.0
 11
141.0233958141764
 21
108.5017144432014
 31
0.0
  0
LINE
  5
19D
  8
Dimension (ISO)
 10
153.2411446038262
 20
92.84526942004847
 30
0.0
 11
148.9941485900114
 21
110.4270975704042
 31
0.0
  0
LINE
  5
19E
  8
Dimension (ISO)
 10
142.6111990683506
 20
107.2520996721484
 30
0.0
 11
148.1518442905774
 21
108.5904757483747
 31
0.0
  0
SOLID
  5
19F
  8
Dimension (ISO)
 10
142.5622818141025
 20
107.4546086349491
 30
0.0
 11
142.6601163225986
 21
107.0495907093477
 31
0.0
 12
141.3961452915464
 22
106.9585961466602
 32
0.0
 13
141.3961452915464
 23
106.9585961466602
 33
0.0
  0
SOLID
  5
1A0
  8
Dimension (ISO)
 10
148.1029270363293
 20
108.7929847111754
 30
0.0
 11
148.2007615448254
 21
108.387966785574
 31
0.0
 12
149.3668980673815
 22
108.883979273863
 32
0.0
 13
149.3668980673815
 23
108.883979273863
 33
0.0
  0
TEXT
  5
1A1
  8
0
 10
142.6820677511724
 20
109.5437261893292
 30
0.0
 40
1.75
  1
8.20
 72
1
 11
142.6820677511724
 21
109.5437261893292
 31
0.0
 73
2
  0
LINE
  5
1A2
  8
Dimension (ISO)
 10
145.3138496313258
 20
84.35163957462753
 30
0.0
 11
127.73202148097
 21
80.10464356081289
 31
0.0
  0
LINE
  5
1A3
  8
Dimension (ISO)
 10
144.943939991883
 20
94.75564839962065
 30
0.0
 11
125.3370327129861
 21
90.01948237953457
 31
0.0
  0
LINE
  5
1A4
  8
Dimension (ISO)
 10
128.9816362520231
 20
81.69244681498706
 30
0.0
 11
127.1736545350156
 21
89.17717808010049
 31
0.0
  0
SOLID
  5
1A5
  8
Dimension (ISO)
 10
129.1841452148238
 20
81.7413640692351
 30
0.0
 11
128.7791272892224
 21
81.64352956073903
 31
0.0
 12
129.2751397775113
 22
80.47739303818294
 32
0.0
 13
129.2751397775113
 23
80.47739303818294
 33
0.0
  0
SOLID
  5
1A6
  8
Dimension (ISO)
 10
127.3761634978163
 20
89.22609533434853
 30
0.0
 11
126.9711455722149
 21
89.12826082585246
 31
0.0
 12
126.8801510095274
 22
90.39223185690462
 32
0.0
 13
126.8801510095274
 23
90.39223185690462
 33
0.0
  0
TEXT
  5
1A7
  8
0
 10
129.5599404647214
 20
88.68440333283186
 30
0.0
 40
1.75
  1
10.20
 72
1
 11
129.5599404647214
 21
88.68440333283186
 31
0.0
 73
2
  0
LINE
  5
1A8
  8
Dimension (ISO)
 10
146.0510898323786
 20
85.55848541646145
 30
0.0
 11
132.6566929489116
 21
82.32298853382444
 31
0.0
  0
LINE
  5
1A9
  8
Dimension (ISO)
 10
145.7395428387235
 20
93.91906998723353
 30
0.0
 11
130.7313098217088
 21
90.29374130965951
 31
0.0
  0
LINE
  5
1AA
  8
Dimension (ISO)
 10
133.9063077199646
 20
83.9107917879986
 30
0.0
 11
132.5679316437383
 21
89.45143701022543
 31
0.0
  0
SOLID
  5
1AB
  8
Dimension (ISO)
 10
134.1088166827653
 20
83.95970904224666
 30
0.0
 11
133.7037987571639
 21
83.86187453375057
 31
0.0
 12
134.1998112454529
 22
82.69573801119449
 32
0.0
 13
134.1998112454529
 23
82.69573801119449
 33
0.0
  0
SOLID
  5
1AC
  8
Dimension (ISO)
 10
132.770440606539
 20
89.50035426447349
 30
0.0
 11
132.3654226809376
 21
89.40251975597741
 31
0.0
 12
132.2744281182501
 22
90.66649078702956
 32
0.0
 13
132.2744281182501
 23
90.66649078702956
 33
0.0
  0
TEXT
  5
1AD
  8
0
 10
134.8595581609192
 20
89.3805683274033
 30
0.0
 40
1.75
  1
8.20
 72
1
 11
134.8595581609192
 21
89.3805683274033
 31
0.0
 73
2
  0
LINE
  5
1AE
  8
Dimension (ISO)
 10
147.6347637097091
 20
86.45541186286663
 30
0.0
 11
143.2060765488341
 21
104.7894099031082
 31
0.0
  0
LINE
  5
1AF
  8
Dimension (ISO)
 10
153.175408931936
 20
87.79378793909272
 30
0.0
 11
148.7467217710609
 21
106.1277859793345
 31
0.0
  0
LINE
  5
1B0
  8
Dimension (ISO)
 10
144.7938798030083
 20
103.5397951320552
 30
0.0
 11
147.9044174716268
 21
104.2911641573051
 31
0.0
  0
SOLID
  5
1B1
  8
Dimension (ISO)
 10
144.7449625487602
 20
103.7423040948559
 30
0.0
 11
144.8427970572563
 21
103.3372861692545
 31
0.0
 12
143.5788260262041
 22
103.246291606567
 32
0.0
 13
143.5788260262041
 23
103.246291606567
 33
0.0
  0
SOLID
  5
1B2
  8
Dimension (ISO)
 10
147.8555002173788
 20
104.4936731201057
 30
0.0
 11
147.9533347258749
 21
104.0886551945044
 31
0.0
 12
149.119471248431
 22
104.5846676827933
 32
0.0
 13
149.119471248431
 23
104.5846676827933
 33
0.0
  0
TEXT
  5
1B3
  8
0
 10
143.6801871310844
 20
105.5368201360984
 30
0.0
 40
1.75
  1
5.70
 72
1
 11
143.6801871310844
 21
105.5368201360984
 31
0.0
 73
2
  0
LINE
  5
1B4
  8
Dimension (ISO)
 10
113.8920304690139
 20
103.3183023645358
 30
0.0
 11
113.8920304690139
 21
109.4058023645358
 31
0.0
  0
LINE
  5
1B5
  8
Dimension (ISO)
 10
109.3920304690139
 20
101.6846061310597
 30
0.0
 11
109.3920304690139
 21
109.4058023645358
 31
0.0
  0
LINE
  5
1B6
  8
Dimension (ISO)
 10
112.6420304690139
 20
107.8183023645358
 30
0.0
 11
110.6420304690139
 21
107.8183023645358
 31
0.0
  0
SOLID
  5
1B7
  8
Dimension (ISO)
 10
112.6420304690139
 20
108.0266356978691
 30
0.0
 11
112.6420304690139
 21
107.6099690312025
 31
0.0
 12
113.8920304690139
 22
107.8183023645358
 32
0.0
 13
113.8920304690139
 23
107.8183023645358
 33
0.0
  0
SOLID
  5
1B8
  8
Dimension (ISO)
 10
110.6420304690139
 20
108.0266356978691
 30
0.0
 11
110.6420304690139
 21
107.6099690312025
 31
0.0
 12
109.3920304690139
 22
107.8183023645358
 32
0.0
 13
109.3920304690139
 23
107.8183023645358
 33
0.0
  0
TEXT
  5
1B9
  8
0
 10
109.3790183949852
 20
110.0209947637798
 30
0.0
 40
1.75
  1
4.50
 72
1
 11
109.3790183949852
 21
110.0209947637798
 31
0.0
 73
2
  0
LINE
  5
1BA
  8
Dimension (ISO)
 10
108.8920304690139
 20
101.1846061310598
 30
0.0
 11
96.80453046901391
 21
101.1846061310598
 31
0.0
  0
LINE
  5
1BB
  8
Dimension (ISO)
 10
108.8920304690139
 20
95.7016276412627
 30
0.0
 11
96.80453046901393
 21
95.7016276412627
 31
0.0
  0
LINE
  5
1BC
  8
Dimension (ISO)
 10
98.39203046901392
 20
99.9346061310598
 30
0.0
 11
98.39203046901392
 21
96.95162764126273
 31
0.0
  0
SOLID
  5
1BD
  8
Dimension (ISO)
 10
98.1836971356806
 20
99.9346061310598
 30
0.0
 11
98.60036380234725
 21
99.9346061310598
 31
0.0
 12
98.39203046901392
 22
101.1846061310598
 32
0.0
 13
98.39203046901392
 23
101.1846061310598
 33
0.0
  0
SOLID
  5
1BE
  8
Dimension (ISO)
 10
98.1836971356806
 20
96.95162764126273
 30
0.0
 11
98.60036380234725
 21
96.95162764126273
 31
0.0
 12
98.39203046901395
 22
95.7016276412627
 32
0.0
 13
98.39203046901395
 23
95.7016276412627
 33
0.0
  0
TEXT
  5
1BF
  8
0
 10
96.18111107183779
 20
96.22417801534007
 30
0.0
 40
1.75
  1
5.48
 72
1
 11
96.18111107183779
 21
96.22417801534007
 31
0.0
 73
2
  0
LINE
  5
1C0
  8
Dimension (ISO)
 10
114.392030469014
 20
102.8183023645358
 30
0.0
 11
120.4795304690139
 21
102.8183023645358
 31
0.0
  0
LINE
  5
1C1
  8
Dimension (ISO)
 10
114.392030469014
 20
95.66735145552268
 30
0.0
 11
120.4795304690139
 21
95.66735145552268
 31
0.0
  0
LINE
  5
1C2
  8
Dimension (ISO)
 10
118.8920304690139
 20
101.5683023645358
 30
0.0
 11
118.8920304690139
 21
96.9173514555227
 31
0.0
  0
SOLID
  5
1C3
  8
Dimension (ISO)
 10
118.6836971356806
 20
101.5683023645358
 30
0.0
 11
119.1003638023472
 21
101.5683023645358
 31
0.0
 12
118.8920304690139
 22
102.8183023645358
 32
0.0
 13
118.8920304690139
 23
102.8183023645358
 33
0.0
  0
SOLID
  5
1C4
  8
Dimension (ISO)
 10
118.6836971356806
 20
96.9173514555227
 30
0.0
 11
119.1003638023472
 21
96.9173514555227
 31
0.0
 12
118.8920304690139
 22
95.66735145552268
 32
0.0
 13
118.8920304690139
 23
95.66735145552268
 33
0.0
  0
TEXT
  5
1C5
  8
0
 10
116.7187202052415
 20
97.02858918088354
 30
0.0
 40
1.75
  1
7.15
 72
1
 11
116.7187202052415
 21
97.02858918088354
 31
0.0
 73
2
  0
LINE
  5
1C6
  8
Dimension (ISO)
 10
106.3920304690139
 20
93.70121161609914
 30
0.0
 11
96.84279604171986
 21
93.70121161609914
 31
0.0
  0
LINE
  5
1C7
  8
Dimension (ISO)
 10
106.3920304690139
 20
49.70121161609916
 30
0.0
 11
96.84279604171986
 21
49.70121161609916
 31
0.0
  0
LINE
  5
1C8
  8
Dimension (ISO)
 10
98.43029604171988
 20
92.45121161609914
 30
0.0
 11
98.43029604171988
 21
50.95121161609916
 31
0.0
  0
SOLID
  5
1C9
  8
Dimension (ISO)
 10
98.22196270838654
 20
92.45121161609914
 30
0.0
 11
98.6386293750532
 21
92.45121161609914
 31
0.0
 12
98.43029604171988
 22
93.70121161609914
 32
0.0
 13
98.43029604171988
 23
93.70121161609914
 33
0.0
  0
SOLID
  5
1CA
  8
Dimension (ISO)
 10
98.22196270838654
 20
50.95121161609916
 30
0.0
 11
98.6386293750532
 21
50.95121161609916
 31
0.0
 12
98.43029604171988
 22
49.70121161609916
 32
0.0
 13
98.43029604171988
 23
49.70121161609916
 33
0.0
  0
TEXT
  5
1CB
  8
0
 10
96.2276036424758
 20
68.78121499292374
 30
0.0
 40
1.75
  1
44.00
 72
1
 11
96.2276036424758
 21
68.78121499292374
 31
0.0
 73
2
  0
LINE
  5
1CC
  8
Dimension (ISO)
 10
106.8920304690139
 20
49.20121161609912
 30
0.0
 11
106.8920304690139
 21
23.86371161609912
 31
0.0
  0
LINE
  5
1CD
  8
Dimension (ISO)
 10
113.8920304690139
 20
47.95121161609912
 30
0.0
 11
113.8920304690139
 21
23.86371161609912
 31
0.0
  0
LINE
  5
1CE
  8
Dimension (ISO)
 10
108.1420304690139
 20
25.45121161609912
 30
0.0
 11
112.6420304690139
 21
25.45121161609912
 31
0.0
  0
SOLID
  5
1CF
  8
Dimension (ISO)
 10
108.1420304690139
 20
25.65954494943245
 30
0.0
 11
108.1420304690139
 21
25.24287828276579
 31
0.0
 12
106.8920304690139
 22
25.45121161609912
 32
0.0
 13
106.8920304690139
 23
25.45121161609912
 33
0.0
  0
SOLID
  5
1D0
  8
Dimension (ISO)
 10
112.6420304690139
 20
25.65954494943245
 30
0.0
 11
112.6420304690139
 21
25.24287828276579
 31
0.0
 12
113.8920304690139
 22
25.45121161609912
 32
0.0
 13
113.8920304690139
 23
25.45121161609912
 33
0.0
  0
TEXT
  5
1D1
  8
0
 10
108.1636893148418
 20
27.65390401534317
 30
0.0
 40
1.75
  1
7.00
 72
1
 11
108.1636893148418
 21
27.65390401534317
 31
0.0
 73
2
  0
LINE
  5
1D2
  8
Dimension (ISO)
 10
188.6676363378224
 20
72.18645445780069
 30
0.0
 11
197.5798950811159
 21
73.30929351754429
 31
0.0
  0
LINE
  5
1D3
  8
Dimension (ISO)
 10
185.3867098842392
 20
98.22800085602321
 30
0.0
 11
194.2989686275327
 21
99.35083991576684
 31
0.0
  0
LINE
  5
1D4
  8
Dimension (ISO)
 10
195.8485962537477
 20
74.35105194460581
 30
0.0
 11
192.8801698001646
 21
97.91220648870531
 31
0.0
  0
SOLID
  5
1D5
  8
Dimension (ISO)
 10
196.0552955749247
 20
74.3770936112725
 30
0.0
 11
195.6418969325708
 21
74.32501027793916
 31
0.0
 12
196.0048462537477
 22
73.1108560175443
 32
0.0
 13
196.0048462537477
 23
73.1108560175443
 33
0.0
  0
SOLID
  5
1D6
  8
Dimension (ISO)
 10
193.0868691213415
 20
97.938248155372
 30
0.0
 11
192.6734704789876
 21
97.88616482203862
 31
0.0
 12
192.7239198001646
 22
99.15240241576682
 32
0.0
 13
192.7239198001646
 23
99.15240241576682
 33
0.0
  0
TEXT
  5
1D7
  8
0
 10
196.0234679752806
 20
90.5939921623683
 30
0.0
 40
1.75
  1
26.25
 72
1
 11
196.0234679752806
 21
90.5939921623683
 31
0.0
 73
2
  0
LINE
  5
1D8
  8
Dimension (ISO)
 10
179.8951764844815
 20
100.6494692646063
 30
0.0
 11
172.9224682507177
 21
110.5231208756772
 31
0.0
  0
LINE
  5
1D9
  8
Dimension (ISO)
 10
169.7691256594129
 20
93.4985183555932
 30
0.0
 11
162.7964174256491
 21
103.3721699666641
 31
0.0
  0
LINE
  5
1DA
  8
Dimension (ISO)
 10
172.8171619266028
 20
108.5053084889322
 30
0.0
 11
164.7332313933793
 21
102.7964895827658
 31
0.0
  0
SOLID
  5
1DB
  8
Dimension (ISO)
 10
172.696984259699
 20
108.6754851799193
 30
0.0
 11
172.9373395935067
 21
108.3351317979451
 31
0.0
 12
173.8382220725254
 22
109.2263744903556
 32
0.0
 13
173.8382220725254
 23
109.2263744903556
 33
0.0
  0
SOLID
  5
1DC
  8
Dimension (ISO)
 10
164.6130537264754
 20
102.9666662737529
 30
0.0
 11
164.8534090602832
 21
102.6263128917787
 31
0.0
 12
163.7121712474568
 22
102.0754235813424
 32
0.0
 13
163.7121712474568
 23
102.0754235813424
 33
0.0
  0
TEXT
  5
1DD
  8
0
 10
166.6344396144281
 20
106.837124438733
 30
0.0
 40
1.75
  1
12.40
 72
1
 11
166.6344396144281
 21
106.837124438733
 31
0.0
 73
2
  0
TEXT
  5
1DE
  8
0
 10
40.17688418806831
 20
28.52483972976142
 30
0.0
 40
1.749999970197677
  1
FRONT VIEW
 72
1
 11
40.17688418806831
 21
28.52483972976142
 31
0.0
 73
2
  0
TEXT
  5
1DF
  8
0
 10
162.7409694951158
 20
29.61236493521738
 30
0.0
 40
1.749999970197677
  1
BACK VIEW
 72
1
 11
162.7409694951158
 21
29.61236493521738
 31
0.0
 73
2
  0
TEXT
  5
1E0
  8
0
 10
189.9900065924501
 20
7.273737154737627
 30
0.0
 40
1.749999970197677
  1
01
 72
1
 11
189.9900065924501
 21
7.273737154737627
 31
0.0
 73
2
  0
ENDSEC
  0
EOF
