0
SECTION
2
HEADER
9
$INSUNITS
70
4
0
ENDSEC
0
SECTION
2
ENTITIES
0
HATCH
5
301
100
AcDbEntity
8
HATCHTEST
100
AcDbHatch
10
0
20
0
30
0
210
0
220
0
230
1
2
DASHTEST
70
0
71
0
91
1
92
2
72
0
73
1
93
4
10
0
20
0
10
60
20
0
10
60
20
40
10
0
20
40
97
0
75
1
76
1
52
0
41
1
77
0
78
1
53
0
43
0
44
0
45
0
46
4
79
2
49
10
49
-5
47
0.1
98
0
451
0
0
HATCH
5
302
100
AcDbEntity
8
HATCHTEST
100
AcDbHatch
10
0
20
0
30
0
210
0
220
0
230
1
2
STAGGER
70
0
71
0
91
1
92
2
72
0
73
1
93
4
10
70
20
0
10
130
20
0
10
130
20
40
10
70
20
40
97
0
75
1
76
1
52
0
41
1
77
0
78
1
53
0
43
70
44
0
45
6
46
4
79
2
49
10
49
-5
47
0.1
98
0
451
0
0
HATCH
5
303
100
AcDbEntity
8
HATCHTEST
100
AcDbHatch
10
0
20
0
30
0
210
0
220
0
230
1
2
GRIDTEST
70
0
71
0
91
1
92
2
72
0
73
1
93
4
10
140
20
0
10
200
20
0
10
200
20
40
10
140
20
40
97
0
75
1
76
1
52
0
41
1
77
0
78
2
53
0
43
140
44
0
45
0
46
5
79
0
53
90
43
140
44
0
45
-5
46
3.061616997868383e-16
79
0
47
0.1
98
0
451
0
0
HATCH
5
304
100
AcDbEntity
8
HATCHTEST
100
AcDbHatch
10
0
20
0
30
0
210
0
220
0
230
1
2
ANSI31
70
0
71
0
91
1
92
2
72
0
73
1
93
4
10
0
20
60
10
40
20
60
10
40
20
90
10
0
20
90
97
0
75
1
76
1
52
0
41
1
77
0
78
1
53
45
43
0
44
0
45
-2.245064030267288
46
2.245064030267288
79
0
47
0.1
98
0
451
0
0
HATCH
5
305
100
AcDbEntity
8
HATCHTEST
100
AcDbHatch
10
0
20
0
30
0
210
0
220
0
230
1
2
ANSI31
70
0
71
0
91
1
92
2
72
0
73
1
93
4
10
50
20
60
10
90
20
60
10
90
20
90
10
50
20
90
97
0
75
1
76
1
52
0
41
1
77
0
78
1
53
45
43
0
44
0
45
-2.245064030267288
46
2.245064030267288
79
0
47
0.1
98
0
451
0
0
HATCH
5
306
100
AcDbEntity
8
HATCHTEST
100
AcDbHatch
10
0
20
0
30
0
210
0
220
0
230
1
2
ANSI31
70
0
71
0
91
2
92
2
72
0
73
1
93
4
10
140
20
60
10
200
20
60
10
200
20
100
10
140
20
100
97
0
92
2
72
0
73
1
93
4
10
155
20
70
10
185
20
70
10
185
20
90
10
155
20
90
97
0
75
1
76
1
52
0
41
1
77
0
78
1
53
45
43
0
44
0
45
-2.245064030267288
46
2.245064030267288
79
0
47
0.1
98
0
451
0
0
ENDSEC
0
EOF
